<svg width="85" height="55" viewBox="0 0 85 55" fill="none" xmlns="http://www.w3.org/2000/svg">
<path d="M67.5743 20.8139C66.2927 20.8139 65.0444 20.9573 63.8431 21.2274L61.5502 15.5547V0H48.7628V5.51594H56.0343V15.0996L41.6212 32.5629L32.4735 11.0596H37.4386V5.54369H19.1678V11.0596H26.4792L28.7275 16.3448L24.3965 22.5065C22.1601 21.4223 19.6521 20.8139 17.0046 20.8139C7.62809 20.8139 0 28.442 0 37.8183C0 47.1947 7.62809 54.8226 17.0044 54.8226C25.4416 54.8226 32.4623 48.6454 33.784 40.5762H42.1591L57.9707 21.4187L58.7309 23.2994C53.8404 26.2891 50.5695 31.6788 50.5695 37.8182C50.5695 47.1945 58.1976 54.8224 67.5738 54.8224C76.95 54.8224 84.5786 47.1947 84.5786 37.8183C84.5786 28.442 76.9505 20.8139 67.5743 20.8139ZM17.0044 49.3068C10.6696 49.3068 5.51611 44.1531 5.51611 37.8185C5.51611 31.4839 10.6698 26.3302 17.0044 26.3302C18.4697 26.3302 19.87 26.6089 21.1597 27.1111L11.6946 40.5766H28.1559C26.9173 45.5831 22.3885 49.3068 17.0044 49.3068ZM22.314 35.0605L25.6691 30.2875C26.8456 31.6395 27.7122 33.267 28.1559 35.0605H22.314ZM33.784 35.0605C33.1873 31.4181 31.4299 28.1619 28.9046 25.6848L31.2693 22.3205L36.6889 35.0606H33.784V35.0605ZM67.5743 49.3068C61.2395 49.3068 56.086 44.1533 56.086 37.8185C56.086 33.9976 57.9626 30.6085 60.8407 28.5187L65.0174 38.852L70.1313 36.7849L65.9526 26.4467C66.4827 26.3715 67.0237 26.33 67.5743 26.33C73.9091 26.33 79.0626 31.4835 79.0626 37.8183C79.0626 44.1531 73.9089 49.3068 67.5743 49.3068Z" fill="#fff"/>
</svg>
