<svg width="57" height="38" viewBox="0 0 57 38" fill="none" xmlns="http://www.w3.org/2000/svg">
<path d="M46.3266 15.8205C45.8987 15.8205 45.4767 15.8467 45.0619 15.8963L47.928 25.9551L44.7252 26.8676L41.8594 16.8103C42.8532 16.346 43.9303 16.0317 45.0618 15.8964L40.8129 0.984375H34.1603V4.3146H38.2989L39.2493 7.65026H23.2797L22.4555 4.3146H24.289V0.984375H14.4497V4.3146H19.025L20.1976 9.06006L15.0714 16.7783C16.0925 17.2464 17.0268 17.8724 17.843 18.6246L13.7773 24.7461H21.1319C20.7506 22.3418 19.5575 20.2045 17.843 18.6245L21.2817 13.4471L24.0737 24.7461H21.1319V24.7462C21.218 25.2888 21.2632 25.8448 21.2632 26.4113C21.2632 26.9778 21.2181 27.5338 21.1319 28.0764H26.9462L40.6831 12.6816L41.8596 16.8102C38.246 18.4981 35.7358 22.1668 35.7358 26.4113C35.7358 32.2511 40.4868 37.0021 46.3266 37.0021C52.1664 37.0021 56.9174 32.2512 56.9174 26.4113C56.9174 20.5714 52.1664 15.8205 46.3266 15.8205ZM27.0596 22.9473L24.1026 10.9804H37.7377L27.0596 22.9473Z" fill="white"/>
<path d="M15.0718 16.7781C13.7313 16.1635 12.2415 15.8203 10.6728 15.8203C4.83304 15.8203 0.0820312 20.5713 0.0820312 26.4111C0.0820312 32.2509 4.83304 37.0019 10.6728 37.0019C15.9462 37.0019 20.3311 33.1277 21.1324 28.0762H7.56804L15.0718 16.7781Z" fill="white"/>
</svg>
