<svg width="44" height="56" viewBox="0 0 44 56" fill="none" xmlns="http://www.w3.org/2000/svg">
<path d="M0.21875 47.0625H8.53623V55.6683H0.21875V47.0625Z" fill="white"/>
<path d="M7.41016 18.4751C7.41016 20.3082 8.8969 21.7949 10.7304 21.7949C10.7496 21.7949 10.7696 21.7941 10.7892 21.7941C11.0801 24.6144 12.4183 27.126 14.4066 28.9315C16.3961 30.7367 19.0366 31.8374 21.9354 31.8374C27.7317 31.8374 32.4999 27.436 33.0816 21.7941C33.1008 21.7941 33.1212 21.7949 33.1404 21.7949C34.9739 21.7949 36.4606 20.3082 36.4606 18.4751C36.4606 18.0791 36.3909 17.6994 36.2637 17.3477H7.60711C7.47984 17.6994 7.41016 18.0791 7.41016 18.4751Z" fill="white"/>
<path d="M33.1645 29.6719C32.6959 30.2527 32.1805 30.8002 31.6201 31.3084C28.9642 33.719 25.5242 35.0476 21.9348 35.0476C18.3455 35.0476 14.9055 33.719 12.2495 31.3084C11.6891 30.8002 11.1738 30.2527 10.7052 29.6719C4.66937 31.3113 0.21875 36.8373 0.21875 43.3843V43.8537H8.53582V40.6236H11.7446V55.6683H32.125V40.6232H35.3339V43.8537H43.6509V43.3839C43.6509 36.8369 39.2003 31.3113 33.1645 29.6719Z" fill="white"/>
<path d="M35.3359 47.0625H43.653V55.6683H35.3359V47.0625Z" fill="white"/>
<path d="M36.4963 12.8801C36.4524 12.6552 36.4032 12.4319 36.3485 12.2104C35.8011 9.97503 34.7454 7.9375 33.3108 6.2271C32.2751 4.99155 31.0413 3.92751 29.6601 3.0817V8.47661H26.4513V1.6104C25.5687 1.32749 24.6507 1.12553 23.7056 1.01287V7.04996H20.4968V0.976562C19.434 1.07921 18.4038 1.29452 17.4182 1.6104V8.47661H14.2093V3.0817C12.8277 3.92709 11.5943 4.99155 10.5586 6.2271C9.12404 7.9375 8.06834 9.97503 7.52088 12.2104C7.46622 12.4319 7.41698 12.6552 7.37317 12.8801C7.29097 13.2949 7.22754 13.7155 7.18164 14.1411H36.6878C36.6419 13.7155 36.5785 13.2949 36.4963 12.8801Z" fill="white"/>
</svg>
