<svg width="84" height="70" viewBox="0 0 84 70" fill="none" xmlns="http://www.w3.org/2000/svg">
<path d="M68.1877 0H15.6079L0 23.9024L41.8978 69.6813L83.7956 23.9024L68.1877 0ZM75.3011 20.8888H62.4843L67.3109 8.65238L75.3011 20.8888ZM62.6935 5.46472L57.6656 18.2118L47.5532 5.46472H62.6935ZM52.814 20.8888H30.9816L41.8978 7.12884L52.814 20.8888ZM36.2424 5.46455L26.13 18.2116L21.1021 5.46455H36.2424ZM16.4847 8.65238L21.3112 20.8888H8.49445L16.4847 8.65238ZM9.65171 26.3537H23.4667L33.9302 52.8812L9.65171 26.3537ZM29.3415 26.3537H54.454L41.8978 58.187L29.3415 26.3537ZM49.8654 52.8811L60.3289 26.3539H74.1439L49.8654 52.8811Z" fill="#fff"/>
</svg>
