<svg width="80" height="80" viewBox="0 0 80 80" fill="none" xmlns="http://www.w3.org/2000/svg">
<path d="M79.9503 43.0991L70.5092 30.9797H64.8324V11.4283H46.7455V0H33.2527V11.4283H9.48916L0.0478516 23.5477L9.48901 35.6671H15.1658V55.2185H33.2525V79.9998H46.7454V55.2187H70.5089L79.9503 43.0991ZM37.9401 4.68745H42.0581V11.4283H37.9401V4.68745ZM11.7795 30.9797L5.98982 23.5477L11.7795 16.1158H60.1449V30.9797H11.7795ZM42.0581 75.3125H37.9401V55.2187H42.0581V75.3125ZM68.2187 35.6671L74.0084 43.0991L68.2187 50.5311H19.8534V35.6671H68.2187Z" fill="white"/>
<path d="M27.6162 40.7559H59.2579V45.4433H27.6162V40.7559Z" fill="white"/>
<path d="M20.7324 21.2031H52.3741V25.8906H20.7324V21.2031Z" fill="white"/>
</svg>
