<svg width="768" height="340" viewBox="0 0 768 340" fill="none" xmlns="http://www.w3.org/2000/svg">
<g opacity="0.6">
<path d="M1452.69 15.8479C1459.37 74.9948 1465.7 130.895 1448.3 148.024C1443.69 152.507 1437.5 154.208 1429.37 153.126C1385.77 147.375 1345.88 98.802 1307.2 51.8369C1269.26 5.73756 1229.89 -41.9696 1185.98 -50.9977C1111.99 -66.1787 1084.59 -27.0669 1018.39 67.4507C1001.1 92.1855 981.527 120.012 957.624 152.136C869.001 270.739 792.129 250.519 702.95 227.083C675.56 219.357 647.745 213.225 619.646 208.717C540.362 197.401 475.363 212.273 441.318 249.529C415.56 277.727 407.953 318.014 419.302 365.999C443.637 468.834 418.096 475.45 362.127 489.982C354.273 492.023 346.171 494.125 337.389 496.691C296.943 508.502 263.238 537.627 242.242 578.563C217.319 627.291 210.887 692.281 223.689 766.485C251.117 925.963 356.066 996.673 480.156 1066.39C563.182 1113.08 583.158 1158.28 587.92 1178.75M1471.7 -179H1463.35C1435.52 -136.271 1444.8 -56.0684 1452.81 15.786" stroke="black"/>
<mask id="path-2-inside-1" fill="white">
<path d="M1523.96 240.349C1524.58 241.864 1526.47 246.533 1519.17 253.706C1512.8 259.89 1493.19 260.693 1478.97 260.693C1464.19 260.693 1446.84 259.797 1426.74 258.777C1402.31 257.509 1374.67 256.087 1346.1 256.087C1261.12 256.087 1201.13 269.196 1157.29 297.363C1084.74 343.926 1073.18 404.248 1065.51 444.132C1060.13 472.114 1057.1 484.326 1042.44 482.44C1037.17 481.733 1031.86 481.372 1026.55 481.358C968.075 481.358 934.431 525.633 909.879 557.943C898.098 573.402 887.924 586.883 880.287 586.883C880.02 586.914 879.75 586.914 879.483 586.883C868.815 585.522 863.465 568.641 856.075 545.328C846.427 514.936 833.223 473.289 799.24 432.198C772.214 399.517 740.272 373.453 712.071 350.728C676.51 321.881 648.402 299.094 648.402 277.08C648.271 275.87 648.404 274.645 648.794 273.492C649.184 272.339 649.82 271.284 650.659 270.402C652.928 268.92 655.629 268.244 658.328 268.485C668.192 268.485 684.395 273.463 703.165 279.275C735.139 289.107 774.904 301.382 817.02 301.382C855.951 301.382 888.759 290.932 917.331 269.474C958.736 238.339 996.245 194.281 1032.49 151.706C1082.36 92.6518 1129.92 36.875 1173.71 36.875C1208.93 36.875 1235.55 75.8013 1263.69 116.985C1294.61 162.002 1326.34 208.565 1373.25 208.565C1467.62 208.565 1517.37 225.044 1523.65 240.38"/>
</mask>
<path d="M1519.17 253.706L1519.86 254.423L1519.87 254.419L1519.17 253.706ZM1426.74 258.777L1426.69 259.775L1426.69 259.775L1426.74 258.777ZM1157.29 297.363L1157.83 298.204L1157.83 298.204L1157.29 297.363ZM1065.51 444.132L1066.49 444.321L1065.51 444.132ZM1042.44 482.44L1042.31 483.432L1042.31 483.432L1042.44 482.44ZM1026.55 481.358L1026.55 480.358H1026.55V481.358ZM909.879 557.943L910.675 558.549L910.675 558.548L909.879 557.943ZM880.287 586.883V585.883H880.23L880.173 585.889L880.287 586.883ZM879.483 586.883L879.356 587.875L879.369 587.876L879.483 586.883ZM856.075 545.328L857.028 545.026L857.028 545.026L856.075 545.328ZM799.24 432.198L798.469 432.835L798.469 432.835L799.24 432.198ZM712.071 350.728L711.441 351.505L711.443 351.507L712.071 350.728ZM648.402 277.08H649.402V277.026L649.396 276.972L648.402 277.08ZM650.659 270.402L650.112 269.565L650.015 269.628L649.935 269.713L650.659 270.402ZM658.328 268.485L658.239 269.481L658.284 269.485H658.328V268.485ZM703.165 279.275L702.869 280.231L702.871 280.231L703.165 279.275ZM917.331 269.474L917.932 270.274L917.932 270.274L917.331 269.474ZM1032.49 151.706L1033.25 152.354L1033.25 152.351L1032.49 151.706ZM1263.69 116.985L1262.86 117.549L1262.87 117.551L1263.69 116.985ZM1523.03 240.727C1523.32 241.432 1523.86 242.768 1523.55 244.747C1523.22 246.735 1522.01 249.512 1518.47 252.993L1519.87 254.419C1523.62 250.727 1525.11 247.583 1525.52 245.065C1525.93 242.537 1525.22 240.782 1524.89 239.971L1523.03 240.727ZM1518.47 252.988C1517.04 254.378 1514.79 255.529 1511.9 256.454C1509.02 257.374 1505.59 258.044 1501.88 258.527C1494.48 259.492 1486.07 259.693 1478.97 259.693V261.693C1486.09 261.693 1494.6 261.493 1502.14 260.51C1505.91 260.019 1509.47 259.329 1512.5 258.359C1515.52 257.394 1518.11 256.125 1519.86 254.423L1518.47 252.988ZM1478.97 259.693C1464.22 259.693 1446.9 258.799 1426.79 257.778L1426.69 259.775C1446.78 260.795 1464.16 261.693 1478.97 261.693V259.693ZM1426.79 257.778C1402.37 256.51 1374.7 255.087 1346.1 255.087V257.087C1374.64 257.087 1402.26 258.507 1426.69 259.775L1426.79 257.778ZM1346.1 255.087C1261.04 255.087 1200.83 268.205 1156.75 296.521L1157.83 298.204C1201.44 270.187 1261.21 257.087 1346.1 257.087V255.087ZM1156.75 296.521C1083.84 343.32 1072.21 404.007 1064.53 443.944L1066.49 444.321C1074.15 404.489 1085.65 344.532 1157.83 298.204L1156.75 296.521ZM1064.53 443.944C1061.83 457.99 1059.75 467.87 1056.57 474.028C1054.99 477.075 1053.19 479.116 1051 480.306C1048.8 481.494 1046.09 481.902 1042.57 481.449L1042.31 483.432C1046.12 483.922 1049.28 483.51 1051.95 482.064C1054.61 480.621 1056.66 478.214 1058.34 474.946C1061.69 468.473 1063.81 458.256 1066.49 444.321L1064.53 443.944ZM1042.58 481.449C1037.26 480.737 1031.91 480.372 1026.55 480.358L1026.55 482.358C1031.82 482.372 1037.08 482.73 1042.31 483.432L1042.58 481.449ZM1026.55 480.358C967.512 480.358 933.588 525.09 909.083 557.338L910.675 558.548C935.275 526.177 968.637 482.358 1026.55 482.358V480.358ZM909.084 557.337C903.181 565.083 897.727 572.27 892.8 577.526C890.337 580.153 888.039 582.262 885.913 583.708C883.778 585.162 881.909 585.883 880.287 585.883V587.883C882.483 587.883 884.751 586.919 887.039 585.362C889.337 583.797 891.75 581.57 894.259 578.894C899.272 573.546 904.796 566.263 910.675 558.549L909.084 557.337ZM880.173 585.889C879.981 585.911 879.788 585.911 879.597 585.889L879.369 587.876C879.712 587.916 880.058 587.916 880.401 587.876L880.173 585.889ZM879.609 585.891C874.822 585.28 871.025 581.166 867.447 573.896C863.893 566.675 860.732 556.711 857.028 545.026L855.122 545.631C858.808 557.259 862.017 567.392 865.652 574.779C869.264 582.118 873.475 587.125 879.356 587.875L879.609 585.891ZM857.028 545.026C847.378 514.625 834.128 472.813 800.011 431.561L798.469 432.835C832.319 473.764 845.476 515.246 855.122 545.631L857.028 545.026ZM800.011 431.561C772.912 398.792 740.894 372.671 712.698 349.949L711.443 351.507C739.649 374.235 771.516 400.242 798.469 432.835L800.011 431.561ZM712.701 349.951C694.903 335.514 679.044 322.65 667.626 310.652C656.18 298.625 649.402 287.673 649.402 277.08H647.402C647.402 288.501 654.679 299.949 666.177 312.031C677.703 324.142 693.678 337.095 711.441 351.505L712.701 349.951ZM649.396 276.972C649.28 275.906 649.398 274.828 649.741 273.812L647.847 273.172C647.41 274.463 647.261 275.834 647.408 277.188L649.396 276.972ZM649.741 273.812C650.085 272.797 650.645 271.868 651.384 271.091L649.935 269.713C648.996 270.7 648.283 271.881 647.847 273.172L649.741 273.812ZM651.206 271.239C653.287 269.88 655.764 269.26 658.239 269.481L658.417 267.489C655.494 267.228 652.569 267.96 650.112 269.565L651.206 271.239ZM658.328 269.485C663.125 269.485 669.538 270.7 677.157 272.669C684.759 274.633 693.479 277.323 702.869 280.231L703.461 278.32C694.082 275.416 685.315 272.71 677.657 270.732C670.016 268.758 663.395 267.485 658.328 267.485V269.485ZM702.871 280.231C734.827 290.058 774.732 302.382 817.02 302.382V300.382C775.077 300.382 735.45 288.157 703.459 278.32L702.871 280.231ZM817.02 302.382C856.148 302.382 889.171 291.873 917.932 270.274L916.731 268.675C888.348 289.99 855.755 300.382 817.02 300.382V302.382ZM917.932 270.274C959.443 239.059 997.024 194.908 1033.25 152.354L1031.72 151.058C995.465 193.653 958.03 237.619 916.73 268.675L917.932 270.274ZM1033.25 152.351C1058.2 122.811 1082.51 94.159 1106.05 72.8871C1129.62 51.5851 1152.21 37.875 1173.71 37.875V35.875C1151.41 35.875 1128.33 50.0533 1104.71 71.4033C1081.05 92.7833 1056.65 121.547 1031.72 151.061L1033.25 152.351ZM1173.71 37.875C1190.92 37.875 1206.14 47.3823 1220.64 62.1858C1235.14 76.9897 1248.78 96.9363 1262.86 117.549L1264.52 116.42C1250.46 95.8496 1236.72 75.7414 1222.07 60.7863C1207.42 45.8309 1191.71 35.875 1173.71 35.875V37.875ZM1262.87 117.551C1278.31 140.037 1294.03 163.021 1311.77 180.371C1329.53 197.734 1349.43 209.565 1373.25 209.565V207.565C1350.16 207.565 1330.74 196.115 1313.17 178.941C1295.6 161.755 1279.99 138.949 1264.51 116.418L1262.87 117.551ZM1373.25 209.565C1420.38 209.565 1456.33 213.681 1481.25 219.694C1493.71 222.701 1503.38 226.174 1510.31 229.824C1517.27 233.495 1521.29 237.259 1522.73 240.759L1524.58 240.001C1522.87 235.833 1518.32 231.787 1511.24 228.055C1504.12 224.301 1494.28 220.779 1481.72 217.75C1456.6 211.689 1420.48 207.565 1373.25 207.565V209.565Z" fill="black" mask="url(#path-2-inside-1)"/>
<path d="M755.559 352.873L755.559 352.871C755.619 348.81 757.087 344.332 761.878 340.85C766.695 337.349 774.929 334.812 788.61 334.812C813.752 334.812 851.958 344.002 886.615 358.404C903.938 365.602 920.354 374.095 933.793 383.377C947.241 392.665 957.667 402.716 963.062 413.015C972.888 432.047 975.569 445.377 971.729 455.081L971.729 455.083C969.389 461.044 964.786 465.283 958.7 468.764C952.604 472.251 945.073 474.949 936.929 477.86L936.929 477.86C930.277 480.242 923.4 482.813 916.334 485.911L916.329 485.914L908.938 489.253L908.935 489.254C903.827 491.607 899.896 493.414 896.624 494.635C893.354 495.855 890.783 496.474 888.395 496.474C884.622 496.474 881.857 495.042 879.016 491.944C876.143 488.813 873.234 484.026 869.187 477.36L869.185 477.357C868.806 476.743 868.417 476.111 868.015 475.46C863.181 467.62 856.673 457.065 846.841 443.318L846.434 443.609L846.841 443.318C827.42 416.17 806.11 404.302 789.03 394.791L789.022 394.786L788.853 394.692L788.853 394.692L788.826 394.677L788.826 394.677C779.321 389.399 770.906 384.721 764.905 378.465C758.935 372.24 755.345 364.44 755.559 352.873Z" stroke="black"/>
<path d="M1402.28 -35.132C1417.74 52.8 1402.93 68.8467 1395.91 71.6602C1386.17 75.5869 1371.17 63.9615 1355.06 39.7833C1327.23 -1.74011 1234.9 -126.898 1134.81 -126.898C1124.81 -126.912 1114.85 -125.623 1105.18 -123.064C1041.79 -106.399 992.348 -21.9607 948.748 52.5527C919.279 102.888 891.45 150.409 863.743 169.177C829.451 192.366 768.194 178.916 697.228 163.364C627.993 148.214 549.544 130.993 481.547 146.019C423.722 158.819 387.018 194.437 372.392 251.884C360.023 299.931 365.589 353.729 369.299 389.347L369.887 394.974C373.257 429.201 342.861 441.692 304.363 457.522C265.061 473.662 220.533 491.965 196.136 538.683C143.568 638.271 138.497 752.731 181.912 852.721C207.793 912.394 210.855 955.463 191.467 988.299C166.729 1030.41 103.895 1056.69 0.0898438 1068.41M1389.2 -178.934C1387.81 -160.383 1387.9 -118.148 1402.37 -35.132" stroke="black"/>
<path d="M1032.89 -178.934C1011.24 -160.383 962.168 -114.654 933.967 -55.5382C929.607 -46.4481 925.309 -37.2035 921.134 -28.299C888.45 41.7621 857.559 107.958 796.457 123.758C763.679 132.229 722.986 117.45 675.86 100.353C623.54 81.3686 564.232 59.8494 501.089 64.7036C494.255 65.2292 487.143 65.8476 479.753 66.4969C401.829 73.1752 295.086 82.3271 222.234 18.5424C175.696 -22.2081 149.103 -88.6209 143.073 -178.934" stroke="black"/>
<path d="M456.469 -5.97592C478.949 -6.84164 502.203 -7.70734 523.632 -7.1508C583.559 -5.60488 631.859 15.5742 674.284 34.2489C695.496 43.5245 715.503 52.3362 734.86 57.7779C742.745 60.1531 751.033 60.8874 759.213 59.9356C767.392 58.9837 775.29 56.3658 782.418 52.2435C818.628 31.6518 839.903 -23.4139 851.344 -65.9886C865.908 -119.354 907.746 -160.383 929.577 -178.934M219.637 -178.934C220.874 -152.715 228.048 -87.9407 267.906 -43.8201C307.177 -0.534275 383.06 -3.22418 456.531 -5.97592" stroke="black"/>
<path d="M0.0898438 988.484C34.5061 988.855 112.615 983.599 128.478 929.585C137.724 898.233 130.148 865.089 120.593 823.163C109.059 772.519 94.6805 709.476 107.575 626.955C130.488 480.031 188.714 457.151 262.402 428.15L266.051 426.697C323.071 404.25 320.164 372.373 316.144 328.252C314.474 313.09 313.772 297.837 314.042 282.586C315.155 251.296 331.915 223.593 346.695 199.106C363.672 171.001 378.36 146.73 367.537 123.263C358.198 103.104 324.184 97.1989 284.758 90.335C238.19 82.2962 180.458 72.2477 144.991 34.4035C90.8152 -23.7849 75.1377 -141.677 71.4271 -178.934" stroke="black"/>
<path d="M0.0898438 -88.9297C46.473 80.7815 150.278 102.424 214.844 115.812L218.462 116.585C257.021 124.624 279.347 137.702 286.676 156.501C293.231 173.537 287.665 193.974 269.143 219.265C248.27 248.39 245.457 265.736 241.622 289.728C238.309 313.524 232.292 336.863 223.687 359.295C211.473 391.419 188.653 402.89 162.245 416.154C128.076 433.282 89.331 452.73 60.6971 524.585C27.2085 608.621 46.7203 687.648 62.3669 751.124C70.7468 785.134 77.9825 814.599 77.1786 840.787C76.6529 862.43 69.3244 879.126 55.5331 890.257C38.526 903.984 15.5509 906.303 0.0898438 906.025" stroke="black"/>
<path d="M108.011 379.261C145.55 336.81 168.649 285.454 179.132 258.679C192.15 225.194 194.593 207.2 188.006 194.492C178.699 176.621 151.611 170.128 102.321 158.07L90.4161 155.195C40.9408 143.26 14.2551 104.149 0.0927662 69.9219M0 445.612C38.9309 438.624 75.1716 416.394 107.918 379.384" stroke="black"/>
<path d="M0.0898438 164.473C12.9225 180.056 33.3929 198.916 60.326 204.017C81.6004 208.099 102.349 214.004 110.049 229.741C117.192 244.366 112.708 266.411 95.9483 299.184C70.9632 347.695 24.6111 369.74 0.0898438 378.366" stroke="black"/>
<path d="M0.0898438 221.059C20.0346 227.737 51.0185 241.558 48.9776 262.397C47.0296 282.617 18.6431 310.011 0.0898438 325.903" stroke="black"/>
</g>
</svg>
