<svg width="375" height="340" viewBox="0 0 375 340" fill="none" xmlns="http://www.w3.org/2000/svg">
<g opacity="0.6">
<path d="M1452.69 15.8479C1459.37 74.9948 1465.7 130.895 1448.3 148.024C1443.69 152.507 1437.5 154.208 1429.37 153.126C1385.77 147.375 1345.88 98.802 1307.2 51.8369C1269.26 5.73756 1229.89 -41.9696 1185.98 -50.9977C1111.99 -66.1787 1084.59 -27.0669 1018.39 67.4507C1001.1 92.1855 981.527 120.012 957.624 152.136C869.001 270.739 792.129 250.519 702.95 227.083C675.56 219.357 647.745 213.225 619.646 208.717C540.362 197.401 475.363 212.273 441.318 249.529C415.56 277.727 407.953 318.014 419.302 365.999C443.637 468.834 418.096 475.45 362.127 489.982C354.273 492.023 346.171 494.125 337.389 496.691C296.943 508.502 263.238 537.627 242.242 578.563C217.319 627.291 210.887 692.281 223.689 766.485C251.117 925.963 356.066 996.673 480.156 1066.39C563.182 1113.08 583.158 1158.28 587.92 1178.75M1471.7 -179H1463.35C1435.52 -136.271 1444.8 -56.0684 1452.81 15.786" stroke="black"/>
<path d="M1402.28 -35.132C1417.74 52.8 1402.93 68.8467 1395.91 71.6602C1386.17 75.5869 1371.17 63.9615 1355.06 39.7833C1327.23 -1.74011 1234.9 -126.898 1134.81 -126.898C1124.81 -126.912 1114.85 -125.623 1105.18 -123.064C1041.79 -106.399 992.348 -21.9607 948.748 52.5527C919.279 102.888 891.45 150.409 863.743 169.177C829.451 192.366 768.194 178.916 697.228 163.364C627.993 148.214 549.544 130.993 481.547 146.019C423.722 158.819 387.018 194.437 372.392 251.884C360.023 299.931 365.589 353.729 369.299 389.347L369.887 394.974C373.257 429.201 342.861 441.692 304.363 457.522C265.061 473.662 220.533 491.965 196.136 538.683C143.568 638.271 138.497 752.731 181.912 852.721C207.793 912.394 210.855 955.463 191.467 988.299C166.729 1030.41 103.895 1056.69 0.0898438 1068.41M1389.2 -178.934C1387.81 -160.383 1387.9 -118.148 1402.37 -35.132" stroke="black"/>
<path d="M1032.89 -178.934C1011.24 -160.383 962.168 -114.654 933.967 -55.5382C929.607 -46.4481 925.309 -37.2035 921.134 -28.299C888.45 41.7621 857.559 107.958 796.457 123.758C763.679 132.229 722.986 117.45 675.86 100.353C623.54 81.3686 564.232 59.8494 501.089 64.7036C494.255 65.2292 487.143 65.8476 479.753 66.4969C401.829 73.1752 295.086 82.3271 222.234 18.5424C175.696 -22.2081 149.103 -88.6209 143.073 -178.934" stroke="black"/>
<path d="M456.469 -5.97592C478.949 -6.84164 502.203 -7.70734 523.632 -7.1508C583.559 -5.60488 631.859 15.5742 674.284 34.2489C695.496 43.5245 715.503 52.3362 734.86 57.7779C742.745 60.1531 751.033 60.8874 759.213 59.9356C767.392 58.9837 775.29 56.3658 782.418 52.2435C818.628 31.6518 839.903 -23.4139 851.344 -65.9886C865.908 -119.354 907.746 -160.383 929.577 -178.934M219.637 -178.934C220.874 -152.715 228.048 -87.9407 267.906 -43.8201C307.177 -0.534275 383.06 -3.22418 456.531 -5.97592" stroke="black"/>
<path d="M0.0898438 988.484C34.5061 988.855 112.615 983.599 128.478 929.585C137.724 898.233 130.148 865.089 120.593 823.163C109.059 772.519 94.6805 709.476 107.575 626.955C130.488 480.031 188.714 457.151 262.402 428.15L266.051 426.697C323.071 404.25 320.164 372.373 316.144 328.252C314.474 313.09 313.772 297.837 314.042 282.586C315.155 251.296 331.915 223.593 346.695 199.106C363.672 171.001 378.36 146.73 367.537 123.263C358.198 103.104 324.184 97.1989 284.758 90.335C238.19 82.2962 180.458 72.2477 144.991 34.4035C90.8152 -23.7849 75.1377 -141.677 71.4271 -178.934" stroke="black"/>
<path d="M0.0898438 -88.9297C46.473 80.7815 150.278 102.424 214.844 115.812L218.462 116.585C257.021 124.624 279.347 137.702 286.676 156.501C293.231 173.537 287.665 193.974 269.143 219.265C248.27 248.39 245.457 265.736 241.622 289.728C238.309 313.524 232.292 336.863 223.687 359.295C211.473 391.419 188.653 402.89 162.245 416.154C128.076 433.282 89.331 452.73 60.6971 524.585C27.2085 608.621 46.7203 687.648 62.3669 751.124C70.7468 785.134 77.9825 814.599 77.1786 840.787C76.6529 862.43 69.3244 879.126 55.5331 890.257C38.526 903.984 15.5509 906.303 0.0898438 906.025" stroke="black"/>
<path d="M108.011 379.261C145.55 336.81 168.649 285.454 179.132 258.679C192.15 225.194 194.593 207.2 188.006 194.492C178.699 176.621 151.611 170.128 102.321 158.07L90.4161 155.195C40.9408 143.26 14.2551 104.149 0.0927662 69.9219M0 445.612C38.9309 438.624 75.1716 416.394 107.918 379.384" stroke="black"/>
<path d="M0.0898438 164.473C12.9225 180.056 33.3929 198.916 60.326 204.017C81.6004 208.099 102.349 214.004 110.049 229.741C117.192 244.366 112.708 266.411 95.9483 299.184C70.9632 347.695 24.6111 369.74 0.0898438 378.366" stroke="black"/>
<path d="M0.0898438 221.059C20.0346 227.737 51.0185 241.558 48.9776 262.397C47.0296 282.617 18.6431 310.011 0.0898438 325.903" stroke="black"/>
</g>
</svg>
