<svg width="1440" height="900" viewBox="0 0 1440 900" fill="none" xmlns="http://www.w3.org/2000/svg">
<g opacity="0.15">
<path d="M295.967 646.824L296.058 646.695V646.579C299.611 641.587 305.158 639.018 312.639 639.018C315.348 639.044 318.047 639.336 320.699 639.888L320.699 639.888L320.703 639.889C330.53 641.84 336.964 646.177 339.957 652.633C342.18 657.463 342.538 663.55 340.97 670.889C339.403 678.228 335.916 686.782 330.496 696.512C328.973 699.106 326.816 701.269 324.226 702.798C321.636 704.327 318.7 705.172 315.694 705.253C313.355 705.252 310.002 704.693 306.508 702.162C303.009 699.626 299.329 695.083 296.399 687.041C293.331 678.588 291.763 670.596 291.697 663.68C291.631 656.758 293.069 650.951 295.967 646.824Z" stroke="#808080"/>
<path d="M829.56 258.212L829.56 258.211C834.849 246.861 841.131 237.823 847.799 231.629C854.47 225.433 861.494 222.113 868.28 222.113H868.78V222.072C877.325 222.27 885.203 227.546 892.226 238.068C899.128 248.419 900.999 257.868 897.944 266.171C895.653 272.387 890.599 278.053 882.76 283.121C874.921 288.189 864.327 292.64 851.015 296.433C849.257 296.922 847.439 297.165 845.613 297.156V297.155L845.601 297.156C842.128 297.225 838.692 296.435 835.598 294.855C832.508 293.276 829.855 290.958 827.877 288.107C824.676 283.111 822.272 273.82 829.56 258.212Z" stroke="#808080"/>
<mask id="path-3-inside-1" fill="white">
<path d="M861.675 658.195C855.903 667.79 843.549 679.239 817.31 679.239C808.432 679.135 799.593 678.047 790.954 675.994C739.635 664.406 704.078 640.858 695.919 613.093C690.077 593.508 697.634 572.742 718.379 551.327C734.976 534.176 751.897 525.485 768.725 525.508C800.018 525.508 831.704 555.058 862.857 613.325C866.37 620.319 868.108 628.071 867.918 635.896C867.728 643.72 865.616 651.378 861.768 658.195"/>
</mask>
<path d="M817.31 679.239L817.298 680.239H817.31V679.239ZM790.954 675.994L791.186 675.021L791.175 675.019L790.954 675.994ZM695.919 613.093L696.878 612.811L696.877 612.807L695.919 613.093ZM718.379 551.327L719.098 552.023L719.098 552.022L718.379 551.327ZM768.725 525.508L768.724 526.508H768.725V525.508ZM862.857 613.325L863.751 612.876L863.745 612.864L863.739 612.853L862.857 613.325ZM860.818 657.679C855.223 666.981 843.189 678.239 817.31 678.239V680.239C843.908 680.239 856.584 668.599 862.532 658.71L860.818 657.679ZM817.321 678.239C808.517 678.136 799.752 677.057 791.186 675.021L790.723 676.967C799.433 679.037 808.346 680.134 817.298 680.239L817.321 678.239ZM791.175 675.019C765.601 669.244 744.002 660.499 727.803 649.776C711.596 639.047 700.868 626.39 696.878 612.811L694.959 613.375C699.128 627.561 710.259 640.561 726.699 651.444C743.149 662.333 764.988 671.156 790.734 676.97L791.175 675.019ZM696.877 612.807C691.183 593.715 698.476 573.31 719.098 552.023L717.661 550.631C696.792 572.174 688.972 593.302 694.96 613.379L696.877 612.807ZM719.098 552.022C735.587 534.983 752.264 526.485 768.724 526.508L768.727 524.508C751.529 524.484 734.365 533.369 717.661 550.631L719.098 552.022ZM768.725 526.508C784.036 526.508 799.548 533.733 815.161 548.298C830.777 562.865 846.426 584.714 861.975 613.796L863.739 612.853C848.135 583.669 832.364 561.61 816.526 546.835C800.684 532.058 784.707 524.508 768.725 524.508V526.508ZM861.964 613.773C865.403 620.622 867.104 628.211 866.918 635.871L868.917 635.92C869.111 627.931 867.337 620.017 863.751 612.876L861.964 613.773ZM866.918 635.871C866.732 643.532 864.664 651.03 860.897 657.703L862.639 658.686C866.567 651.727 868.723 643.909 868.917 635.92L866.918 635.871Z" fill="#808080" mask="url(#path-3-inside-1)"/>
<mask id="path-5-inside-2" fill="white">
<path d="M806.18 627.507C802.703 633.324 796.144 636.384 787.173 636.384C783.143 636.339 779.131 635.841 775.213 634.9C752.195 629.685 735.645 618.908 732.029 606.764C729.526 598.374 732.91 589.288 742.089 579.809C749.483 572.184 756.924 568.221 764.226 568.221C778.133 568.221 792.389 581.756 806.667 608.432C808.153 611.392 808.886 614.673 808.801 617.984C808.716 621.295 807.816 624.534 806.18 627.414"/>
</mask>
<path d="M787.173 636.384L787.162 637.384H787.173V636.384ZM775.213 634.9L775.446 633.928L775.434 633.925L775.213 634.9ZM732.029 606.764L732.988 606.478L732.987 606.478L732.029 606.764ZM742.089 579.809L741.371 579.113L741.371 579.113L742.089 579.809ZM806.667 608.432L807.561 607.984L807.555 607.972L807.549 607.96L806.667 608.432ZM805.322 626.994C802.084 632.412 795.922 635.384 787.173 635.384V637.384C796.366 637.384 803.323 634.236 807.039 628.02L805.322 626.994ZM787.184 635.384C783.229 635.34 779.292 634.851 775.446 633.928L774.979 635.873C778.971 636.831 783.057 637.338 787.162 637.383L787.184 635.384ZM775.434 633.925C764.012 631.337 754.237 627.378 746.891 622.593C739.53 617.797 734.702 612.236 732.988 606.478L731.071 607.049C732.973 613.436 738.227 619.336 745.8 624.269C753.387 629.212 763.396 633.248 774.992 635.875L775.434 633.925ZM732.987 606.478C730.634 598.59 733.741 589.867 742.807 580.505L741.371 579.113C732.079 588.709 728.418 598.157 731.071 607.05L732.987 606.478ZM742.807 580.505C750.105 572.979 757.304 569.221 764.226 569.221V567.221C756.544 567.221 748.861 571.389 741.371 579.113L742.807 580.505ZM764.226 569.221C770.834 569.221 777.641 572.434 784.619 579.049C791.598 585.664 798.672 595.615 805.786 608.904L807.549 607.96C800.384 594.574 793.191 584.418 785.995 577.597C778.799 570.775 771.524 567.221 764.226 567.221V569.221ZM805.773 608.881C807.186 611.694 807.882 614.812 807.802 617.959L809.801 618.01C809.89 614.534 809.121 611.091 807.561 607.984L805.773 608.881ZM807.802 617.959C807.721 621.105 806.865 624.183 805.311 626.92L807.05 627.908C808.767 624.885 809.712 621.485 809.801 618.01L807.802 617.959Z" fill="#808080" mask="url(#path-5-inside-2)"/>
<path d="M324.482 780.128L324.472 780.126C310.839 776.709 295.659 762.647 283.871 742.907C272.098 723.191 263.773 697.918 263.773 672.237C263.773 655.889 265.169 640.297 271.539 628.799C274.717 623.063 279.132 618.349 285.238 615.063C291.348 611.776 299.178 609.905 309.209 609.904C320.29 610.152 331.308 611.647 342.053 614.362L342.053 614.362L342.063 614.364C372.117 621.353 383.261 636.171 387.347 647.308L387.816 647.136L387.347 647.308C393.692 664.602 387.649 684.378 378.82 696.268C373.959 702.424 368.319 707.924 362.042 712.627L362.035 712.633L362.028 712.638C357.113 716.604 352.656 720.207 349.366 724.639C346.06 729.093 343.94 734.37 343.647 741.677L343.646 741.677L343.646 741.689C343.547 747.663 343.897 753.637 344.693 759.558C345.181 763.856 345.609 767.653 345.472 770.882C345.335 774.1 344.639 776.672 342.948 778.575C341.857 779.657 340.545 780.49 339.1 781.016C337.652 781.543 336.105 781.749 334.569 781.619L334.555 781.618L334.541 781.618C331.141 781.523 327.764 781.023 324.482 780.128Z" stroke="#808080"/>
<path d="M766.53 381.673L766.53 381.674C762.209 386.245 757.742 388.47 753.24 388.47C748.754 388.47 744.55 386.145 740.741 381.448C735.285 374.69 735.278 364.471 740.966 352.497C744.3 345.518 749.555 338.285 755.312 332.801C761.049 327.338 767.188 323.703 772.362 323.649L772.408 323.672H772.526C774.263 323.672 776.604 324.125 778.593 325.987C780.58 327.848 782.288 331.185 782.619 337.105C782.997 344.274 781.392 352.874 778.473 360.968C775.553 369.064 771.336 376.605 766.53 381.673Z" stroke="#808080"/>
<mask id="path-9-inside-3" fill="white">
<path d="M405.896 612.23C413.615 649.707 410.671 673.718 408.098 694.902C404.946 720.721 402.211 743.017 421.635 780.053C435.543 806.475 452.927 826.615 468.342 844.392C492.124 871.856 512.661 895.566 513.704 933.02C514.446 959.766 510.691 978.77 503.134 986.558C502.21 987.611 501.078 988.461 499.81 989.055C498.541 989.65 497.163 989.975 495.763 990.011C489.273 990.011 481.855 983.058 475.319 970.844C471.981 964.609 469.292 959.047 466.951 954.134C455.199 929.752 449.752 918.534 401.77 902.519C345.212 883.653 329.636 871.903 327.735 825.039C326.993 806.498 313.085 795.976 295.492 782.603C267.677 761.512 229.709 732.61 217.98 652.813C213.761 624.004 219.44 600.317 234.901 582.448C251.498 563.235 278.942 552.318 310.35 552.318C351.679 552.318 397.783 572.922 405.896 612.3"/>
</mask>
<path d="M233.21 581.62L233.303 581.689L233.903 580.889L233.81 580.82L233.21 581.62ZM408.098 694.902L409.091 695.023L409.091 695.022L408.098 694.902ZM421.635 780.053L420.749 780.518L420.75 780.519L421.635 780.053ZM468.342 844.392L469.098 843.737L469.097 843.737L468.342 844.392ZM513.704 933.02L514.703 932.992V932.992L513.704 933.02ZM503.134 986.558L502.416 985.861L502.399 985.879L502.382 985.898L503.134 986.558ZM495.763 990.011V991.011H495.776L495.789 991.011L495.763 990.011ZM475.319 970.844L476.2 970.372L476.2 970.372L475.319 970.844ZM466.951 954.134L467.854 953.703L467.852 953.699L466.951 954.134ZM401.77 902.519L402.087 901.57L402.087 901.57L401.77 902.519ZM327.735 825.039L326.736 825.079L326.736 825.08L327.735 825.039ZM295.492 782.603L296.097 781.806L296.096 781.806L295.492 782.603ZM217.98 652.813L216.991 652.958L216.991 652.958L217.98 652.813ZM234.901 582.448L235.657 583.102L235.658 583.102L234.901 582.448ZM404.917 612.432C412.602 649.749 409.674 673.631 407.105 694.781L409.091 695.022C411.668 673.805 414.627 649.666 406.876 612.029L404.917 612.432ZM407.106 694.781C405.531 707.678 404.042 719.813 405.405 733.371C406.77 746.947 410.987 761.903 420.749 780.518L422.521 779.589C412.859 761.167 408.731 746.457 407.395 733.171C406.058 719.867 407.513 707.945 409.091 695.023L407.106 694.781ZM420.75 780.519C434.718 807.054 452.174 827.273 467.586 845.047L469.097 843.737C453.68 825.957 436.368 805.895 422.52 779.587L420.75 780.519ZM467.586 845.046C491.397 872.545 511.672 895.999 512.704 933.047L514.703 932.992C513.649 895.133 492.85 871.168 469.098 843.737L467.586 845.046ZM512.704 933.047C513.074 946.374 512.321 957.733 510.55 966.704C508.772 975.707 505.993 982.175 502.416 985.861L503.852 987.254C507.831 983.153 510.708 976.225 512.512 967.092C514.321 957.928 515.076 946.411 514.703 932.992L512.704 933.047ZM502.382 985.898C501.549 986.848 500.529 987.614 499.386 988.15L500.234 989.961C501.628 989.308 502.871 988.374 503.886 987.217L502.382 985.898ZM499.386 988.15C498.242 988.686 497 988.979 495.737 989.012L495.789 991.011C497.327 990.971 498.841 990.614 500.234 989.961L499.386 988.15ZM495.763 989.011C492.876 989.011 489.633 987.457 486.242 984.278C482.864 981.111 479.436 976.419 476.2 970.372L474.437 971.316C477.738 977.483 481.287 982.374 484.874 985.737C488.449 989.088 492.159 991.011 495.763 991.011V989.011ZM476.2 970.372C472.874 964.159 470.193 958.613 467.854 953.703L466.048 954.564C468.391 959.481 471.088 965.06 474.437 971.316L476.2 970.372ZM467.852 953.699C461.987 941.532 457.612 932.448 448.611 924.442C439.626 916.448 426.109 909.589 402.087 901.57L401.454 903.468C425.413 911.465 438.61 918.221 447.282 925.936C455.939 933.637 460.162 942.353 466.05 954.568L467.852 953.699ZM402.087 901.57C373.78 892.128 355.973 884.534 344.962 873.57C334.026 862.68 329.681 848.336 328.734 824.999L326.736 825.08C327.69 848.606 332.084 863.569 343.55 874.987C354.943 886.33 373.203 894.044 401.454 903.468L402.087 901.57ZM328.734 824.999C327.97 805.902 313.584 795.098 296.097 781.806L294.887 783.399C312.587 796.853 326.016 807.094 326.736 825.079L328.734 824.999ZM296.096 781.806C282.189 771.261 265.852 758.839 251.512 739.134C237.181 719.44 224.813 692.421 218.969 652.667L216.991 652.958C222.876 693.002 235.356 720.332 249.895 740.311C264.426 760.279 280.98 772.854 294.888 783.399L296.096 781.806ZM218.97 652.668C214.782 624.073 220.431 600.701 235.657 583.102L234.145 581.794C218.45 599.933 212.741 623.935 216.991 652.958L218.97 652.668ZM235.658 583.102C252.019 564.16 279.156 553.318 310.35 553.318V551.318C278.728 551.318 250.976 562.309 234.144 581.794L235.658 583.102ZM310.35 553.318C330.863 553.318 352.547 558.434 370.085 568.412C387.618 578.387 400.934 593.172 404.917 612.502L406.876 612.098C402.745 592.051 388.953 576.845 371.074 566.673C353.199 556.504 331.166 551.318 310.35 551.318V553.318Z" fill="#808080" mask="url(#path-9-inside-3)"/>
<path d="M570.588 1015.85C573.37 993.28 578.145 933.206 558.72 883.237C548.266 856.375 531.531 834.682 513.798 811.714C490.364 781.352 466.118 749.948 456.221 704.452C451.949 683.933 448.853 663.187 446.949 642.315C442.104 596.958 437.932 557.789 394.447 505.294C366.307 471.363 357.036 440.723 368.278 418.729C378.546 398.727 405.156 388.599 441.339 391.125C513.543 396.039 572.558 458.662 621.745 582.542C658.253 674.461 699.466 687.37 761.842 706.908C780.038 712.61 800.644 719.053 823.175 728.324C895.194 757.897 897.349 817.809 899.157 870.675C899.783 888.22 900.363 904.814 903.399 919.509C912.207 962.27 934.761 998.796 946.698 1015.88" stroke="#808080"/>
<path d="M846.562 889.587C841.532 840.592 836.363 789.927 775.887 754.768C747.747 738.405 722.876 729.274 700.925 721.371C663.838 707.858 634.446 697.174 607.442 659.373C599.978 648.92 593.094 638.769 586.441 628.942C558.765 588.197 537.765 557.094 511.062 557.094C506.188 557.136 501.366 558.103 496.853 559.944C490.872 562.262 486.7 567.755 484.429 576.168C472.375 621.34 517.529 741.279 548.682 780.124C550.629 782.557 552.692 785.083 554.825 787.702C590.73 831.993 650.255 905.394 633.426 1015.9M883.927 1015.9C867.6 988.116 856.478 957.587 851.105 925.813C849.065 913.877 847.813 901.547 846.585 889.61" stroke="#808080"/>
<path d="M686.226 1015.97C696.216 933.436 664.901 854.635 630.456 815.235C612.561 794.839 606.118 777.874 612.561 768.603C615.76 763.968 621.926 761.65 630.526 761.65C640.099 761.65 652.894 764.524 667.914 770.249L670.742 771.315C727.903 793.009 772.917 810.136 783.232 892.784C791.09 955.616 809.008 998.725 817.167 1015.88" stroke="#808080"/>
<mask id="path-14-inside-4" fill="white">
<path d="M598.287 728.117C597.381 730.261 595.84 732.076 593.872 733.319C591.904 734.562 589.602 735.173 587.277 735.07C583.49 734.93 579.78 733.965 576.405 732.242C552.554 721.025 516.139 636.592 519.848 610.773C520.636 605.373 522.814 605.048 523.533 604.932C524.079 604.859 524.628 604.82 525.179 604.816C537.441 604.816 549.54 626.116 561.246 646.72C568.432 659.328 575.849 672.4 583.823 681.671C599.817 700.351 602.552 718.753 598.287 728.024"/>
</mask>
<path d="M587.277 735.07L587.321 734.071L587.314 734.07L587.277 735.07ZM576.405 732.242L576.86 731.352L576.846 731.344L576.831 731.337L576.405 732.242ZM519.848 610.773L518.858 610.628L518.858 610.631L519.848 610.773ZM523.533 604.932L523.4 603.941L523.387 603.943L523.374 603.945L523.533 604.932ZM525.179 604.816V603.816L525.171 603.816L525.179 604.816ZM561.246 646.72L560.377 647.214L560.377 647.215L561.246 646.72ZM583.823 681.671L584.582 681.02L584.581 681.018L583.823 681.671ZM597.366 727.727C596.539 729.683 595.133 731.34 593.338 732.474L594.406 734.165C596.547 732.813 598.222 730.838 599.208 728.506L597.366 727.727ZM593.338 732.474C591.542 733.607 589.443 734.165 587.321 734.071L587.232 736.069C589.762 736.181 592.265 735.516 594.406 734.165L593.338 732.474ZM587.314 734.07C583.673 733.936 580.105 733.008 576.86 731.352L575.951 733.133C579.455 734.921 583.308 735.924 587.24 736.069L587.314 734.07ZM576.831 731.337C571.134 728.658 564.515 721.486 557.812 711.6C551.142 701.763 544.497 689.404 538.703 676.572C532.909 663.74 527.978 650.463 524.729 638.799C521.468 627.09 519.942 617.147 520.837 610.915L518.858 610.631C517.899 617.308 519.534 627.601 522.803 639.336C526.084 651.115 531.052 664.488 536.88 677.395C542.707 690.3 549.406 702.766 556.157 712.722C562.874 722.629 569.751 730.217 575.98 733.147L576.831 731.337ZM520.837 610.917C521.215 608.328 521.904 607.125 522.441 606.56C522.945 606.03 523.401 605.967 523.692 605.92L523.374 603.945C522.947 604.014 521.954 604.17 520.992 605.182C520.063 606.159 519.268 607.817 518.858 610.628L520.837 610.917ZM523.666 605.923C524.17 605.856 524.678 605.82 525.186 605.816L525.171 603.816C524.579 603.821 523.987 603.862 523.4 603.941L523.666 605.923ZM525.179 605.816C527.947 605.816 530.793 607.019 533.735 609.262C536.676 611.504 539.641 614.732 542.626 618.648C548.597 626.483 554.514 636.894 560.377 647.214L562.116 646.226C556.273 635.942 550.287 625.401 544.216 617.436C541.18 613.451 538.089 610.066 534.947 607.671C531.807 605.277 528.542 603.816 525.179 603.816V605.816ZM560.377 647.215C567.547 659.795 575.014 672.963 583.065 682.323L584.581 681.018C576.684 671.837 569.316 658.861 562.115 646.225L560.377 647.215ZM583.063 682.321C590.974 691.561 595.578 700.7 597.685 708.633C599.798 716.588 599.382 723.25 597.378 727.606L599.195 728.442C601.456 723.527 601.805 716.353 599.618 708.119C597.425 699.863 592.665 690.46 584.582 681.02L583.063 682.321Z" fill="#808080" mask="url(#path-14-inside-4)"/>
<path d="M925.352 443.524L925.352 443.524C917.002 447.792 907.875 454.918 899.101 461.793C892.443 467 885.998 472.041 880.058 475.782C874.102 479.534 868.742 481.919 864.246 481.919L864.237 481.92C862.464 481.954 860.717 481.489 859.196 480.577C858.438 480.118 857.937 479.425 857.719 478.467C857.498 477.492 857.567 476.226 858.006 474.65L858.006 474.65L858.009 474.638C859.257 469.669 863.327 462.833 869.125 455.321C874.91 447.826 882.374 439.712 890.345 432.194C898.316 424.676 906.785 417.765 914.577 412.67C922.392 407.561 929.45 404.331 934.62 404.072C938.806 403.877 942.183 404.51 944.659 405.846C947.119 407.174 948.711 409.208 949.338 411.89L949.339 411.894C950.324 415.991 948.97 421.534 945.009 427.267C941.059 432.987 934.549 438.839 925.352 443.524Z" stroke="#808080"/>
<path d="M488.851 510.646L488.85 510.647C484.753 511.632 479.209 510.272 473.472 506.309C467.749 502.356 461.89 495.848 457.193 486.663C452.988 478.37 445.932 469.337 439.141 460.642L438.946 460.393L438.946 460.392C433.737 453.735 428.696 447.29 424.954 441.351C421.202 435.395 418.816 430.036 418.816 425.541H418.816L418.816 425.532C418.785 423.77 419.242 422.033 420.136 420.513C420.595 419.757 421.288 419.255 422.247 419.035C423.223 418.811 424.49 418.875 426.066 419.303L426.066 419.303L426.075 419.305C431.044 420.558 437.883 424.632 445.397 430.432C452.895 436.22 461.013 443.684 468.533 451.654C476.053 459.625 482.966 468.091 488.06 475.879C493.169 483.691 496.396 490.743 496.65 495.907C496.856 500.093 496.229 503.47 494.895 505.948C493.57 508.411 491.536 510.009 488.851 510.646Z" stroke="#808080"/>
<path d="M368.207 791.923L368.206 791.912C372.617 790.876 378.526 792.275 384.59 796.368C390.662 800.466 396.838 807.234 401.718 816.81C405.76 824.801 412.62 833.594 419.255 842.099C419.438 842.334 419.621 842.569 419.804 842.803L419.804 842.804L419.871 842.889C425.148 849.632 430.255 856.157 434.05 862.226C437.869 868.334 440.304 873.898 440.304 878.697L440.304 878.705C440.335 880.782 439.782 882.826 438.708 884.604L438.706 884.607C438.244 885.384 437.498 886.167 436.29 886.616C435.077 887.067 433.348 887.199 430.89 886.579L430.89 886.579C425.828 885.308 418.865 881.157 411.215 875.242C403.582 869.34 395.319 861.726 387.665 853.593C380.009 845.46 372.973 836.821 367.787 828.871C362.59 820.905 359.304 813.709 359.041 808.436V808.436V808.432V808.429V808.426V808.423V808.419V808.416V808.413V808.41V808.406V808.403V808.4V808.397V808.393V808.39V808.387V808.383V808.38V808.377V808.374V808.37V808.367V808.364V808.361V808.357V808.354V808.351V808.348V808.344V808.341V808.338V808.335V808.331V808.328V808.325V808.322V808.318V808.315V808.312V808.309V808.305V808.302V808.299V808.296V808.292V808.289V808.286V808.282V808.279V808.276V808.273V808.269V808.266V808.263V808.26V808.256V808.253V808.25V808.247V808.243V808.24V808.237V808.234V808.23V808.227V808.224V808.221V808.217V808.214V808.211V808.208V808.204V808.201V808.198V808.195V808.191V808.188V808.185V808.182V808.178V808.175V808.172V808.169V808.165V808.162V808.159V808.155V808.152V808.149V808.146V808.142V808.139V808.136V808.133V808.129V808.126V808.123V808.12V808.116V808.113V808.11V808.107V808.103V808.1V808.097V808.094V808.09V808.087V808.084V808.081V808.077V808.074V808.071V808.068V808.064V808.061V808.058V808.055V808.051V808.048V808.045V808.042V808.038V808.035V808.032V808.029V808.025V808.022V808.019V808.016V808.012V808.009V808.006V808.003V807.999V807.996V807.993V807.99V807.986V807.983V807.98V807.977V807.973V807.97V807.967V807.964V807.96V807.957V807.954V807.951V807.947V807.944V807.941V807.938V807.934V807.931V807.928V807.925V807.921V807.918V807.915V807.912V807.908V807.905V807.902V807.899V807.895V807.892V807.889V807.886V807.882V807.879V807.876V807.873V807.87V807.866V807.863V807.86V807.857V807.853V807.85V807.847V807.844V807.84V807.837V807.834V807.831V807.827V807.824V807.821V807.818V807.814V807.811V807.808V807.805V807.801V807.798V807.795V807.792V807.789V807.785V807.782V807.779V807.776V807.772V807.769V807.766V807.763V807.759V807.756V807.753V807.75V807.746V807.743V807.74V807.737V807.733V807.73V807.727V807.724V807.721V807.717V807.714V807.711V807.708V807.704V807.701V807.698V807.695V807.691V807.688V807.685V807.682V807.679V807.675V807.672V807.669V807.666V807.662V807.659V807.656V807.653V807.649V807.646V807.643V807.64V807.637V807.633V807.63V807.627V807.624V807.62V807.617V807.614V807.611V807.608V807.604V807.601V807.598V807.595V807.591V807.588V807.585V807.582V807.579V807.575V807.572V807.569V807.566V807.562V807.559V807.556V807.553V807.55V807.546V807.543V807.54V807.537V807.533V807.53V807.527V807.524V807.521V807.517V807.514V807.511V807.508V807.505V807.501V807.498V807.495V807.492V807.488V807.485V807.482V807.479V807.476V807.472V807.469V807.466V807.463V807.46V807.456V807.453V807.45V807.447V807.443V807.44V807.437V807.434V807.431V807.427V807.424V807.421V807.418V807.415V807.411V807.408V807.405V807.402V807.399V807.395V807.392V807.389V807.386V807.383V807.379V807.376V807.373V807.37V807.367V807.363V807.36V807.357V807.354V807.351V807.347V807.344V807.341V807.338V807.335V807.331V807.328V807.325V807.322V807.319V807.315V807.312V807.309V807.306V807.303V807.299V807.296V807.293V807.29V807.287V807.283V807.28V807.277V807.274V807.271V807.267V807.264V807.261V807.258V807.255V807.252V807.248V807.245V807.242V807.239V807.236V807.232V807.229V807.226V807.223V807.22V807.216V807.213V807.21V807.207V807.204V807.201V807.197V807.194V807.191V807.188V807.185V807.181V807.178V807.175V807.172V807.169V807.166V807.162V807.159V807.156V807.153V807.15V807.147V807.143V807.14V807.137V807.134V807.131V807.127V807.124V807.121V807.118V807.115V807.112V807.108V807.105V807.102V807.099V807.096V807.093V807.089V807.086V807.083V807.08V807.077V807.074V807.07V807.067V807.064V807.061V807.058V807.055V807.051V807.048V807.045V807.042V807.039V807.036V807.033V807.029V807.026V807.023V807.02V807.017V807.014V807.01V807.007V807.004V807.001V806.998V806.995V806.991V806.988V806.985V806.982V806.979V806.976V806.973V806.969V806.966V806.963V806.96V806.957V806.954V806.951V806.947V806.944V806.941V806.938V806.935V806.932V806.929V806.925V806.922V806.919V806.916V806.913V806.91V806.907V806.903V806.9V806.897V806.894V806.891V806.888V806.885V806.881V806.878V806.875V806.872V806.869V806.866V806.863V806.859V806.856V806.853V806.85V806.847V806.844V806.841V806.838V806.834V806.831V806.828V806.825V806.822V806.819V806.816V806.813V806.809V806.806V806.803C359.041 798.636 362.445 793.309 368.207 791.923Z" stroke="#808080"/>
<path d="M1088.95 144.06C1093.95 188.397 1098.71 230.301 1085.66 243.14C1082.2 246.501 1077.57 247.776 1071.47 246.965C1038.79 242.654 1008.89 206.243 979.888 171.038C951.447 136.481 921.939 100.719 889.024 93.9517C833.556 82.5719 813.019 111.891 763.391 182.742C750.434 201.283 735.762 222.142 717.844 246.223C651.411 335.129 593.787 319.971 526.938 302.403C506.406 296.613 485.556 292.016 464.492 288.636C405.06 280.154 356.337 291.302 330.816 319.23C311.508 340.367 305.805 370.566 314.312 406.537C332.554 483.622 313.408 488.582 271.453 499.475C265.566 501.005 259.493 502.581 252.91 504.505C222.591 513.358 197.325 535.191 181.587 565.877C162.904 602.403 158.083 651.121 167.679 706.745C188.239 826.291 266.91 879.296 359.929 931.559C422.166 966.556 437.14 1000.44 440.71 1015.78M1103.2 -2H1096.94C1076.08 30.0303 1083.04 90.1507 1089.04 144.013" stroke="#808080"/>
<path d="M1002.77 1015.9C975.554 980.765 960.198 937.898 958.916 893.478C958.765 872.052 959.802 850.635 962.022 829.324C966.657 777.223 970.853 727.996 934.206 670.865C907.99 630.097 899.924 594.382 910.841 567.659C919.464 546.591 939.908 531.828 969.995 524.967C1012.69 515.256 1050.22 541.724 1086.5 567.334C1107.17 581.936 1128.57 597.024 1150.33 604.765C1185.66 617.303 1209.05 608.566 1233.78 599.295C1251.39 592.713 1269.59 585.899 1293.81 585.899C1330.9 585.899 1354.4 620.849 1373.34 648.917C1384.21 665.001 1393.58 678.907 1403.87 684.701C1414.95 691.183 1427.11 695.59 1439.77 697.704" stroke="#808080"/>
<path d="M1439.79 589.799C1423.4 586.276 1392.53 573.969 1360.24 531.301C1326.63 486.894 1276.01 500.105 1231.34 511.762C1208.72 517.673 1187.3 523.235 1168.75 521.983C1139.97 520.037 1107.58 504.23 1076.27 488.91C1045.6 473.938 1013.92 458.456 984.501 455.165C952.049 451.503 928.87 471.667 908.333 489.443C890.299 505.088 873.262 519.851 852.285 517.719C838.029 516.259 833.324 506.339 831.887 498.297C826.648 469.419 855.391 411.732 922.611 378.705C980.56 350.267 1050.56 356.733 1106.8 361.948C1140.54 365.077 1169.68 367.765 1191.59 363.246C1221.42 357.104 1240.82 335.619 1261.38 312.883C1281.94 290.146 1303.1 266.692 1336.02 258.881C1370 250.789 1405.29 249.858 1439.65 256.146" stroke="#808080"/>
<path d="M1439.68 189.303C1415.43 187.31 1359.66 185.201 1321.81 202.954C1299.19 213.569 1280.41 232.458 1263.86 249.123C1242.81 270.237 1224.64 288.523 1202.64 288.523C1188.76 288.523 1178.81 284.815 1172.19 277.19C1159.58 262.704 1157.86 234.428 1166.07 176.487C1170.77 143.182 1167.5 111.476 1164.61 83.5247C1161.17 49.8025 1158.07 20.0204 1170.45 -1.95117" stroke="#808080"/>
<path d="M1439.61 104.778C1417.38 106.099 1370.03 111.105 1339.34 130.272C1323.23 140.261 1306.68 157.574 1290.66 174.308C1264.91 201.309 1240.52 226.78 1218.8 222.446C1211.04 220.893 1205.27 210.927 1202.07 193.637C1193.21 145.731 1206.31 38.8399 1245.44 -1.95117" stroke="#808080"/>
<path d="M1235.26 115.321C1235.44 127.349 1238.71 135.322 1244.67 138.497C1261.47 147.142 1266.06 142.113 1281.27 125.403C1295.31 109.682 1310.48 95.0036 1326.65 81.4826C1359.14 54.5205 1398.12 36.5408 1439.72 29.335M1285.81 -2C1256.35 25.279 1234.82 83.754 1235.26 115.274" stroke="#808080"/>
<mask id="path-25-inside-5" fill="white">
<path d="M1142.38 312.348C1142.84 313.484 1144.25 316.984 1138.78 322.361C1134.01 326.996 1119.31 327.599 1108.65 327.599C1097.57 327.599 1084.57 326.927 1069.5 326.162C1051.19 325.212 1030.47 324.145 1009.05 324.145C945.35 324.145 900.382 333.972 867.513 355.086C813.134 389.99 804.465 435.208 798.717 465.106C794.683 486.081 792.412 495.236 781.425 493.822C777.475 493.292 773.495 493.021 769.51 493.011C725.678 493.011 700.459 526.2 682.054 550.42C673.223 562.008 665.597 572.113 659.871 572.113C659.671 572.136 659.469 572.136 659.269 572.113C651.272 571.094 647.262 558.439 641.722 540.964C634.49 518.181 624.592 486.962 599.118 456.16C578.859 431.662 554.915 412.124 533.775 395.089C507.119 373.465 486.049 356.384 486.049 339.882C485.95 338.975 486.05 338.057 486.342 337.193C486.635 336.328 487.112 335.538 487.741 334.876C489.441 333.765 491.466 333.259 493.489 333.439C500.883 333.439 513.029 337.171 527.099 341.528C551.067 348.898 580.876 358.099 612.446 358.099C641.629 358.099 666.223 350.266 687.641 334.181C718.678 310.842 746.795 277.815 773.961 245.901C811.349 201.633 846.999 159.822 879.822 159.822C906.223 159.822 926.181 189.002 947.274 219.873C970.453 253.619 994.236 288.523 1029.4 288.523C1100.14 288.523 1137.44 300.876 1142.14 312.372"/>
</mask>
<path d="M1138.78 322.361L1139.48 323.078L1139.48 323.074L1138.78 322.361ZM1069.5 326.162L1069.45 327.16L1069.45 327.16L1069.5 326.162ZM867.513 355.086L868.053 355.928L868.054 355.928L867.513 355.086ZM798.717 465.106L799.699 465.295L799.699 465.295L798.717 465.106ZM781.425 493.822L781.292 494.813L781.297 494.814L781.425 493.822ZM769.51 493.011L769.513 492.011H769.51V493.011ZM682.054 550.42L682.85 551.026L682.85 551.025L682.054 550.42ZM659.871 572.113V571.113H659.814L659.757 571.12L659.871 572.113ZM659.269 572.113L659.142 573.105L659.155 573.107L659.269 572.113ZM641.722 540.964L642.675 540.662L642.675 540.661L641.722 540.964ZM599.118 456.16L598.347 456.797L598.347 456.797L599.118 456.16ZM533.775 395.089L533.145 395.866L533.148 395.868L533.775 395.089ZM486.049 339.882H487.049V339.828L487.043 339.774L486.049 339.882ZM487.741 334.876L487.194 334.039L487.096 334.103L487.016 334.187L487.741 334.876ZM493.489 333.439L493.4 334.435L493.445 334.439H493.489V333.439ZM527.099 341.528L526.804 342.483L526.805 342.484L527.099 341.528ZM687.641 334.181L688.241 334.981L688.242 334.98L687.641 334.181ZM773.961 245.901L774.722 246.549L774.725 246.546L773.961 245.901ZM947.274 219.873L946.448 220.437L946.45 220.439L947.274 219.873ZM1141.45 312.726C1141.66 313.241 1142.05 314.191 1141.82 315.605C1141.59 317.029 1140.71 319.064 1138.08 321.648L1139.48 323.074C1142.33 320.28 1143.48 317.877 1143.79 315.923C1144.11 313.959 1143.55 312.591 1143.3 311.97L1141.45 312.726ZM1138.09 321.643C1137.05 322.646 1135.41 323.494 1133.26 324.182C1131.12 324.866 1128.56 325.366 1125.79 325.726C1120.26 326.448 1113.97 326.599 1108.65 326.599V328.599C1113.99 328.599 1120.38 328.448 1126.05 327.71C1128.89 327.34 1131.57 326.82 1133.86 326.087C1136.14 325.359 1138.12 324.393 1139.48 323.078L1138.09 321.643ZM1108.65 326.599C1097.6 326.599 1084.63 325.928 1069.55 325.163L1069.45 327.16C1084.51 327.925 1097.54 328.599 1108.65 328.599V326.599ZM1069.55 325.163C1051.24 324.213 1030.49 323.145 1009.05 323.145V325.145C1030.44 325.145 1051.13 326.21 1069.45 327.16L1069.55 325.163ZM1009.05 323.145C945.268 323.145 900.075 332.981 866.973 354.245L868.054 355.928C900.689 334.964 945.432 325.145 1009.05 325.145V323.145ZM866.973 354.245C812.228 389.384 803.493 434.967 797.735 464.918L799.699 465.295C805.437 435.449 814.041 390.597 868.053 355.928L866.973 354.245ZM797.735 464.918C795.707 475.461 794.154 482.825 791.79 487.401C790.624 489.658 789.306 491.142 787.718 492.002C786.134 492.861 784.16 493.166 781.552 492.831L781.297 494.814C784.183 495.186 786.613 494.876 788.671 493.761C790.725 492.647 792.287 490.796 793.567 488.319C796.094 483.427 797.693 475.727 799.699 465.295L797.735 464.918ZM781.558 492.831C777.565 492.295 773.542 492.021 769.513 492.011L769.508 494.011C773.449 494.021 777.385 494.289 781.292 494.813L781.558 492.831ZM769.51 492.011C725.116 492.011 699.616 525.657 681.258 549.815L682.85 551.025C701.302 526.743 726.24 494.011 769.51 494.011V492.011ZM681.259 549.814C676.831 555.624 672.752 560.999 669.069 564.928C667.228 566.891 665.52 568.457 663.948 569.527C662.366 570.603 661.016 571.113 659.871 571.113V573.113C661.59 573.113 663.339 572.36 665.074 571.18C666.818 569.993 668.642 568.308 670.528 566.296C674.297 562.276 678.446 556.804 682.85 551.026L681.259 549.814ZM659.757 571.12C659.633 571.134 659.507 571.134 659.383 571.12L659.155 573.107C659.431 573.139 659.709 573.139 659.985 573.107L659.757 571.12ZM659.395 571.121C655.944 570.681 653.149 567.709 650.471 562.268C647.818 556.876 645.454 549.427 642.675 540.662L640.769 541.266C643.53 549.975 645.941 557.592 648.677 563.151C651.388 568.661 654.597 572.526 659.142 573.105L659.395 571.121ZM642.675 540.661C635.441 517.871 625.497 486.486 599.889 455.523L598.347 456.797C623.688 487.438 633.539 518.491 640.769 541.266L642.675 540.661ZM599.889 455.523C579.557 430.937 555.538 411.342 534.403 394.311L533.148 395.868C554.292 412.907 578.161 432.387 598.347 456.797L599.889 455.523ZM534.405 394.313C521.059 383.487 509.185 373.855 500.64 364.876C492.066 355.867 487.049 347.72 487.049 339.882H485.049C485.049 348.547 490.566 357.191 499.191 366.255C507.845 375.347 519.834 385.068 533.145 395.866L534.405 394.313ZM487.043 339.774C486.96 339.012 487.044 338.24 487.29 337.513L485.395 336.872C485.056 337.875 484.94 338.939 485.054 339.99L487.043 339.774ZM487.29 337.513C487.535 336.786 487.937 336.121 488.465 335.565L487.016 334.187C486.287 334.954 485.734 335.87 485.395 336.872L487.29 337.513ZM488.288 335.713C489.8 334.725 491.601 334.275 493.4 334.435L493.578 332.443C491.331 332.243 489.082 332.805 487.194 334.039L488.288 335.713ZM493.489 334.439C497.051 334.439 501.832 335.343 507.541 336.818C513.233 338.288 519.763 340.303 526.804 342.483L527.395 340.573C520.366 338.396 513.788 336.366 508.041 334.881C502.311 333.401 497.321 332.439 493.489 332.439V334.439ZM526.805 342.484C550.755 349.848 580.703 359.099 612.446 359.099V357.099C581.048 357.099 551.379 347.948 527.393 340.572L526.805 342.484ZM612.446 359.099C641.826 359.099 666.635 351.207 688.241 334.981L687.04 333.381C665.811 349.324 641.433 357.099 612.446 357.099V359.099ZM688.242 334.98C719.384 311.562 747.574 278.443 774.722 246.549L773.199 245.252C746.015 277.188 717.971 310.122 687.04 333.382L688.242 334.98ZM774.725 246.546C793.431 224.399 811.645 202.935 829.274 187.003C846.936 171.041 863.81 160.822 879.822 160.822V158.822C863.011 158.822 845.649 169.509 827.933 185.519C810.185 201.559 791.88 223.135 773.197 245.255L774.725 246.546ZM879.822 160.822C892.626 160.822 903.972 167.893 914.824 178.971C925.676 190.049 935.887 204.981 946.448 220.437L948.1 219.309C937.567 203.894 927.253 188.801 916.253 177.571C905.252 166.341 893.419 158.822 879.822 158.822V160.822ZM946.45 220.439C958.024 237.29 969.821 254.541 983.143 267.567C996.478 280.606 1011.45 289.523 1029.4 289.523V287.523C1012.18 287.523 997.683 278.987 984.542 266.137C971.387 253.275 959.703 236.202 948.098 219.307L946.45 220.439ZM1029.4 289.523C1064.72 289.523 1091.65 292.607 1110.3 297.108C1119.63 299.36 1126.86 301.957 1132.02 304.68C1137.23 307.424 1140.18 310.211 1141.22 312.75L1143.07 311.993C1141.76 308.785 1138.28 305.716 1132.96 302.911C1127.6 300.084 1120.2 297.438 1110.77 295.164C1091.91 290.615 1064.82 287.523 1029.4 287.523V289.523Z" fill="#808080" mask="url(#path-25-inside-5)"/>
<path d="M1439.7 531.719C1422.43 525.461 1389.54 509.747 1355.24 473.105C1323.48 439.151 1267.01 452.686 1217.2 464.645C1188.48 471.598 1161.34 478.042 1145.34 472.873C1127.01 466.917 1111.73 458.179 1096.95 449.696C1077.08 438.34 1056.57 426.52 1027.71 420.656C1007.22 416.391 995.258 409.276 995.721 401.558C996.231 393.261 1012.74 383.55 1048.48 380.699C1076.29 378.382 1106.43 380.514 1135.33 382.6C1170.1 385.08 1202.92 387.444 1223.65 380.653C1239.5 375.484 1255.35 361.764 1272.11 347.232C1295.01 327.416 1320.98 304.934 1352.94 298.955C1381.87 293.741 1411.64 295.739 1439.61 304.772" stroke="#808080"/>
<path d="M1439.93 461.585C1415.5 450.229 1360.12 427.284 1311.14 427.284H1308.02C1283.51 427.793 1254.7 431.525 1226.89 435.141C1181.48 441.051 1138.6 446.729 1131.25 435.141C1126.78 428.187 1125.87 422.277 1128.54 417.804C1134.68 407.537 1158.83 403.898 1200.39 406.888C1244.69 410.086 1269.79 393.283 1294.04 377.036C1309.08 366.955 1324.64 356.525 1344.57 351.194C1381.47 341.344 1420.71 345.609 1440 348.877" stroke="#808080"/>
<path d="M1439.72 421.419C1420.22 413.731 1399.87 408.379 1379.11 405.474C1359.82 402.576 1340.98 393.491 1337.94 385.657C1337.58 384.881 1337.46 384.018 1337.57 383.171C1337.69 382.325 1338.05 381.53 1338.61 380.883C1342.09 376.595 1358.92 368.344 1439.72 380.512" stroke="#808080"/>
<path d="M820.355 231.83L820.355 231.83C838.124 207.84 856.167 195.83 873.938 195.83H873.985C891.771 195.83 909.14 207.854 925.33 231.835L925.331 231.836C935.977 247.52 942.858 259.446 946.452 268.794C950.047 278.143 950.324 284.83 947.891 290.099C945.986 294.222 942.388 297.475 936.678 299.991C930.959 302.51 923.153 304.276 912.893 305.433C890.469 307.929 865.335 313.799 841.907 331.488C818.478 349.18 796.807 378.655 781.23 428.269C779.986 432.228 777.766 435.277 774.727 437.339C771.686 439.405 767.79 440.504 763.164 440.504C752.565 440.504 739.968 434.995 729.096 425.678C718.233 416.368 709.15 403.303 705.539 388.276C701.957 373.369 709.794 356.143 723.392 337.794C736.885 319.588 755.934 300.425 774.706 281.539L775.061 281.182C775.062 281.182 775.062 281.182 775.062 281.182C792.623 263.53 809.226 246.838 820.355 231.83Z" stroke="#808080"/>
<path d="M566.499 396.7L566.499 396.699C566.544 393.686 567.631 390.37 571.184 387.787C574.765 385.185 580.906 383.285 591.149 383.285C609.974 383.285 638.596 390.168 664.567 400.96C677.546 406.353 689.844 412.716 699.909 419.667C709.983 426.625 717.779 434.145 721.81 441.84C729.173 456.102 731.157 466.05 728.301 473.269L728.3 473.27C726.561 477.703 723.137 480.861 718.588 483.463C714.03 486.07 708.397 488.089 702.289 490.272L702.289 490.272C697.301 492.058 692.143 493.986 686.842 496.31L686.837 496.313L681.297 498.816L681.294 498.817C677.463 500.582 674.521 501.934 672.074 502.847C669.629 503.76 667.717 504.218 665.949 504.218C663.163 504.218 661.122 503.165 659.011 500.863C656.867 498.527 654.694 494.952 651.658 489.95L651.656 489.947C651.372 489.487 651.08 489.013 650.779 488.525C647.155 482.647 642.275 474.732 634.902 464.424L634.495 464.715L634.902 464.424C620.327 444.05 604.333 435.143 591.527 428.012L591.519 428.007L591.393 427.937L591.392 427.937L591.372 427.926L591.372 427.926C584.242 423.966 577.953 420.469 573.47 415.795C569.018 411.154 566.34 405.339 566.499 396.7Z" stroke="#808080"/>
<path d="M1056.2 1015.78C1039.55 995.735 999.035 941.362 995.929 884.069C994.33 853.406 996.555 827.495 998.687 802.441C1001.65 767.907 1004.23 738.079 995.906 704.704C990.899 684.54 980.167 665.605 969.783 647.272C951.239 614.477 935.152 586.132 963.895 566.362C969.444 562.56 976.037 560.576 982.763 560.684C1007.36 560.684 1038.39 583.212 1070.96 606.736C1098.92 626.993 1127.84 647.944 1152.81 653.646C1181.04 660.089 1203.18 657.957 1224.66 655.963C1250.16 653.507 1274.29 651.189 1307.74 662.36C1339.1 672.836 1359.94 695.526 1380.11 717.475C1397.4 736.294 1415.22 755.67 1439.91 768" stroke="#808080"/>
<path d="M1110.97 1015.88C1067.3 969.083 1042.87 916.935 1053.02 814.656C1058.82 755.602 1039.72 712.678 1027.06 684.287C1016.75 661.11 1010.51 647.065 1023.03 639.695C1039.02 630.262 1063.17 645.095 1091.13 662.292C1113.38 675.943 1138.58 691.425 1163.63 696.594C1179.03 699.792 1194.28 700.232 1209.04 700.649C1248.08 701.762 1284.96 702.828 1317.55 754.234C1352.31 809.232 1413.74 833.522 1439.72 841.68" stroke="#808080"/>
<path d="M1169.48 1015.88C1149.17 996.085 1100.31 941.713 1096.23 873.735C1094.44 844.092 1090.6 818.806 1087.51 798.457C1081.56 759.265 1077.96 735.602 1095.74 726.609C1111.97 718.521 1133.45 726.007 1160.64 735.486C1179.19 741.929 1200.05 749.23 1223.23 752.776C1264.81 759.15 1274.22 777.529 1288.66 805.341C1294.18 816.428 1300.29 827.206 1306.98 837.626C1330.78 873.828 1409.15 888.36 1439.59 892.717" stroke="#808080"/>
<path d="M1227.33 1015.78C1212.05 997.636 1175.2 952.58 1153.71 914.987C1133.8 880.222 1118.78 829.535 1128.56 800.17C1131.81 790.459 1137.55 783.761 1145.64 780.261C1181.83 764.594 1231.18 786.403 1247.89 814.91C1261.8 838.736 1306.35 905.856 1343.69 930.029C1369.77 946.925 1417.45 958.073 1439.82 962.639" stroke="#808080"/>
<path d="M1288.06 1015.88C1264.25 999.329 1237.78 969.523 1213.88 931.954C1189.98 894.384 1173.99 856.653 1175.03 840.035C1175.29 835.979 1176.52 833.476 1178.7 832.618C1191.77 827.473 1209.02 850.093 1230.8 878.717C1248.81 902.357 1271.21 931.745 1299.02 955.71C1347.7 997.683 1412.79 1004.22 1439.7 1005.03" stroke="#808080"/>
<path d="M729.879 1015.88C730.158 987.696 722.485 946.766 716.18 913.229C710.015 880.249 704.173 849.123 709.226 846.828C710.177 846.388 712.75 846.828 719.194 855.172C749.582 894.109 764.092 986.885 768.01 1015.88" stroke="#808080"/>
<path d="M1051.16 105.844C1062.75 171.759 1051.65 183.787 1046.39 185.896C1039.09 188.84 1027.85 180.125 1015.77 162.001C994.907 130.875 925.694 37.0553 850.662 37.0553C843.166 37.0447 835.701 38.0108 828.456 39.9292C780.938 52.4215 743.874 115.717 711.191 171.573C689.101 209.305 668.239 244.928 647.47 258.996C621.764 276.378 575.846 266.297 522.649 254.639C470.75 243.282 411.944 230.373 360.972 241.636C317.626 251.232 290.112 277.931 279.148 320.994C269.877 357.01 274.049 397.338 276.83 424.037L277.271 428.256C279.797 453.912 257.012 463.276 228.153 475.142C198.692 487.24 165.314 500.961 147.025 535.981C107.62 610.633 103.819 696.434 136.363 771.387C155.764 816.118 158.059 848.404 143.525 873.017C124.982 904.584 77.8809 924.284 0.0673828 933.068M1041.36 -1.95117C1040.32 11.9549 1040.39 43.6143 1051.23 105.844" stroke="#808080"/>
<path d="M0.0673828 970.291C96.0304 969.156 133.604 939.234 164.016 915.015C175.698 905.744 185.805 897.725 197.672 892.672C204.418 889.627 211.713 887.987 219.113 887.852C236.336 887.852 250.522 898.281 270.433 912.929C288.374 926.621 307.38 938.858 327.269 949.525C377.406 975.784 389.691 1002.46 392.589 1015.88" stroke="#808080"/>
<path d="M999.104 -1.95117C1007.26 21.2256 1026.92 81.0911 1015.75 96.8977C1015.26 97.659 1014.61 98.2979 1013.84 98.7644C1013.07 99.2308 1012.2 99.5121 1011.3 99.5862C1004.37 100.142 993.819 89.4348 977.849 73.211C954.762 49.733 921.592 16.0572 879.081 -1.95117" stroke="#808080"/>
<path d="M774.262 -1.95117C758.036 11.9549 721.25 46.2333 700.111 90.5472C696.842 97.3612 693.62 104.291 690.491 110.966C665.99 163.484 642.834 213.106 597.031 224.949C572.461 231.3 541.957 220.221 506.631 207.404C467.412 193.174 422.954 177.043 375.621 180.682C370.498 181.076 365.167 181.539 359.627 182.026C301.215 187.032 221.199 193.892 166.588 146.079C131.703 115.532 111.769 65.7481 107.249 -1.95117" stroke="#808080"/>
<path d="M342.174 127.7C359.025 127.051 376.456 126.402 392.52 126.819C437.441 127.978 473.648 143.854 505.45 157.852C521.351 164.806 536.348 171.411 550.859 175.49C556.769 177.27 562.982 177.821 569.113 177.107C575.245 176.394 581.165 174.431 586.509 171.341C613.652 155.906 629.599 114.628 638.176 82.7135C649.093 42.7104 680.455 11.9549 696.82 -1.95117M164.642 -1.95117C165.569 17.7027 170.947 66.258 200.825 99.3312C230.263 131.779 287.146 129.762 342.22 127.7" stroke="#808080"/>
<path d="M265.288 85.4483C287.401 90.2459 314.637 89.2957 343.496 88.2759C385.219 86.7926 432.644 85.1239 473.625 101.139L487.834 106.748C526.799 122.207 552.528 132.428 571.489 122.972C582.893 117.363 591.006 104.824 596.987 83.571C609.48 39.767 625.776 10.657 633.749 -1.95117M213.32 -1.95117C214.177 19.974 220.76 75.7605 265.311 85.4483" stroke="#808080"/>
<path d="M374.487 44.5877C383.596 44.5877 393.03 44.75 403.113 44.9122C456.426 45.7697 487.765 61.1359 508.441 71.1483C525.061 79.2601 535.097 84.1736 544.67 76.1776C561.36 62.2716 567.015 17.216 568.708 -1.95117M264.848 -1.95117C265.219 11.1205 268.464 20.5998 274.884 27.4601C290.345 43.962 323.816 44.2169 374.556 44.5877" stroke="#808080"/>
<path d="M311.997 6.78646C318.301 11.839 328.663 10.657 345.792 8.73331C356.895 7.50494 370.687 5.9521 387.932 5.58127C417.129 4.72857 446.293 8.13266 474.508 15.6863C482.513 17.7861 490.621 19.4725 498.8 20.7389C505.545 21.6196 510.761 20.1594 514.261 16.3353C518.688 11.5145 519.522 3.98207 519.291 -1.95117M306.549 -1.95117C307.394 1.44242 309.263 4.49342 311.904 6.78646" stroke="#808080"/>
<path d="M0.0673828 873.156C25.8661 873.434 84.4175 869.494 96.3086 829.005C103.239 805.503 97.5603 780.658 90.3978 749.23C81.7519 711.267 70.9734 664.009 80.6393 602.151C97.8152 492.015 141.462 474.864 196.699 453.124L199.434 452.035C242.177 435.209 239.998 411.313 236.985 378.24C235.733 366.874 235.206 355.441 235.409 344.008C236.243 320.553 248.806 299.787 259.886 281.431C272.612 260.363 283.622 242.169 275.509 224.578C268.509 209.467 243.012 205.04 213.458 199.895C178.549 193.869 135.273 186.337 108.686 157.968C68.076 114.35 56.324 25.9768 53.5424 -1.95117" stroke="#808080"/>
<path d="M0.0673828 65.5156C34.8366 192.733 112.65 208.956 161.049 218.992L163.761 219.571C192.666 225.597 209.401 235.401 214.895 249.493C219.809 262.263 215.637 277.583 201.752 296.541C186.106 318.374 183.997 331.376 181.122 349.361C178.639 367.198 174.128 384.694 167.678 401.509C158.522 425.59 141.416 434.188 121.621 444.131C96.0073 456.971 66.9634 471.549 45.4992 525.412C20.3958 588.406 35.022 647.646 46.7509 695.228C53.0325 720.722 58.4565 742.81 57.8538 762.44C57.4598 778.664 51.9662 791.18 41.6282 799.523C28.8795 809.814 11.6571 811.552 0.0673828 811.343" stroke="#808080"/>
<path d="M80.9659 416.479C109.106 384.657 126.421 346.161 134.279 326.09C144.037 300.989 145.868 287.5 140.931 277.975C133.954 264.579 113.649 259.712 76.7009 250.673L67.7768 248.517C30.6896 239.571 10.6857 210.252 0.0695384 184.596M0 466.216C29.183 460.978 56.3493 444.314 80.8964 416.572" stroke="#808080"/>
<path d="M0.0673828 255.473C9.68687 267.154 25.0317 281.292 45.221 285.116C61.1685 288.175 76.7219 292.602 82.4936 304.399C87.8481 315.361 84.4871 331.886 71.9238 356.454C53.1948 392.818 18.4487 409.343 0.0673828 415.809" stroke="#808080"/>
<path d="M0.0673828 297.887C15.0181 302.893 38.244 313.253 36.7141 328.874C35.2538 344.032 13.9751 364.566 0.0673828 376.479" stroke="#808080"/>
</g>
</svg>
