<svg width="1440" height="900" viewBox="0 0 1440 900" fill="none" xmlns="http://www.w3.org/2000/svg">
<mask id="mask0" mask-type="alpha" maskUnits="userSpaceOnUse" x="0" y="0" width="1440" height="1100">
<rect width="1440" height="1100" fill="#1A1A1A"/>
</mask>
<g mask="url(#mask0)">
<g opacity="0.15">
<path d="M295.967 648.842L296.058 648.713V648.597C299.611 643.605 305.158 641.036 312.639 641.035C315.348 641.062 318.047 641.353 320.699 641.905L320.699 641.905L320.703 641.906C330.53 643.858 336.964 648.194 339.957 654.651C342.18 659.481 342.538 665.568 340.97 672.908C339.403 680.246 335.916 688.801 330.496 698.532C328.973 701.125 326.816 703.288 324.226 704.818C321.636 706.347 318.7 707.192 315.694 707.273C313.355 707.272 310.002 706.712 306.508 704.181C303.009 701.646 299.329 697.103 296.399 689.06C293.331 680.607 291.763 672.615 291.697 665.698C291.631 658.776 293.069 652.969 295.967 648.842Z" stroke="#808080"/>
<path d="M829.56 260.217L829.56 260.216C834.849 248.866 841.131 239.827 847.799 233.634C854.47 227.437 861.494 224.117 868.28 224.117H868.78V224.076C877.325 224.274 885.203 229.55 892.226 240.072C899.128 250.424 900.999 259.873 897.944 268.176C895.653 274.392 890.599 280.058 882.76 285.127C874.921 290.195 864.327 294.646 851.015 298.439C849.257 298.928 847.439 299.172 845.613 299.162V299.162L845.601 299.162C842.128 299.232 838.692 298.441 835.598 296.861C832.508 295.283 829.856 292.965 827.877 290.113C824.676 285.117 822.272 275.826 829.56 260.217Z" stroke="#808080"/>
<mask id="path-4-inside-1" fill="white">
<path d="M861.675 660.214C855.903 669.81 843.549 681.259 817.31 681.259C808.432 681.155 799.593 680.067 790.954 678.015C739.635 666.426 704.078 642.878 695.919 615.111C690.077 595.526 697.634 574.759 718.379 553.343C734.976 536.192 751.897 527.5 768.725 527.523C800.018 527.523 831.704 557.075 862.857 615.343C866.37 622.338 868.108 630.09 867.918 637.915C867.728 645.74 865.616 653.398 861.768 660.214"/>
</mask>
<path d="M817.31 681.259L817.298 682.259H817.31V681.259ZM790.954 678.015L791.186 677.042L791.175 677.039L790.954 678.015ZM695.919 615.111L696.878 614.829L696.877 614.825L695.919 615.111ZM718.379 553.343L719.098 554.039L719.098 554.039L718.379 553.343ZM768.725 527.523L768.724 528.523H768.725V527.523ZM862.857 615.343L863.751 614.894L863.745 614.883L863.739 614.871L862.857 615.343ZM860.818 659.699C855.223 669.001 843.189 680.259 817.31 680.259V682.259C843.908 682.259 856.584 670.618 862.532 660.73L860.818 659.699ZM817.321 680.259C808.517 680.156 799.752 679.077 791.186 677.042L790.723 678.987C799.433 681.057 808.346 682.154 817.298 682.259L817.321 680.259ZM791.175 677.039C765.601 671.264 744.002 662.519 727.803 651.796C711.596 641.066 700.868 628.408 696.878 614.829L694.959 615.393C699.128 629.58 710.259 642.58 726.699 653.463C743.149 664.353 764.988 673.176 790.734 678.99L791.175 677.039ZM696.877 614.825C691.183 595.733 698.476 575.327 719.098 554.039L717.661 552.647C696.792 574.191 688.972 595.319 694.96 615.397L696.877 614.825ZM719.098 554.039C735.587 536.999 752.264 528.501 768.724 528.523L768.727 526.523C751.529 526.5 734.365 535.385 717.661 552.648L719.098 554.039ZM768.725 528.523C784.036 528.523 799.548 535.749 815.161 550.314C830.777 564.881 846.426 586.731 861.975 615.814L863.739 614.871C848.135 585.686 832.364 563.626 816.526 548.851C800.684 534.074 784.707 526.523 768.725 526.523V528.523ZM861.964 615.792C865.403 622.64 867.104 630.229 866.918 637.89L868.917 637.939C869.111 629.95 867.337 622.036 863.751 614.894L861.964 615.792ZM866.918 637.89C866.732 645.551 864.664 653.049 860.897 659.723L862.639 660.706C866.567 653.747 868.723 645.928 868.917 637.939L866.918 637.89Z" fill="#808080" mask="url(#path-4-inside-1)"/>
<mask id="path-6-inside-2" fill="white">
<path d="M806.18 629.526C802.703 635.344 796.144 638.403 787.173 638.403C783.143 638.358 779.131 637.861 775.213 636.92C752.195 631.705 735.645 620.927 732.029 608.782C729.526 600.392 732.91 591.307 742.089 581.827C749.483 574.202 756.924 570.238 764.226 570.238C778.133 570.238 792.389 583.774 806.667 610.451C808.153 613.411 808.886 616.692 808.801 620.003C808.716 623.314 807.816 626.553 806.18 629.433"/>
</mask>
<path d="M787.173 638.403L787.162 639.403H787.173V638.403ZM775.213 636.92L775.446 635.947L775.434 635.945L775.213 636.92ZM732.029 608.782L732.988 608.497L732.987 608.497L732.029 608.782ZM742.089 581.827L741.371 581.131L741.371 581.131L742.089 581.827ZM806.667 610.451L807.561 610.002L807.555 609.991L807.549 609.979L806.667 610.451ZM805.322 629.013C802.084 634.432 795.922 637.403 787.173 637.403V639.403C796.366 639.403 803.323 636.256 807.039 630.039L805.322 629.013ZM787.184 637.403C783.229 637.359 779.292 636.871 775.446 635.947L774.979 637.892C778.971 638.851 783.057 639.358 787.162 639.403L787.184 637.403ZM775.434 635.945C764.012 633.357 754.237 629.397 746.891 624.612C739.53 619.816 734.702 614.255 732.988 608.497L731.071 609.068C732.973 615.455 738.227 621.355 745.8 626.288C753.387 631.231 763.396 635.268 774.992 637.895L775.434 635.945ZM732.987 608.497C730.634 600.609 733.741 591.885 742.807 582.523L741.371 581.131C732.079 590.728 728.418 600.176 731.071 609.068L732.987 608.497ZM742.807 582.523C750.105 574.997 757.304 571.238 764.226 571.238V569.238C756.544 569.238 748.861 573.407 741.371 581.131L742.807 582.523ZM764.226 571.238C770.834 571.238 777.641 574.451 784.619 581.066C791.598 587.683 798.672 597.633 805.786 610.923L807.549 609.979C800.384 596.592 793.191 586.436 785.995 579.615C778.799 572.793 771.524 569.238 764.226 569.238V571.238ZM805.773 610.9C807.186 613.713 807.882 616.831 807.802 619.978L809.801 620.029C809.89 616.553 809.121 613.11 807.561 610.002L805.773 610.9ZM807.802 619.978C807.721 623.124 806.865 626.202 805.311 628.94L807.05 629.927C808.767 626.904 809.712 623.504 809.801 620.029L807.802 619.978Z" fill="#808080" mask="url(#path-6-inside-2)"/>
<path d="M324.482 782.151L324.472 782.149C310.839 778.732 295.659 764.669 283.871 744.928C272.098 725.212 263.773 699.938 263.773 674.256C263.773 657.908 265.169 642.316 271.539 630.817C274.717 625.081 279.132 620.366 285.238 617.081C291.348 613.794 299.178 611.923 309.209 611.922C320.29 612.169 331.308 613.665 342.053 616.38L342.053 616.38L342.063 616.382C372.117 623.37 383.261 638.19 387.347 649.327L387.816 649.155L387.347 649.327C393.692 666.621 387.649 686.398 378.82 698.288C373.959 704.445 368.319 709.944 362.042 714.648L362.035 714.653L362.028 714.659C357.113 718.625 352.656 722.228 349.366 726.66C346.06 731.114 343.94 736.391 343.647 743.699H343.646L343.646 743.71C343.547 749.685 343.897 755.658 344.693 761.581C345.181 765.878 345.609 769.676 345.472 772.904C345.335 776.123 344.639 778.695 342.948 780.598C341.857 781.68 340.545 782.513 339.1 783.039C337.652 783.566 336.105 783.772 334.569 783.642L334.555 783.641L334.541 783.64C331.141 783.546 327.764 783.046 324.482 782.151Z" stroke="#808080"/>
<path d="M766.53 383.687L766.53 383.687C762.209 388.259 757.742 390.484 753.24 390.484C748.754 390.484 744.549 388.159 740.741 383.461C735.285 376.702 735.278 366.484 740.966 354.509C744.3 347.531 749.555 340.297 755.312 334.813C761.049 329.35 767.188 325.715 772.362 325.661L772.408 325.683H772.526C774.263 325.683 776.604 326.137 778.593 327.999C780.58 329.86 782.288 333.197 782.619 339.117C782.997 346.287 781.392 354.887 778.473 362.981C775.553 371.077 771.336 378.618 766.53 383.687Z" stroke="#808080"/>
<mask id="path-10-inside-3" fill="white">
<path d="M405.896 614.25C413.615 651.728 410.671 675.739 408.098 696.924C404.946 722.743 402.211 745.04 421.635 782.077C435.543 808.5 452.927 828.641 468.342 846.418C492.124 873.883 512.661 897.594 513.704 935.048C514.446 961.795 510.691 980.801 503.134 988.588C502.21 989.641 501.078 990.492 499.81 991.086C498.541 991.68 497.163 992.006 495.763 992.042C489.273 992.042 481.855 985.089 475.319 972.874C471.981 966.639 469.292 961.077 466.951 956.163C455.199 931.78 449.752 920.563 401.77 904.547C345.212 885.681 329.636 873.93 327.735 827.065C326.993 808.523 313.085 798 295.492 784.627C267.677 763.535 229.709 734.633 217.98 654.833C213.761 626.024 219.44 602.336 234.901 584.467C251.498 565.253 278.942 554.336 310.35 554.336C351.679 554.336 397.783 574.941 405.896 614.319"/>
</mask>
<path d="M233.21 583.638L233.303 583.708L233.903 582.908L233.81 582.838L233.21 583.638ZM408.098 696.924L409.091 697.045L409.091 697.044L408.098 696.924ZM421.635 782.077L420.749 782.542L420.75 782.543L421.635 782.077ZM468.342 846.418L469.098 845.763L469.097 845.763L468.342 846.418ZM513.704 935.048L514.703 935.021V935.021L513.704 935.048ZM503.134 988.588L502.416 987.892L502.399 987.91L502.382 987.929L503.134 988.588ZM495.763 992.042V993.042H495.776L495.789 993.041L495.763 992.042ZM475.319 972.874L476.2 972.402L476.2 972.402L475.319 972.874ZM466.951 956.163L467.854 955.733L467.852 955.729L466.951 956.163ZM401.77 904.547L402.087 903.598L402.087 903.598L401.77 904.547ZM327.735 827.065L326.736 827.105L326.736 827.105L327.735 827.065ZM295.492 784.627L296.097 783.831L296.096 783.83L295.492 784.627ZM217.98 654.833L216.991 654.978L216.991 654.979L217.98 654.833ZM234.901 584.467L235.657 585.121L235.658 585.12L234.901 584.467ZM404.917 614.451C412.602 651.769 409.674 675.652 407.105 696.803L409.091 697.044C411.668 675.826 414.627 651.686 406.876 614.048L404.917 614.451ZM407.106 696.802C405.531 709.7 404.042 721.836 405.405 735.394C406.77 748.97 410.987 763.927 420.749 782.542L422.521 781.613C412.859 763.191 408.731 748.48 407.395 735.194C406.058 721.889 407.513 709.967 409.091 697.045L407.106 696.802ZM420.75 782.543C434.718 809.08 452.174 829.299 467.586 847.073L469.097 845.763C453.68 827.983 436.368 807.92 422.52 781.612L420.75 782.543ZM467.586 847.073C491.397 874.572 511.672 898.027 512.704 935.076L514.703 935.021C513.649 897.16 492.85 873.195 469.098 845.763L467.586 847.073ZM512.704 935.076C513.074 948.403 512.321 959.762 510.55 968.734C508.772 977.737 505.993 984.206 502.416 987.892L503.852 989.285C507.831 985.183 510.708 978.256 512.512 969.122C514.321 959.958 515.076 948.441 514.703 935.021L512.704 935.076ZM502.382 987.929C501.549 988.878 500.529 989.645 499.386 990.18L500.234 991.992C501.628 991.339 502.871 990.405 503.886 989.248L502.382 987.929ZM499.386 990.18C498.242 990.716 497 991.01 495.737 991.042L495.789 993.041C497.327 993.002 498.841 992.644 500.234 991.992L499.386 990.18ZM495.763 991.042C492.876 991.042 489.633 989.488 486.242 986.309C482.864 983.142 479.436 978.449 476.2 972.402L474.437 973.346C477.738 979.513 481.287 984.405 484.874 987.768C488.449 991.119 492.159 993.042 495.763 993.042V991.042ZM476.2 972.402C472.874 966.188 470.193 960.643 467.854 955.733L466.048 956.593C468.391 961.511 471.088 967.09 474.437 973.346L476.2 972.402ZM467.852 955.729C461.987 943.562 457.612 934.477 448.611 926.47C439.626 918.477 426.109 911.617 402.087 903.598L401.454 905.496C425.413 913.493 438.61 920.25 447.282 927.965C455.939 935.666 460.162 944.382 466.05 956.597L467.852 955.729ZM402.087 903.598C373.78 894.156 355.973 886.561 344.962 875.597C334.026 864.707 329.681 850.363 328.734 827.024L326.736 827.105C327.69 850.632 332.084 865.595 343.55 877.014C354.943 888.358 373.203 896.072 401.454 905.496L402.087 903.598ZM328.734 827.025C327.97 807.927 313.584 797.123 296.097 783.831L294.887 785.423C312.587 798.877 326.016 809.119 326.736 827.105L328.734 827.025ZM296.096 783.83C282.189 773.285 265.852 760.863 251.512 741.157C237.181 721.463 224.813 694.443 218.969 654.688L216.991 654.979C222.876 695.024 235.356 722.355 249.895 742.334C264.426 762.302 280.98 774.878 294.888 785.424L296.096 783.83ZM218.97 654.688C214.782 626.093 220.431 602.72 235.657 585.121L234.145 583.812C218.45 601.952 212.741 625.954 216.991 654.978L218.97 654.688ZM235.658 585.12C252.019 566.178 279.156 555.336 310.35 555.336V553.336C278.728 553.336 250.976 564.327 234.144 583.813L235.658 585.12ZM310.35 555.336C330.863 555.336 352.547 560.452 370.085 570.43C387.618 580.405 400.934 595.19 404.917 614.521L406.876 614.117C402.745 594.069 388.953 578.863 371.074 568.691C353.199 558.522 331.166 553.336 310.35 553.336V555.336Z" fill="#808080" mask="url(#path-10-inside-3)"/>
<path d="M570.588 1017.89C573.37 995.312 578.145 935.236 558.72 885.265C548.266 858.403 531.531 836.709 513.798 813.74C490.364 783.377 466.118 751.972 456.221 706.475C451.949 685.955 448.853 665.208 446.949 644.336C442.104 598.978 437.932 559.808 394.447 507.311C366.307 473.379 357.036 442.739 368.278 420.743C378.546 400.741 405.156 390.613 441.339 393.139C513.543 398.052 572.558 460.678 621.745 584.561C658.253 676.483 699.466 689.393 761.842 708.931C780.038 714.633 800.644 721.076 823.175 730.347C895.194 759.922 897.349 819.835 899.157 872.703C899.783 890.249 900.363 906.843 903.399 921.538C912.207 964.3 934.761 1000.83 946.698 1017.91" stroke="#808080"/>
<path d="M846.562 891.613C841.532 842.616 836.363 791.95 775.887 756.79C747.747 740.426 722.876 731.295 700.925 723.391C663.838 709.879 634.446 699.194 607.442 661.391C599.978 650.938 593.094 640.787 586.441 630.959C558.765 590.213 537.765 559.109 511.062 559.109C506.188 559.152 501.366 560.119 496.853 561.96C490.872 564.278 486.7 569.771 484.429 578.184C472.375 623.357 517.529 743.3 548.682 782.146C550.629 784.579 552.692 787.106 554.825 789.725C590.73 834.017 650.255 907.42 633.426 1017.93M883.927 1017.93C867.6 990.144 856.478 959.615 851.105 927.839C849.065 915.903 847.813 903.572 846.585 891.636" stroke="#808080"/>
<path d="M686.226 1018C696.216 935.467 664.901 856.664 630.456 817.262C612.561 796.866 606.118 779.9 612.561 770.629C615.76 765.994 621.926 763.676 630.526 763.676C640.099 763.676 652.894 766.55 667.914 772.275L670.742 773.341C727.903 795.035 772.917 812.163 783.232 894.814C791.09 957.648 809.008 1000.76 817.167 1017.91" stroke="#808080"/>
<mask id="path-15-inside-4" fill="white">
<path d="M598.287 730.14C597.381 732.284 595.84 734.099 593.872 735.342C591.904 736.585 589.602 737.196 587.277 737.093C583.49 736.953 579.78 735.988 576.405 734.265C552.554 723.048 516.139 638.612 519.848 612.793C520.636 607.392 522.814 607.068 523.533 606.952C524.079 606.879 524.628 606.84 525.179 606.836C537.441 606.836 549.54 628.136 561.246 648.741C568.432 661.349 575.849 674.421 583.823 683.692C599.817 702.373 602.552 720.776 598.287 730.047"/>
</mask>
<path d="M593.872 735.342L593.338 734.497L593.872 735.342ZM587.277 737.093L587.321 736.094L587.314 736.094L587.277 737.093ZM576.405 734.265L576.86 733.375L576.846 733.367L576.831 733.361L576.405 734.265ZM519.848 612.793L518.858 612.648L518.858 612.65L519.848 612.793ZM523.533 606.952L523.4 605.961L523.387 605.963L523.374 605.965L523.533 606.952ZM525.179 606.836V605.836L525.171 605.836L525.179 606.836ZM561.246 648.741L560.377 649.235L560.377 649.236L561.246 648.741ZM583.823 683.692L584.582 683.042L584.581 683.04L583.823 683.692ZM597.366 729.751C596.539 731.707 595.133 733.363 593.338 734.497L594.406 736.188C596.547 734.836 598.222 732.861 599.208 730.529L597.366 729.751ZM593.338 734.497C591.542 735.631 589.443 736.188 587.321 736.094L587.232 738.092C589.762 738.204 592.265 737.54 594.406 736.188L593.338 734.497ZM587.314 736.094C583.673 735.959 580.105 735.031 576.86 733.375L575.951 735.156C579.455 736.945 583.308 737.947 587.24 738.092L587.314 736.094ZM576.831 733.361C571.134 730.681 564.515 723.509 557.812 713.622C551.142 703.786 544.497 691.426 538.703 678.593C532.909 665.762 527.978 652.484 524.729 640.82C521.468 629.11 519.942 619.167 520.837 612.935L518.858 612.65C517.899 619.328 519.534 629.621 522.803 641.356C526.084 653.135 531.052 666.509 536.88 679.416C542.707 692.322 549.406 704.788 556.157 714.745C562.873 724.652 569.751 732.241 575.98 735.17L576.831 733.361ZM520.837 612.937C521.215 610.348 521.904 609.144 522.441 608.58C522.945 608.05 523.401 607.986 523.692 607.939L523.374 605.965C522.947 606.034 521.954 606.19 520.992 607.201C520.063 608.178 519.268 609.837 518.858 612.648L520.837 612.937ZM523.666 607.943C524.17 607.875 524.678 607.84 525.186 607.836L525.171 605.836C524.579 605.84 523.987 605.882 523.4 605.961L523.666 607.943ZM525.179 607.836C527.947 607.836 530.793 609.038 533.735 611.281C536.676 613.524 539.641 616.752 542.626 620.668C548.597 628.504 554.514 638.914 560.377 649.235L562.116 648.247C556.273 637.962 550.287 627.421 544.216 619.455C541.18 615.471 538.09 612.086 534.947 609.691C531.807 607.296 528.542 605.836 525.179 605.836V607.836ZM560.377 649.236C567.547 661.816 575.014 674.984 583.065 684.344L584.581 683.04C576.684 673.858 569.316 660.882 562.115 648.246L560.377 649.236ZM583.063 684.343C590.974 693.583 595.578 702.722 597.685 710.655C599.798 718.61 599.382 725.273 597.378 729.629L599.195 730.465C601.456 725.55 601.805 718.376 599.618 710.142C597.425 701.885 592.665 692.482 584.582 683.042L583.063 684.343Z" fill="#808080" mask="url(#path-15-inside-4)"/>
<path d="M925.352 445.539L925.352 445.539C917.002 449.807 907.875 456.933 899.101 463.808C892.443 469.016 885.998 474.057 880.058 477.798C874.102 481.549 868.742 483.935 864.246 483.935L864.237 483.936C862.464 483.97 860.717 483.505 859.196 482.593C858.438 482.134 857.937 481.441 857.719 480.483C857.498 479.508 857.567 478.242 858.006 476.666L858.006 476.666L858.009 476.654C859.257 471.685 863.327 464.849 869.125 457.337C874.91 449.841 882.374 441.727 890.345 434.209C898.316 426.69 906.785 419.779 914.577 414.684C922.392 409.575 929.45 406.345 934.62 406.085C938.806 405.891 942.183 406.523 944.659 407.86C947.119 409.188 948.711 411.221 949.338 413.904L949.339 413.908C950.324 418.005 948.97 423.548 945.009 429.282C941.059 435.001 934.549 440.854 925.352 445.539Z" stroke="#808080"/>
<path d="M488.851 512.663L488.85 512.663C484.753 513.649 479.209 512.289 473.472 508.326C467.749 504.372 461.89 497.864 457.193 488.679C452.988 480.385 445.932 471.352 439.141 462.657L438.946 462.407L438.946 462.407C433.737 455.75 428.696 449.304 424.954 443.365C421.202 437.409 418.816 432.05 418.816 427.555H418.816L418.816 427.546C418.785 425.783 419.242 424.046 420.136 422.527C420.595 421.77 421.288 421.269 422.247 421.049C423.223 420.824 424.49 420.888 426.066 421.316L426.066 421.316L426.075 421.318C431.044 422.572 437.883 426.646 445.397 432.446C452.895 438.234 461.013 445.698 468.533 453.669C476.053 461.64 482.966 470.106 488.06 477.895C493.169 485.706 496.396 492.759 496.65 497.923C496.856 502.109 496.229 505.486 494.895 507.964C493.57 510.427 491.536 512.025 488.851 512.663Z" stroke="#808080"/>
<path d="M368.207 793.945L368.206 793.934C372.617 792.898 378.526 794.297 384.59 798.39C390.662 802.488 396.838 809.257 401.719 818.833C405.76 826.824 412.62 835.617 419.255 844.122C419.438 844.357 419.621 844.592 419.804 844.826L419.804 844.826L419.871 844.912C425.148 851.655 430.255 858.18 434.05 864.25C437.869 870.358 440.304 875.922 440.304 880.721L440.304 880.729C440.335 882.806 439.782 884.85 438.708 886.628L438.706 886.631C438.244 887.408 437.498 888.191 436.29 888.64C435.077 889.091 433.348 889.224 430.89 888.604L430.89 888.604C425.828 887.333 418.865 883.181 411.215 877.266C403.582 871.364 395.319 863.749 387.665 855.617C380.009 847.483 372.973 838.843 367.787 830.894C362.59 822.928 359.304 815.732 359.041 810.458V810.458V810.454V810.451V810.448V810.445V810.441V810.438V810.435V810.432V810.428V810.425V810.422V810.419V810.415V810.412V810.409V810.405V810.402V810.399V810.396V810.392V810.389V810.386V810.383V810.379V810.376V810.373V810.37V810.366V810.363V810.36V810.357V810.353V810.35V810.347V810.344V810.34V810.337V810.334V810.331V810.327V810.324V810.321V810.318V810.314V810.311V810.308V810.304V810.301V810.298V810.295V810.291V810.288V810.285V810.282V810.278V810.275V810.272V810.269V810.265V810.262V810.259V810.256V810.252V810.249V810.246V810.243V810.239V810.236V810.233V810.23V810.226V810.223V810.22V810.217V810.213V810.21V810.207V810.204V810.2V810.197V810.194V810.19V810.187V810.184V810.181V810.177V810.174V810.171V810.168V810.164V810.161V810.158V810.155V810.151V810.148V810.145V810.142V810.138V810.135V810.132V810.129V810.125V810.122V810.119V810.116V810.112V810.109V810.106V810.103V810.099V810.096V810.093V810.09V810.086V810.083V810.08V810.077V810.073V810.07V810.067V810.064V810.06V810.057V810.054V810.051V810.047V810.044V810.041V810.038V810.034V810.031V810.028V810.025V810.021V810.018V810.015V810.012V810.008V810.005V810.002V809.999V809.995V809.992V809.989V809.986V809.982V809.979V809.976V809.973V809.969V809.966V809.963V809.96V809.956V809.953V809.95V809.947V809.943V809.94V809.937V809.934V809.93V809.927V809.924V809.921V809.917V809.914V809.911V809.908V809.904V809.901V809.898V809.895V809.891V809.888V809.885V809.882V809.879V809.875V809.872V809.869V809.866V809.862V809.859V809.856V809.853V809.849V809.846V809.843V809.84V809.836V809.833V809.83V809.827V809.823V809.82V809.817V809.814V809.81V809.807V809.804V809.801V809.798V809.794V809.791V809.788V809.785V809.781V809.778V809.775V809.772V809.768V809.765V809.762V809.759V809.755V809.752V809.749V809.746V809.743V809.739V809.736V809.733V809.73V809.726V809.723V809.72V809.717V809.713V809.71V809.707V809.704V809.701V809.697V809.694V809.691V809.688V809.684V809.681V809.678V809.675V809.671V809.668V809.665V809.662V809.659V809.655V809.652V809.649V809.646V809.642V809.639V809.636V809.633V809.63V809.626V809.623V809.62V809.617V809.613V809.61V809.607V809.604V809.601V809.597V809.594V809.591V809.588V809.584V809.581V809.578V809.575V809.572V809.568V809.565V809.562V809.559V809.555V809.552V809.549V809.546V809.543V809.539V809.536V809.533V809.53V809.526V809.523V809.52V809.517V809.514V809.51V809.507V809.504V809.501V809.498V809.494V809.491V809.488V809.485V809.481V809.478V809.475V809.472V809.469V809.465V809.462V809.459V809.456V809.453V809.449V809.446V809.443V809.44V809.437V809.433V809.43V809.427V809.424V809.421V809.417V809.414V809.411V809.408V809.405V809.401V809.398V809.395V809.392V809.389V809.385V809.382V809.379V809.376V809.373V809.369V809.366V809.363V809.36V809.357V809.353V809.35V809.347V809.344V809.341V809.337V809.334V809.331V809.328V809.325V809.321V809.318V809.315V809.312V809.309V809.305V809.302V809.299V809.296V809.293V809.289V809.286V809.283V809.28V809.277V809.273V809.27V809.267V809.264V809.261V809.258V809.254V809.251V809.248V809.245V809.242V809.238V809.235V809.232V809.229V809.226V809.223V809.219V809.216V809.213V809.21V809.207V809.203V809.2V809.197V809.194V809.191V809.188V809.184V809.181V809.178V809.175V809.172V809.168V809.165V809.162V809.159V809.156V809.153V809.149V809.146V809.143V809.14V809.137V809.134V809.13V809.127V809.124V809.121V809.118V809.115V809.111V809.108V809.105V809.102V809.099V809.096V809.092V809.089V809.086V809.083V809.08V809.077V809.073V809.07V809.067V809.064V809.061V809.058V809.054V809.051V809.048V809.045V809.042V809.039V809.036V809.032V809.029V809.026V809.023V809.02V809.017V809.013V809.01V809.007V809.004V809.001V808.998V808.995V808.991V808.988V808.985V808.982V808.979V808.976V808.972V808.969V808.966V808.963V808.96V808.957V808.954V808.95V808.947V808.944V808.941V808.938V808.935V808.932V808.928V808.925V808.922V808.919V808.916V808.913V808.91V808.906V808.903V808.9V808.897V808.894V808.891V808.888V808.885V808.881V808.878V808.875V808.872V808.869V808.866V808.863V808.859V808.856V808.853V808.85V808.847V808.844V808.841V808.838V808.834V808.831V808.828V808.825C359.041 800.657 362.445 795.33 368.207 793.945Z" stroke="#808080"/>
<path d="M1088.95 146.064C1093.95 190.403 1098.71 232.307 1085.66 245.148C1082.2 248.508 1077.57 249.783 1071.47 248.972C1038.79 244.661 1008.89 208.249 979.888 173.043C951.447 138.485 921.939 102.722 889.024 95.9546C833.556 84.5745 813.019 113.894 763.391 184.747C750.434 203.289 735.762 224.149 717.844 248.23C651.411 337.139 593.787 321.981 526.938 304.412C506.406 298.621 485.556 294.025 464.492 290.645C405.06 282.162 356.337 293.31 330.816 321.239C311.508 342.377 305.805 372.577 314.312 408.549C332.554 485.637 313.408 490.597 271.453 501.49C265.566 503.02 259.493 504.596 252.91 506.52C222.591 515.373 197.325 537.207 181.587 567.893C162.904 604.421 158.083 653.14 167.679 708.766C188.239 828.315 266.91 881.322 359.929 933.587C422.166 968.585 437.14 1002.47 440.71 1017.81M1103.2 0H1096.94C1076.08 32.0312 1083.04 92.1535 1089.04 146.018" stroke="#808080"/>
<path d="M1002.77 1017.93C975.554 982.796 960.198 939.928 958.916 895.506C958.765 874.08 959.802 852.662 962.022 831.351C966.657 779.248 970.853 730.019 934.206 672.887C907.99 632.118 899.924 596.401 910.841 569.678C919.464 548.61 939.908 533.846 969.995 526.985C1012.69 517.274 1050.22 543.742 1086.5 569.353C1107.17 583.955 1128.57 599.044 1150.33 606.785C1185.66 619.324 1209.05 610.586 1233.78 601.315C1251.39 594.733 1269.59 587.918 1293.81 587.918C1330.9 587.918 1354.4 622.87 1373.34 650.938C1384.21 667.023 1393.58 680.929 1403.87 686.724C1414.95 693.206 1427.11 697.612 1439.77 699.726" stroke="#808080"/>
<path d="M1439.79 591.815C1423.4 588.292 1392.53 575.984 1360.24 533.315C1326.63 488.907 1276.01 502.118 1231.34 513.776C1208.72 519.686 1187.3 525.249 1168.75 523.997C1139.97 522.05 1107.58 506.243 1076.27 490.923C1045.6 475.95 1013.92 460.468 984.501 457.177C952.049 453.515 928.87 473.679 908.333 491.456C890.299 507.101 873.262 521.865 852.285 519.733C838.029 518.273 833.324 508.353 831.887 500.31C826.648 471.431 855.391 413.742 922.611 380.714C980.56 352.276 1050.56 358.742 1106.8 363.957C1140.54 367.086 1169.68 369.775 1191.59 365.255C1221.42 359.113 1240.82 337.628 1261.38 314.89C1281.94 292.153 1303.1 268.698 1336.02 260.887C1370 252.795 1405.29 251.863 1439.65 258.152" stroke="#808080"/>
<path d="M1439.68 191.311C1415.43 189.318 1359.66 187.209 1321.81 204.963C1299.19 215.578 1280.41 234.467 1263.86 251.132C1242.81 272.247 1224.64 290.534 1202.64 290.534C1188.76 290.534 1178.81 286.825 1172.19 279.2C1159.58 264.714 1157.86 236.437 1166.07 178.494C1170.77 145.188 1167.5 113.481 1164.61 85.5292C1161.17 51.806 1158.07 22.023 1170.45 0.0507812" stroke="#808080"/>
<path d="M1439.61 106.783C1417.38 108.104 1370.03 113.11 1339.34 132.278C1323.23 142.268 1306.68 159.581 1290.66 176.315C1264.91 203.317 1240.52 228.789 1218.8 224.455C1211.04 222.902 1205.27 212.936 1202.07 195.645C1193.21 147.737 1206.31 40.8431 1245.44 0.0507812" stroke="#808080"/>
<path d="M1235.26 117.324C1235.44 129.353 1238.71 137.326 1244.67 140.502C1261.47 149.147 1266.06 144.117 1281.27 127.406C1295.31 111.686 1310.48 97.0065 1326.65 83.4851C1359.14 56.5222 1398.12 38.5419 1439.72 31.3359M1285.81 0C1256.35 27.2798 1234.82 85.7565 1235.26 117.278" stroke="#808080"/>
<mask id="path-26-inside-5" fill="white">
<path d="M1142.38 314.359C1142.84 315.494 1144.25 318.994 1138.78 324.371C1134.01 329.007 1119.31 329.61 1108.65 329.61C1097.57 329.61 1084.57 328.937 1069.5 328.173C1051.19 327.222 1030.47 326.156 1009.05 326.156C945.35 326.156 900.382 335.983 867.513 357.098C813.134 392.003 804.465 437.222 798.717 467.121C794.683 488.097 792.412 497.252 781.425 495.838C777.475 495.308 773.495 495.037 769.51 495.027C725.678 495.027 700.459 528.217 682.054 552.437C673.223 564.026 665.597 574.132 659.871 574.132C659.671 574.154 659.469 574.154 659.269 574.132C651.272 573.112 647.262 560.457 641.722 542.981C634.49 520.198 624.592 488.978 599.118 458.175C578.859 433.676 554.915 414.138 533.775 397.102C507.119 375.478 486.049 358.396 486.049 341.894C485.95 340.986 486.05 340.068 486.342 339.204C486.635 338.339 487.112 337.549 487.741 336.887C489.441 335.776 491.466 335.27 493.489 335.45C500.883 335.45 513.029 339.182 527.099 343.539C551.067 350.91 580.876 360.111 612.446 360.111C641.629 360.111 666.223 352.277 687.641 336.192C718.678 312.852 746.795 279.824 773.961 247.909C811.349 203.64 846.999 161.828 879.822 161.828C906.223 161.828 926.181 191.009 947.274 221.881C970.453 255.627 994.236 290.532 1029.4 290.532C1100.14 290.532 1137.44 302.886 1142.14 314.382"/>
</mask>
<path d="M1138.78 324.371L1139.48 325.089L1139.48 325.085L1138.78 324.371ZM1069.5 328.173L1069.45 329.171L1069.45 329.171L1069.5 328.173ZM867.513 357.098L868.053 357.94L868.054 357.939L867.513 357.098ZM798.717 467.121L799.699 467.31V467.31L798.717 467.121ZM781.425 495.838L781.292 496.829L781.297 496.83L781.425 495.838ZM769.51 495.027L769.513 494.027H769.51V495.027ZM682.054 552.437L682.85 553.044L682.85 553.042L682.054 552.437ZM659.871 574.132V573.132H659.814L659.757 573.138L659.871 574.132ZM659.269 574.132L659.142 575.124L659.155 575.125L659.269 574.132ZM641.722 542.981L642.675 542.679L642.675 542.678L641.722 542.981ZM599.118 458.175L598.347 458.812L598.347 458.812L599.118 458.175ZM533.775 397.102L533.145 397.879L533.148 397.881L533.775 397.102ZM486.049 341.894H487.049V341.839L487.043 341.786L486.049 341.894ZM487.741 336.887L487.194 336.05L487.096 336.114L487.016 336.198L487.741 336.887ZM493.489 335.45L493.4 336.446L493.445 336.45H493.489V335.45ZM527.099 343.539L526.804 344.494L526.805 344.495L527.099 343.539ZM687.641 336.192L688.241 336.992L688.242 336.991L687.641 336.192ZM773.961 247.909L774.722 248.557L774.725 248.554L773.961 247.909ZM947.274 221.881L946.448 222.445L946.45 222.447L947.274 221.881ZM1141.45 314.737C1141.66 315.252 1142.05 316.201 1141.82 317.615C1141.59 319.039 1140.71 321.075 1138.08 323.658L1139.48 325.085C1142.33 322.291 1143.48 319.888 1143.79 317.934C1144.11 315.97 1143.55 314.602 1143.3 313.981L1141.45 314.737ZM1138.09 323.654C1137.05 324.657 1135.41 325.504 1133.26 326.193C1131.12 326.876 1128.56 327.376 1125.79 327.737C1120.26 328.459 1113.97 328.61 1108.65 328.61V330.61C1113.99 330.61 1120.38 330.459 1126.05 329.72C1128.89 329.351 1131.57 328.831 1133.86 328.098C1136.14 327.37 1138.12 326.404 1139.48 325.089L1138.09 323.654ZM1108.65 328.61C1097.6 328.61 1084.63 327.939 1069.55 327.174L1069.45 329.171C1084.51 329.936 1097.54 330.61 1108.65 330.61V328.61ZM1069.55 327.174C1051.24 326.224 1030.49 325.156 1009.05 325.156V327.156C1030.44 327.156 1051.13 328.221 1069.45 329.171L1069.55 327.174ZM1009.05 325.156C945.268 325.156 900.075 334.992 866.973 356.257L868.054 357.939C900.689 336.975 945.432 327.156 1009.05 327.156V325.156ZM866.973 356.256C812.228 391.397 803.493 436.981 797.735 466.932L799.699 467.31C805.437 437.463 814.041 392.609 868.053 357.94L866.973 356.256ZM797.735 466.932C795.707 477.476 794.154 484.841 791.79 489.417C790.624 491.673 789.306 493.157 787.718 494.018C786.134 494.877 784.16 495.182 781.552 494.846L781.297 496.83C784.183 497.201 786.613 496.892 788.671 495.776C790.725 494.663 792.287 492.812 793.567 490.335C796.094 485.443 797.693 477.742 799.699 467.31L797.735 466.932ZM781.558 494.847C777.565 494.311 773.542 494.037 769.513 494.027L769.508 496.027C773.449 496.037 777.385 496.305 781.292 496.829L781.558 494.847ZM769.51 494.027C725.116 494.027 699.616 527.674 681.258 551.832L682.85 553.042C701.302 528.76 726.24 496.027 769.51 496.027V494.027ZM681.259 551.831C676.831 557.642 672.752 563.017 669.069 566.946C667.228 568.909 665.52 570.475 663.948 571.545C662.366 572.621 661.016 573.132 659.871 573.132V575.132C661.59 575.132 663.339 574.378 665.074 573.198C666.818 572.011 668.642 570.326 670.528 568.314C674.297 564.293 678.446 558.822 682.85 553.044L681.259 551.831ZM659.757 573.138C659.633 573.152 659.507 573.152 659.383 573.138L659.155 575.125C659.431 575.157 659.709 575.157 659.985 575.125L659.757 573.138ZM659.395 573.14C655.944 572.699 653.149 569.727 650.471 564.286C647.818 558.893 645.454 551.445 642.675 542.679L640.769 543.283C643.53 551.993 645.941 559.61 648.677 565.169C651.388 570.679 654.597 574.544 659.142 575.123L659.395 573.14ZM642.675 542.678C635.441 519.887 625.497 488.502 599.889 457.537L598.347 458.812C623.688 489.453 633.539 520.508 640.769 543.284L642.675 542.678ZM599.889 457.538C579.557 432.951 555.538 413.355 534.403 396.324L533.148 397.881C554.292 414.92 578.161 434.401 598.347 458.812L599.889 457.538ZM534.405 396.326C521.059 385.499 509.185 375.867 500.64 366.888C492.066 357.879 487.049 349.731 487.049 341.894H485.049C485.049 350.558 490.566 359.203 499.191 368.266C507.845 377.36 519.834 387.081 533.145 397.879L534.405 396.326ZM487.043 341.786C486.96 341.023 487.044 340.251 487.29 339.524L485.395 338.884C485.056 339.886 484.94 340.95 485.054 342.002L487.043 341.786ZM487.29 339.524C487.535 338.797 487.937 338.132 488.465 337.576L487.016 336.198C486.287 336.965 485.734 337.881 485.395 338.884L487.29 339.524ZM488.288 337.724C489.8 336.736 491.601 336.286 493.4 336.446L493.578 334.454C491.331 334.254 489.082 334.816 487.194 336.05L488.288 337.724ZM493.489 336.45C497.051 336.45 501.832 337.354 507.541 338.829C513.233 340.299 519.763 342.314 526.804 344.494L527.395 342.584C520.366 340.407 513.788 338.377 508.041 336.893C502.311 335.412 497.321 334.45 493.489 334.45V336.45ZM526.805 344.495C550.755 351.86 580.703 361.111 612.446 361.111V359.111C581.048 359.111 551.379 349.959 527.393 342.583L526.805 344.495ZM612.446 361.111C641.826 361.111 666.635 353.218 688.241 336.992L687.04 335.392C665.811 351.336 641.433 359.111 612.446 359.111V361.111ZM688.242 336.991C719.384 313.572 747.574 280.452 774.722 248.557L773.199 247.261C746.015 279.197 717.971 312.132 687.039 335.393L688.242 336.991ZM774.725 248.554C793.431 226.406 811.645 204.942 829.274 189.01C846.936 173.047 863.81 162.828 879.822 162.828V160.828C863.011 160.828 845.649 171.515 827.933 187.526C810.184 203.567 791.88 225.143 773.197 247.264L774.725 248.554ZM879.822 162.828C892.626 162.828 903.972 169.899 914.824 180.977C925.676 192.056 935.887 206.988 946.448 222.445L948.1 221.317C937.567 205.901 927.253 190.807 916.253 179.578C905.252 168.348 893.419 160.828 879.822 160.828V162.828ZM946.45 222.447C958.024 239.298 969.821 256.55 983.143 269.576C996.478 282.616 1011.45 291.532 1029.4 291.532V289.532C1012.18 289.532 997.683 280.997 984.542 268.146C971.387 255.284 959.703 238.21 948.098 221.315L946.45 222.447ZM1029.4 291.532C1064.72 291.532 1091.65 294.617 1110.3 299.118C1119.63 301.369 1126.86 303.967 1132.02 306.69C1137.23 309.434 1140.18 312.221 1141.22 314.761L1143.07 314.003C1141.76 310.795 1138.28 307.727 1132.96 304.921C1127.6 302.094 1120.2 299.448 1110.77 297.174C1091.91 292.624 1064.82 289.532 1029.4 289.532V291.532Z" fill="#808080" mask="url(#path-26-inside-5)"/>
<path d="M1439.7 533.736C1422.43 527.478 1389.54 511.763 1355.24 475.12C1323.48 441.165 1267.01 454.701 1217.2 466.66C1188.48 473.613 1161.34 480.057 1145.34 474.888C1127.01 468.932 1111.73 460.194 1096.95 451.711C1077.08 440.354 1056.57 428.533 1027.71 422.669C1007.22 418.405 995.258 411.289 995.721 403.571C996.231 395.274 1012.74 385.562 1048.48 382.712C1076.29 380.394 1106.43 382.526 1135.33 384.612C1170.1 387.092 1202.92 389.456 1223.65 382.665C1239.5 377.497 1255.35 363.776 1272.11 349.243C1295.01 329.427 1320.98 306.944 1352.94 300.965C1381.87 295.75 1411.64 297.748 1439.61 306.782" stroke="#808080"/>
<path d="M1439.93 463.6C1415.5 452.243 1360.12 429.298 1311.14 429.298H1308.02C1283.51 429.808 1254.7 433.539 1226.89 437.155C1181.48 443.065 1138.6 448.744 1131.25 437.155C1126.78 430.202 1125.87 424.291 1128.54 419.818C1134.68 409.551 1158.83 405.912 1200.39 408.902C1244.69 412.1 1269.79 395.296 1294.04 379.049C1309.08 368.967 1324.64 358.537 1344.57 353.206C1381.47 343.356 1420.71 347.62 1440 350.888" stroke="#808080"/>
<path d="M1439.72 423.43C1420.22 415.742 1399.87 410.39 1379.11 407.484C1359.82 404.587 1340.98 395.502 1337.94 387.668C1337.58 386.891 1337.46 386.028 1337.57 385.181C1337.69 384.335 1338.05 383.54 1338.61 382.893C1342.09 378.605 1358.92 370.354 1439.72 382.522" stroke="#808080"/>
<path d="M820.355 233.837L820.355 233.837C838.124 209.846 856.167 197.836 873.938 197.836H873.985C891.771 197.836 909.14 209.86 925.33 233.842L925.331 233.843C935.977 249.527 942.858 261.454 946.452 270.802C950.047 280.151 950.324 286.838 947.891 292.107C945.986 296.231 942.388 299.484 936.678 302C930.959 304.519 923.153 306.285 912.893 307.442C890.469 309.938 865.335 315.808 841.907 333.498C818.478 351.19 796.807 380.666 781.23 430.282C779.986 434.241 777.766 437.29 774.727 439.352C771.686 441.418 767.79 442.517 763.164 442.517C752.565 442.517 739.968 437.008 729.096 427.691C718.233 418.381 709.15 405.315 705.539 390.287C701.957 375.38 709.794 358.153 723.392 339.804C736.885 321.598 755.934 302.434 774.706 283.547L775.061 283.19C792.623 265.538 809.226 248.845 820.355 233.837Z" stroke="#808080"/>
<path d="M566.499 398.713L566.499 398.711C566.544 395.698 567.631 392.382 571.184 389.799C574.765 387.197 580.906 385.297 591.149 385.297C609.974 385.297 638.596 392.179 664.567 402.972C677.546 408.366 689.844 414.728 699.909 421.68C709.982 428.637 717.777 436.157 721.809 443.851C729.173 458.115 731.158 468.063 728.301 475.283L728.3 475.284C726.561 479.717 723.137 482.876 718.588 485.477C714.03 488.085 708.397 490.104 702.289 492.287L702.289 492.287C697.301 494.073 692.143 496.001 686.842 498.326L686.837 498.328L681.297 500.831L681.294 500.832C677.463 502.597 674.521 503.949 672.074 504.863C669.629 505.775 667.717 506.233 665.949 506.233C663.163 506.233 661.122 505.18 659.011 502.878C656.867 500.542 654.694 496.967 651.658 491.965L651.656 491.961C651.372 491.501 651.08 491.028 650.779 490.54C647.155 484.662 642.274 476.746 634.902 466.438L634.495 466.729L634.902 466.438C620.327 446.064 604.333 437.157 591.527 430.025L591.519 430.02L591.393 429.95L591.392 429.95L591.372 429.939L591.129 430.376L591.372 429.939C584.242 425.979 577.953 422.481 573.47 417.808C569.018 413.167 566.34 407.351 566.499 398.713Z" stroke="#808080"/>
<path d="M1056.2 1017.81C1039.55 997.763 999.035 943.389 995.929 886.094C994.33 855.43 996.555 829.518 998.687 804.463C1001.65 769.929 1004.23 740.1 995.906 706.724C990.899 686.56 980.167 667.624 969.783 649.29C951.239 616.494 935.152 588.148 963.895 568.378C969.444 564.576 976.037 562.591 982.763 562.7C1007.36 562.7 1038.39 585.228 1070.96 608.753C1098.92 629.01 1127.84 649.963 1152.81 655.664C1181.04 662.107 1203.18 659.975 1224.66 657.982C1250.16 655.525 1274.29 653.207 1307.74 664.379C1339.1 674.855 1359.94 697.546 1380.11 719.495C1397.4 738.315 1415.22 757.691 1439.91 770.022" stroke="#808080"/>
<path d="M1110.97 1017.91C1067.3 971.112 1042.87 918.963 1053.02 816.681C1058.82 757.625 1039.72 714.7 1027.06 686.308C1016.75 663.13 1010.51 649.085 1023.03 641.714C1039.02 632.281 1063.17 647.115 1091.13 664.312C1113.38 677.964 1138.58 693.446 1163.63 698.615C1179.03 701.813 1194.28 702.254 1209.04 702.671C1248.08 703.783 1284.96 704.85 1317.55 756.257C1352.31 811.257 1413.74 835.547 1439.72 843.706" stroke="#808080"/>
<path d="M1169.48 1017.91C1149.17 998.117 1100.31 943.743 1096.23 875.763C1094.44 846.119 1090.6 820.833 1087.51 800.483C1081.56 761.29 1077.96 737.626 1095.74 728.633C1111.97 720.544 1133.45 728.03 1160.64 737.51C1179.19 743.953 1200.05 751.254 1223.23 754.8C1264.81 761.174 1274.22 779.554 1288.66 807.367C1294.18 818.454 1300.29 829.233 1306.98 839.653C1330.78 875.856 1409.15 890.388 1439.59 894.746" stroke="#808080"/>
<path d="M1227.33 1017.81C1212.05 999.666 1175.2 954.609 1153.71 917.015C1133.8 882.249 1118.78 831.56 1128.56 802.194C1131.81 792.483 1137.55 785.784 1145.64 782.285C1181.83 766.617 1231.18 788.427 1247.89 816.935C1261.8 840.761 1306.35 907.883 1343.69 932.057C1369.77 948.953 1417.45 960.102 1439.82 964.668" stroke="#808080"/>
<path d="M1288.06 1017.91C1264.25 1001.36 1237.78 971.553 1213.88 933.982C1189.98 896.412 1173.99 858.679 1175.03 842.06C1175.29 838.004 1176.52 835.501 1178.7 834.644C1191.77 829.498 1209.02 852.119 1230.8 880.744C1248.81 904.385 1271.21 933.774 1299.02 957.739C1347.7 999.713 1412.79 1006.25 1439.7 1007.06" stroke="#808080"/>
<path d="M729.879 1017.91C730.158 989.726 722.485 948.794 716.18 915.257C710.015 882.275 704.173 851.148 709.226 848.853C710.177 848.413 712.75 848.853 719.194 857.197C749.582 896.135 764.092 988.915 768.01 1017.91" stroke="#808080"/>
<path d="M1051.16 107.849C1062.75 173.766 1051.65 185.795 1046.39 187.904C1039.09 190.847 1027.85 182.133 1015.77 164.008C994.907 132.881 925.694 39.0584 850.662 39.0584C843.166 39.0478 835.701 40.0139 828.456 41.9324C780.938 54.425 743.874 117.723 711.191 173.58C689.101 211.313 668.239 246.937 647.47 261.006C621.764 278.389 575.846 268.306 522.649 256.648C470.75 245.291 411.944 232.381 360.972 243.646C317.626 253.241 290.112 279.941 279.148 323.005C269.877 359.023 274.049 399.352 276.83 426.052L277.271 430.27C279.797 455.928 257.012 465.291 228.153 477.158C198.692 489.257 165.314 502.978 147.025 537.999C107.62 612.654 103.819 698.456 136.363 773.412C155.764 818.145 158.059 850.431 143.525 875.045C124.982 906.613 77.8809 926.314 0.0673828 935.098M1041.36 0.0507812C1040.32 13.9572 1040.39 45.6176 1051.23 107.849" stroke="#808080"/>
<path d="M0.0673828 972.321C96.0304 971.185 133.604 941.263 164.016 917.043C175.698 907.772 185.805 899.752 197.672 894.7C204.418 891.654 211.713 890.014 219.113 889.879C236.336 889.879 250.522 900.309 270.433 914.957C288.374 928.649 307.38 940.887 327.269 951.554C377.406 977.814 389.691 1004.49 392.589 1017.91" stroke="#808080"/>
<path d="M999.104 0.0507812C1007.26 23.2282 1026.92 83.0955 1015.75 98.9026C1015.26 99.6639 1014.61 100.303 1013.84 100.769C1013.07 101.236 1012.2 101.517 1011.3 101.591C1004.37 102.147 993.819 91.4394 977.849 75.2152C954.762 51.7365 921.592 18.0596 879.081 0.0507812" stroke="#808080"/>
<path d="M774.262 0.0507812C758.036 13.9572 721.25 48.2367 700.111 92.5519C696.842 99.3661 693.62 106.296 690.491 112.971C665.99 165.491 642.834 215.114 597.031 226.958C572.461 233.308 541.957 222.23 506.631 209.413C467.412 195.182 422.954 179.05 375.621 182.689C370.498 183.083 365.167 183.547 359.627 184.033C301.215 189.04 221.199 195.9 166.588 148.085C131.703 117.537 111.769 67.7521 107.249 0.0507812" stroke="#808080"/>
<path d="M342.174 129.705C359.025 129.056 376.456 128.407 392.52 128.825C437.441 129.983 473.648 145.86 505.45 159.859C521.351 166.812 536.348 173.418 550.859 177.497C556.769 179.278 562.982 179.828 569.113 179.115C575.245 178.401 581.165 176.439 586.509 173.348C613.652 157.912 629.599 116.633 638.176 84.718C649.093 44.7137 680.455 13.9572 696.82 0.0507812M164.642 0.0507812C165.569 19.7052 170.947 68.262 200.825 101.336C230.263 133.785 287.146 131.768 342.22 129.705" stroke="#808080"/>
<path d="M265.288 87.4529C287.401 92.2506 314.637 91.3003 343.496 90.2805C385.219 88.7972 432.644 87.1284 473.625 103.144L487.834 108.753C526.799 124.212 552.528 134.434 571.489 124.977C582.893 119.368 591.006 106.829 596.987 85.5755C609.48 41.7702 625.776 12.6593 633.749 0.0507812M213.32 0.0507812C214.177 21.9766 220.76 77.7647 265.311 87.4529" stroke="#808080"/>
<path d="M374.487 46.5911C383.596 46.5911 393.03 46.7533 403.113 46.9156C456.426 47.7731 487.765 63.1398 508.441 73.1524C525.061 81.2645 535.097 86.1781 544.67 78.1819C561.36 64.2754 567.015 19.2185 568.708 0.0507813M264.848 0.0507812C265.219 13.1229 268.464 22.6024 274.884 29.4629C290.345 45.9653 323.816 46.2202 374.556 46.5911" stroke="#808080"/>
<path d="M311.997 8.78867C318.301 13.8414 328.663 12.6593 345.792 10.7356C356.895 9.50717 370.687 7.95429 387.932 7.58345C417.129 6.73072 446.293 10.1349 474.508 17.6888C482.513 19.7887 490.621 21.4751 498.8 22.7415C505.545 23.6222 510.761 22.1621 514.261 18.3378C518.688 13.5169 519.522 5.9842 519.291 0.0507812M306.549 0.0507812C307.394 3.44447 309.263 6.49557 311.904 8.78867" stroke="#808080"/>
<path d="M0.0673828 875.184C25.8661 875.462 84.4175 871.522 96.3086 831.031C103.239 807.529 97.5603 782.683 90.3978 751.255C81.7519 713.29 70.9734 666.031 80.6393 604.171C97.8152 494.031 141.462 476.88 196.699 455.14L199.434 454.05C242.177 437.224 239.998 413.328 236.985 380.253C235.733 368.887 235.206 357.453 235.409 346.02C236.243 322.565 248.806 301.798 259.886 283.441C272.612 262.373 283.622 244.179 275.509 226.587C268.509 211.475 243.012 207.048 213.458 201.903C178.549 195.877 135.273 188.344 108.686 159.975C68.076 116.355 56.324 27.9796 53.5424 0.0507812" stroke="#808080"/>
<path d="M0.0673828 67.5195C34.8366 194.74 112.65 210.965 161.049 221L163.761 221.58C192.666 227.606 209.401 237.41 214.895 251.502C219.809 264.273 215.637 279.593 201.752 298.552C186.106 320.385 183.997 333.388 181.122 351.374C178.639 369.211 174.128 386.707 167.678 403.523C158.522 427.604 141.416 436.203 121.621 446.146C96.0073 458.986 66.9634 473.565 45.4992 527.429C20.3958 590.426 35.022 649.667 46.7509 697.25C53.0325 722.746 58.4565 744.834 57.8538 764.465C57.4598 780.689 51.9662 793.205 41.6282 801.549C28.8795 811.84 11.6571 813.578 0.0673828 813.369" stroke="#808080"/>
<path d="M80.9659 418.492C109.106 386.669 126.421 348.171 134.279 328.1C144.037 302.999 145.868 289.509 140.931 279.983C133.954 266.587 113.649 261.72 76.7009 252.68L67.7768 250.525C30.6896 241.578 10.6857 212.259 0.0695384 186.602M0 468.231C29.183 462.992 56.3493 446.328 80.8964 418.585" stroke="#808080"/>
<path d="M0.0673828 257.48C9.68687 269.162 25.0317 283.3 45.221 287.124C61.1685 290.184 76.7219 294.611 82.4936 306.408C87.8481 317.371 84.4871 333.896 71.9238 358.465C53.1948 394.83 18.4487 411.355 0.0673828 417.822" stroke="#808080"/>
<path d="M0.0673828 299.895C15.0181 304.901 38.244 315.261 36.7141 330.883C35.2538 346.041 13.9751 366.576 0.0673828 378.489" stroke="#808080"/>
</g>
</g>
</svg>
