<svg width="1920" height="1110" viewBox="0 0 1920 1110" fill="none" xmlns="http://www.w3.org/2000/svg">
<g opacity="0.15">
<path d="M394.783 863.325L394.692 863.454C390.798 868.998 388.877 876.782 388.965 886.037C389.054 895.287 391.149 905.967 395.247 917.257L394.783 863.325ZM394.783 863.325V863.17M394.783 863.325V863.17M394.783 863.17C399.559 856.429 407.026 852.969 417.07 852.969C420.694 853.005 424.306 853.395 427.855 854.133L427.859 854.134C441 856.743 449.64 862.551 453.663 871.229C456.649 877.716 457.123 885.876 455.027 895.689C452.931 905.5 448.271 916.929 441.036 929.918C438.99 933.403 436.091 936.31 432.611 938.365C429.132 940.419 425.186 941.554 421.147 941.663C417.999 941.662 413.488 940.909 408.792 937.507C404.091 934.101 399.165 928.009 395.247 917.258L394.783 863.17Z" stroke="#808080"/>
<path d="M1106.5 345.057L1106.5 345.057C1113.57 329.902 1121.96 317.825 1130.87 309.544C1139.79 301.261 1149.2 296.804 1158.31 296.804H1158.81V296.746C1170.35 296.945 1180.96 304.032 1190.39 318.163C1199.62 331.998 1202.14 344.659 1198.04 355.804C1194.97 364.141 1188.19 371.724 1177.72 378.498C1167.24 385.271 1153.09 391.214 1135.32 396.277C1132.96 396.934 1130.52 397.26 1128.07 397.247L1128.07 397.247L1128.06 397.247C1123.4 397.341 1118.79 396.28 1114.64 394.16C1110.49 392.041 1106.93 388.93 1104.27 385.103C1099.96 378.38 1096.76 365.923 1106.5 345.057Z" stroke="#808080"/>
<mask id="path-3-inside-1" fill="white">
<path d="M1149.5 878.717C1141.8 891.517 1125.32 906.791 1090.31 906.791C1078.47 906.652 1066.68 905.2 1055.15 902.462C986.693 887.003 939.259 855.59 928.374 818.55C920.582 792.424 930.663 764.721 958.338 736.152C980.478 713.273 1003.05 701.678 1025.5 701.709C1067.25 701.709 1109.52 741.13 1151.08 818.859C1155.76 828.19 1158.08 838.531 1157.83 848.969C1157.57 859.408 1154.76 869.624 1149.62 878.717"/>
</mask>
<path d="M1090.31 906.791L1090.3 907.791H1090.31V906.791ZM1055.15 902.462L1055.39 901.489L1055.38 901.487L1055.15 902.462ZM928.374 818.55L929.334 818.268L929.333 818.264L928.374 818.55ZM958.338 736.152L959.056 736.848L959.057 736.848L958.338 736.152ZM1025.5 701.709L1025.5 702.709H1025.5V701.709ZM1151.08 818.859L1151.97 818.41L1151.96 818.399L1151.96 818.387L1151.08 818.859ZM1148.64 878.201C1141.12 890.708 1124.96 905.791 1090.31 905.791V907.791C1125.68 907.791 1142.48 892.326 1150.36 879.232L1148.64 878.201ZM1090.33 905.791C1078.56 905.653 1066.84 904.21 1055.39 901.489L1054.92 903.435C1066.52 906.19 1078.38 907.651 1090.3 907.791L1090.33 905.791ZM1055.38 901.487C1021.23 893.777 992.377 882.098 970.725 867.765C949.065 853.426 934.687 836.484 929.334 818.268L927.415 818.832C932.947 837.656 947.728 854.94 969.621 869.433C991.524 883.931 1020.62 895.689 1054.93 903.438L1055.38 901.487ZM929.333 818.264C921.687 792.63 931.505 765.289 959.056 736.848L957.62 735.456C929.821 764.153 919.477 792.217 927.416 818.836L929.333 818.264ZM959.057 736.848C981.089 714.08 1003.42 702.679 1025.5 702.709L1025.5 700.709C1002.68 700.678 979.867 712.466 957.619 735.457L959.057 736.848ZM1025.5 702.709C1046.04 702.709 1066.81 712.402 1087.68 731.867C1108.54 751.335 1129.44 780.517 1150.19 819.33L1151.96 818.387C1131.15 779.472 1110.13 750.079 1089.04 730.404C1067.94 710.727 1046.71 700.709 1025.5 700.709V702.709ZM1150.18 819.308C1154.79 828.492 1157.08 838.671 1156.83 848.945L1158.83 848.994C1159.08 838.391 1156.73 827.888 1151.97 818.41L1150.18 819.308ZM1156.83 848.945C1156.58 859.22 1153.8 869.275 1148.75 878.225L1150.49 879.208C1155.71 869.973 1158.57 859.596 1158.83 848.994L1156.83 848.945Z" fill="#808080" mask="url(#path-3-inside-1)"/>
<mask id="path-5-inside-2" fill="white">
<path d="M1075.47 837.781C1070.83 845.541 1062.08 849.623 1050.11 849.623C1044.74 849.563 1039.38 848.899 1034.16 847.644C1003.45 840.687 981.371 826.31 976.547 810.109C973.208 798.916 977.722 786.796 989.968 774.151C999.832 763.978 1009.76 758.691 1019.5 758.691C1038.05 758.691 1057.07 776.748 1076.12 812.335C1078.1 816.284 1079.08 820.66 1078.96 825.077C1078.85 829.494 1077.65 833.815 1075.47 837.657"/>
</mask>
<path d="M1050.11 849.623L1050.1 850.623H1050.11V849.623ZM1034.16 847.644L1034.39 846.671L1034.38 846.668L1034.16 847.644ZM976.547 810.109L977.506 809.823L977.506 809.823L976.547 810.109ZM989.968 774.151L989.25 773.454L989.249 773.455L989.968 774.151ZM1076.12 812.335L1077.01 811.886L1077 811.874L1077 811.863L1076.12 812.335ZM1074.61 837.268C1070.21 844.629 1061.86 848.623 1050.11 848.623V850.623C1062.3 850.623 1071.45 846.453 1076.33 838.294L1074.61 837.268ZM1050.12 848.623C1044.82 848.564 1039.54 847.909 1034.39 846.671L1033.92 848.616C1039.22 849.889 1044.65 850.562 1050.1 850.622L1050.12 848.623ZM1034.38 846.668C1019.11 843.21 1006.03 837.915 996.191 831.505C986.336 825.085 979.824 817.609 977.506 809.823L975.589 810.394C978.095 818.81 985.033 826.623 995.1 833.181C1005.18 839.749 1018.49 845.121 1033.93 848.619L1034.38 846.668ZM977.506 809.823C974.316 799.133 978.554 787.375 990.686 774.846L989.249 773.455C976.891 786.217 972.1 798.7 975.589 810.395L977.506 809.823ZM990.685 774.847C1000.45 764.773 1010.14 759.691 1019.5 759.691V757.691C1009.38 757.691 999.21 763.184 989.25 773.454L990.685 774.847ZM1019.5 759.691C1028.43 759.691 1037.59 764.035 1046.93 772.894C1056.28 781.754 1065.74 795.062 1075.23 812.807L1077 811.863C1067.45 794.021 1057.87 780.507 1048.31 771.442C1038.75 762.376 1029.12 757.691 1019.5 757.691V759.691ZM1075.22 812.784C1077.13 816.585 1078.07 820.799 1077.96 825.052L1079.96 825.103C1080.08 820.522 1079.07 815.982 1077.01 811.886L1075.22 812.784ZM1077.96 825.052C1077.85 829.304 1076.7 833.464 1074.6 837.163L1076.34 838.151C1078.6 834.166 1079.85 829.684 1079.96 825.103L1077.96 825.052Z" fill="#808080" mask="url(#path-5-inside-2)"/>
<path d="M432.825 1041.54L432.815 1041.54C414.562 1036.97 394.283 1018.16 378.549 991.812C362.83 965.49 351.714 931.745 351.714 897.451C351.714 875.642 353.574 854.803 362.095 839.423C366.348 831.747 372.26 825.433 380.437 821.033C388.617 816.632 399.093 814.132 412.496 814.131C427.291 814.461 442.002 816.458 456.35 820.083L456.35 820.083L456.359 820.085C496.502 829.419 511.417 849.223 516.888 864.138L517.358 863.966L516.889 864.138C525.379 887.277 517.291 913.719 505.489 929.611C498.995 937.836 491.461 945.183 483.075 951.467L483.068 951.472L483.061 951.478C476.501 956.772 470.572 961.565 466.198 967.457C461.808 973.371 458.992 980.378 458.601 990.093H458.601L458.601 990.105C458.468 998.067 458.935 1006.03 459.996 1013.92C460.646 1019.65 461.22 1024.73 461.036 1029.05C460.853 1033.37 459.918 1036.84 457.624 1039.42C456.151 1040.89 454.378 1042.01 452.427 1042.72C450.471 1043.43 448.384 1043.71 446.31 1043.54L446.296 1043.54L446.282 1043.54C441.733 1043.41 437.215 1042.74 432.825 1041.54Z" stroke="#808080"/>
<path d="M1022.69 509.947L1022.69 509.947C1016.91 516.067 1010.91 519.066 1004.84 519.066C998.793 519.066 993.141 515.928 988.039 509.636C980.702 500.547 980.718 486.837 988.319 470.837C992.776 461.509 999.797 451.843 1007.49 444.514C1015.17 437.205 1023.41 432.313 1030.39 432.258L1030.45 432.289H1030.57C1032.92 432.289 1036.09 432.901 1038.78 435.423C1041.47 437.944 1043.76 442.442 1044.2 450.367C1044.71 459.96 1042.56 471.455 1038.66 482.267C1034.76 493.081 1029.13 503.163 1022.69 509.947Z" stroke="#808080"/>
<mask id="path-9-inside-3" fill="white">
<path d="M541.477 817.399C551.774 867.394 547.847 899.425 544.414 927.685C540.209 962.128 536.56 991.871 562.473 1041.28C581.026 1076.53 604.218 1103.39 624.781 1127.11C656.507 1163.75 683.904 1195.38 685.295 1245.34C686.285 1281.02 681.275 1306.37 671.195 1316.76C669.962 1318.17 668.453 1319.3 666.76 1320.09C665.068 1320.89 663.23 1321.32 661.362 1321.37C652.703 1321.37 642.808 1312.09 634.088 1295.8C629.636 1287.48 626.049 1280.06 622.925 1273.51C607.248 1240.98 599.981 1226.02 535.973 1204.65C460.523 1179.48 439.743 1163.81 437.208 1101.29C436.218 1076.56 417.665 1062.52 394.195 1044.68C357.088 1016.54 306.438 977.989 290.792 871.537C285.164 833.105 292.74 801.507 313.365 777.669C335.505 752.037 372.117 737.475 414.016 737.475C469.15 737.475 530.654 764.961 541.477 817.492"/>
</mask>
<path d="M311.209 776.43L311.333 776.523L311.933 775.723L311.809 775.63L311.209 776.43ZM544.414 927.685L545.407 927.806L545.407 927.805L544.414 927.685ZM562.473 1041.28L561.587 1041.74L561.588 1041.74L562.473 1041.28ZM624.781 1127.11L625.537 1126.45L625.536 1126.45L624.781 1127.11ZM685.295 1245.34L686.295 1245.31V1245.31L685.295 1245.34ZM671.195 1316.76L670.477 1316.07L670.46 1316.08L670.443 1316.1L671.195 1316.76ZM661.362 1321.37V1322.37H661.375L661.387 1322.37L661.362 1321.37ZM634.088 1295.8L634.97 1295.33L634.97 1295.33L634.088 1295.8ZM622.925 1273.51L623.828 1273.08L623.826 1273.07L622.925 1273.51ZM535.973 1204.65L536.289 1203.7L536.289 1203.7L535.973 1204.65ZM437.208 1101.29L436.208 1101.33L436.208 1101.33L437.208 1101.29ZM394.195 1044.68L394.8 1043.88L394.799 1043.88L394.195 1044.68ZM290.792 871.537L289.802 871.682L289.802 871.682L290.792 871.537ZM313.365 777.669L314.121 778.323L314.121 778.322L313.365 777.669ZM540.497 817.6C550.761 867.435 546.85 899.338 543.422 927.564L545.407 927.805C548.843 899.512 552.786 867.352 542.456 817.197L540.497 817.6ZM543.422 927.564C541.321 944.773 539.34 960.926 541.154 978.97C542.97 997.033 548.58 1016.94 561.587 1041.74L563.358 1040.81C550.453 1016.21 544.931 996.542 543.144 978.77C541.356 960.98 543.303 945.04 545.407 927.806L543.422 927.564ZM561.588 1041.74C580.201 1077.11 603.465 1104.05 624.025 1127.76L625.536 1126.45C604.97 1102.74 581.851 1075.95 563.358 1040.81L561.588 1041.74ZM624.025 1127.76C655.78 1164.44 682.915 1195.81 684.296 1245.37L686.295 1245.31C684.892 1194.94 657.233 1163.06 625.537 1126.45L624.025 1127.76ZM684.296 1245.37C684.789 1263.16 683.785 1278.34 681.415 1290.34C679.04 1302.37 675.316 1311.08 670.477 1316.07L671.913 1317.46C677.154 1312.06 680.976 1302.89 683.377 1290.73C685.785 1278.54 686.791 1263.2 686.295 1245.31L684.296 1245.37ZM670.443 1316.1C669.302 1317.4 667.903 1318.45 666.336 1319.19L667.184 1321C669.002 1320.15 670.623 1318.93 671.947 1317.42L670.443 1316.1ZM666.336 1319.19C664.769 1319.92 663.066 1320.32 661.336 1320.37L661.387 1322.37C663.393 1322.32 665.367 1321.85 667.184 1321L666.336 1319.19ZM661.362 1320.37C657.391 1320.37 652.986 1318.23 648.432 1313.97C643.891 1309.71 639.298 1303.41 634.97 1295.33L633.207 1296.27C637.599 1304.48 642.314 1310.97 647.064 1315.42C651.802 1319.87 656.674 1322.37 661.362 1322.37V1320.37ZM634.97 1295.33C630.528 1287.03 626.949 1279.63 623.828 1273.08L622.023 1273.94C625.148 1280.5 628.743 1287.93 633.207 1296.27L634.97 1295.33ZM623.826 1273.07C615.999 1256.83 610.187 1244.78 598.238 1234.15C586.304 1223.53 568.325 1214.4 536.289 1203.7L535.656 1205.6C567.629 1216.27 585.288 1225.3 596.909 1235.64C608.514 1245.97 614.174 1257.65 622.025 1273.94L623.826 1273.07ZM536.289 1203.7C498.536 1191.11 474.705 1180.96 459.953 1166.27C445.275 1151.65 439.471 1132.42 438.207 1101.25L436.208 1101.33C437.48 1132.68 443.333 1152.54 458.542 1167.69C473.675 1182.76 497.959 1193.03 535.656 1205.6L536.289 1203.7ZM438.207 1101.25C437.195 1075.96 418.163 1061.64 394.8 1043.88L393.59 1045.48C417.166 1063.4 435.241 1077.15 436.208 1101.33L438.207 1101.25ZM394.799 1043.88C376.246 1029.82 354.416 1013.22 335.254 986.889C316.101 960.569 299.583 924.472 291.781 871.392L289.802 871.682C297.647 925.054 314.277 961.461 333.637 988.066C352.989 1014.66 375.037 1031.41 393.591 1045.48L394.799 1043.88ZM291.781 871.392C286.185 833.175 293.73 801.891 314.121 778.323L312.608 777.014C291.749 801.123 284.143 833.036 289.802 871.682L291.781 871.392ZM314.121 778.322C336.027 752.963 372.331 738.475 414.016 738.475V736.475C371.903 736.475 334.983 751.112 312.608 777.015L314.121 778.322ZM414.016 738.475C441.431 738.475 470.417 745.311 493.869 758.653C517.316 771.993 535.16 791.787 540.497 817.693L542.456 817.29C536.971 790.666 518.651 770.451 494.858 756.915C471.068 743.381 441.735 736.475 414.016 736.475V738.475Z" fill="#808080" mask="url(#path-9-inside-3)"/>
<path d="M761.181 1355.85C764.891 1325.73 771.261 1245.59 745.348 1178.93C731.403 1143.1 709.077 1114.16 685.422 1083.52C654.159 1043.01 621.815 1001.12 608.611 940.426C602.913 913.053 598.783 885.378 596.242 857.534C589.78 797.027 584.214 744.774 526.204 674.744C488.664 629.48 476.296 588.605 491.293 559.264C504.991 532.581 540.49 519.07 588.759 522.44C685.081 528.995 763.809 612.536 829.426 777.795C878.128 900.418 933.107 917.639 1016.32 943.704C1040.59 951.309 1068.08 959.905 1098.14 972.272C1194.21 1011.72 1197.09 1091.65 1199.5 1162.17C1200.34 1185.58 1201.11 1207.72 1205.16 1227.32C1216.91 1284.36 1247 1333.09 1262.92 1355.88" stroke="#808080"/>
<path d="M1129.34 1187.4C1122.63 1122.04 1115.73 1054.45 1035.06 1007.55C997.516 985.722 964.337 973.541 935.053 962.997C885.578 944.972 846.369 930.719 810.345 880.291C800.388 866.346 791.204 852.804 782.329 839.695C745.408 785.34 717.393 743.848 681.771 743.848C675.269 743.904 668.836 745.195 662.816 747.651C654.838 750.742 649.272 758.07 646.241 769.294C630.162 829.554 690.398 989.556 731.957 1041.38C734.555 1044.62 737.307 1047.99 740.152 1051.49C788.05 1110.57 867.458 1208.49 845.008 1355.91M1179.18 1355.91C1157.4 1318.84 1142.57 1278.12 1135.4 1235.73C1132.68 1219.81 1131.01 1203.36 1129.37 1187.43" stroke="#808080"/>
<path d="M915.444 1356C928.772 1245.9 886.996 1140.78 841.046 1088.22C817.174 1061.01 808.578 1038.38 817.174 1026.01C821.441 1019.82 829.667 1016.73 841.139 1016.73C853.91 1016.73 870.979 1020.57 891.016 1028.2L894.789 1029.63C971.042 1058.57 1031.09 1081.41 1044.85 1191.67C1055.34 1275.49 1079.24 1333 1090.12 1355.88" stroke="#808080"/>
<mask id="path-14-inside-4" fill="white">
<path d="M798.131 971.996C796.922 974.856 794.867 977.278 792.241 978.936C789.616 980.594 786.546 981.409 783.443 981.271C778.392 981.084 773.443 979.797 768.941 977.499C737.122 962.535 688.543 849.899 693.491 815.456C694.542 808.252 697.449 807.819 698.407 807.664C699.135 807.567 699.869 807.515 700.603 807.51C716.961 807.51 733.102 835.924 748.718 863.41C758.304 880.23 768.199 897.668 778.836 910.035C800.172 934.956 803.821 959.505 798.131 971.872"/>
</mask>
<path d="M783.443 981.271L783.488 980.272L783.48 980.272L783.443 981.271ZM768.941 977.499L769.395 976.609L769.381 976.601L769.366 976.594L768.941 977.499ZM693.491 815.456L692.501 815.311L692.501 815.314L693.491 815.456ZM698.407 807.664L698.275 806.673L698.261 806.675L698.248 806.677L698.407 807.664ZM700.603 807.51V806.51L700.596 806.51L700.603 807.51ZM748.718 863.41L747.848 863.904L747.849 863.905L748.718 863.41ZM778.836 910.035L779.595 909.385L779.594 909.383L778.836 910.035ZM797.21 971.607C796.081 974.279 794.161 976.541 791.707 978.09L792.775 979.781C795.574 978.014 797.764 975.433 799.052 972.385L797.21 971.607ZM791.707 978.09C789.254 979.639 786.386 980.401 783.488 980.272L783.399 982.27C786.705 982.417 789.977 981.548 792.775 979.781L791.707 978.09ZM783.48 980.272C778.575 980.09 773.768 978.84 769.395 976.609L768.486 978.39C773.118 980.754 778.21 982.078 783.406 982.271L783.48 980.272ZM769.366 976.594C761.678 972.979 752.805 963.341 743.86 950.149C734.949 937.007 726.075 920.502 718.34 903.371C710.605 886.241 704.021 868.513 699.681 852.933C695.329 837.309 693.276 823.986 694.481 815.598L692.501 815.314C691.232 824.147 693.396 837.82 697.755 853.47C702.126 869.164 708.748 886.988 716.517 904.194C724.285 921.397 733.213 938.01 742.205 951.272C751.163 964.484 760.294 974.538 768.515 978.404L769.366 976.594ZM694.48 815.6C694.99 812.109 695.927 810.428 696.709 809.606C697.458 808.818 698.155 808.718 698.567 808.652L698.248 806.677C697.701 806.765 696.466 806.959 695.259 808.227C694.085 809.462 693.043 811.598 692.501 815.311L694.48 815.6ZM698.54 808.656C699.227 808.564 699.918 808.515 700.61 808.51L700.596 806.51C699.819 806.515 699.044 806.57 698.275 806.673L698.54 808.656ZM700.603 808.51C704.395 808.51 708.261 810.157 712.22 813.174C716.177 816.191 720.153 820.523 724.143 825.759C732.126 836.233 740.03 850.143 747.848 863.904L749.587 862.916C741.79 849.191 733.815 835.151 725.734 824.546C721.692 819.242 717.59 814.754 713.432 811.584C709.275 808.415 704.99 806.51 700.603 806.51V808.51ZM747.849 863.905C757.419 880.697 767.364 898.231 778.078 910.687L779.594 909.383C769.033 897.105 759.188 879.763 749.587 862.915L747.849 863.905ZM778.076 910.686C788.659 923.046 794.827 935.281 797.652 945.918C800.483 956.576 799.939 965.55 797.223 971.454L799.04 972.29C802.013 965.827 802.49 956.342 799.585 945.404C796.674 934.444 790.349 921.945 779.595 909.385L778.076 910.686Z" fill="#808080" mask="url(#path-14-inside-4)"/>
<path d="M1234.52 592.49L1234.52 592.49C1223.4 598.175 1211.24 607.67 1199.53 616.844C1190.65 623.789 1182.04 630.52 1174.11 635.516C1166.16 640.523 1158.98 643.729 1152.93 643.729L1152.92 643.729C1150.52 643.776 1148.16 643.147 1146.11 641.915C1145.05 641.278 1144.36 640.314 1144.06 638.994C1143.75 637.657 1143.85 635.938 1144.44 633.82L1144.44 633.82L1144.45 633.808C1146.12 627.144 1151.57 618.001 1159.3 607.978C1167.03 597.971 1176.99 587.14 1187.63 577.106C1198.27 567.072 1209.57 557.845 1219.98 551.042C1230.41 544.225 1239.86 539.893 1246.8 539.544C1252.4 539.284 1256.94 540.129 1260.28 541.931C1263.6 543.725 1265.76 546.476 1266.61 550.104L1266.61 550.107C1267.94 555.636 1266.1 563.08 1260.81 570.75C1255.52 578.405 1246.81 586.23 1234.52 592.49Z" stroke="#808080"/>
<path d="M652.18 682.047L652.179 682.047C646.649 683.377 639.205 681.537 631.53 676.236C623.869 670.944 616.036 662.239 609.76 649.966C604.157 638.917 594.753 626.877 585.688 615.271L585.434 614.947L585.434 614.947C578.488 606.067 571.756 597.463 566.759 589.531C561.752 581.583 558.545 574.398 558.545 568.352H558.545L558.545 568.343C558.503 565.96 559.121 563.612 560.33 561.559C560.967 560.508 561.931 559.813 563.252 559.509C564.589 559.202 566.31 559.293 568.428 559.868L568.428 559.868L568.437 559.87C575.102 561.551 584.247 567.004 594.275 574.744C604.285 582.471 615.121 592.434 625.157 603.072C635.195 613.71 644.423 625.012 651.226 635.412C658.043 645.836 662.371 655.277 662.712 662.214C662.987 667.816 662.15 672.354 660.351 675.695C658.561 679.021 655.809 681.184 652.18 682.047Z" stroke="#808080"/>
<path d="M491.16 1056.95L491.158 1056.94C497.104 1055.54 505.035 1057.43 513.147 1062.91C521.274 1068.39 529.53 1077.44 536.052 1090.24C541.436 1100.88 550.579 1112.6 559.436 1123.96C559.678 1124.27 559.92 1124.58 560.162 1124.89L560.162 1124.89L560.255 1125.01C567.293 1134 574.109 1142.71 579.176 1150.81C584.274 1158.97 587.546 1166.42 587.546 1172.87L587.546 1172.88C587.587 1175.68 586.841 1178.44 585.391 1180.84L585.389 1180.84C584.757 1181.91 583.734 1182.98 582.081 1183.59C580.423 1184.21 578.081 1184.38 574.779 1183.55L574.778 1183.55C567.99 1181.85 558.678 1176.29 548.471 1168.4C538.28 1160.52 527.25 1150.35 517.034 1139.5C506.817 1128.65 497.423 1117.11 490.498 1106.5C483.563 1095.86 479.156 1086.23 478.803 1079.15V1079.15V1079.14V1079.14V1079.13V1079.13V1079.13V1079.12V1079.12V1079.11V1079.11V1079.1V1079.1V1079.1V1079.09V1079.09V1079.08V1079.08V1079.07V1079.07V1079.07V1079.06V1079.06V1079.05V1079.05V1079.04V1079.04V1079.03V1079.03V1079.03V1079.02V1079.02V1079.01V1079.01V1079V1079V1079V1078.99V1078.99V1078.98V1078.98V1078.97V1078.97V1078.97V1078.96V1078.96V1078.95V1078.95V1078.94V1078.94V1078.94V1078.93V1078.93V1078.92V1078.92V1078.91V1078.91V1078.9V1078.9V1078.9V1078.89V1078.89V1078.88V1078.88V1078.87V1078.87V1078.87V1078.86V1078.86V1078.85V1078.85V1078.84V1078.84V1078.84V1078.83V1078.83V1078.82V1078.82V1078.81V1078.81V1078.8V1078.8V1078.8V1078.79V1078.79V1078.78V1078.78V1078.77V1078.77V1078.77V1078.76V1078.76V1078.75V1078.75V1078.74V1078.74V1078.74V1078.73V1078.73V1078.72V1078.72V1078.71V1078.71V1078.7V1078.7V1078.7V1078.69V1078.69V1078.68V1078.68V1078.67V1078.67V1078.67V1078.66V1078.66V1078.65V1078.65V1078.64V1078.64V1078.64V1078.63V1078.63V1078.62V1078.62V1078.61V1078.61V1078.61V1078.6V1078.6V1078.59V1078.59V1078.58V1078.58V1078.57V1078.57V1078.57V1078.56V1078.56V1078.55V1078.55V1078.54V1078.54V1078.54V1078.53V1078.53V1078.52V1078.52V1078.51V1078.51V1078.51V1078.5V1078.5V1078.49V1078.49V1078.48V1078.48V1078.48V1078.47V1078.47V1078.46V1078.46V1078.45V1078.45V1078.44V1078.44V1078.44V1078.43V1078.43V1078.42V1078.42V1078.41V1078.41V1078.41V1078.4V1078.4V1078.39V1078.39V1078.38V1078.38V1078.38V1078.37V1078.37V1078.36V1078.36V1078.35V1078.35V1078.35V1078.34V1078.34V1078.33V1078.33V1078.32V1078.32V1078.31V1078.31V1078.31V1078.3V1078.3V1078.29V1078.29V1078.28V1078.28V1078.28V1078.27V1078.27V1078.26V1078.26V1078.25V1078.25V1078.25V1078.24V1078.24V1078.23V1078.23V1078.22V1078.22V1078.22V1078.21V1078.21V1078.2V1078.2V1078.19V1078.19V1078.19V1078.18V1078.18V1078.17V1078.17V1078.16V1078.16V1078.16V1078.15V1078.15V1078.14V1078.14V1078.13V1078.13V1078.13V1078.12V1078.12V1078.11V1078.11V1078.1V1078.1V1078.09V1078.09V1078.09V1078.08V1078.08V1078.07V1078.07V1078.06V1078.06V1078.06V1078.05V1078.05V1078.04V1078.04V1078.03V1078.03V1078.03V1078.02V1078.02V1078.01V1078.01V1078V1078V1078V1077.99V1077.99V1077.98V1077.98V1077.97V1077.97V1077.97V1077.96V1077.96V1077.95V1077.95V1077.94V1077.94V1077.94V1077.93V1077.93V1077.92V1077.92V1077.91V1077.91V1077.91V1077.9V1077.9V1077.89V1077.89V1077.88V1077.88V1077.88V1077.87V1077.87V1077.86V1077.86V1077.85V1077.85V1077.85V1077.84V1077.84V1077.83V1077.83V1077.82V1077.82V1077.82V1077.81V1077.81V1077.8V1077.8V1077.79V1077.79V1077.79V1077.78V1077.78V1077.77V1077.77V1077.76V1077.76V1077.76V1077.75V1077.75V1077.74V1077.74V1077.73V1077.73V1077.73V1077.72V1077.72V1077.71V1077.71V1077.7V1077.7V1077.7V1077.69V1077.69V1077.68V1077.68V1077.67V1077.67V1077.67V1077.66V1077.66V1077.65V1077.65V1077.64V1077.64V1077.64V1077.63V1077.63V1077.62V1077.62V1077.62V1077.61V1077.61V1077.6V1077.6V1077.59V1077.59V1077.59V1077.58V1077.58V1077.57V1077.57V1077.56V1077.56V1077.56V1077.55V1077.55V1077.54V1077.54V1077.53V1077.53V1077.53V1077.52V1077.52V1077.51V1077.51V1077.5V1077.5V1077.5V1077.49V1077.49V1077.48V1077.48V1077.47V1077.47V1077.47V1077.46V1077.46V1077.45V1077.45V1077.45V1077.44V1077.44V1077.43V1077.43V1077.42V1077.42V1077.42V1077.41V1077.41V1077.4V1077.4V1077.39V1077.39V1077.39V1077.38V1077.38V1077.37V1077.37V1077.36V1077.36V1077.36V1077.35V1077.35V1077.34V1077.34V1077.34V1077.33V1077.33V1077.32V1077.32V1077.31V1077.31V1077.31V1077.3V1077.3V1077.29V1077.29V1077.28V1077.28V1077.28V1077.27V1077.27V1077.26V1077.26V1077.26V1077.25V1077.25V1077.24V1077.24V1077.23V1077.23V1077.23V1077.22V1077.22V1077.21V1077.21V1077.2V1077.2V1077.2V1077.19V1077.19V1077.18V1077.18V1077.18V1077.17V1077.17V1077.16V1077.16V1077.15V1077.15V1077.15V1077.14V1077.14V1077.13V1077.13V1077.12V1077.12V1077.12V1077.11V1077.11V1077.1V1077.1V1077.1V1077.09V1077.09V1077.08V1077.08V1077.07V1077.07V1077.07V1077.06V1077.06V1077.05V1077.05V1077.05V1077.04V1077.04V1077.03V1077.03V1077.02V1077.02V1077.02V1077.01V1077.01V1077V1077V1077V1076.99V1076.99V1076.98V1076.98V1076.97V1076.97V1076.97C478.803 1066.03 483.369 1058.83 491.16 1056.95Z" stroke="#808080"/>
<path d="M1452.69 192.848C1459.37 251.995 1465.7 307.895 1448.3 325.024C1443.69 329.507 1437.5 331.208 1429.37 330.126C1385.77 324.375 1345.88 275.802 1307.2 228.837C1269.26 182.738 1229.89 135.03 1185.98 126.002C1111.99 110.821 1084.59 149.933 1018.39 244.451C1001.1 269.185 981.527 297.012 957.624 329.136C869.001 447.739 792.129 427.519 702.95 404.083C675.56 396.357 647.745 390.225 619.646 385.717C540.361 374.401 475.363 389.273 441.318 426.529C415.56 454.727 407.953 495.014 419.302 542.999C443.637 645.834 418.096 652.45 362.127 666.982C354.272 669.023 346.171 671.125 337.389 673.691C296.943 685.502 263.238 714.627 242.242 755.563C217.319 804.291 210.887 869.281 223.688 943.485C251.116 1102.96 356.066 1173.67 480.156 1243.39C563.182 1290.08 583.158 1335.28 587.92 1355.75M1471.7 -2H1463.35C1435.52 40.7293 1444.8 120.932 1452.81 192.786" stroke="#808080"/>
<path d="M1337.72 1355.9C1301.42 1309.04 1280.93 1251.85 1279.22 1192.59C1279.02 1164.01 1280.4 1135.44 1283.36 1107.01C1289.55 1037.51 1295.14 971.835 1246.26 895.621C1211.28 841.236 1200.52 793.59 1215.09 757.942C1226.59 729.837 1253.86 710.142 1294 700.99C1350.96 688.035 1401.02 723.344 1449.41 757.509C1477 776.987 1505.54 797.115 1534.57 807.442C1581.7 824.169 1612.9 812.513 1645.89 800.145C1669.39 791.364 1693.67 782.274 1725.98 782.274C1775.46 782.274 1806.81 828.899 1832.08 866.341C1846.58 887.799 1859.07 906.35 1872.8 914.079C1887.58 922.727 1903.81 928.605 1920.7 931.425" stroke="#808080"/>
<path d="M1920.72 787.475C1898.86 782.776 1857.67 766.358 1814.6 709.437C1769.76 650.197 1702.23 667.821 1642.64 683.373C1612.46 691.257 1583.89 698.677 1559.15 697.008C1520.75 694.411 1477.55 673.324 1435.77 652.887C1394.86 632.914 1352.59 612.26 1313.35 607.87C1270.06 602.985 1239.14 629.884 1211.74 653.598C1187.68 674.468 1164.96 694.163 1136.97 691.319C1117.95 689.371 1111.68 676.138 1109.76 665.409C1102.77 626.885 1141.12 549.929 1230.79 505.87C1308.09 467.933 1401.48 476.559 1476.5 483.516C1521.52 487.69 1560.39 491.277 1589.61 485.248C1629.41 477.054 1655.29 448.393 1682.72 418.062C1710.14 387.731 1738.38 356.441 1782.28 346.022C1827.62 335.227 1874.7 333.984 1920.54 342.374" stroke="#808080"/>
<path d="M1920.57 253.205C1888.22 250.546 1813.83 247.733 1763.33 271.416C1733.15 285.577 1708.1 310.775 1686.02 333.006C1657.95 361.172 1633.7 385.567 1604.36 385.567C1585.84 385.567 1572.57 380.62 1563.73 370.448C1546.91 351.124 1544.62 313.403 1555.56 236.107C1561.84 191.678 1557.48 149.381 1553.62 112.094C1549.04 67.1073 1544.9 27.3771 1561.41 -1.93359" stroke="#808080"/>
<path d="M1920.48 140.446C1890.83 142.208 1827.65 148.886 1786.71 174.456C1765.22 187.782 1743.14 210.878 1721.78 233.201C1687.42 269.221 1654.89 303.2 1625.92 297.419C1615.56 295.347 1607.86 282.052 1603.59 258.987C1591.78 195.079 1609.25 52.4828 1661.45 -1.93359" stroke="#808080"/>
<path d="M1647.87 154.509C1648.11 170.556 1652.47 181.192 1660.42 185.427C1682.84 196.96 1688.96 190.251 1709.25 167.959C1727.98 146.987 1748.22 127.406 1769.79 109.368C1813.13 73.3999 1865.14 49.4145 1920.63 39.8017M1715.31 -2C1676.01 34.391 1647.28 112.398 1647.87 154.447" stroke="#808080"/>
<mask id="path-25-inside-5" fill="white">
<path d="M1523.96 417.349C1524.58 418.864 1526.47 423.533 1519.17 430.706C1512.8 436.89 1493.19 437.693 1478.97 437.693C1464.19 437.693 1446.84 436.797 1426.74 435.777C1402.31 434.509 1374.67 433.087 1346.1 433.087C1261.12 433.087 1201.13 446.196 1157.29 474.363C1084.74 520.926 1073.18 581.248 1065.51 621.132C1060.13 649.114 1057.1 661.326 1042.44 659.44C1037.17 658.733 1031.86 658.372 1026.55 658.358C968.075 658.358 934.431 702.633 909.879 734.943C898.098 750.402 887.924 763.883 880.287 763.883C880.02 763.914 879.75 763.914 879.483 763.883C868.815 762.522 863.465 745.641 856.075 722.328C846.427 691.936 833.223 650.289 799.24 609.198C772.214 576.517 740.272 550.453 712.071 527.728C676.51 498.881 648.402 476.094 648.402 454.08C648.271 452.87 648.404 451.645 648.794 450.492C649.184 449.339 649.82 448.284 650.659 447.402C652.928 445.92 655.629 445.244 658.328 445.485C668.192 445.485 684.395 450.463 703.165 456.275C735.139 466.107 774.904 478.382 817.02 478.382C855.951 478.382 888.759 467.932 917.331 446.474C958.736 415.339 996.245 371.281 1032.49 328.706C1082.36 269.652 1129.92 213.875 1173.71 213.875C1208.93 213.875 1235.55 252.801 1263.69 293.985C1294.61 339.002 1326.34 385.565 1373.25 385.565C1467.62 385.565 1517.37 402.044 1523.65 417.38"/>
</mask>
<path d="M1519.17 430.706L1519.86 431.423L1519.87 431.419L1519.17 430.706ZM1426.74 435.777L1426.69 436.775L1426.69 436.775L1426.74 435.777ZM1157.29 474.363L1157.83 475.204L1157.83 475.204L1157.29 474.363ZM1065.51 621.132L1066.49 621.321L1065.51 621.132ZM1042.44 659.44L1042.31 660.432L1042.31 660.432L1042.44 659.44ZM1026.55 658.358L1026.55 657.358H1026.55V658.358ZM909.879 734.943L910.675 735.549L910.675 735.548L909.879 734.943ZM880.287 763.883V762.883H880.23L880.173 762.889L880.287 763.883ZM879.483 763.883L879.356 764.875L879.369 764.876L879.483 763.883ZM856.075 722.328L857.028 722.026L857.028 722.026L856.075 722.328ZM799.24 609.198L798.469 609.835L798.469 609.835L799.24 609.198ZM712.071 527.728L711.441 528.505L711.443 528.507L712.071 527.728ZM648.402 454.08H649.402V454.026L649.396 453.972L648.402 454.08ZM650.659 447.402L650.112 446.565L650.015 446.628L649.935 446.713L650.659 447.402ZM658.328 445.485L658.239 446.481L658.284 446.485H658.328V445.485ZM703.165 456.275L702.869 457.231L702.871 457.231L703.165 456.275ZM917.331 446.474L917.932 447.274L917.932 447.274L917.331 446.474ZM1032.49 328.706L1033.25 329.354L1033.25 329.351L1032.49 328.706ZM1263.69 293.985L1262.86 294.549L1262.87 294.551L1263.69 293.985ZM1523.03 417.727C1523.32 418.432 1523.86 419.768 1523.55 421.747C1523.22 423.735 1522.01 426.512 1518.47 429.993L1519.87 431.419C1523.62 427.727 1525.11 424.583 1525.52 422.065C1525.93 419.537 1525.22 417.782 1524.89 416.971L1523.03 417.727ZM1518.47 429.988C1517.04 431.378 1514.79 432.529 1511.9 433.454C1509.02 434.374 1505.59 435.044 1501.88 435.527C1494.48 436.492 1486.07 436.693 1478.97 436.693V438.693C1486.09 438.693 1494.6 438.493 1502.14 437.51C1505.91 437.019 1509.47 436.329 1512.5 435.359C1515.52 434.394 1518.11 433.125 1519.86 431.423L1518.47 429.988ZM1478.97 436.693C1464.22 436.693 1446.9 435.799 1426.79 434.778L1426.69 436.775C1446.78 437.795 1464.16 438.693 1478.97 438.693V436.693ZM1426.79 434.778C1402.37 433.51 1374.7 432.087 1346.1 432.087V434.087C1374.64 434.087 1402.26 435.507 1426.69 436.775L1426.79 434.778ZM1346.1 432.087C1261.04 432.087 1200.83 445.205 1156.75 473.521L1157.83 475.204C1201.44 447.187 1261.21 434.087 1346.1 434.087V432.087ZM1156.75 473.521C1083.84 520.32 1072.21 581.007 1064.53 620.944L1066.49 621.321C1074.15 581.489 1085.65 521.532 1157.83 475.204L1156.75 473.521ZM1064.53 620.944C1061.83 634.99 1059.75 644.87 1056.57 651.028C1054.99 654.075 1053.19 656.116 1051 657.306C1048.8 658.494 1046.09 658.902 1042.57 658.449L1042.31 660.432C1046.12 660.922 1049.28 660.51 1051.95 659.064C1054.61 657.621 1056.66 655.214 1058.34 651.946C1061.69 645.473 1063.81 635.256 1066.49 621.321L1064.53 620.944ZM1042.58 658.449C1037.26 657.737 1031.91 657.372 1026.55 657.358L1026.55 659.358C1031.82 659.372 1037.08 659.73 1042.31 660.432L1042.58 658.449ZM1026.55 657.358C967.512 657.358 933.588 702.09 909.083 734.338L910.675 735.548C935.275 703.177 968.637 659.358 1026.55 659.358V657.358ZM909.084 734.337C903.181 742.083 897.727 749.27 892.8 754.526C890.337 757.153 888.039 759.262 885.913 760.708C883.778 762.162 881.909 762.883 880.287 762.883V764.883C882.483 764.883 884.751 763.919 887.039 762.362C889.337 760.797 891.75 758.57 894.259 755.894C899.272 750.546 904.796 743.263 910.675 735.549L909.084 734.337ZM880.173 762.889C879.981 762.911 879.788 762.911 879.597 762.889L879.369 764.876C879.712 764.916 880.058 764.916 880.401 764.876L880.173 762.889ZM879.609 762.891C874.822 762.28 871.025 758.166 867.447 750.896C863.893 743.675 860.732 733.711 857.028 722.026L855.122 722.631C858.808 734.259 862.017 744.392 865.652 751.779C869.264 759.118 873.475 764.125 879.356 764.875L879.609 762.891ZM857.028 722.026C847.378 691.625 834.128 649.813 800.011 608.561L798.469 609.835C832.319 650.764 845.476 692.246 855.122 722.631L857.028 722.026ZM800.011 608.561C772.912 575.792 740.894 549.671 712.698 526.949L711.443 528.507C739.649 551.235 771.516 577.242 798.469 609.835L800.011 608.561ZM712.701 526.951C694.903 512.514 679.044 499.65 667.626 487.652C656.18 475.625 649.402 464.673 649.402 454.08H647.402C647.402 465.501 654.679 476.949 666.177 489.031C677.703 501.142 693.678 514.095 711.441 528.505L712.701 526.951ZM649.396 453.972C649.28 452.906 649.398 451.828 649.741 450.812L647.847 450.172C647.41 451.463 647.261 452.834 647.408 454.188L649.396 453.972ZM649.741 450.812C650.085 449.797 650.645 448.868 651.384 448.091L649.935 446.713C648.996 447.7 648.283 448.881 647.847 450.172L649.741 450.812ZM651.206 448.239C653.287 446.88 655.764 446.26 658.239 446.481L658.417 444.489C655.494 444.228 652.569 444.96 650.112 446.565L651.206 448.239ZM658.328 446.485C663.125 446.485 669.538 447.7 677.157 449.669C684.759 451.633 693.479 454.323 702.869 457.231L703.461 455.32C694.082 452.416 685.315 449.71 677.657 447.732C670.016 445.758 663.395 444.485 658.328 444.485V446.485ZM702.871 457.231C734.827 467.058 774.732 479.382 817.02 479.382V477.382C775.077 477.382 735.45 465.157 703.459 455.32L702.871 457.231ZM817.02 479.382C856.148 479.382 889.171 468.873 917.932 447.274L916.731 445.675C888.348 466.99 855.755 477.382 817.02 477.382V479.382ZM917.932 447.274C959.443 416.059 997.024 371.908 1033.25 329.354L1031.72 328.058C995.465 370.653 958.03 414.619 916.73 445.675L917.932 447.274ZM1033.25 329.351C1058.2 299.811 1082.51 271.159 1106.05 249.887C1129.62 228.585 1152.21 214.875 1173.71 214.875V212.875C1151.41 212.875 1128.33 227.053 1104.71 248.403C1081.05 269.783 1056.65 298.547 1031.72 328.061L1033.25 329.351ZM1173.71 214.875C1190.92 214.875 1206.14 224.382 1220.64 239.186C1235.14 253.99 1248.78 273.936 1262.86 294.549L1264.52 293.42C1250.46 272.85 1236.72 252.741 1222.07 237.786C1207.42 222.831 1191.71 212.875 1173.71 212.875V214.875ZM1262.87 294.551C1278.31 317.037 1294.03 340.021 1311.77 357.371C1329.53 374.734 1349.43 386.565 1373.25 386.565V384.565C1350.16 384.565 1330.74 373.115 1313.17 355.941C1295.6 338.755 1279.99 315.949 1264.51 293.418L1262.87 294.551ZM1373.25 386.565C1420.38 386.565 1456.33 390.681 1481.25 396.694C1493.71 399.701 1503.38 403.174 1510.31 406.824C1517.27 410.495 1521.29 414.259 1522.73 417.759L1524.58 417.001C1522.87 412.833 1518.32 408.787 1511.24 405.055C1504.12 401.301 1494.28 397.779 1481.72 394.75C1456.6 388.689 1420.48 384.565 1373.25 384.565V386.565Z" fill="#808080" mask="url(#path-25-inside-5)"/>
<path d="M1920.6 709.996C1897.56 701.648 1853.69 680.685 1807.92 631.803C1765.56 586.508 1690.23 604.564 1623.78 620.518C1585.47 629.794 1549.26 638.389 1527.92 631.494C1503.46 623.548 1483.08 611.892 1463.36 600.576C1436.86 585.426 1409.49 569.657 1370.99 561.835C1343.66 556.146 1327.7 546.654 1328.32 536.358C1329 525.289 1351.02 512.334 1398.7 508.531C1435.81 505.44 1476 508.284 1514.56 511.067C1560.95 514.375 1604.73 517.529 1632.38 508.47C1653.53 501.575 1674.68 483.271 1697.03 463.885C1727.59 437.45 1762.22 407.459 1804.86 399.482C1843.45 392.526 1883.16 395.192 1920.48 407.243" stroke="#808080"/>
<path d="M1920.91 616.435C1888.32 601.285 1814.44 570.676 1749.1 570.676H1744.93C1712.24 571.356 1673.81 576.334 1636.7 581.157C1576.13 589.042 1518.92 596.617 1509.12 581.157C1503.15 571.882 1501.94 563.998 1505.5 558.03C1513.69 544.334 1545.92 539.479 1601.36 543.468C1660.45 547.735 1693.94 525.319 1726.28 503.645C1746.35 490.195 1767.1 476.282 1793.69 469.171C1842.92 456.031 1895.27 461.72 1921 466.079" stroke="#808080"/>
<path d="M1920.63 562.852C1894.61 552.597 1867.47 545.456 1839.77 541.58C1814.04 537.715 1788.9 525.595 1784.85 515.145C1784.37 514.109 1784.2 512.958 1784.36 511.828C1784.52 510.699 1785 509.639 1785.75 508.776C1790.39 503.056 1812.84 492.049 1920.63 508.281" stroke="#808080"/>
<path d="M1094.24 309.837L1094.24 309.836C1117.96 277.818 1142.07 261.744 1165.86 261.744H1165.92C1189.73 261.744 1212.95 277.84 1234.55 309.849L1234.56 309.85C1248.76 330.775 1257.95 346.698 1262.75 359.188C1267.55 371.677 1267.94 380.65 1264.66 387.738C1262.1 393.286 1257.26 397.65 1249.62 401.017C1241.97 404.388 1231.54 406.746 1217.84 408.29C1187.94 411.619 1154.45 419.443 1123.23 443.016C1092.01 466.592 1063.11 505.879 1042.34 572.041C1040.67 577.355 1037.69 581.454 1033.6 584.229C1029.51 587.007 1024.28 588.479 1018.08 588.479C1003.89 588.479 987.048 581.107 972.526 568.661C958.013 556.223 945.872 538.764 941.046 518.678C936.249 498.712 946.749 475.676 964.891 451.195C982.898 426.898 1008.32 401.327 1033.36 376.137L1033.84 375.655C1033.84 375.655 1033.84 375.655 1033.84 375.655C1057.27 352.104 1079.4 329.845 1094.24 309.837Z" stroke="#808080"/>
<path d="M755.559 529.873L755.559 529.871C755.619 525.81 757.087 521.332 761.878 517.85C766.695 514.349 774.928 511.812 788.61 511.812C813.752 511.812 851.958 521.002 886.615 535.404C903.937 542.602 920.354 551.095 933.793 560.377C947.241 569.665 957.667 579.716 963.062 590.015C972.887 609.047 975.569 622.377 971.729 632.081L971.729 632.083C969.389 638.044 964.786 642.283 958.7 645.764C952.604 649.251 945.073 651.949 936.929 654.86L936.929 654.86C930.277 657.242 923.399 659.813 916.333 662.911L916.328 662.914L908.938 666.253L908.935 666.254C903.826 668.607 899.895 670.414 896.623 671.635C893.354 672.855 890.783 673.474 888.395 673.474C884.622 673.474 881.857 672.042 879.015 668.944C876.143 665.813 873.234 661.026 869.187 654.36L869.185 654.357C868.806 653.743 868.416 653.111 868.015 652.46C863.181 644.62 856.673 634.065 846.841 620.318L846.434 620.609L846.841 620.318C827.42 593.17 806.11 581.302 789.03 571.791L789.021 571.786L788.853 571.692L788.852 571.692L788.826 571.677L788.826 571.677C779.32 566.399 770.905 561.721 764.905 555.465C758.935 549.24 755.345 541.44 755.559 529.873Z" stroke="#808080"/>
<path d="M1408.99 1355.75C1386.79 1329.01 1332.74 1256.47 1328.6 1180.04C1326.46 1139.14 1329.43 1104.57 1332.28 1071.15C1336.23 1025.08 1339.67 985.286 1328.57 940.764C1321.89 913.864 1307.57 888.604 1293.72 864.148C1268.98 820.398 1247.52 782.585 1285.86 756.212C1293.26 751.139 1302.06 748.492 1311.03 748.636C1343.84 748.636 1385.25 778.689 1428.69 810.071C1465.98 837.094 1504.57 865.044 1537.88 872.65C1575.54 881.246 1605.07 878.401 1633.74 875.742C1667.75 872.465 1699.94 869.373 1744.56 884.276C1786.4 898.251 1814.2 928.52 1841.1 957.8C1864.17 982.905 1887.95 1008.75 1920.88 1025.2" stroke="#808080"/>
<path d="M1482.07 1355.88C1423.81 1293.45 1391.22 1223.89 1404.76 1087.44C1412.49 1008.66 1387.01 951.401 1370.13 913.526C1356.37 882.607 1348.05 863.871 1364.75 854.039C1386.08 841.455 1418.3 861.243 1455.6 884.184C1485.28 902.395 1518.89 923.049 1552.32 929.944C1572.85 934.21 1593.2 934.798 1612.9 935.354C1664.97 936.838 1714.17 938.261 1757.64 1006.84C1804.03 1080.21 1885.97 1112.61 1920.63 1123.49" stroke="#808080"/>
<path d="M1560.11 1355.88C1533.02 1329.47 1467.84 1256.94 1462.4 1166.26C1460.02 1126.71 1454.88 1092.98 1450.77 1065.83C1442.83 1013.55 1438.03 981.982 1461.75 969.985C1483.4 959.195 1512.06 969.182 1548.33 981.827C1573.07 990.423 1600.9 1000.16 1631.82 1004.89C1687.3 1013.39 1699.85 1037.91 1719.11 1075.02C1726.47 1089.81 1734.62 1104.18 1743.54 1118.08C1775.3 1166.38 1879.85 1185.77 1920.45 1191.58" stroke="#808080"/>
<path d="M1637.29 1355.75C1616.91 1331.54 1567.75 1271.44 1539.08 1221.29C1512.52 1174.91 1492.48 1107.29 1505.53 1068.12C1509.86 1055.16 1517.53 1046.23 1528.32 1041.56C1576.59 1020.66 1642.42 1049.75 1664.72 1087.78C1683.27 1119.57 1742.7 1209.11 1792.52 1241.35C1827.31 1263.89 1890.91 1278.77 1920.75 1284.86" stroke="#808080"/>
<path d="M1718.3 1355.88C1686.55 1333.8 1651.23 1294.04 1619.35 1243.92C1587.47 1193.8 1566.14 1143.47 1567.53 1121.3C1567.87 1115.89 1569.51 1112.55 1572.41 1111.4C1589.85 1104.54 1612.86 1134.72 1641.93 1172.9C1665.95 1204.44 1695.82 1243.64 1732.93 1275.61C1797.87 1331.61 1884.7 1340.32 1920.6 1341.41" stroke="#808080"/>
<path d="M1402.28 141.868C1417.74 229.8 1402.93 245.847 1395.91 248.66C1386.17 252.587 1371.17 240.962 1355.06 216.783C1327.23 175.26 1234.9 50.1021 1134.81 50.1021C1124.81 50.088 1114.85 51.3768 1105.18 53.936C1041.79 70.601 992.349 155.039 948.748 229.553C919.28 279.888 891.45 327.409 863.744 346.177C829.451 369.366 768.194 355.916 697.228 340.364C627.994 325.214 549.544 307.993 481.547 323.019C423.722 335.819 387.018 371.437 372.392 428.884C360.023 476.931 365.589 530.729 369.3 566.347L369.887 571.974C373.258 606.201 342.861 618.692 304.363 634.522C265.061 650.662 220.534 668.965 196.136 715.683C143.569 815.271 138.497 929.731 181.912 1029.72C207.794 1089.39 210.855 1132.46 191.467 1165.3C166.729 1207.41 103.895 1233.69 0.0900879 1245.41M1389.2 -1.93359C1387.81 16.6175 1387.9 58.852 1402.38 141.868" stroke="#808080"/>
<path d="M1332.83 -1.93359C1343.72 28.9848 1369.94 108.847 1355.04 129.934C1354.39 130.949 1353.52 131.801 1352.49 132.424C1351.46 133.046 1350.3 133.421 1349.1 133.52C1339.85 134.262 1325.78 119.978 1304.48 98.3349C1273.68 67.0145 1229.43 22.09 1172.72 -1.93359" stroke="#808080"/>
<path d="M1032.89 -1.93359C1011.24 16.6175 962.168 62.3458 933.967 121.462C929.607 130.552 925.309 139.796 921.134 148.701C888.45 218.762 857.559 284.958 796.457 300.758C763.679 309.229 722.986 294.45 675.861 277.353C623.541 258.369 564.232 236.849 501.089 241.704C494.255 242.229 487.143 242.848 479.753 243.497C401.829 250.175 295.086 259.327 222.234 195.542C175.696 154.792 149.103 88.3791 143.073 -1.93359" stroke="#808080"/>
<path d="M456.469 171.024C478.949 170.158 502.203 169.293 523.632 169.849C583.559 171.395 631.859 192.574 674.284 211.249C695.497 220.524 715.503 229.336 734.861 234.778C742.745 237.153 751.033 237.887 759.213 236.936C767.392 235.984 775.29 233.366 782.419 229.243C818.628 208.652 839.903 153.586 851.344 111.011C865.908 57.6462 907.746 16.6175 929.577 -1.93359M219.637 -1.93359C220.874 24.2852 228.048 89.0593 267.906 133.18C307.177 176.466 383.06 173.776 456.531 171.024" stroke="#808080"/>
<path d="M353.902 114.66C383.401 121.06 419.735 119.792 458.233 118.432C513.893 116.453 577.159 114.227 631.829 135.592L650.785 143.074C702.765 163.696 737.088 177.331 762.382 164.717C777.596 157.234 788.419 140.508 796.397 112.155C813.064 53.7196 834.802 14.886 845.439 -1.93359M284.574 -1.93359C285.719 27.3152 294.5 101.736 353.933 114.66" stroke="#808080"/>
<path d="M499.576 60.1506C511.728 60.1506 524.314 60.367 537.765 60.5835C608.885 61.7274 650.692 82.2264 678.275 95.5831C700.446 106.405 713.835 112.959 726.606 102.292C748.87 83.7414 756.415 23.6359 758.672 -1.93359M353.314 -1.93359C353.809 15.5044 358.138 28.15 366.704 37.3019C387.329 59.3158 431.98 59.6559 499.669 60.1506" stroke="#808080"/>
<path d="M416.212 9.72265C424.623 16.4629 438.445 14.886 461.296 12.3198C476.108 10.6811 494.507 8.60959 517.513 8.11489C556.461 6.97737 595.367 11.5185 633.007 21.5953C643.686 24.3965 654.502 26.6462 665.413 28.3355C674.411 29.5104 681.369 27.5626 686.038 22.461C691.944 16.03 693.057 5.98152 692.748 -1.93359M408.945 -1.93359C410.072 2.59355 412.566 6.66367 416.088 9.72265" stroke="#808080"/>
<path d="M0.0900879 1165.48C34.5064 1165.86 112.616 1160.6 128.479 1106.58C137.724 1075.23 130.148 1042.09 120.593 1000.16C109.059 949.519 94.6807 886.476 107.575 803.955C130.488 657.031 188.715 634.151 262.402 605.15L266.051 603.697C323.071 581.25 320.164 549.373 316.145 505.252C314.475 490.09 313.772 474.837 314.042 459.586C315.155 428.296 331.915 400.593 346.696 376.106C363.672 348.001 378.36 323.73 367.537 300.263C358.199 280.104 324.184 274.199 284.759 267.335C238.19 259.296 180.459 249.248 144.991 211.404C90.8155 153.215 75.138 35.3231 71.4273 -1.93359" stroke="#808080"/>
<path d="M0.0900879 88.0684C46.4732 257.78 150.279 279.422 214.844 292.81L218.462 293.583C257.022 301.622 279.347 314.7 286.676 333.499C293.231 350.535 287.665 370.972 269.143 396.263C248.271 425.388 245.457 442.734 241.622 466.726C238.31 490.522 232.292 513.861 223.688 536.293C211.473 568.417 188.653 579.888 162.245 593.152C128.077 610.28 89.3312 629.728 60.6974 701.583C27.2087 785.619 46.7206 864.646 62.3671 928.122C70.747 962.132 77.9828 991.597 77.1788 1017.79C76.6531 1039.43 69.3246 1056.12 55.5334 1067.25C38.5262 1080.98 15.5511 1083.3 0.0900879 1083.02" stroke="#808080"/>
<path d="M108.011 556.263C145.55 513.812 168.649 462.456 179.132 435.681C192.15 402.196 194.593 384.202 188.006 371.494C178.699 353.623 151.611 347.13 102.321 335.072L90.4161 332.197C40.9408 320.262 14.2551 281.151 0.0927662 246.924M0 622.614C38.9309 615.626 75.1716 593.396 107.918 556.386" stroke="#808080"/>
<path d="M0.0900879 341.475C12.9228 357.057 33.3932 375.918 60.3263 381.019C81.6007 385.1 102.349 391.006 110.049 406.743C117.192 421.368 112.708 443.413 95.9485 476.186C70.9635 524.697 24.6113 546.742 0.0900879 555.368" stroke="#808080"/>
<path d="M0.0900879 398.057C20.0348 404.735 51.0187 418.556 48.9779 439.395C47.0298 459.615 18.6433 487.009 0.0900879 502.901" stroke="#808080"/>
</g>
</svg>
