<svg width="1920" height="1100" viewBox="0 0 1920 1100" fill="none" xmlns="http://www.w3.org/2000/svg">
<mask id="mask0" mask-type="alpha" maskUnits="userSpaceOnUse" x="0" y="0" width="1920" height="1100">
<rect width="1920" height="1100" fill="#1A1A1A"/>
</mask>
<g mask="url(#mask0)">
<g opacity="0.15">
<path d="M394.783 865.325L394.692 865.454C390.798 870.998 388.877 878.782 388.965 888.037C389.054 897.287 391.149 907.967 395.247 919.257L394.783 865.325ZM394.783 865.325V865.17M394.783 865.325V865.17M394.783 865.17C399.559 858.429 407.026 854.969 417.07 854.969C420.694 855.005 424.306 855.395 427.855 856.133L427.859 856.134C441 858.743 449.64 864.551 453.663 873.229C456.649 879.716 457.123 887.876 455.027 897.689C452.931 907.5 448.271 918.929 441.036 931.918C438.99 935.403 436.091 938.31 432.611 940.365C429.132 942.419 425.186 943.554 421.147 943.663C417.999 943.662 413.488 942.909 408.792 939.507C404.091 936.101 399.165 930.009 395.247 919.258L394.783 865.17Z" stroke="#808080"/>
<path d="M1106.5 347.057L1106.5 347.057C1113.57 331.902 1121.96 319.825 1130.87 311.544C1139.79 303.261 1149.2 298.804 1158.31 298.804H1158.81V298.746C1170.35 298.945 1180.96 306.032 1190.39 320.163C1199.62 333.998 1202.14 346.659 1198.04 357.804C1194.97 366.141 1188.19 373.724 1177.72 380.498C1167.24 387.271 1153.09 393.214 1135.32 398.277C1132.96 398.934 1130.52 399.26 1128.07 399.247L1128.07 399.247L1128.06 399.247C1123.4 399.341 1118.79 398.28 1114.64 396.16C1110.49 394.041 1106.93 390.93 1104.27 387.103C1099.96 380.38 1096.76 367.923 1106.5 347.057Z" stroke="#808080"/>
<mask id="path-4-inside-1" fill="white">
<path d="M1149.5 880.719C1141.8 893.519 1125.32 908.793 1090.31 908.793C1078.47 908.654 1066.68 907.202 1055.15 904.464C986.693 889.005 939.259 857.592 928.374 820.552C920.582 794.426 930.663 766.723 958.338 738.154C980.478 715.274 1003.05 703.68 1025.5 703.711C1067.25 703.711 1109.52 743.132 1151.08 820.861C1155.76 830.192 1158.08 840.533 1157.83 850.971C1157.57 861.41 1154.76 871.626 1149.62 880.719"/>
</mask>
<path d="M1090.31 908.793L1090.3 909.793H1090.31V908.793ZM1055.15 904.464L1055.39 903.491L1055.38 903.489L1055.15 904.464ZM928.374 820.552L929.334 820.27L929.333 820.266L928.374 820.552ZM958.338 738.154L959.056 738.85L959.057 738.85L958.338 738.154ZM1025.5 703.711L1025.5 704.711H1025.5V703.711ZM1151.08 820.861L1151.97 820.412L1151.96 820.401L1151.96 820.389L1151.08 820.861ZM1148.64 880.203C1141.12 892.71 1124.96 907.793 1090.31 907.793V909.793C1125.68 909.793 1142.48 894.328 1150.36 881.234L1148.64 880.203ZM1090.33 907.793C1078.56 907.655 1066.84 906.212 1055.39 903.491L1054.92 905.437C1066.52 908.192 1078.38 909.653 1090.3 909.793L1090.33 907.793ZM1055.38 903.489C1021.23 895.779 992.377 884.1 970.725 869.767C949.065 855.428 934.687 838.486 929.334 820.27L927.415 820.834C932.947 839.658 947.728 856.942 969.621 871.435C991.524 885.933 1020.62 897.691 1054.93 905.44L1055.38 903.489ZM929.333 820.266C921.687 794.632 931.505 767.291 959.056 738.85L957.62 737.458C929.821 766.155 919.477 794.219 927.416 820.837L929.333 820.266ZM959.057 738.85C981.089 716.081 1003.42 704.681 1025.5 704.711L1025.5 702.711C1002.68 702.68 979.867 714.467 957.619 737.459L959.057 738.85ZM1025.5 704.711C1046.04 704.711 1066.81 714.404 1087.68 733.869C1108.54 753.336 1129.44 782.519 1150.19 821.332L1151.96 820.389C1131.15 781.474 1110.13 752.081 1089.04 732.406C1067.94 712.728 1046.71 702.711 1025.5 702.711V704.711ZM1150.18 821.31C1154.79 830.494 1157.08 840.673 1156.83 850.947L1158.83 850.996C1159.08 840.393 1156.73 829.89 1151.97 820.412L1150.18 821.31ZM1156.83 850.947C1156.58 861.222 1153.8 871.277 1148.75 880.227L1150.49 881.21C1155.71 871.975 1158.57 861.598 1158.83 850.996L1156.83 850.947Z" fill="#808080" mask="url(#path-4-inside-1)"/>
<mask id="path-6-inside-2" fill="white">
<path d="M1075.47 839.781C1070.83 847.541 1062.08 851.623 1050.11 851.623C1044.74 851.563 1039.38 850.899 1034.16 849.644C1003.45 842.687 981.371 828.31 976.547 812.109C973.208 800.916 977.722 788.796 989.968 776.151C999.832 765.978 1009.76 760.691 1019.5 760.691C1038.05 760.691 1057.07 778.748 1076.12 814.335C1078.1 818.284 1079.08 822.66 1078.96 827.077C1078.85 831.494 1077.65 835.815 1075.47 839.657"/>
</mask>
<path d="M1050.11 851.623L1050.1 852.623H1050.11V851.623ZM1034.16 849.644L1034.39 848.671L1034.38 848.668L1034.16 849.644ZM976.547 812.109L977.506 811.823L977.506 811.823L976.547 812.109ZM989.968 776.151L989.25 775.454L989.249 775.455L989.968 776.151ZM1076.12 814.335L1077.01 813.886L1077 813.874L1077 813.863L1076.12 814.335ZM1074.61 839.268C1070.21 846.629 1061.86 850.623 1050.11 850.623V852.623C1062.3 852.623 1071.45 848.453 1076.33 840.294L1074.61 839.268ZM1050.12 850.623C1044.82 850.564 1039.54 849.909 1034.39 848.671L1033.92 850.616C1039.22 851.889 1044.65 852.562 1050.1 852.622L1050.12 850.623ZM1034.38 848.668C1019.11 845.21 1006.03 839.915 996.191 833.505C986.336 827.085 979.824 819.609 977.506 811.823L975.589 812.394C978.095 820.81 985.033 828.623 995.1 835.181C1005.18 841.749 1018.49 847.121 1033.93 850.619L1034.38 848.668ZM977.506 811.823C974.316 801.133 978.554 789.375 990.686 776.846L989.249 775.455C976.891 788.217 972.1 800.7 975.589 812.395L977.506 811.823ZM990.685 776.847C1000.45 766.773 1010.14 761.691 1019.5 761.691V759.691C1009.38 759.691 999.21 765.184 989.25 775.454L990.685 776.847ZM1019.5 761.691C1028.43 761.691 1037.59 766.035 1046.93 774.894C1056.28 783.754 1065.74 797.062 1075.23 814.807L1077 813.863C1067.45 796.021 1057.87 782.507 1048.31 773.442C1038.75 764.376 1029.12 759.691 1019.5 759.691V761.691ZM1075.22 814.784C1077.13 818.585 1078.07 822.799 1077.96 827.052L1079.96 827.103C1080.08 822.522 1079.07 817.982 1077.01 813.886L1075.22 814.784ZM1077.96 827.052C1077.85 831.304 1076.7 835.464 1074.6 839.163L1076.34 840.151C1078.6 836.166 1079.85 831.684 1079.96 827.103L1077.96 827.052Z" fill="#808080" mask="url(#path-6-inside-2)"/>
<path d="M432.825 1043.54L432.815 1043.54C414.562 1038.97 394.283 1020.16 378.549 993.814C362.83 967.491 351.714 933.747 351.714 899.453C351.714 877.643 353.574 856.805 362.095 841.425C366.348 833.749 372.26 827.435 380.437 823.035C388.617 818.634 399.093 816.134 412.496 816.133C427.291 816.463 442.002 818.46 456.35 822.085L456.35 822.085L456.359 822.087C496.502 831.421 511.417 851.225 516.888 866.14L517.358 865.968L516.889 866.14C525.379 889.279 517.291 915.721 505.489 931.613C498.995 939.838 491.461 947.185 483.075 953.469L483.068 953.474L483.061 953.48C476.501 958.774 470.572 963.567 466.198 969.459C461.808 975.373 458.992 982.38 458.601 992.095H458.601L458.601 992.107C458.468 1000.07 458.935 1008.03 459.996 1015.92C460.646 1021.65 461.22 1026.73 461.036 1031.06C460.853 1035.37 459.918 1038.85 457.624 1041.43C456.151 1042.89 454.378 1044.01 452.427 1044.72C450.471 1045.44 448.384 1045.71 446.31 1045.54L446.296 1045.54L446.282 1045.54C441.733 1045.41 437.215 1044.74 432.825 1043.54Z" stroke="#808080"/>
<path d="M1022.69 511.947L1022.69 511.947C1016.91 518.067 1010.91 521.066 1004.84 521.066C998.793 521.066 993.141 517.928 988.039 511.636C980.702 502.547 980.718 488.837 988.319 472.837C992.776 463.509 999.797 453.843 1007.49 446.514C1015.17 439.205 1023.41 434.313 1030.39 434.258L1030.45 434.289H1030.57C1032.92 434.289 1036.09 434.901 1038.78 437.423C1041.47 439.944 1043.76 444.442 1044.2 452.367C1044.71 461.96 1042.56 473.455 1038.66 484.267C1034.76 495.081 1029.13 505.163 1022.69 511.947Z" stroke="#808080"/>
<mask id="path-10-inside-3" fill="white">
<path d="M541.477 819.401C551.774 869.396 547.847 901.427 544.414 929.687C540.209 964.13 536.56 993.873 562.473 1043.28C581.026 1078.53 604.218 1105.4 624.781 1129.11C656.507 1165.75 683.904 1197.38 685.295 1247.34C686.285 1283.02 681.275 1308.38 671.195 1318.76C669.962 1320.17 668.453 1321.3 666.76 1322.1C665.068 1322.89 663.23 1323.32 661.362 1323.37C652.703 1323.37 642.808 1314.1 634.088 1297.8C629.636 1289.48 626.049 1282.06 622.925 1275.51C607.248 1242.98 599.981 1228.02 535.973 1206.65C460.523 1181.49 439.743 1165.81 437.208 1103.29C436.218 1078.56 417.665 1064.52 394.195 1046.68C357.088 1018.55 306.438 979.991 290.792 873.539C285.164 835.107 292.74 803.509 313.365 779.671C335.505 754.039 372.117 739.477 414.016 739.477C469.15 739.477 530.654 766.963 541.477 819.493"/>
</mask>
<path d="M311.209 778.432L311.333 778.525L311.933 777.725L311.809 777.632L311.209 778.432ZM544.414 929.687L545.407 929.808L545.407 929.807L544.414 929.687ZM562.473 1043.28L561.587 1043.75L561.588 1043.75L562.473 1043.28ZM624.781 1129.11L625.537 1128.46L625.536 1128.46L624.781 1129.11ZM685.295 1247.34L686.295 1247.31V1247.31L685.295 1247.34ZM671.195 1318.76L670.477 1318.07L670.46 1318.09L670.443 1318.1L671.195 1318.76ZM661.362 1323.37V1324.37H661.375L661.387 1324.37L661.362 1323.37ZM634.088 1297.8L634.97 1297.33L634.97 1297.33L634.088 1297.8ZM622.925 1275.51L623.828 1275.08L623.826 1275.08L622.925 1275.51ZM535.973 1206.65L536.289 1205.71L536.289 1205.71L535.973 1206.65ZM437.208 1103.29L436.208 1103.33L436.208 1103.33L437.208 1103.29ZM394.195 1046.68L394.8 1045.89L394.799 1045.89L394.195 1046.68ZM290.792 873.539L289.802 873.684L289.802 873.684L290.792 873.539ZM313.365 779.671L314.121 780.325L314.121 780.324L313.365 779.671ZM540.497 819.602C550.761 869.437 546.85 901.34 543.422 929.566L545.407 929.807C548.843 901.514 552.786 869.354 542.456 819.199L540.497 819.602ZM543.422 929.566C541.321 946.775 539.34 962.928 541.154 980.972C542.97 999.034 548.58 1018.95 561.587 1043.75L563.358 1042.82C550.453 1018.21 544.931 998.544 543.144 980.772C541.356 962.982 543.303 947.042 545.407 929.808L543.422 929.566ZM561.588 1043.75C580.201 1079.11 603.465 1106.05 624.025 1129.77L625.536 1128.46C604.97 1104.74 581.851 1077.95 563.358 1042.82L561.588 1043.75ZM624.025 1129.77C655.78 1166.44 682.915 1197.81 684.296 1247.37L686.295 1247.31C684.892 1196.95 657.233 1165.06 625.537 1128.46L624.025 1129.77ZM684.296 1247.37C684.789 1265.16 683.785 1280.34 681.415 1292.34C679.04 1304.38 675.316 1313.08 670.477 1318.07L671.913 1319.46C677.154 1314.06 680.976 1304.89 683.377 1292.73C685.785 1280.54 686.791 1265.2 686.295 1247.31L684.296 1247.37ZM670.443 1318.1C669.302 1319.41 667.903 1320.46 666.336 1321.19L667.184 1323C669.002 1322.15 670.623 1320.93 671.947 1319.42L670.443 1318.1ZM666.336 1321.19C664.769 1321.92 663.066 1322.33 661.336 1322.37L661.387 1324.37C663.393 1324.32 665.367 1323.85 667.184 1323L666.336 1321.19ZM661.362 1322.37C657.391 1322.37 652.986 1320.24 648.432 1315.97C643.891 1311.71 639.298 1305.42 634.97 1297.33L633.207 1298.27C637.599 1306.48 642.314 1312.97 647.064 1317.43C651.802 1321.87 656.674 1324.37 661.362 1324.37V1322.37ZM634.97 1297.33C630.528 1289.03 626.949 1281.63 623.828 1275.08L622.023 1275.94C625.148 1282.5 628.743 1289.94 633.207 1298.27L634.97 1297.33ZM623.826 1275.08C615.999 1258.84 610.187 1246.78 598.238 1236.15C586.304 1225.53 568.325 1216.4 536.289 1205.71L535.656 1207.6C567.629 1218.27 585.288 1227.31 596.909 1237.64C608.514 1247.97 614.174 1259.66 622.025 1275.94L623.826 1275.08ZM536.289 1205.71C498.536 1193.11 474.705 1182.96 459.953 1168.27C445.275 1153.66 439.471 1134.42 438.207 1103.25L436.208 1103.33C437.48 1134.69 443.333 1154.54 458.542 1169.69C473.675 1184.76 497.959 1195.03 535.656 1207.6L536.289 1205.71ZM438.207 1103.25C437.195 1077.96 418.163 1063.64 394.8 1045.89L393.59 1047.48C417.166 1065.4 435.241 1079.16 436.208 1103.33L438.207 1103.25ZM394.799 1045.89C376.246 1031.82 354.416 1015.22 335.254 988.891C316.101 962.571 299.583 926.474 291.781 873.393L289.802 873.684C297.647 927.056 314.277 963.463 333.637 990.068C352.989 1016.66 375.037 1033.41 393.591 1047.48L394.799 1045.89ZM291.781 873.394C286.185 835.177 293.73 803.893 314.121 780.325L312.608 779.016C291.749 803.125 284.143 835.038 289.802 873.684L291.781 873.394ZM314.121 780.324C336.027 754.965 372.331 740.477 414.016 740.477V738.477C371.903 738.477 334.983 753.114 312.608 779.017L314.121 780.324ZM414.016 740.477C441.431 740.477 470.417 747.313 493.869 760.655C517.316 773.995 535.16 793.789 540.497 819.695L542.456 819.292C536.971 792.668 518.651 772.453 494.858 758.917C471.068 745.383 441.735 738.477 414.016 738.477V740.477Z" fill="#808080" mask="url(#path-10-inside-3)"/>
<path d="M761.181 1357.85C764.891 1327.73 771.261 1247.59 745.348 1180.93C731.403 1145.1 709.077 1116.16 685.422 1085.52C654.159 1045.02 621.815 1003.12 608.611 942.428C602.913 915.055 598.783 887.38 596.242 859.536C589.78 799.028 584.214 746.776 526.204 676.746C488.664 631.482 476.296 590.607 491.293 561.266C504.991 534.583 540.49 521.072 588.759 524.442C685.081 530.997 763.809 614.538 829.426 779.797C878.128 902.42 933.107 919.641 1016.32 945.705C1040.59 953.311 1068.08 961.907 1098.14 974.274C1194.21 1013.73 1197.09 1093.65 1199.5 1164.18C1200.34 1187.58 1201.11 1209.72 1205.16 1229.32C1216.91 1286.36 1247 1335.09 1262.92 1357.88" stroke="#808080"/>
<path d="M1129.34 1189.4C1122.63 1124.04 1115.73 1056.45 1035.06 1009.55C997.516 987.722 964.337 975.541 935.053 964.997C885.578 946.972 846.369 932.719 810.345 882.291C800.388 868.346 791.204 854.804 782.329 841.695C745.408 787.34 717.393 745.848 681.771 745.848C675.269 745.904 668.836 747.195 662.816 749.651C654.838 752.742 649.272 760.07 646.241 771.294C630.162 831.554 690.398 991.556 731.957 1043.38C734.555 1046.62 737.307 1049.99 740.152 1053.49C788.05 1112.57 867.458 1210.49 845.008 1357.91M1179.18 1357.91C1157.4 1320.84 1142.57 1280.12 1135.4 1237.73C1132.68 1221.81 1131.01 1205.36 1129.37 1189.43" stroke="#808080"/>
<path d="M915.444 1358C928.772 1247.9 886.996 1142.78 841.046 1090.21C817.174 1063.01 808.578 1040.37 817.174 1028.01C821.441 1021.82 829.667 1018.73 841.139 1018.73C853.91 1018.73 870.979 1022.56 891.016 1030.2L894.789 1031.62C971.042 1060.56 1031.09 1083.41 1044.85 1193.67C1055.34 1277.49 1079.24 1334.99 1090.12 1357.87" stroke="#808080"/>
<mask id="path-15-inside-4" fill="white">
<path d="M798.131 973.994C796.922 976.854 794.867 979.276 792.241 980.934C789.616 982.592 786.546 983.407 783.443 983.269C778.392 983.082 773.443 981.795 768.941 979.497C737.122 964.533 688.543 851.897 693.491 817.454C694.542 810.25 697.449 809.817 698.407 809.662C699.135 809.565 699.869 809.513 700.603 809.508C716.961 809.508 733.102 837.922 748.718 865.408C758.304 882.228 768.199 899.666 778.836 912.033C800.172 936.954 803.821 961.503 798.131 973.87"/>
</mask>
<path d="M783.443 983.269L783.488 982.27L783.48 982.27L783.443 983.269ZM768.941 979.497L769.395 978.607L769.381 978.599L769.366 978.592L768.941 979.497ZM693.491 817.454L692.501 817.309L692.501 817.312L693.491 817.454ZM698.407 809.662L698.275 808.671L698.261 808.673L698.248 808.675L698.407 809.662ZM700.603 809.508V808.508L700.596 808.508L700.603 809.508ZM748.718 865.408L747.848 865.902L747.849 865.904L748.718 865.408ZM778.836 912.033L779.595 911.383L779.594 911.381L778.836 912.033ZM797.21 973.605C796.081 976.277 794.161 978.539 791.707 980.088L792.775 981.779C795.574 980.012 797.764 977.431 799.052 974.383L797.21 973.605ZM791.707 980.088C789.254 981.638 786.386 982.399 783.488 982.27L783.399 984.268C786.705 984.415 789.977 983.547 792.775 981.779L791.707 980.088ZM783.48 982.27C778.575 982.088 773.768 980.838 769.395 978.607L768.486 980.388C773.118 982.752 778.21 984.076 783.406 984.269L783.48 982.27ZM769.366 978.592C761.678 974.977 752.805 965.339 743.86 952.147C734.949 939.005 726.075 922.5 718.34 905.369C710.605 888.239 704.021 870.511 699.681 854.931C695.329 839.307 693.276 825.984 694.481 817.596L692.501 817.312C691.232 826.145 693.396 839.818 697.755 855.468C702.126 871.162 708.748 888.986 716.517 906.192C724.285 923.395 733.213 940.008 742.205 953.27C751.163 966.482 760.294 976.536 768.515 980.402L769.366 978.592ZM694.48 817.598C694.99 814.107 695.927 812.426 696.709 811.604C697.458 810.816 698.155 810.716 698.567 810.65L698.248 808.675C697.701 808.763 696.466 808.957 695.259 810.225C694.085 811.46 693.043 813.596 692.501 817.309L694.48 817.598ZM698.54 810.654C699.227 810.562 699.918 810.513 700.61 810.508L700.596 808.508C699.819 808.513 699.044 808.568 698.275 808.671L698.54 810.654ZM700.603 810.508C704.395 810.508 708.261 812.155 712.22 815.172C716.177 818.189 720.153 822.522 724.143 827.757C732.126 838.231 740.03 852.141 747.848 865.902L749.587 864.914C741.79 851.189 733.815 837.149 725.734 826.545C721.692 821.24 717.59 816.752 713.432 813.582C709.275 810.413 704.99 808.508 700.603 808.508V810.508ZM747.849 865.904C757.419 882.695 767.364 900.229 778.078 912.685L779.594 911.381C769.033 899.103 759.188 881.761 749.587 864.913L747.849 865.904ZM778.076 912.684C788.659 925.044 794.827 937.279 797.652 947.916C800.483 958.574 799.939 967.548 797.223 973.452L799.04 974.288C802.013 967.825 802.49 958.34 799.585 947.402C796.674 936.442 790.349 923.943 779.595 911.383L778.076 912.684Z" fill="#808080" mask="url(#path-15-inside-4)"/>
<path d="M1234.52 594.488L1234.52 594.488C1223.4 600.173 1211.24 609.668 1199.53 618.842C1190.65 625.787 1182.04 632.518 1174.11 637.514C1166.16 642.521 1158.98 645.727 1152.93 645.727L1152.92 645.727C1150.52 645.774 1148.16 645.145 1146.11 643.913C1145.05 643.276 1144.36 642.312 1144.06 640.992C1143.75 639.655 1143.85 637.936 1144.44 635.818L1144.44 635.818L1144.45 635.806C1146.12 629.142 1151.57 619.999 1159.3 609.976C1167.03 599.969 1176.99 589.138 1187.63 579.104C1198.27 569.07 1209.57 559.843 1219.98 553.04C1230.41 546.223 1239.86 541.891 1246.8 541.542C1252.4 541.282 1256.94 542.128 1260.28 543.929C1263.6 545.723 1265.76 548.474 1266.61 552.102L1266.61 552.105C1267.94 557.634 1266.1 565.078 1260.81 572.748C1255.52 580.403 1246.81 588.228 1234.52 594.488Z" stroke="#808080"/>
<path d="M652.18 684.047L652.179 684.047C646.649 685.377 639.205 683.537 631.53 678.236C623.869 672.944 616.036 664.239 609.76 651.966C604.157 640.917 594.753 628.877 585.688 617.271L585.434 616.947L585.434 616.947C578.488 608.067 571.756 599.463 566.759 591.531C561.752 583.583 558.545 576.398 558.545 570.352H558.545L558.545 570.343C558.503 567.96 559.121 565.612 560.33 563.559C560.967 562.508 561.931 561.813 563.252 561.509C564.589 561.202 566.31 561.293 568.428 561.868L568.428 561.868L568.437 561.87C575.102 563.551 584.247 569.004 594.275 576.744C604.285 584.471 615.121 594.434 625.157 605.072C635.195 615.71 644.423 627.012 651.226 637.412C658.043 647.836 662.371 657.277 662.712 664.214C662.987 669.816 662.15 674.354 660.351 677.695C658.561 681.021 655.809 683.184 652.18 684.047Z" stroke="#808080"/>
<path d="M491.16 1058.95L491.158 1058.94C497.104 1057.54 505.035 1059.43 513.147 1064.91C521.274 1070.39 529.53 1079.44 536.052 1092.24C541.436 1102.88 550.579 1114.6 559.436 1125.96C559.678 1126.27 559.92 1126.58 560.162 1126.89L560.162 1126.89L560.255 1127.01C567.293 1136 574.109 1144.71 579.176 1152.81C584.274 1160.97 587.546 1168.42 587.546 1174.87L587.546 1174.88C587.587 1177.68 586.841 1180.44 585.391 1182.84L585.389 1182.84C584.757 1183.91 583.734 1184.98 582.081 1185.59C580.423 1186.21 578.081 1186.38 574.779 1185.55L574.778 1185.55C567.99 1183.85 558.678 1178.29 548.471 1170.4C538.28 1162.52 527.25 1152.35 517.034 1141.5C506.817 1130.65 497.423 1119.11 490.498 1108.5C483.563 1097.86 479.156 1088.23 478.803 1081.15V1081.15V1081.14V1081.14V1081.13V1081.13V1081.13V1081.12V1081.12V1081.11V1081.11V1081.1V1081.1V1081.1V1081.09V1081.09V1081.08V1081.08V1081.07V1081.07V1081.07V1081.06V1081.06V1081.05V1081.05V1081.04V1081.04V1081.03V1081.03V1081.03V1081.02V1081.02V1081.01V1081.01V1081V1081V1081V1080.99V1080.99V1080.98V1080.98V1080.97V1080.97V1080.97V1080.96V1080.96V1080.95V1080.95V1080.94V1080.94V1080.94V1080.93V1080.93V1080.92V1080.92V1080.91V1080.91V1080.9V1080.9V1080.9V1080.89V1080.89V1080.88V1080.88V1080.87V1080.87V1080.87V1080.86V1080.86V1080.85V1080.85V1080.84V1080.84V1080.84V1080.83V1080.83V1080.82V1080.82V1080.81V1080.81V1080.8V1080.8V1080.8V1080.79V1080.79V1080.78V1080.78V1080.77V1080.77V1080.77V1080.76V1080.76V1080.75V1080.75V1080.74V1080.74V1080.74V1080.73V1080.73V1080.72V1080.72V1080.71V1080.71V1080.7V1080.7V1080.7V1080.69V1080.69V1080.68V1080.68V1080.67V1080.67V1080.67V1080.66V1080.66V1080.65V1080.65V1080.64V1080.64V1080.64V1080.63V1080.63V1080.62V1080.62V1080.61V1080.61V1080.61V1080.6V1080.6V1080.59V1080.59V1080.58V1080.58V1080.57V1080.57V1080.57V1080.56V1080.56V1080.55V1080.55V1080.54V1080.54V1080.54V1080.53V1080.53V1080.52V1080.52V1080.51V1080.51V1080.51V1080.5V1080.5V1080.49V1080.49V1080.48V1080.48V1080.48V1080.47V1080.47V1080.46V1080.46V1080.45V1080.45V1080.44V1080.44V1080.44V1080.43V1080.43V1080.42V1080.42V1080.41V1080.41V1080.41V1080.4V1080.4V1080.39V1080.39V1080.38V1080.38V1080.38V1080.37V1080.37V1080.36V1080.36V1080.35V1080.35V1080.35V1080.34V1080.34V1080.33V1080.33V1080.32V1080.32V1080.31V1080.31V1080.31V1080.3V1080.3V1080.29V1080.29V1080.28V1080.28V1080.28V1080.27V1080.27V1080.26V1080.26V1080.25V1080.25V1080.25V1080.24V1080.24V1080.23V1080.23V1080.22V1080.22V1080.22V1080.21V1080.21V1080.2V1080.2V1080.19V1080.19V1080.19V1080.18V1080.18V1080.17V1080.17V1080.16V1080.16V1080.16V1080.15V1080.15V1080.14V1080.14V1080.13V1080.13V1080.13V1080.12V1080.12V1080.11V1080.11V1080.1V1080.1V1080.09V1080.09V1080.09V1080.08V1080.08V1080.07V1080.07V1080.06V1080.06V1080.06V1080.05V1080.05V1080.04V1080.04V1080.03V1080.03V1080.03V1080.02V1080.02V1080.01V1080.01V1080V1080V1080V1079.99V1079.99V1079.98V1079.98V1079.97V1079.97V1079.97V1079.96V1079.96V1079.95V1079.95V1079.94V1079.94V1079.94V1079.93V1079.93V1079.92V1079.92V1079.91V1079.91V1079.91V1079.9V1079.9V1079.89V1079.89V1079.88V1079.88V1079.88V1079.87V1079.87V1079.86V1079.86V1079.85V1079.85V1079.85V1079.84V1079.84V1079.83V1079.83V1079.82V1079.82V1079.82V1079.81V1079.81V1079.8V1079.8V1079.79V1079.79V1079.79V1079.78V1079.78V1079.77V1079.77V1079.76V1079.76V1079.76V1079.75V1079.75V1079.74V1079.74V1079.73V1079.73V1079.73V1079.72V1079.72V1079.71V1079.71V1079.7V1079.7V1079.7V1079.69V1079.69V1079.68V1079.68V1079.67V1079.67V1079.67V1079.66V1079.66V1079.65V1079.65V1079.64V1079.64V1079.64V1079.63V1079.63V1079.62V1079.62V1079.62V1079.61V1079.61V1079.6V1079.6V1079.59V1079.59V1079.59V1079.58V1079.58V1079.57V1079.57V1079.56V1079.56V1079.56V1079.55V1079.55V1079.54V1079.54V1079.53V1079.53V1079.53V1079.52V1079.52V1079.51V1079.51V1079.5V1079.5V1079.5V1079.49V1079.49V1079.48V1079.48V1079.47V1079.47V1079.47V1079.46V1079.46V1079.45V1079.45V1079.45V1079.44V1079.44V1079.43V1079.43V1079.42V1079.42V1079.42V1079.41V1079.41V1079.4V1079.4V1079.39V1079.39V1079.39V1079.38V1079.38V1079.37V1079.37V1079.36V1079.36V1079.36V1079.35V1079.35V1079.34V1079.34V1079.34V1079.33V1079.33V1079.32V1079.32V1079.31V1079.31V1079.31V1079.3V1079.3V1079.29V1079.29V1079.28V1079.28V1079.28V1079.27V1079.27V1079.26V1079.26V1079.26V1079.25V1079.25V1079.24V1079.24V1079.23V1079.23V1079.23V1079.22V1079.22V1079.21V1079.21V1079.2V1079.2V1079.2V1079.19V1079.19V1079.18V1079.18V1079.18V1079.17V1079.17V1079.16V1079.16V1079.15V1079.15V1079.15V1079.14V1079.14V1079.13V1079.13V1079.12V1079.12V1079.12V1079.11V1079.11V1079.1V1079.1V1079.1V1079.09V1079.09V1079.08V1079.08V1079.07V1079.07V1079.07V1079.06V1079.06V1079.05V1079.05V1079.05V1079.04V1079.04V1079.03V1079.03V1079.02V1079.02V1079.02V1079.01V1079.01V1079V1079V1079V1078.99V1078.99V1078.98V1078.98V1078.97V1078.97V1078.97C478.803 1068.03 483.369 1060.83 491.16 1058.95Z" stroke="#808080"/>
<path d="M1452.69 194.848C1459.37 253.995 1465.7 309.895 1448.3 327.024C1443.69 331.507 1437.5 333.208 1429.37 332.126C1385.77 326.375 1345.88 277.802 1307.2 230.837C1269.26 184.738 1229.89 137.03 1185.98 128.002C1111.99 112.821 1084.59 151.933 1018.39 246.451C1001.1 271.185 981.527 299.012 957.624 331.136C869.001 449.739 792.129 429.519 702.95 406.083C675.56 398.357 647.745 392.225 619.646 387.717C540.361 376.401 475.363 391.273 441.318 428.529C415.56 456.727 407.953 497.014 419.302 544.999C443.637 647.834 418.096 654.45 362.127 668.982C354.272 671.023 346.171 673.125 337.389 675.691C296.943 687.502 263.238 716.627 242.242 757.563C217.319 806.291 210.887 871.281 223.688 945.485C251.116 1104.96 356.066 1175.67 480.156 1245.39C563.182 1292.08 583.158 1337.28 587.92 1357.75M1471.7 0H1463.35C1435.52 42.7293 1444.8 122.932 1452.81 194.786" stroke="#808080"/>
<path d="M1337.72 1357.9C1301.42 1311.03 1280.93 1253.85 1279.22 1194.59C1279.02 1166.01 1280.4 1137.44 1283.36 1109.01C1289.55 1039.5 1295.14 973.833 1246.26 897.619C1211.28 843.234 1200.52 795.588 1215.09 759.94C1226.59 731.835 1253.86 712.14 1294 702.988C1350.96 690.033 1401.02 725.342 1449.41 759.507C1477 778.985 1505.54 799.113 1534.57 809.44C1581.7 826.167 1612.9 814.511 1645.89 802.143C1669.39 793.362 1693.67 784.272 1725.98 784.272C1775.46 784.272 1806.81 830.897 1832.08 868.339C1846.58 889.797 1859.07 908.348 1872.8 916.078C1887.58 924.725 1903.81 930.603 1920.7 933.423" stroke="#808080"/>
<path d="M1920.72 789.475C1898.86 784.776 1857.67 768.358 1814.6 711.437C1769.76 652.197 1702.23 669.821 1642.64 685.373C1612.46 693.257 1583.89 700.677 1559.15 699.008C1520.75 696.411 1477.55 675.324 1435.77 654.887C1394.86 634.914 1352.59 614.26 1313.35 609.87C1270.06 604.985 1239.14 631.884 1211.74 655.598C1187.68 676.468 1164.96 696.163 1136.97 693.319C1117.95 691.371 1111.68 678.138 1109.76 667.409C1102.77 628.885 1141.12 551.929 1230.79 507.87C1308.09 469.933 1401.48 478.559 1476.5 485.516C1521.52 489.69 1560.39 493.277 1589.61 487.248C1629.41 479.054 1655.29 450.393 1682.72 420.062C1710.14 389.731 1738.38 358.441 1782.28 348.022C1827.62 337.227 1874.7 335.984 1920.54 344.374" stroke="#808080"/>
<path d="M1920.57 255.205C1888.22 252.546 1813.83 249.733 1763.33 273.416C1733.15 287.577 1708.1 312.775 1686.02 335.006C1657.95 363.172 1633.7 387.567 1604.36 387.567C1585.84 387.567 1572.57 382.62 1563.73 372.448C1546.91 353.124 1544.62 315.403 1555.56 238.107C1561.84 193.678 1557.48 151.381 1553.62 114.094C1549.04 69.1073 1544.9 29.3771 1561.41 0.0664062" stroke="#808080"/>
<path d="M1920.48 142.446C1890.83 144.208 1827.65 150.886 1786.71 176.456C1765.22 189.782 1743.14 212.878 1721.78 235.201C1687.42 271.221 1654.89 305.2 1625.92 299.419C1615.56 297.347 1607.86 284.052 1603.59 260.987C1591.78 197.079 1609.25 54.4828 1661.45 0.0664062" stroke="#808080"/>
<path d="M1647.87 156.509C1648.11 172.556 1652.47 183.192 1660.42 187.427C1682.84 198.96 1688.96 192.251 1709.25 169.959C1727.98 148.987 1748.22 129.406 1769.79 111.368C1813.13 75.3999 1865.14 51.4145 1920.63 41.8017M1715.31 0C1676.01 36.391 1647.28 114.398 1647.87 156.447" stroke="#808080"/>
<mask id="path-26-inside-5" fill="white">
<path d="M1523.96 419.349C1524.58 420.864 1526.47 425.533 1519.17 432.706C1512.8 438.89 1493.19 439.693 1478.97 439.693C1464.19 439.693 1446.84 438.797 1426.74 437.777C1402.31 436.509 1374.67 435.087 1346.1 435.087C1261.12 435.087 1201.13 448.196 1157.29 476.363C1084.74 522.926 1073.18 583.248 1065.51 623.132C1060.13 651.114 1057.1 663.326 1042.44 661.44C1037.17 660.733 1031.86 660.372 1026.55 660.358C968.075 660.358 934.431 704.633 909.879 736.943C898.098 752.402 887.924 765.883 880.287 765.883C880.02 765.914 879.75 765.914 879.483 765.883C868.815 764.522 863.465 747.641 856.075 724.328C846.427 693.936 833.223 652.289 799.24 611.198C772.214 578.517 740.272 552.453 712.071 529.728C676.51 500.881 648.402 478.094 648.402 456.08C648.271 454.87 648.404 453.645 648.794 452.492C649.184 451.339 649.82 450.284 650.659 449.402C652.928 447.92 655.629 447.244 658.328 447.485C668.192 447.485 684.395 452.463 703.165 458.275C735.139 468.107 774.904 480.382 817.02 480.382C855.951 480.382 888.759 469.932 917.331 448.474C958.736 417.339 996.245 373.281 1032.49 330.706C1082.36 271.652 1129.92 215.875 1173.71 215.875C1208.93 215.875 1235.55 254.801 1263.69 295.985C1294.61 341.002 1326.34 387.565 1373.25 387.565C1467.62 387.565 1517.37 404.044 1523.65 419.38"/>
</mask>
<path d="M1519.17 432.706L1519.86 433.423L1519.87 433.419L1519.17 432.706ZM1426.74 437.777L1426.69 438.775L1426.69 438.775L1426.74 437.777ZM1157.29 476.363L1157.83 477.204L1157.83 477.204L1157.29 476.363ZM1065.51 623.132L1066.49 623.321L1065.51 623.132ZM1042.44 661.44L1042.31 662.432L1042.31 662.432L1042.44 661.44ZM1026.55 660.358L1026.55 659.358H1026.55V660.358ZM909.879 736.943L910.675 737.549L910.675 737.548L909.879 736.943ZM880.287 765.883V764.883H880.23L880.173 764.889L880.287 765.883ZM879.483 765.883L879.356 766.875L879.369 766.876L879.483 765.883ZM856.075 724.328L857.028 724.026L857.028 724.026L856.075 724.328ZM799.24 611.198L798.469 611.835L798.469 611.835L799.24 611.198ZM712.071 529.728L711.441 530.505L711.443 530.507L712.071 529.728ZM648.402 456.08H649.402V456.026L649.396 455.972L648.402 456.08ZM650.659 449.402L650.112 448.565L650.015 448.628L649.935 448.713L650.659 449.402ZM658.328 447.485L658.239 448.481L658.284 448.485H658.328V447.485ZM703.165 458.275L702.869 459.231L702.871 459.231L703.165 458.275ZM917.331 448.474L917.932 449.274L917.932 449.274L917.331 448.474ZM1032.49 330.706L1033.25 331.354L1033.25 331.351L1032.49 330.706ZM1263.69 295.985L1262.86 296.549L1262.87 296.551L1263.69 295.985ZM1523.03 419.727C1523.32 420.432 1523.86 421.768 1523.55 423.747C1523.22 425.735 1522.01 428.512 1518.47 431.993L1519.87 433.419C1523.62 429.727 1525.11 426.583 1525.52 424.065C1525.93 421.537 1525.22 419.782 1524.89 418.971L1523.03 419.727ZM1518.47 431.988C1517.04 433.378 1514.79 434.529 1511.9 435.454C1509.02 436.374 1505.59 437.044 1501.88 437.527C1494.48 438.492 1486.07 438.693 1478.97 438.693V440.693C1486.09 440.693 1494.6 440.493 1502.14 439.51C1505.91 439.019 1509.47 438.329 1512.5 437.359C1515.52 436.394 1518.11 435.125 1519.86 433.423L1518.47 431.988ZM1478.97 438.693C1464.22 438.693 1446.9 437.799 1426.79 436.778L1426.69 438.775C1446.78 439.795 1464.16 440.693 1478.97 440.693V438.693ZM1426.79 436.778C1402.37 435.51 1374.7 434.087 1346.1 434.087V436.087C1374.64 436.087 1402.26 437.507 1426.69 438.775L1426.79 436.778ZM1346.1 434.087C1261.04 434.087 1200.83 447.205 1156.75 475.521L1157.83 477.204C1201.44 449.187 1261.21 436.087 1346.1 436.087V434.087ZM1156.75 475.521C1083.84 522.32 1072.21 583.007 1064.53 622.944L1066.49 623.321C1074.15 583.489 1085.65 523.532 1157.83 477.204L1156.75 475.521ZM1064.53 622.944C1061.83 636.99 1059.75 646.87 1056.57 653.028C1054.99 656.075 1053.19 658.116 1051 659.306C1048.8 660.494 1046.09 660.902 1042.57 660.449L1042.31 662.432C1046.12 662.922 1049.28 662.51 1051.95 661.064C1054.61 659.621 1056.66 657.214 1058.34 653.946C1061.69 647.473 1063.81 637.256 1066.49 623.321L1064.53 622.944ZM1042.58 660.449C1037.26 659.737 1031.91 659.372 1026.55 659.358L1026.55 661.358C1031.82 661.372 1037.08 661.73 1042.31 662.432L1042.58 660.449ZM1026.55 659.358C967.512 659.358 933.588 704.09 909.083 736.338L910.675 737.548C935.275 705.177 968.637 661.358 1026.55 661.358V659.358ZM909.084 736.337C903.181 744.083 897.727 751.27 892.8 756.526C890.337 759.153 888.039 761.262 885.913 762.708C883.778 764.162 881.909 764.883 880.287 764.883V766.883C882.483 766.883 884.751 765.919 887.039 764.362C889.337 762.797 891.75 760.57 894.259 757.894C899.272 752.546 904.796 745.263 910.675 737.549L909.084 736.337ZM880.173 764.889C879.981 764.911 879.788 764.911 879.597 764.889L879.369 766.876C879.712 766.916 880.058 766.916 880.401 766.876L880.173 764.889ZM879.609 764.891C874.822 764.28 871.025 760.166 867.447 752.896C863.893 745.675 860.732 735.711 857.028 724.026L855.122 724.631C858.808 736.259 862.017 746.392 865.652 753.779C869.264 761.118 873.475 766.125 879.356 766.875L879.609 764.891ZM857.028 724.026C847.378 693.625 834.128 651.813 800.011 610.561L798.469 611.835C832.319 652.764 845.476 694.246 855.122 724.631L857.028 724.026ZM800.011 610.561C772.912 577.792 740.894 551.671 712.698 528.949L711.443 530.507C739.649 553.235 771.516 579.242 798.469 611.835L800.011 610.561ZM712.701 528.951C694.903 514.514 679.044 501.65 667.626 489.652C656.18 477.625 649.402 466.673 649.402 456.08H647.402C647.402 467.501 654.679 478.949 666.177 491.031C677.703 503.142 693.678 516.095 711.441 530.505L712.701 528.951ZM649.396 455.972C649.28 454.906 649.398 453.828 649.741 452.812L647.847 452.172C647.41 453.463 647.261 454.834 647.408 456.188L649.396 455.972ZM649.741 452.812C650.085 451.797 650.645 450.868 651.384 450.091L649.935 448.713C648.996 449.7 648.283 450.881 647.847 452.172L649.741 452.812ZM651.206 450.239C653.287 448.88 655.764 448.26 658.239 448.481L658.417 446.489C655.494 446.228 652.569 446.96 650.112 448.565L651.206 450.239ZM658.328 448.485C663.125 448.485 669.538 449.7 677.157 451.669C684.759 453.633 693.479 456.323 702.869 459.231L703.461 457.32C694.082 454.416 685.315 451.71 677.657 449.732C670.016 447.758 663.395 446.485 658.328 446.485V448.485ZM702.871 459.231C734.827 469.058 774.732 481.382 817.02 481.382V479.382C775.077 479.382 735.45 467.157 703.459 457.32L702.871 459.231ZM817.02 481.382C856.148 481.382 889.171 470.873 917.932 449.274L916.731 447.675C888.348 468.99 855.755 479.382 817.02 479.382V481.382ZM917.932 449.274C959.443 418.059 997.024 373.908 1033.25 331.354L1031.72 330.058C995.465 372.653 958.03 416.619 916.73 447.675L917.932 449.274ZM1033.25 331.351C1058.2 301.811 1082.51 273.159 1106.05 251.887C1129.62 230.585 1152.21 216.875 1173.71 216.875V214.875C1151.41 214.875 1128.33 229.053 1104.71 250.403C1081.05 271.783 1056.65 300.547 1031.72 330.061L1033.25 331.351ZM1173.71 216.875C1190.92 216.875 1206.14 226.382 1220.64 241.186C1235.14 255.99 1248.78 275.936 1262.86 296.549L1264.52 295.42C1250.46 274.85 1236.72 254.741 1222.07 239.786C1207.42 224.831 1191.71 214.875 1173.71 214.875V216.875ZM1262.87 296.551C1278.31 319.037 1294.03 342.021 1311.77 359.371C1329.53 376.734 1349.43 388.565 1373.25 388.565V386.565C1350.16 386.565 1330.74 375.115 1313.17 357.941C1295.6 340.755 1279.99 317.949 1264.51 295.418L1262.87 296.551ZM1373.25 388.565C1420.38 388.565 1456.33 392.681 1481.25 398.694C1493.71 401.701 1503.38 405.174 1510.31 408.824C1517.27 412.495 1521.29 416.259 1522.73 419.759L1524.58 419.001C1522.87 414.833 1518.32 410.787 1511.24 407.055C1504.12 403.301 1494.28 399.779 1481.72 396.75C1456.6 390.689 1420.48 386.565 1373.25 386.565V388.565Z" fill="#808080" mask="url(#path-26-inside-5)"/>
<path d="M1920.6 711.996C1897.56 703.648 1853.69 682.685 1807.92 633.803C1765.56 588.508 1690.23 606.564 1623.78 622.518C1585.47 631.794 1549.26 640.389 1527.92 633.494C1503.46 625.548 1483.08 613.892 1463.36 602.576C1436.86 587.426 1409.49 571.657 1370.99 563.835C1343.66 558.146 1327.7 548.654 1328.32 538.358C1329 527.289 1351.02 514.334 1398.7 510.531C1435.81 507.44 1476 510.284 1514.56 513.067C1560.95 516.375 1604.73 519.529 1632.38 510.47C1653.53 503.575 1674.68 485.271 1697.03 465.885C1727.59 439.45 1762.22 409.459 1804.86 401.482C1843.45 394.526 1883.16 397.192 1920.48 409.243" stroke="#808080"/>
<path d="M1920.91 618.435C1888.32 603.285 1814.44 572.676 1749.1 572.676H1744.93C1712.24 573.356 1673.81 578.334 1636.7 583.157C1576.13 591.042 1518.92 598.617 1509.12 583.157C1503.15 573.882 1501.94 565.998 1505.5 560.03C1513.69 546.334 1545.92 541.479 1601.36 545.468C1660.45 549.735 1693.94 527.319 1726.28 505.645C1746.35 492.195 1767.1 478.282 1793.69 471.171C1842.92 458.031 1895.27 463.72 1921 468.079" stroke="#808080"/>
<path d="M1920.63 564.852C1894.61 554.597 1867.47 547.456 1839.77 543.58C1814.04 539.715 1788.9 527.595 1784.85 517.145C1784.37 516.109 1784.2 514.958 1784.36 513.828C1784.52 512.699 1785 511.639 1785.75 510.776C1790.39 505.056 1812.84 494.049 1920.63 510.281" stroke="#808080"/>
<path d="M1094.24 311.835L1094.24 311.834C1117.96 279.816 1142.07 263.742 1165.86 263.742H1165.92C1189.73 263.742 1212.95 279.838 1234.55 311.847L1234.56 311.848C1248.76 332.774 1257.95 348.696 1262.75 361.186C1267.55 373.675 1267.94 382.648 1264.66 389.736C1262.1 395.284 1257.26 399.648 1249.62 403.015C1241.97 406.386 1231.54 408.744 1217.84 410.288C1187.94 413.617 1154.45 421.441 1123.23 445.015C1092.01 468.59 1063.11 507.877 1042.34 574.039C1040.67 579.353 1037.69 583.452 1033.6 586.227C1029.51 589.005 1024.28 590.477 1018.08 590.477C1003.89 590.477 987.048 583.105 972.526 570.659C958.013 558.221 945.872 540.762 941.046 520.676C936.249 500.71 946.749 477.674 964.891 453.193C982.898 428.896 1008.32 403.325 1033.36 378.135L1033.84 377.653C1033.84 377.653 1033.84 377.653 1033.84 377.653C1057.27 354.102 1079.4 331.843 1094.24 311.835Z" stroke="#808080"/>
<path d="M755.559 531.873L755.559 531.871C755.619 527.81 757.087 523.332 761.878 519.85C766.695 516.349 774.928 513.812 788.61 513.812C813.752 513.812 851.958 523.002 886.615 537.404C903.937 544.602 920.354 553.095 933.793 562.377C947.241 571.665 957.667 581.716 963.062 592.015C972.887 611.047 975.569 624.377 971.729 634.081L971.729 634.083C969.389 640.044 964.786 644.283 958.7 647.764C952.604 651.251 945.073 653.949 936.929 656.86L936.929 656.86C930.277 659.242 923.399 661.813 916.333 664.911L916.328 664.914L908.938 668.253L908.935 668.254C903.826 670.607 899.895 672.414 896.623 673.635C893.354 674.855 890.783 675.474 888.395 675.474C884.622 675.474 881.857 674.042 879.015 670.944C876.143 667.813 873.234 663.026 869.187 656.36L869.185 656.357C868.806 655.743 868.416 655.111 868.015 654.46C863.181 646.62 856.673 636.065 846.841 622.318L846.434 622.609L846.841 622.318C827.42 595.17 806.11 583.302 789.03 573.791L789.021 573.786L788.853 573.692L788.852 573.692L788.826 573.677L788.826 573.677C779.32 568.399 770.905 563.721 764.905 557.465C758.935 551.24 755.345 543.44 755.559 531.873Z" stroke="#808080"/>
<path d="M1408.99 1357.75C1386.79 1331.01 1332.74 1258.47 1328.6 1182.04C1326.46 1141.14 1329.43 1106.57 1332.28 1073.15C1336.23 1027.08 1339.67 987.288 1328.57 942.765C1321.89 915.866 1307.57 890.606 1293.72 866.15C1268.98 822.4 1247.52 784.587 1285.86 758.213C1293.26 753.141 1302.06 750.494 1311.03 750.638C1343.84 750.638 1385.25 780.691 1428.69 812.073C1465.98 839.096 1504.57 867.046 1537.88 874.652C1575.54 883.248 1605.07 880.403 1633.74 877.744C1667.75 874.467 1699.94 871.375 1744.56 886.278C1786.4 900.253 1814.2 930.522 1841.1 959.802C1864.17 984.907 1887.95 1010.76 1920.88 1027.2" stroke="#808080"/>
<path d="M1482.07 1357.88C1423.81 1295.45 1391.22 1225.89 1404.76 1089.44C1412.49 1010.66 1387.01 953.401 1370.13 915.526C1356.37 884.607 1348.05 865.871 1364.75 856.039C1386.08 843.455 1418.3 863.243 1455.6 886.184C1485.28 904.395 1518.89 925.049 1552.32 931.944C1572.85 936.21 1593.2 936.798 1612.9 937.354C1664.97 938.838 1714.17 940.261 1757.64 1008.84C1804.03 1082.21 1885.97 1114.61 1920.63 1125.49" stroke="#808080"/>
<path d="M1560.11 1357.88C1533.02 1331.47 1467.84 1258.94 1462.4 1168.26C1460.02 1128.71 1454.88 1094.98 1450.77 1067.83C1442.83 1015.55 1438.03 983.982 1461.75 971.985C1483.4 961.195 1512.06 971.182 1548.33 983.827C1573.07 992.423 1600.9 1002.16 1631.82 1006.89C1687.3 1015.39 1699.85 1039.91 1719.11 1077.02C1726.47 1091.81 1734.62 1106.18 1743.54 1120.08C1775.3 1168.38 1879.85 1187.77 1920.45 1193.58" stroke="#808080"/>
<path d="M1637.29 1357.75C1616.91 1333.54 1567.75 1273.44 1539.08 1223.29C1512.52 1176.91 1492.48 1109.29 1505.53 1070.12C1509.86 1057.16 1517.53 1048.23 1528.32 1043.56C1576.59 1022.66 1642.42 1051.75 1664.72 1089.78C1683.27 1121.56 1742.7 1211.1 1792.52 1243.35C1827.31 1265.89 1890.91 1280.76 1920.75 1286.85" stroke="#808080"/>
<path d="M1402.28 143.868C1417.74 231.8 1402.93 247.847 1395.91 250.66C1386.17 254.587 1371.17 242.962 1355.06 218.783C1327.23 177.26 1234.9 52.1021 1134.81 52.1021C1124.81 52.088 1114.85 53.3768 1105.18 55.936C1041.79 72.601 992.349 157.039 948.748 231.553C919.28 281.888 891.45 329.409 863.744 348.177C829.451 371.366 768.194 357.916 697.228 342.364C627.994 327.214 549.544 309.993 481.547 325.019C423.722 337.819 387.018 373.437 372.392 430.884C360.023 478.931 365.589 532.729 369.3 568.347L369.887 573.974C373.258 608.201 342.861 620.692 304.363 636.522C265.061 652.662 220.534 670.965 196.136 717.683C143.569 817.271 138.497 931.731 181.912 1031.72C207.794 1091.39 210.855 1134.46 191.467 1167.3C166.729 1209.41 103.895 1235.69 0.0900879 1247.41M1389.2 0.0664062C1387.81 18.6175 1387.9 60.852 1402.38 143.868" stroke="#808080"/>
<path d="M1332.83 0.0664062C1343.72 30.9848 1369.94 110.847 1355.04 131.934C1354.39 132.949 1353.52 133.801 1352.49 134.424C1351.46 135.046 1350.3 135.421 1349.1 135.52C1339.85 136.262 1325.78 121.978 1304.48 100.335C1273.68 69.0145 1229.43 24.09 1172.72 0.0664062" stroke="#808080"/>
<path d="M1032.89 0.0664062C1011.24 18.6175 962.168 64.3458 933.967 123.462C929.607 132.552 925.309 141.796 921.134 150.701C888.45 220.762 857.559 286.958 796.457 302.758C763.679 311.229 722.986 296.45 675.861 279.353C623.541 260.369 564.232 238.849 501.089 243.704C494.255 244.229 487.143 244.848 479.753 245.497C401.829 252.175 295.086 261.327 222.234 197.542C175.696 156.792 149.103 90.3791 143.073 0.0664062" stroke="#808080"/>
<path d="M456.469 173.024C478.949 172.158 502.203 171.293 523.632 171.849C583.559 173.395 631.859 194.574 674.284 213.249C695.497 222.524 715.503 231.336 734.861 236.778C742.745 239.153 751.033 239.887 759.213 238.936C767.392 237.984 775.29 235.366 782.419 231.243C818.628 210.652 839.903 155.586 851.344 113.011C865.908 59.6462 907.746 18.6175 929.577 0.0664062M219.637 0.0664062C220.874 26.2852 228.048 91.0593 267.906 135.18C307.177 178.466 383.06 175.776 456.531 173.024" stroke="#808080"/>
<path d="M353.902 116.66C383.401 123.06 419.735 121.792 458.233 120.432C513.893 118.453 577.159 116.227 631.829 137.592L650.785 145.074C702.765 165.696 737.088 179.331 762.382 166.717C777.596 159.234 788.419 142.508 796.397 114.155C813.064 55.7196 834.802 16.886 845.439 0.0664062M284.574 0.0664062C285.719 29.3152 294.5 103.736 353.933 116.66" stroke="#808080"/>
<path d="M499.576 62.1506C511.728 62.1506 524.314 62.367 537.765 62.5835C608.885 63.7274 650.692 84.2264 678.275 97.5831C700.446 108.405 713.835 114.959 726.606 104.292C748.87 85.7414 756.415 25.6359 758.672 0.0664063M353.314 0.0664062C353.809 17.5044 358.138 30.15 366.704 39.3019C387.329 61.3158 431.98 61.6559 499.669 62.1506" stroke="#808080"/>
<path d="M416.212 11.7227C424.623 18.4629 438.445 16.886 461.296 14.3198C476.108 12.6811 494.507 10.6096 517.513 10.1149C556.461 8.97737 595.367 13.5185 633.007 23.5953C643.686 26.3965 654.502 28.6462 665.413 30.3355C674.411 31.5104 681.369 29.5626 686.038 24.461C691.944 18.03 693.057 7.98152 692.748 0.0664062M408.945 0.0664062C410.072 4.59355 412.566 8.66367 416.088 11.7227" stroke="#808080"/>
<path d="M0.0900879 1167.48C34.5064 1167.86 112.616 1162.6 128.479 1108.58C137.724 1077.23 130.148 1044.09 120.593 1002.16C109.059 951.519 94.6807 888.476 107.575 805.955C130.488 659.031 188.715 636.151 262.402 607.15L266.051 605.697C323.071 583.25 320.164 551.373 316.145 507.252C314.475 492.09 313.772 476.837 314.042 461.586C315.155 430.296 331.915 402.593 346.696 378.106C363.672 350.001 378.36 325.73 367.537 302.263C358.199 282.104 324.184 276.199 284.759 269.335C238.19 261.296 180.459 251.248 144.991 213.404C90.8155 155.215 75.138 37.3231 71.4273 0.0664062" stroke="#808080"/>
<path d="M0.0900879 90.0703C46.4732 259.782 150.279 281.424 214.844 294.812L218.462 295.585C257.022 303.624 279.347 316.702 286.676 335.501C293.231 352.537 287.665 372.974 269.143 398.265C248.271 427.39 245.457 444.736 241.622 468.728C238.31 492.524 232.292 515.863 223.688 538.295C211.473 570.419 188.653 581.89 162.245 595.154C128.077 612.282 89.3312 631.73 60.6974 703.585C27.2087 787.621 46.7206 866.648 62.3671 930.124C70.747 964.134 77.9828 993.599 77.1788 1019.79C76.6531 1041.43 69.3246 1058.13 55.5334 1069.26C38.5262 1082.98 15.5511 1085.3 0.0900879 1085.03" stroke="#808080"/>
<path d="M108.011 558.261C145.55 515.81 168.649 464.454 179.132 437.679C192.15 404.194 194.593 386.2 188.006 373.492C178.699 355.621 151.611 349.128 102.321 337.07L90.4161 334.195C40.9408 322.26 14.2551 283.149 0.0927662 248.922M0 624.612C38.9309 617.624 75.1716 595.394 107.918 558.384" stroke="#808080"/>
<path d="M0.0900879 343.473C12.9228 359.056 33.3932 377.916 60.3263 383.017C81.6007 387.099 102.349 393.004 110.049 408.741C117.192 423.366 112.708 445.411 95.9485 478.184C70.9635 526.695 24.6113 548.74 0.0900879 557.366" stroke="#808080"/>
<path d="M0.0900879 400.059C20.0348 406.737 51.0187 420.558 48.9779 441.397C47.0298 461.617 18.6433 489.011 0.0900879 504.903" stroke="#808080"/>
</g>
</g>
</svg>
