<svg width="375" height="667" viewBox="0 0 375 667" fill="none" xmlns="http://www.w3.org/2000/svg">
<g opacity="0.15">
<path d="M227.825 497.76L227.916 497.631V497.543C230.624 493.758 234.846 491.803 240.558 491.803C242.634 491.823 244.703 492.047 246.736 492.47L246.736 492.47L246.741 492.471C254.28 493.968 259.191 497.289 261.473 502.212C263.17 505.899 263.448 510.555 262.245 516.187C261.042 521.818 258.365 528.389 254.198 535.869C253.037 537.847 251.391 539.497 249.415 540.664C247.44 541.83 245.201 542.475 242.908 542.537C241.127 542.536 238.573 542.11 235.909 540.18C233.239 538.246 230.42 534.771 228.171 528.6C225.814 522.105 224.611 515.969 224.56 510.663C224.51 505.351 225.613 500.91 227.825 497.76Z" stroke="#808080"/>
<path d="M249.701 600.154L249.691 600.151C239.245 597.534 227.587 586.745 218.522 571.566C209.472 556.411 203.074 536.985 203.074 517.248C203.074 504.671 204.149 492.7 209.035 483.882C211.471 479.485 214.853 475.874 219.53 473.358C224.209 470.84 230.215 469.403 237.918 469.402C246.435 469.593 254.903 470.742 263.163 472.829L263.163 472.829L263.172 472.831C286.263 478.2 294.805 489.578 297.933 498.107L298.403 497.935L297.933 498.107C302.799 511.366 298.166 526.542 291.389 535.669C287.655 540.398 283.324 544.622 278.502 548.235L278.495 548.24L278.488 548.246C274.709 551.295 271.267 554.076 268.725 557.501C266.167 560.946 264.528 565.029 264.302 570.674L264.301 570.674L264.301 570.686C264.225 575.288 264.494 579.89 265.108 584.452C265.483 587.761 265.811 590.673 265.706 593.145C265.602 595.608 265.069 597.555 263.796 598.991C262.969 599.81 261.974 600.441 260.879 600.84C259.78 601.24 258.607 601.396 257.442 601.297L257.428 601.296L257.413 601.296C254.806 601.223 252.217 600.84 249.701 600.154Z" stroke="#808080"/>
<mask id="path-3-inside-1" fill="white">
<path d="M312.315 471.077C318.254 499.914 315.989 518.389 314.009 534.689C311.583 554.555 309.479 571.71 324.425 600.208C335.126 620.538 348.502 636.035 360.363 649.713C378.662 670.845 394.464 689.089 395.267 717.907C395.837 738.487 392.948 753.11 387.134 759.102C386.423 759.912 385.552 760.566 384.576 761.023C383.6 761.481 382.54 761.731 381.462 761.759C376.468 761.759 370.761 756.409 365.731 747.011C363.163 742.214 361.094 737.934 359.293 734.153C350.25 715.392 346.059 706.761 309.14 694.438C265.622 679.922 253.636 670.881 252.174 634.822C251.603 620.555 240.902 612.459 227.365 602.169C205.963 585.941 176.748 563.703 167.724 502.303C164.478 480.137 168.847 461.911 180.743 448.162C193.513 433.378 214.63 424.979 238.797 424.979C270.598 424.979 306.072 440.832 312.315 471.131"/>
</mask>
<path d="M179.373 447.617L179.445 447.67L180.045 446.87L179.973 446.817L179.373 447.617ZM314.009 534.689L315.002 534.81L315.002 534.809L314.009 534.689ZM324.425 600.208L323.539 600.672L323.54 600.674L324.425 600.208ZM360.363 649.713L361.119 649.058L361.118 649.058L360.363 649.713ZM395.267 717.907L396.266 717.879V717.879L395.267 717.907ZM387.134 759.102L386.416 758.405L386.399 758.423L386.382 758.442L387.134 759.102ZM381.462 761.759V762.759H381.475L381.488 762.759L381.462 761.759ZM365.731 747.011L366.613 746.539L366.613 746.539L365.731 747.011ZM359.293 734.153L360.196 733.723L360.194 733.719L359.293 734.153ZM309.14 694.438L309.456 693.49L309.456 693.49L309.14 694.438ZM252.174 634.822L251.175 634.862L251.175 634.863L252.174 634.822ZM227.365 602.169L227.97 601.373L227.969 601.373L227.365 602.169ZM167.724 502.303L166.734 502.448L166.734 502.449L167.724 502.303ZM180.743 448.162L181.5 448.816L181.5 448.815L180.743 448.162ZM311.335 471.279C317.241 499.955 314.992 518.302 313.016 534.568L315.002 534.809C316.985 518.476 319.266 499.872 313.294 470.876L311.335 471.279ZM313.016 534.567C311.805 544.488 310.656 553.85 311.707 564.311C312.761 574.791 316.016 586.327 323.539 600.672L325.31 599.743C317.888 585.591 314.722 574.301 313.697 564.111C312.671 553.904 313.787 544.755 315.002 534.81L313.016 534.567ZM323.54 600.674C334.301 621.117 347.75 636.693 359.607 650.368L361.118 649.058C349.255 635.376 335.951 619.958 325.31 599.742L323.54 600.674ZM359.607 650.367C377.935 671.534 393.476 689.522 394.267 717.935L396.266 717.879C395.452 688.655 379.389 670.157 361.119 649.058L359.607 650.367ZM394.267 717.935C394.551 728.178 393.972 736.9 392.614 743.781C391.249 750.693 389.122 755.617 386.416 758.405L387.851 759.798C390.96 756.595 393.185 751.211 394.576 744.168C395.972 737.095 396.553 728.215 396.266 717.879L394.267 717.935ZM386.382 758.442C385.762 759.149 385.003 759.719 384.152 760.118L385 761.929C386.101 761.413 387.084 760.675 387.885 759.761L386.382 758.442ZM384.152 760.118C383.301 760.517 382.376 760.735 381.436 760.759L381.488 762.759C382.703 762.727 383.899 762.445 385 761.929L384.152 760.118ZM381.462 760.759C379.324 760.759 376.882 759.606 374.294 757.18C371.719 754.765 369.096 751.178 366.613 746.539L364.85 747.483C367.397 752.242 370.142 756.028 372.926 758.639C375.698 761.237 378.607 762.759 381.462 762.759V760.759ZM366.613 746.539C364.056 741.763 361.995 737.5 360.196 733.723L358.39 734.583C360.193 738.368 362.27 742.665 364.85 747.483L366.613 746.539ZM360.194 733.719C355.684 724.363 352.3 717.33 345.335 711.134C338.385 704.952 327.948 699.662 309.456 693.49L308.823 695.387C327.251 701.538 337.369 706.725 344.005 712.629C350.627 718.519 353.859 725.183 358.392 734.587L360.194 733.719ZM309.456 693.49C287.669 686.222 274.02 680.393 265.592 672C257.238 663.682 253.9 652.717 253.173 634.782L251.175 634.863C251.91 652.986 255.296 664.571 264.18 673.417C272.99 682.189 287.092 688.138 308.823 695.387L309.456 693.49ZM253.173 634.782C252.58 619.959 241.401 611.582 227.97 601.373L226.76 602.966C240.403 613.336 250.626 621.152 251.175 634.862L253.173 634.782ZM227.969 601.373C217.268 593.259 204.723 583.719 193.711 568.587C182.708 553.467 173.204 532.713 168.713 502.158L166.734 502.449C171.268 533.294 180.883 554.359 192.094 569.764C203.296 585.158 216.059 594.852 226.761 602.966L227.969 601.373ZM168.713 502.158C165.498 480.206 169.837 462.295 181.5 448.816L179.987 447.507C167.857 461.527 163.457 480.067 166.734 502.448L168.713 502.158ZM181.5 448.815C194.035 434.304 214.844 425.979 238.797 425.979V423.979C214.417 423.979 192.992 432.452 179.987 447.508L181.5 448.815ZM238.797 425.979C254.546 425.979 271.19 429.907 284.646 437.562C298.097 445.214 308.288 456.542 311.335 471.333L313.294 470.929C310.099 455.421 299.432 443.673 285.635 435.824C271.842 427.977 254.849 423.979 238.797 423.979V425.979Z" fill="#808080" mask="url(#path-3-inside-1)"/>
<path d="M439.036 781.644C441.176 764.274 444.85 718.05 429.904 679.602C421.861 658.933 408.984 642.242 395.34 624.569C377.308 601.207 358.652 577.043 351.037 542.037C347.75 526.249 345.368 510.286 343.903 494.226C340.175 459.326 336.965 429.188 303.506 388.796C281.853 362.688 274.719 339.113 283.369 322.189C291.27 306.799 311.745 299.006 339.586 300.949C395.143 304.73 440.552 352.915 478.399 448.234C506.489 518.961 538.201 528.894 586.195 543.927C600.196 548.314 616.052 553.272 633.388 560.405C688.802 583.16 690.461 629.259 691.852 669.937C692.333 683.436 692.779 696.205 695.116 707.511C701.893 740.413 719.247 768.519 728.432 781.662" stroke="#808080"/>
<path d="M651.382 684.488C647.512 646.788 643.535 607.805 597.002 580.752C575.35 568.162 556.213 561.135 539.323 555.054C510.786 544.657 488.171 536.436 467.393 507.35C461.65 499.308 456.353 491.497 451.234 483.935C429.939 452.584 413.78 428.652 393.234 428.652C389.483 428.685 385.773 429.429 382.301 430.846C377.699 432.629 374.489 436.856 372.741 443.329C363.467 478.086 398.21 570.373 422.18 600.261C423.679 602.134 425.266 604.078 426.907 606.093C454.534 640.172 500.335 696.65 487.386 781.679M680.133 781.679C667.57 760.3 659.012 736.81 654.878 712.361C653.308 703.177 652.345 693.69 651.4 684.505" stroke="#808080"/>
<path d="M376.118 392.801L376.116 392.802C373.008 393.549 368.776 392.521 364.376 389.481C359.99 386.452 355.494 381.46 351.888 374.407C348.647 368.016 343.212 361.058 337.99 354.373L337.836 354.175L337.835 354.175C333.827 349.051 329.952 344.097 327.076 339.533C324.191 334.953 322.371 330.853 322.371 327.43H322.371L322.371 327.421C322.348 326.086 322.693 324.771 323.371 323.62C323.707 323.067 324.213 322.699 324.922 322.536C325.648 322.369 326.602 322.415 327.804 322.741L327.804 322.741L327.813 322.743C331.612 323.701 336.858 326.823 342.639 331.284C348.402 335.733 354.644 341.472 360.427 347.601C366.21 353.731 371.524 360.24 375.439 366.225C379.369 372.234 381.836 377.638 382.03 381.578C382.188 384.786 381.706 387.361 380.693 389.244C379.689 391.111 378.15 392.318 376.118 392.801Z" stroke="#808080"/>
<path d="M283.342 609.453L283.341 609.445C286.692 608.658 291.205 609.718 295.856 612.857C300.51 615.997 305.249 621.189 308.997 628.542C312.112 634.701 317.396 641.474 322.498 648.015C322.641 648.197 322.783 648.379 322.925 648.561L322.925 648.562L322.974 648.624C327.037 653.815 330.963 658.832 333.879 663.496C336.816 668.193 338.674 672.451 338.674 676.109L338.675 676.116C338.698 677.693 338.278 679.244 337.462 680.594L337.461 680.597C337.116 681.177 336.561 681.759 335.661 682.094C334.755 682.43 333.449 682.535 331.574 682.062L331.574 682.062C327.704 681.09 322.362 677.909 316.478 673.359C310.61 668.822 304.257 662.967 298.37 656.714C292.483 650.459 287.074 643.817 283.088 637.708C279.092 631.581 276.579 626.068 276.377 622.044V622.044V622.041V622.039V622.036V622.034V622.031V622.029V622.026V622.024V622.021V622.019V622.016V622.014V622.011V622.009V622.006V622.004V622.001V621.999V621.996V621.994V621.991V621.989V621.986V621.984V621.981V621.979V621.976V621.974V621.971V621.969V621.966V621.964V621.961V621.959V621.956V621.954V621.951V621.949V621.946V621.944V621.941V621.939V621.936V621.934V621.931V621.929V621.926V621.924V621.921V621.919V621.916V621.914V621.911V621.909V621.906V621.904V621.901V621.899V621.896V621.894V621.891V621.888V621.886V621.883V621.881V621.878V621.876V621.873V621.871V621.868V621.866V621.863V621.861V621.858V621.856V621.853V621.851V621.848V621.846V621.843V621.841V621.838V621.836V621.833V621.831V621.828V621.826V621.823V621.821V621.818V621.816V621.813V621.811V621.808V621.806V621.803V621.801V621.798V621.796V621.793V621.791V621.788V621.786V621.783V621.781V621.778V621.776V621.773V621.771V621.768V621.766V621.763V621.761V621.758V621.756V621.753V621.751V621.748V621.746V621.743V621.741V621.738V621.736V621.733V621.731V621.728V621.726V621.723V621.721V621.718V621.716V621.713V621.711V621.708V621.706V621.703V621.701V621.698V621.696V621.693V621.691V621.688V621.686V621.683V621.681V621.678V621.676V621.673V621.671V621.668V621.666V621.663V621.661V621.658V621.656V621.653V621.651V621.648V621.646V621.643V621.641V621.638V621.636V621.633V621.631V621.628V621.626V621.623V621.621V621.618V621.616V621.613V621.611V621.608V621.606V621.603V621.601V621.598V621.596V621.593V621.591V621.588V621.586V621.583V621.581V621.578V621.576V621.573V621.571V621.568V621.566V621.563V621.561V621.558V621.556V621.553V621.551V621.549V621.546V621.544V621.541V621.539V621.536V621.534V621.531V621.529V621.526V621.524V621.521V621.519V621.516V621.514V621.511V621.509V621.506V621.504V621.501V621.499V621.496V621.494V621.491V621.489V621.486V621.484V621.481V621.479V621.476V621.474V621.471V621.469V621.466V621.464V621.461V621.459V621.456V621.454V621.451V621.449V621.447V621.444V621.442V621.439V621.437V621.434V621.432V621.429V621.427V621.424V621.422V621.419V621.417V621.414V621.412V621.409V621.407V621.404V621.402V621.399V621.397V621.394V621.392V621.389V621.387V621.384V621.382V621.38V621.377V621.375V621.372V621.37V621.367V621.365V621.362V621.36V621.357V621.355V621.352V621.35V621.347V621.345V621.342V621.34V621.337V621.335V621.332V621.33V621.328V621.325V621.323V621.32V621.318V621.315V621.313V621.31V621.308V621.305V621.303V621.3V621.298V621.295V621.293V621.29V621.288V621.285V621.283V621.281V621.278V621.276V621.273V621.271V621.268V621.266V621.263V621.261V621.258V621.256V621.253V621.251V621.248V621.246V621.244V621.241V621.239V621.236V621.234V621.231V621.229V621.226V621.224V621.221V621.219V621.216V621.214V621.212V621.209V621.207V621.204V621.202V621.199V621.197V621.194V621.192V621.189V621.187V621.184V621.182V621.18V621.177V621.175V621.172V621.17V621.167V621.165V621.162V621.16V621.157V621.155V621.153V621.15V621.148V621.145V621.143V621.14V621.138V621.135V621.133V621.13V621.128V621.126V621.123V621.121V621.118V621.116V621.113V621.111V621.108V621.106V621.103V621.101V621.099V621.096V621.094V621.091V621.089V621.086V621.084V621.081V621.079V621.077V621.074V621.072V621.069V621.067V621.064V621.062V621.059V621.057V621.055V621.052V621.05V621.047V621.045V621.042V621.04V621.037V621.035V621.033V621.03V621.028V621.025V621.023V621.02V621.018V621.015V621.013V621.011V621.008V621.006V621.003V621.001V620.998V620.996V620.994V620.991V620.989V620.986V620.984V620.981V620.979V620.977V620.974V620.972V620.969V620.967V620.964V620.962V620.96V620.957V620.955V620.952V620.95V620.947V620.945V620.943V620.94V620.938V620.935V620.933V620.93V620.928V620.926V620.923V620.921V620.918V620.916V620.913V620.911V620.909V620.906V620.904V620.901V620.899V620.896V620.894V620.892V620.889V620.887V620.884V620.882V620.88V620.877V620.875V620.872V620.87V620.867V620.865V620.863V620.86V620.858V620.855V620.853V620.851V620.848V620.846V620.843V620.841V620.838V620.836V620.834V620.831V620.829V620.826V620.824V620.822V620.819V620.817V620.814V620.812V620.81V620.807V620.805V620.802V620.8V620.798V620.795V620.793V620.79C276.377 614.536 278.979 610.502 283.342 609.453Z" stroke="#808080"/>
<path d="M837.885 110.846C841.737 144.961 845.393 177.203 835.352 187.083C832.695 189.669 829.128 190.65 824.437 190.025C799.289 186.708 776.281 158.692 753.969 131.604C732.086 105.014 709.381 77.4978 684.055 72.2905C641.375 63.5343 625.573 86.0934 587.388 140.61C577.418 154.876 566.128 170.926 552.341 189.455C501.225 257.863 456.887 246.2 405.449 232.682C389.651 228.227 373.608 224.69 357.401 222.089C311.671 215.563 274.181 224.14 254.545 245.629C239.688 261.893 235.3 285.13 241.846 312.807C255.882 372.12 241.15 375.937 208.869 384.318C204.338 385.495 199.665 386.708 194.6 388.188C171.272 395 151.831 411.799 139.721 435.41C125.346 463.516 121.636 501.001 129.02 543.801C144.84 635.784 205.373 676.569 276.946 716.783C324.834 743.711 336.355 769.783 339.102 781.589M848.853 -1.53906H844.038C827.986 23.1064 833.337 69.3658 837.956 110.81" stroke="#808080"/>
<mask id="path-10-inside-2" fill="white">
<path d="M878.995 240.335C879.351 241.209 880.439 243.902 876.23 248.039C872.556 251.606 861.249 252.069 853.044 252.069C844.519 252.069 834.513 251.552 822.92 250.964C808.83 250.232 792.886 249.412 776.406 249.412C727.394 249.412 692.794 256.973 667.503 273.219C625.662 300.076 618.991 334.869 614.568 357.874C611.465 374.013 609.717 381.057 601.263 379.969C598.224 379.561 595.162 379.353 592.096 379.345C558.369 379.345 538.964 404.882 524.803 423.518C518.008 432.434 512.14 440.21 507.734 440.21C507.58 440.227 507.425 440.227 507.271 440.21C501.118 439.425 498.032 429.688 493.769 416.242C488.205 398.712 480.589 374.69 460.988 350.99C445.4 332.14 426.976 317.107 410.71 304C390.2 287.361 373.987 274.218 373.987 261.521C373.911 260.823 373.989 260.117 374.213 259.451C374.438 258.786 374.805 258.178 375.289 257.669C376.598 256.814 378.156 256.424 379.712 256.563C385.402 256.563 394.748 259.434 405.574 262.787C424.015 268.458 446.952 275.538 471.243 275.538C493.698 275.538 512.621 269.51 529.101 257.134C552.983 239.176 574.617 213.764 595.52 189.207C624.288 155.146 651.719 122.975 676.974 122.975C697.288 122.975 712.645 145.427 728.875 169.18C746.71 195.146 765.009 222.002 792.065 222.002C846.499 222.002 875.196 231.508 878.816 240.353"/>
</mask>
<path d="M876.23 248.039L876.927 248.756L876.931 248.752L876.23 248.039ZM822.92 250.964L822.869 251.962L822.87 251.962L822.92 250.964ZM667.503 273.219L668.043 274.061L668.044 274.061L667.503 273.219ZM614.568 357.874L615.55 358.063V358.063L614.568 357.874ZM601.263 379.969L601.13 380.96L601.135 380.961L601.263 379.969ZM592.096 379.345L592.098 378.345H592.096V379.345ZM524.803 423.518L525.598 424.124L525.599 424.123L524.803 423.518ZM507.734 440.21V439.21H507.677L507.62 439.216L507.734 440.21ZM507.271 440.21L507.144 441.202L507.157 441.203L507.271 440.21ZM493.769 416.242L494.723 415.94L494.723 415.939L493.769 416.242ZM460.988 350.99L460.217 351.627L460.217 351.627L460.988 350.99ZM410.71 304L410.08 304.776L410.083 304.778L410.71 304ZM373.987 261.521H374.987V261.467L374.981 261.413L373.987 261.521ZM375.289 257.669L374.742 256.832L374.645 256.895L374.565 256.98L375.289 257.669ZM379.712 256.563L379.624 257.559L379.668 257.563H379.712V256.563ZM405.574 262.787L405.278 263.742L405.28 263.743L405.574 262.787ZM529.101 257.134L529.702 257.934L529.702 257.933L529.101 257.134ZM595.52 189.207L596.281 189.855L596.284 189.852L595.52 189.207ZM728.875 169.18L728.049 169.745L728.05 169.747L728.875 169.18ZM878.069 240.713C878.226 241.097 878.503 241.779 878.337 242.804C878.171 243.839 877.526 245.363 875.529 247.326L876.931 248.752C879.143 246.578 880.06 244.687 880.312 243.122C880.566 241.548 880.12 240.447 879.92 239.957L878.069 240.713ZM875.534 247.321C874.776 248.057 873.55 248.696 871.907 249.221C870.28 249.741 868.33 250.123 866.207 250.4C861.961 250.953 857.136 251.069 853.044 251.069V253.069C857.157 253.069 862.087 252.954 866.465 252.383C868.654 252.098 870.733 251.696 872.516 251.126C874.283 250.561 875.847 249.804 876.927 248.756L875.534 247.321ZM853.044 251.069C844.55 251.069 834.573 250.554 822.971 249.965L822.87 251.962C834.453 252.55 844.488 253.069 853.044 253.069V251.069ZM822.972 249.965C808.885 249.234 792.915 248.412 776.406 248.412V250.412C792.856 250.412 808.776 251.231 822.869 251.962L822.972 249.965ZM776.406 248.412C727.312 248.412 692.487 255.982 666.963 272.378L668.044 274.061C693.101 257.965 727.477 250.412 776.406 250.412V248.412ZM666.963 272.378C624.755 299.47 618.019 334.628 613.586 357.685L615.55 358.063C619.963 335.11 626.568 300.683 668.043 274.061L666.963 272.378ZM613.586 357.685C612.024 365.81 610.834 371.438 609.033 374.923C608.15 376.633 607.163 377.733 605.995 378.366C604.832 378.997 603.365 379.231 601.391 378.977L601.135 380.961C603.388 381.251 605.31 381.013 606.948 380.124C608.583 379.238 609.813 377.772 610.81 375.84C612.774 372.04 614.009 366.076 615.55 358.063L613.586 357.685ZM601.396 378.978C598.314 378.564 595.208 378.353 592.098 378.345L592.093 380.345C595.115 380.353 598.134 380.558 601.13 380.96L601.396 378.978ZM592.096 378.345C557.807 378.345 538.121 404.339 524.007 422.913L525.599 424.123C539.807 405.425 558.931 380.345 592.096 380.345V378.345ZM524.007 422.912C520.598 427.386 517.467 431.511 514.643 434.524C513.232 436.028 511.931 437.22 510.742 438.029C509.542 438.845 508.549 439.21 507.734 439.21V441.21C509.123 441.21 510.515 440.602 511.867 439.682C513.229 438.755 514.646 437.445 516.102 435.891C519.012 432.787 522.213 428.566 525.598 424.124L524.007 422.912ZM507.62 439.216C507.542 439.225 507.463 439.225 507.385 439.216L507.157 441.203C507.387 441.23 507.619 441.23 507.848 441.203L507.62 439.216ZM507.397 439.218C504.868 438.895 502.765 436.711 500.708 432.532C498.676 428.402 496.863 422.691 494.723 415.94L492.816 416.544C494.939 423.239 496.8 429.119 498.914 433.415C501.004 437.663 503.521 440.74 507.144 441.202L507.397 439.218ZM494.723 415.939C489.155 398.401 481.493 374.215 461.759 350.353L460.217 351.627C479.685 375.166 487.254 399.022 492.816 416.544L494.723 415.939ZM461.759 350.353C446.098 331.415 427.599 316.325 411.338 303.221L410.083 304.778C426.353 317.889 444.702 332.865 460.217 351.627L461.759 350.353ZM411.34 303.223C401.067 294.89 391.944 287.489 385.382 280.593C378.791 273.668 374.987 267.456 374.987 261.521H372.987C372.987 268.283 377.29 274.992 383.933 281.972C390.604 288.981 399.842 296.471 410.08 304.776L411.34 303.223ZM374.981 261.413C374.921 260.859 374.982 260.299 375.161 259.772L373.266 259.131C372.995 259.934 372.902 260.786 372.993 261.629L374.981 261.413ZM375.161 259.772C375.339 259.244 375.63 258.762 376.014 258.358L374.565 256.98C373.981 257.594 373.537 258.328 373.266 259.131L375.161 259.772ZM375.836 258.506C376.957 257.774 378.291 257.44 379.624 257.559L379.801 255.567C378.021 255.408 376.239 255.854 374.742 256.832L375.836 258.506ZM379.712 257.563C382.422 257.563 386.077 258.252 390.467 259.386C394.84 260.516 399.859 262.064 405.278 263.742L405.869 261.832C400.462 260.157 395.395 258.594 390.967 257.45C386.555 256.31 382.692 255.563 379.712 255.563V257.563ZM405.28 263.743C423.704 269.408 446.779 276.538 471.243 276.538V274.538C447.124 274.538 424.327 267.508 405.868 261.831L405.28 263.743ZM471.243 276.538C493.895 276.538 513.033 270.451 529.702 257.934L528.501 256.334C512.209 268.569 493.502 274.538 471.243 274.538V276.538ZM529.702 257.933C553.689 239.896 575.396 214.391 596.281 189.855L594.758 188.559C573.838 213.136 552.276 238.456 528.5 256.335L529.702 257.933ZM596.284 189.852C610.679 172.808 624.684 156.306 638.235 144.06C651.819 131.783 664.746 123.975 676.974 123.975V121.975C663.947 121.975 650.531 130.251 636.894 142.576C623.224 154.93 609.129 171.545 594.756 188.562L596.284 189.852ZM676.974 123.975C686.735 123.975 695.409 129.363 703.742 137.87C712.075 146.376 719.92 157.847 728.049 169.745L729.7 168.616C721.599 156.76 713.651 145.128 705.17 136.47C696.689 127.812 687.528 121.975 676.974 121.975V123.975ZM728.05 169.747C736.953 182.707 746.043 196.002 756.313 206.043C766.596 216.098 778.172 223.002 792.065 223.002V221.002C778.902 221.002 767.801 214.479 757.711 204.613C747.609 194.735 738.632 181.619 729.699 168.614L728.05 169.747ZM792.065 223.002C819.232 223.002 839.93 225.375 854.261 228.833C861.429 230.562 866.971 232.555 870.922 234.639C874.914 236.743 877.122 238.855 877.891 240.732L879.742 239.974C878.7 237.428 875.963 235.035 871.855 232.869C867.707 230.683 861.993 228.641 854.73 226.889C840.199 223.382 819.332 221.002 792.065 221.002V223.002Z" fill="#808080" mask="url(#path-10-inside-2)"/>
<path d="M808.813 81.4423C817.73 132.16 809.187 141.415 805.139 143.038C799.521 145.303 790.87 138.598 781.578 124.652C765.526 100.702 712.27 28.5133 654.537 28.5133C648.77 28.5052 643.026 29.2485 637.451 30.7246C600.889 40.3367 572.37 89.0393 547.222 132.017C530.225 161.05 514.173 188.459 498.193 199.284C478.413 212.659 443.082 204.902 402.15 195.932C362.216 187.193 316.968 177.26 277.748 185.927C244.396 193.31 223.226 213.854 214.79 246.988C207.655 274.701 210.866 305.731 213.006 326.275L213.345 329.52C215.289 349.262 197.757 356.466 175.552 365.597C152.883 374.906 127.2 385.463 113.128 412.409C82.8081 469.85 79.8831 535.868 104.924 593.541C119.852 627.959 121.618 652.801 110.435 671.74C96.1668 696.028 59.9254 711.187 0.0522461 717.946M801.268 -1.5C800.466 9.19993 800.519 33.5601 808.866 81.4423" stroke="#808080"/>
<path d="M595.752 -1.5C583.267 9.19993 554.962 35.5753 538.697 69.6724C536.182 74.9153 533.703 80.2475 531.295 85.3834C512.443 125.794 494.625 163.974 459.383 173.087C440.477 177.974 417.006 169.449 389.825 159.587C359.648 148.638 325.44 136.226 289.02 139.026C285.078 139.329 280.976 139.686 276.713 140.06C231.768 143.912 170.201 149.191 128.181 112.401C101.339 88.8966 86.0003 50.5908 82.5225 -1.5" stroke="#808080"/>
<path d="M263.284 98.259C276.25 97.7597 289.662 97.2604 302.022 97.5814C336.587 98.473 364.446 110.689 388.916 121.46C401.151 126.81 412.69 131.892 423.855 135.031C428.403 136.401 433.183 136.825 437.901 136.276C442.619 135.727 447.174 134.217 451.286 131.839C472.171 119.962 484.442 88.2011 491.041 63.6447C499.441 32.8646 523.573 9.19993 536.164 -1.5M126.683 -1.5C127.397 13.6226 131.534 50.9832 154.524 76.4312C177.175 101.398 220.943 99.8462 263.32 98.259" stroke="#808080"/>
<path d="M204.124 65.7491C221.139 69.4405 242.096 68.7094 264.301 67.9247C296.404 66.7834 332.896 65.4994 364.428 77.8222L375.361 82.1378C405.343 94.0326 425.14 101.897 439.729 94.6211C448.504 90.3054 454.746 80.6576 459.348 64.3046C468.961 30.5998 481.499 8.20127 487.635 -1.5M164.138 -1.5C164.798 15.3702 169.863 58.2948 204.142 65.7491" stroke="#808080"/>
<path d="M288.147 34.3091C295.156 34.3091 302.415 34.4339 310.173 34.5588C351.195 35.2186 375.308 47.042 391.217 54.746C404.005 60.9876 411.728 64.7682 419.094 58.6158C431.935 47.9158 436.287 13.2481 437.589 -1.5M203.786 -1.5C204.071 8.55793 206.568 15.8517 211.508 21.1304C223.404 33.8276 249.159 34.0238 288.2 34.3091" stroke="#808080"/>
<path d="M240.064 5.22312C244.915 9.11076 252.887 8.20127 266.068 6.72111C274.611 5.77595 285.223 4.58113 298.492 4.29579C320.957 3.63969 343.398 6.25895 365.107 12.0711C371.267 13.6868 377.506 14.9844 383.799 15.9587C388.989 16.6364 393.002 15.5129 395.695 12.5704C399.101 8.8611 399.744 3.0653 399.565 -1.5M235.873 -1.5C236.522 1.11118 237.961 3.45876 239.993 5.22312" stroke="#808080"/>
<path d="M0.0522461 671.847C19.903 672.061 64.955 669.029 74.1045 637.874C79.4373 619.791 75.0676 600.674 69.5565 576.492C62.9039 547.282 54.6105 510.92 62.0478 463.323C75.2638 378.579 108.848 365.383 151.349 348.655L153.454 347.817C186.342 334.87 184.666 316.484 182.347 291.036C181.384 282.291 180.979 273.493 181.134 264.696C181.776 246.649 191.443 230.671 199.968 216.547C209.76 200.336 218.232 186.337 211.989 172.802C206.603 161.175 186.984 157.768 164.244 153.809C137.384 149.173 104.086 143.377 83.6286 121.549C52.3811 87.9871 43.3386 19.989 41.1983 -1.5" stroke="#808080"/>
<path d="M0.0522461 50.4102C26.8052 148.297 86.6784 160.78 123.919 168.502L126.005 168.948C148.246 173.584 161.123 181.128 165.35 191.97C169.131 201.796 165.921 213.584 155.237 228.172C143.199 244.971 141.576 254.975 139.364 268.814C137.453 282.538 133.983 296 129.019 308.938C121.975 327.467 108.812 334.083 93.5807 341.734C73.8726 351.613 51.525 362.83 35.0095 404.275C15.6938 452.745 26.9479 498.327 35.9726 534.939C40.806 554.555 44.9794 571.55 44.5157 586.655C44.2125 599.138 39.9855 608.768 32.031 615.188C22.2216 623.106 8.96991 624.444 0.0522461 624.283" stroke="#808080"/>
<path d="M62.2988 320.456C83.9509 295.971 97.2738 266.351 103.32 250.907C110.829 231.594 112.238 221.215 108.439 213.885C103.07 203.578 87.4466 199.833 59.0171 192.878L52.1505 191.219C23.614 184.336 8.22208 161.777 0.053506 142.035M0 358.727C22.4547 354.696 43.3577 341.874 62.2453 320.528" stroke="#808080"/>
<path d="M0.0522461 196.57C7.45391 205.558 19.2609 216.437 34.7955 219.379C47.0662 221.733 59.0337 225.139 63.4747 234.216C67.5946 242.651 65.0085 255.366 55.3418 274.27C40.9308 302.25 14.1957 314.965 0.0522461 319.94" stroke="#808080"/>
<path d="M0.0522461 229.207C11.556 233.059 29.427 241.03 28.2499 253.05C27.1263 264.713 10.7534 280.513 0.0522461 289.679" stroke="#808080"/>
</g>
</svg>
