<svg width="1920" height="976" viewBox="0 0 1920 976" fill="none" xmlns="http://www.w3.org/2000/svg">
<g opacity="0.5">
<path d="M394.783 530.324L394.692 530.453C390.798 535.997 388.877 543.781 388.965 553.037C389.054 562.286 391.149 572.966 395.247 584.256L394.783 530.324ZM394.783 530.324V530.169M394.783 530.324V530.169M394.783 530.169C399.559 523.428 407.026 519.968 417.07 519.968C420.694 520.004 424.306 520.394 427.855 521.132L427.859 521.133C441 523.743 449.64 529.55 453.663 538.229C456.649 544.715 457.123 552.875 455.027 562.688C452.931 572.499 448.271 583.928 441.036 596.917C438.99 600.402 436.091 603.309 432.611 605.364C429.132 607.418 425.186 608.553 421.147 608.662C417.999 608.661 413.488 607.908 408.792 604.506C404.091 601.1 399.165 595.008 395.247 584.257L394.783 530.169Z" stroke="black"/>
<path d="M1106.5 12.0575L1106.5 12.0571C1113.57 -3.09799 1121.96 -15.1749 1130.87 -23.456C1139.79 -31.7393 1149.2 -36.196 1158.31 -36.196H1158.81V-36.2535C1170.35 -36.0548 1180.96 -28.9681 1190.39 -14.8373C1199.62 -1.00225 1202.14 11.6593 1198.04 22.8036C1194.97 31.1405 1188.19 38.7244 1177.72 45.4982C1167.24 52.2714 1153.09 58.2139 1135.32 63.2766C1132.96 63.9336 1130.52 64.2604 1128.07 64.2474L1128.07 64.2472L1128.06 64.2475C1123.4 64.341 1118.79 63.2804 1114.64 61.1601C1110.49 59.0411 1106.93 55.9296 1104.27 52.1026C1099.96 45.3798 1096.76 32.9226 1106.5 12.0575Z" stroke="black"/>
<mask id="path-3-inside-1" fill="white">
<path d="M1149.5 545.717C1141.8 558.517 1125.32 573.791 1090.31 573.791C1078.47 573.652 1066.68 572.2 1055.15 569.462C986.693 554.003 939.259 522.59 928.374 485.55C920.582 459.424 930.663 431.721 958.338 403.152C980.478 380.273 1003.05 368.678 1025.5 368.709C1067.25 368.709 1109.52 408.13 1151.08 485.859C1155.76 495.19 1158.08 505.531 1157.83 515.969C1157.57 526.408 1154.76 536.624 1149.62 545.717"/>
</mask>
<path d="M1090.31 573.791L1090.3 574.791H1090.31V573.791ZM1055.15 569.462L1055.39 568.489L1055.38 568.487L1055.15 569.462ZM928.374 485.55L929.334 485.268L929.333 485.264L928.374 485.55ZM958.338 403.152L959.056 403.848L959.057 403.848L958.338 403.152ZM1025.5 368.709L1025.5 369.709H1025.5V368.709ZM1151.08 485.859L1151.97 485.41L1151.96 485.399L1151.96 485.387L1151.08 485.859ZM1148.64 545.201C1141.12 557.708 1124.96 572.791 1090.31 572.791V574.791C1125.68 574.791 1142.48 559.326 1150.36 546.232L1148.64 545.201ZM1090.33 572.791C1078.56 572.653 1066.84 571.21 1055.39 568.489L1054.92 570.435C1066.52 573.19 1078.38 574.651 1090.3 574.791L1090.33 572.791ZM1055.38 568.487C1021.23 560.777 992.377 549.098 970.725 534.765C949.065 520.426 934.687 503.484 929.334 485.268L927.415 485.832C932.947 504.656 947.728 521.94 969.621 536.433C991.524 550.931 1020.62 562.689 1054.93 570.438L1055.38 568.487ZM929.333 485.264C921.687 459.63 931.505 432.289 959.056 403.848L957.62 402.456C929.821 431.153 919.477 459.217 927.416 485.836L929.333 485.264ZM959.057 403.848C981.089 381.08 1003.42 369.679 1025.5 369.709L1025.5 367.709C1002.68 367.678 979.867 379.466 957.619 402.457L959.057 403.848ZM1025.5 369.709C1046.04 369.709 1066.81 379.402 1087.68 398.867C1108.54 418.335 1129.44 447.517 1150.19 486.33L1151.96 485.387C1131.15 446.472 1110.13 417.079 1089.04 397.404C1067.94 377.727 1046.71 367.709 1025.5 367.709V369.709ZM1150.18 486.308C1154.79 495.492 1157.08 505.671 1156.83 515.945L1158.83 515.994C1159.08 505.391 1156.73 494.888 1151.97 485.41L1150.18 486.308ZM1156.83 515.945C1156.58 526.22 1153.8 536.275 1148.75 545.225L1150.49 546.208C1155.71 536.973 1158.57 526.596 1158.83 515.994L1156.83 515.945Z" fill="black" mask="url(#path-3-inside-1)"/>
<mask id="path-5-inside-2" fill="white">
<path d="M1075.47 504.781C1070.83 512.541 1062.08 516.623 1050.11 516.623C1044.74 516.563 1039.38 515.899 1034.16 514.644C1003.45 507.687 981.371 493.31 976.547 477.109C973.208 465.916 977.722 453.796 989.968 441.151C999.832 430.978 1009.76 425.691 1019.5 425.691C1038.05 425.691 1057.07 443.748 1076.12 479.335C1078.1 483.284 1079.08 487.66 1078.96 492.077C1078.85 496.494 1077.65 500.815 1075.47 504.657"/>
</mask>
<path d="M1050.11 516.623L1050.1 517.623H1050.11V516.623ZM1034.16 514.644L1034.39 513.671L1034.38 513.668L1034.16 514.644ZM976.547 477.109L977.506 476.823L977.506 476.823L976.547 477.109ZM989.968 441.151L989.25 440.454L989.249 440.455L989.968 441.151ZM1076.12 479.335L1077.01 478.886L1077 478.874L1077 478.863L1076.12 479.335ZM1074.61 504.268C1070.21 511.629 1061.86 515.623 1050.11 515.623V517.623C1062.3 517.623 1071.45 513.453 1076.33 505.294L1074.61 504.268ZM1050.12 515.623C1044.82 515.564 1039.54 514.909 1034.39 513.671L1033.92 515.616C1039.22 516.889 1044.65 517.562 1050.1 517.622L1050.12 515.623ZM1034.38 513.668C1019.11 510.21 1006.03 504.915 996.191 498.505C986.336 492.085 979.824 484.609 977.506 476.823L975.589 477.394C978.095 485.81 985.033 493.623 995.1 500.181C1005.18 506.749 1018.49 512.121 1033.93 515.619L1034.38 513.668ZM977.506 476.823C974.316 466.133 978.554 454.375 990.686 441.846L989.249 440.455C976.891 453.217 972.1 465.7 975.589 477.395L977.506 476.823ZM990.685 441.847C1000.45 431.773 1010.14 426.691 1019.5 426.691V424.691C1009.38 424.691 999.21 430.184 989.25 440.454L990.685 441.847ZM1019.5 426.691C1028.43 426.691 1037.59 431.035 1046.93 439.894C1056.28 448.754 1065.74 462.062 1075.23 479.807L1077 478.863C1067.45 461.021 1057.87 447.507 1048.31 438.442C1038.75 429.376 1029.12 424.691 1019.5 424.691V426.691ZM1075.22 479.784C1077.13 483.585 1078.07 487.799 1077.96 492.052L1079.96 492.103C1080.08 487.522 1079.07 482.982 1077.01 478.886L1075.22 479.784ZM1077.96 492.052C1077.85 496.304 1076.7 500.464 1074.6 504.163L1076.34 505.151C1078.6 501.166 1079.85 496.684 1079.96 492.103L1077.96 492.052Z" fill="black" mask="url(#path-5-inside-2)"/>
<path d="M432.825 708.543L432.815 708.54C414.562 703.966 394.283 685.16 378.549 658.812C362.83 632.49 351.714 598.745 351.714 564.451C351.714 542.642 353.574 521.803 362.095 506.423C366.348 498.747 372.26 492.433 380.437 488.033C388.617 483.632 399.093 481.132 412.496 481.131C427.291 481.461 442.002 483.458 456.35 487.083L456.35 487.083L456.359 487.085C496.502 496.419 511.417 516.223 516.888 531.138L517.358 530.966L516.889 531.138C525.379 554.277 517.291 580.719 505.489 596.611C498.995 604.836 491.461 612.183 483.075 618.467L483.068 618.472L483.061 618.478C476.501 623.772 470.572 628.565 466.198 634.457C461.808 640.371 458.992 647.378 458.601 657.093H458.601L458.601 657.105C458.468 665.067 458.935 673.028 459.996 680.92C460.646 686.65 461.22 691.73 461.036 696.053C460.853 700.366 459.918 703.844 457.624 706.424C456.151 707.887 454.378 709.012 452.427 709.722C450.471 710.434 448.384 710.712 446.31 710.537L446.296 710.535L446.282 710.535C441.733 710.409 437.215 709.74 432.825 708.543Z" stroke="black"/>
<path d="M1022.69 176.947L1022.69 176.947C1016.91 183.067 1010.91 186.066 1004.84 186.066C998.793 186.066 993.141 182.928 988.039 176.636C980.702 167.547 980.718 153.837 988.319 137.837C992.776 128.509 999.797 118.843 1007.49 111.514C1015.17 104.205 1023.41 99.3125 1030.39 99.2583L1030.45 99.2887H1030.57C1032.92 99.2887 1036.09 99.9007 1038.78 102.423C1041.47 104.944 1043.76 109.442 1044.2 117.367C1044.71 126.96 1042.56 138.455 1038.66 149.267C1034.76 160.081 1029.13 170.163 1022.69 176.947Z" stroke="black"/>
<mask id="path-9-inside-3" fill="white">
<path d="M541.477 484.4C551.774 534.395 547.847 566.426 544.414 594.686C540.209 629.129 536.56 658.872 562.473 708.28C581.026 743.527 604.218 770.395 624.781 794.11C656.507 830.748 683.904 862.378 685.295 912.342C686.285 948.022 681.275 973.375 671.195 983.763C669.962 985.168 668.453 986.302 666.76 987.095C665.068 987.888 663.23 988.322 661.362 988.37C652.703 988.37 642.808 979.095 634.088 962.801C629.636 954.483 626.049 947.063 622.925 940.508C607.248 907.982 599.981 893.018 535.973 871.653C460.523 846.485 439.743 830.81 437.208 768.293C436.218 743.558 417.665 729.521 394.195 711.681C357.088 683.545 306.438 644.99 290.792 538.538C285.164 500.106 292.74 468.508 313.365 444.67C335.505 419.038 372.117 404.476 414.016 404.476C469.15 404.476 530.654 431.962 541.477 484.492"/>
</mask>
<path d="M311.209 443.431L311.333 443.524L311.933 442.724L311.809 442.631L311.209 443.431ZM544.414 594.686L545.407 594.807L545.407 594.806L544.414 594.686ZM562.473 708.28L561.587 708.745L561.588 708.746L562.473 708.28ZM624.781 794.11L625.537 793.455L625.536 793.454L624.781 794.11ZM685.295 912.342L686.295 912.314V912.314L685.295 912.342ZM671.195 983.763L670.477 983.067L670.46 983.085L670.443 983.104L671.195 983.763ZM661.362 988.37V989.37H661.375L661.387 989.37L661.362 988.37ZM634.088 962.801L634.97 962.329L634.97 962.328L634.088 962.801ZM622.925 940.508L623.828 940.078L623.826 940.074L622.925 940.508ZM535.973 871.653L536.289 870.704L536.289 870.704L535.973 871.653ZM437.208 768.293L436.208 768.333L436.208 768.333L437.208 768.293ZM394.195 711.681L394.8 710.885L394.799 710.884L394.195 711.681ZM290.792 538.538L289.802 538.683L289.802 538.683L290.792 538.538ZM313.365 444.67L314.121 445.324L314.121 445.323L313.365 444.67ZM540.497 484.601C550.761 534.436 546.85 566.339 543.422 594.565L545.407 594.806C548.843 566.513 552.786 534.353 542.456 484.198L540.497 484.601ZM543.422 594.565C541.321 611.774 539.34 627.927 541.154 645.971C542.97 664.033 548.58 683.944 561.587 708.745L563.358 707.816C550.453 683.208 544.931 663.543 543.144 645.771C541.356 627.981 543.303 612.041 545.407 594.807L543.422 594.565ZM561.588 708.746C580.201 744.107 603.465 771.053 624.025 794.765L625.536 793.454C604.97 769.737 581.851 742.947 563.358 707.814L561.588 708.746ZM624.025 794.764C655.78 831.436 682.915 862.811 684.296 912.37L686.295 912.314C684.892 861.944 657.233 830.059 625.537 793.455L624.025 794.764ZM684.296 912.369C684.789 930.163 683.785 945.342 681.415 957.343C679.04 969.374 675.316 978.08 670.477 983.067L671.913 984.46C677.154 979.058 680.976 969.893 683.377 957.73C685.785 945.538 686.791 930.2 686.295 912.314L684.296 912.369ZM670.443 983.104C669.302 984.405 667.903 985.455 666.336 986.19L667.184 988.001C669.002 987.149 670.623 985.931 671.947 984.423L670.443 983.104ZM666.336 986.19C664.769 986.924 663.066 987.326 661.336 987.37L661.387 989.37C663.393 989.318 665.367 988.852 667.184 988.001L666.336 986.19ZM661.362 987.37C657.391 987.37 652.986 985.236 648.432 980.966C643.891 976.708 639.298 970.415 634.97 962.329L633.207 963.272C637.599 971.48 642.314 977.971 647.064 982.425C651.802 986.867 656.674 989.37 661.362 989.37V987.37ZM634.97 962.328C630.528 954.033 626.949 946.629 623.828 940.078L622.023 940.938C625.148 947.497 628.743 954.934 633.207 963.273L634.97 962.328ZM623.826 940.074C615.999 923.835 610.187 911.778 598.238 901.148C586.304 890.531 568.325 881.397 536.289 870.704L535.656 872.602C567.629 883.273 585.288 892.304 596.909 902.642C608.514 912.967 614.174 924.655 622.025 940.943L623.826 940.074ZM536.289 870.704C498.536 858.111 474.705 847.96 459.953 833.27C445.275 818.655 439.471 799.417 438.207 768.252L436.208 768.333C437.48 799.686 443.333 819.544 458.542 834.688C473.675 849.757 497.959 860.027 535.656 872.602L536.289 870.704ZM438.207 768.253C437.195 742.962 418.163 728.644 394.8 710.885L393.59 712.477C417.166 730.398 435.241 744.154 436.208 768.333L438.207 768.253ZM394.799 710.884C376.246 696.817 354.416 680.221 335.254 653.89C316.101 627.57 299.583 591.473 291.781 538.393L289.802 538.683C297.647 592.055 314.277 628.462 333.637 655.067C352.989 681.66 375.037 698.41 393.591 712.478L394.799 710.884ZM291.781 538.393C286.185 500.176 293.73 468.892 314.121 445.324L312.608 444.015C291.749 468.124 284.143 500.037 289.802 538.683L291.781 538.393ZM314.121 445.323C336.027 419.964 372.331 405.476 414.016 405.476V403.476C371.903 403.476 334.983 418.113 312.608 444.016L314.121 445.323ZM414.016 405.476C441.431 405.476 470.417 412.312 493.869 425.654C517.316 438.994 535.16 458.788 540.497 484.694L542.456 484.291C536.971 457.667 518.651 437.452 494.858 423.916C471.068 410.382 441.735 403.476 414.016 403.476V405.476Z" fill="black" mask="url(#path-9-inside-3)"/>
<path d="M761.181 1022.85C764.891 992.733 771.261 912.592 745.348 845.932C731.403 810.097 709.077 781.158 685.422 750.518C654.159 710.014 621.815 668.12 608.611 607.427C602.913 580.054 598.783 552.379 596.242 524.535C589.78 464.028 584.214 411.775 526.204 341.745C488.664 296.481 476.296 255.606 491.293 226.265C504.991 199.582 540.49 186.071 588.759 189.441C685.081 195.996 763.809 279.537 829.426 444.796C878.128 567.419 933.107 584.64 1016.32 610.705C1040.59 618.31 1068.08 626.906 1098.14 639.273C1194.21 678.725 1197.09 758.649 1199.5 829.174C1200.34 852.579 1201.11 874.717 1205.16 894.319C1216.91 951.364 1247 1000.09 1262.92 1022.88" stroke="black"/>
<path d="M1129.34 854.403C1122.63 789.042 1115.73 721.454 1035.06 674.551C997.516 652.722 964.337 640.541 935.053 629.997C885.578 611.972 846.369 597.719 810.345 547.291C800.388 533.346 791.204 519.804 782.329 506.695C745.408 452.34 717.393 410.848 681.771 410.848C675.269 410.904 668.836 412.195 662.816 414.651C654.838 417.742 649.272 425.07 646.241 436.294C630.162 496.554 690.398 656.556 731.957 708.376C734.555 711.622 737.307 714.992 740.152 718.486C788.05 777.571 867.458 875.49 845.008 1022.91M1179.18 1022.91C1157.4 985.843 1142.57 945.117 1135.4 902.729C1132.68 886.806 1131.01 870.357 1129.37 854.434" stroke="black"/>
<path d="M915.444 1023C928.772 912.9 886.996 807.777 841.046 755.216C817.174 728.008 808.578 705.375 817.174 693.008C821.441 686.824 829.667 683.732 841.139 683.732C853.91 683.732 870.979 687.566 891.016 695.203L894.789 696.625C971.042 725.565 1031.09 748.414 1044.85 858.669C1055.34 942.489 1079.24 999.997 1090.12 1022.88" stroke="black"/>
<mask id="path-14-inside-4" fill="white">
<path d="M798.131 638.996C796.922 641.856 794.867 644.278 792.241 645.936C789.616 647.594 786.546 648.409 783.443 648.271C778.392 648.084 773.443 646.797 768.941 644.499C737.122 629.535 688.543 516.899 693.491 482.456C694.542 475.252 697.449 474.819 698.407 474.664C699.135 474.567 699.869 474.515 700.603 474.51C716.961 474.51 733.102 502.924 748.718 530.41C758.304 547.23 768.199 564.668 778.836 577.035C800.172 601.956 803.821 626.505 798.131 638.872"/>
</mask>
<path d="M783.443 648.271L783.488 647.272L783.48 647.272L783.443 648.271ZM768.941 644.499L769.395 643.609L769.381 643.601L769.366 643.594L768.941 644.499ZM693.491 482.456L692.501 482.311L692.501 482.314L693.491 482.456ZM698.407 474.664L698.275 473.673L698.261 473.675L698.248 473.677L698.407 474.664ZM700.603 474.51V473.51L700.596 473.51L700.603 474.51ZM748.718 530.41L747.848 530.904L747.849 530.905L748.718 530.41ZM778.836 577.035L779.595 576.385L779.594 576.383L778.836 577.035ZM797.21 638.607C796.081 641.279 794.161 643.541 791.707 645.09L792.775 646.781C795.574 645.014 797.764 642.433 799.052 639.385L797.21 638.607ZM791.707 645.09C789.254 646.639 786.386 647.401 783.488 647.272L783.399 649.27C786.705 649.417 789.977 648.548 792.775 646.781L791.707 645.09ZM783.48 647.272C778.575 647.09 773.768 645.84 769.395 643.609L768.486 645.39C773.118 647.754 778.21 649.078 783.406 649.271L783.48 647.272ZM769.366 643.594C761.678 639.979 752.805 630.341 743.86 617.149C734.949 604.007 726.075 587.502 718.34 570.371C710.605 553.241 704.021 535.513 699.681 519.933C695.329 504.309 693.276 490.986 694.481 482.598L692.501 482.314C691.232 491.147 693.396 504.82 697.755 520.47C702.126 536.164 708.748 553.988 716.517 571.194C724.285 588.397 733.213 605.01 742.205 618.272C751.163 631.484 760.294 641.538 768.515 645.404L769.366 643.594ZM694.48 482.6C694.99 479.109 695.927 477.428 696.709 476.606C697.458 475.818 698.155 475.718 698.567 475.652L698.248 473.677C697.701 473.765 696.466 473.959 695.259 475.227C694.085 476.462 693.043 478.598 692.501 482.311L694.48 482.6ZM698.54 475.656C699.227 475.564 699.918 475.515 700.61 475.51L700.596 473.51C699.819 473.515 699.044 473.57 698.275 473.673L698.54 475.656ZM700.603 475.51C704.395 475.51 708.261 477.157 712.22 480.174C716.177 483.191 720.153 487.523 724.143 492.759C732.126 503.233 740.03 517.143 747.848 530.904L749.587 529.916C741.79 516.191 733.815 502.151 725.734 491.546C721.692 486.242 717.59 481.754 713.432 478.584C709.275 475.415 704.99 473.51 700.603 473.51V475.51ZM747.849 530.905C757.419 547.697 767.364 565.231 778.078 577.687L779.594 576.383C769.033 564.105 759.188 546.763 749.587 529.915L747.849 530.905ZM778.076 577.686C788.659 590.046 794.827 602.281 797.652 612.918C800.483 623.576 799.939 632.55 797.223 638.454L799.04 639.29C802.013 632.827 802.49 623.342 799.585 612.404C796.674 601.444 790.349 588.945 779.595 576.385L778.076 577.686Z" fill="black" mask="url(#path-14-inside-4)"/>
<path d="M1234.52 259.49L1234.52 259.49C1223.4 265.175 1211.24 274.67 1199.53 283.844C1190.65 290.789 1182.04 297.52 1174.11 302.516C1166.16 307.523 1158.98 310.729 1152.93 310.729L1152.92 310.729C1150.52 310.776 1148.16 310.147 1146.11 308.915C1145.05 308.278 1144.36 307.314 1144.06 305.994C1143.75 304.657 1143.85 302.938 1144.44 300.82L1144.44 300.82L1144.45 300.808C1146.12 294.144 1151.57 285.001 1159.3 274.978C1167.03 264.971 1176.99 254.14 1187.63 244.106C1198.27 234.072 1209.57 224.845 1219.98 218.042C1230.41 211.225 1239.86 206.893 1246.8 206.544C1252.4 206.284 1256.94 207.129 1260.28 208.931C1263.6 210.725 1265.76 213.476 1266.61 217.104L1266.61 217.107C1267.94 222.636 1266.1 230.08 1260.81 237.75C1255.52 245.405 1246.81 253.23 1234.52 259.49Z" stroke="black"/>
<path d="M652.18 349.048L652.179 349.048C646.649 350.378 639.205 348.538 631.53 343.237C623.869 337.945 616.036 329.24 609.76 316.967C604.157 305.918 594.753 293.878 585.688 282.272L585.434 281.948L585.434 281.948C578.488 273.068 571.756 264.464 566.759 256.532C561.752 248.584 558.545 241.399 558.545 235.353H558.545L558.545 235.344C558.503 232.961 559.121 230.613 560.33 228.56C560.967 227.509 561.931 226.814 563.252 226.51C564.589 226.203 566.31 226.294 568.428 226.869L568.428 226.869L568.437 226.871C575.102 228.552 584.247 234.005 594.275 241.745C604.285 249.472 615.121 259.435 625.157 270.073C635.195 280.711 644.423 292.013 651.226 302.413C658.043 312.837 662.371 322.278 662.712 329.215C662.987 334.817 662.15 339.355 660.351 342.696C658.561 346.022 655.809 348.185 652.18 349.048Z" stroke="black"/>
<path d="M491.16 723.952L491.158 723.938C497.104 722.541 505.035 724.431 513.147 729.906C521.274 735.39 529.53 744.442 536.052 757.238C541.436 767.884 550.579 779.603 559.436 790.956C559.678 791.267 559.92 791.577 560.162 791.887L560.162 791.887L560.255 792.006C567.293 800.998 574.109 809.708 579.176 817.812C584.274 825.965 587.546 833.422 587.546 839.874L587.546 839.881C587.587 842.683 586.841 845.441 585.391 847.84L585.389 847.843C584.757 848.906 583.734 849.979 582.081 850.594C580.423 851.21 578.081 851.383 574.779 850.551L574.778 850.55C567.99 848.846 558.678 843.289 548.471 835.397C538.28 827.517 527.25 817.353 517.034 806.499C506.817 795.644 497.423 784.111 490.498 773.496C483.563 762.864 479.156 753.23 478.803 746.148V746.147V746.143V746.138V746.134V746.13V746.125V746.121V746.117V746.112V746.108V746.104V746.099V746.095V746.091V746.086V746.082V746.077V746.073V746.069V746.064V746.06V746.056V746.051V746.047V746.043V746.038V746.034V746.03V746.025V746.021V746.017V746.012V746.008V746.004V745.999V745.995V745.991V745.986V745.982V745.978V745.973V745.969V745.964V745.96V745.956V745.951V745.947V745.943V745.938V745.934V745.93V745.925V745.921V745.917V745.912V745.908V745.904V745.899V745.895V745.891V745.886V745.882V745.878V745.873V745.869V745.865V745.86V745.856V745.851V745.847V745.843V745.838V745.834V745.83V745.825V745.821V745.817V745.812V745.808V745.804V745.799V745.795V745.791V745.786V745.782V745.778V745.773V745.769V745.765V745.76V745.756V745.752V745.747V745.743V745.739V745.734V745.73V745.726V745.721V745.717V745.713V745.708V745.704V745.699V745.695V745.691V745.686V745.682V745.678V745.673V745.669V745.665V745.66V745.656V745.652V745.647V745.643V745.639V745.634V745.63V745.626V745.621V745.617V745.613V745.608V745.604V745.6V745.595V745.591V745.587V745.582V745.578V745.574V745.569V745.565V745.561V745.556V745.552V745.548V745.543V745.539V745.535V745.53V745.526V745.522V745.517V745.513V745.509V745.504V745.5V745.496V745.491V745.487V745.483V745.478V745.474V745.47V745.465V745.461V745.457V745.452V745.448V745.444V745.439V745.435V745.431V745.426V745.422V745.418V745.413V745.409V745.405V745.4V745.396V745.392V745.387V745.383V745.379V745.374V745.37V745.366V745.362V745.357V745.353V745.349V745.344V745.34V745.336V745.331V745.327V745.323V745.318V745.314V745.31V745.305V745.301V745.297V745.292V745.288V745.284V745.279V745.275V745.271V745.266V745.262V745.258V745.253V745.249V745.245V745.241V745.236V745.232V745.228V745.223V745.219V745.215V745.21V745.206V745.202V745.197V745.193V745.189V745.184V745.18V745.176V745.172V745.167V745.163V745.159V745.154V745.15V745.146V745.141V745.137V745.133V745.128V745.124V745.12V745.115V745.111V745.107V745.103V745.098V745.094V745.09V745.085V745.081V745.077V745.072V745.068V745.064V745.06V745.055V745.051V745.047V745.042V745.038V745.034V745.029V745.025V745.021V745.017V745.012V745.008V745.004V744.999V744.995V744.991V744.986V744.982V744.978V744.974V744.969V744.965V744.961V744.956V744.952V744.948V744.943V744.939V744.935V744.931V744.926V744.922V744.918V744.913V744.909V744.905V744.901V744.896V744.892V744.888V744.883V744.879V744.875V744.871V744.866V744.862V744.858V744.853V744.849V744.845V744.841V744.836V744.832V744.828V744.823V744.819V744.815V744.811V744.806V744.802V744.798V744.793V744.789V744.785V744.781V744.776V744.772V744.768V744.764V744.759V744.755V744.751V744.746V744.742V744.738V744.734V744.729V744.725V744.721V744.716V744.712V744.708V744.704V744.699V744.695V744.691V744.687V744.682V744.678V744.674V744.67V744.665V744.661V744.657V744.652V744.648V744.644V744.64V744.635V744.631V744.627V744.623V744.618V744.614V744.61V744.606V744.601V744.597V744.593V744.589V744.584V744.58V744.576V744.572V744.567V744.563V744.559V744.555V744.55V744.546V744.542V744.538V744.533V744.529V744.525V744.521V744.516V744.512V744.508V744.504V744.499V744.495V744.491V744.487V744.482V744.478V744.474V744.47V744.465V744.461V744.457V744.453V744.448V744.444V744.44V744.436V744.431V744.427V744.423V744.419V744.415V744.41V744.406V744.402V744.398V744.393V744.389V744.385V744.381V744.376V744.372V744.368V744.364V744.36V744.355V744.351V744.347V744.343V744.338V744.334V744.33V744.326V744.322V744.317V744.313V744.309V744.305V744.3V744.296V744.292V744.288V744.284V744.279V744.275V744.271V744.267V744.262V744.258V744.254V744.25V744.246V744.241V744.237V744.233V744.229V744.225V744.22V744.216V744.212V744.208V744.204V744.199V744.195V744.191V744.187V744.183V744.178V744.174V744.17V744.166V744.162V744.157V744.153V744.149V744.145V744.141V744.136V744.132V744.128V744.124V744.12V744.115V744.111V744.107V744.103V744.099V744.094V744.09V744.086V744.082V744.078V744.073V744.069V744.065V744.061V744.057V744.053V744.048V744.044V744.04V744.036V744.032V744.027V744.023V744.019V744.015V744.011V744.007V744.002V743.998V743.994V743.99V743.986V743.982V743.977V743.973V743.969V743.965C478.803 733.026 483.369 725.825 491.16 723.952Z" stroke="black"/>
<path d="M1452.69 -140.152C1459.37 -81.0052 1465.7 -25.1047 1448.3 -7.97587C1443.69 -3.4927 1437.5 -1.79218 1429.37 -2.87433C1385.77 -8.62515 1345.88 -57.198 1307.2 -104.163C1269.26 -150.262 1229.89 -197.97 1185.98 -206.998C1111.99 -222.179 1084.59 -183.067 1018.39 -88.5493C1001.1 -63.8145 981.527 -35.9879 957.624 -3.8637C869.001 114.739 792.129 94.5187 702.95 71.0826C675.56 63.3574 647.745 57.2252 619.646 52.717C540.361 41.4008 475.363 56.2726 441.318 93.5293C415.56 121.727 407.953 162.014 419.302 209.999C443.637 312.834 418.096 319.45 362.127 333.982C354.272 336.023 346.171 338.125 337.389 340.691C296.943 352.502 263.238 381.627 242.242 422.563C217.319 471.291 210.887 536.281 223.688 610.485C251.116 769.963 356.066 840.673 480.156 910.394C563.182 957.081 583.158 1002.28 587.92 1022.75M1471.7 -335H1463.35C1435.52 -292.271 1444.8 -212.068 1452.81 -140.214" stroke="black"/>
<path d="M1337.72 1022.9C1301.42 976.036 1280.93 918.851 1279.22 859.593C1279.02 831.011 1280.4 802.44 1283.36 774.011C1289.55 704.506 1295.14 638.835 1246.26 562.621C1211.28 508.236 1200.52 460.59 1215.09 424.942C1226.59 396.837 1253.86 377.142 1294 367.99C1350.96 355.035 1401.02 390.344 1449.41 424.509C1477 443.987 1505.54 464.115 1534.57 474.442C1581.7 491.169 1612.9 479.513 1645.89 467.145C1669.39 458.364 1693.67 449.274 1725.98 449.274C1775.46 449.274 1806.81 495.899 1832.08 533.341C1846.58 554.799 1859.07 573.35 1872.8 581.079C1887.58 589.727 1903.81 595.605 1920.7 598.425" stroke="black"/>
<path d="M1920.72 454.475C1898.86 449.776 1857.67 433.358 1814.6 376.437C1769.76 317.197 1702.23 334.821 1642.64 350.373C1612.46 358.257 1583.89 365.677 1559.15 364.008C1520.75 361.411 1477.55 340.324 1435.77 319.887C1394.86 299.914 1352.59 279.26 1313.35 274.87C1270.06 269.985 1239.14 296.884 1211.74 320.598C1187.68 341.468 1164.96 361.163 1136.97 358.319C1117.95 356.371 1111.68 343.138 1109.76 332.409C1102.77 293.885 1141.12 216.929 1230.79 172.87C1308.09 134.933 1401.48 143.559 1476.5 150.516C1521.52 154.69 1560.39 158.277 1589.61 152.248C1629.41 144.054 1655.29 115.393 1682.72 85.0618C1710.14 54.7308 1738.38 23.4414 1782.28 13.0219C1827.62 2.22679 1874.7 0.984315 1920.54 9.37353" stroke="black"/>
<path d="M1920.57 -79.7947C1888.22 -82.4537 1813.83 -85.2673 1763.33 -61.5838C1733.15 -47.4231 1708.1 -22.2246 1686.02 0.0057219C1657.95 28.1724 1633.7 52.567 1604.36 52.567C1585.84 52.567 1572.57 47.6201 1563.73 37.448C1546.91 18.1239 1544.62 -19.5966 1555.56 -96.8926C1561.84 -141.322 1557.48 -183.619 1553.62 -220.906C1549.04 -265.893 1544.9 -305.623 1561.41 -334.934" stroke="black"/>
<mask id="path-23-inside-5" fill="white">
<path d="M1523.96 84.3501C1524.58 85.8651 1526.47 90.5338 1519.17 97.7068C1512.8 103.891 1493.19 104.694 1478.97 104.694C1464.19 104.694 1446.84 103.798 1426.74 102.778C1402.31 101.51 1374.67 100.088 1346.1 100.088C1261.12 100.088 1201.13 113.197 1157.29 141.364C1084.74 187.927 1073.18 248.249 1065.51 288.133C1060.13 316.115 1057.1 328.327 1042.44 326.441C1037.17 325.734 1031.86 325.373 1026.55 325.359C968.075 325.359 934.431 369.634 909.879 401.944C898.098 417.403 887.924 430.884 880.287 430.884C880.02 430.914 879.75 430.914 879.483 430.884C868.815 429.523 863.465 412.642 856.075 389.329C846.427 358.937 833.223 317.29 799.24 276.199C772.214 243.518 740.272 217.454 712.071 194.729C676.51 165.882 648.402 143.095 648.402 121.081C648.271 119.871 648.404 118.646 648.794 117.493C649.184 116.34 649.82 115.285 650.659 114.403C652.928 112.921 655.629 112.245 658.328 112.486C668.192 112.486 684.395 117.464 703.165 123.276C735.139 133.108 774.904 145.383 817.02 145.383C855.951 145.383 888.759 134.933 917.331 113.475C958.736 82.3404 996.245 38.2817 1032.49 -4.29301C1082.36 -63.3472 1129.92 -119.124 1173.71 -119.124C1208.93 -119.124 1235.55 -80.1977 1263.69 -39.0144C1294.61 6.00282 1326.34 52.566 1373.25 52.566C1467.62 52.566 1517.37 69.0455 1523.65 84.381"/>
</mask>
<path d="M1519.17 97.7068L1519.86 98.4244L1519.87 98.42L1519.17 97.7068ZM1426.74 102.778L1426.69 103.776L1426.69 103.776L1426.74 102.778ZM1157.29 141.364L1157.83 142.205L1157.83 142.205L1157.29 141.364ZM1065.51 288.133L1066.49 288.322L1065.51 288.133ZM1042.44 326.441L1042.31 327.433L1042.31 327.433L1042.44 326.441ZM1026.55 325.359L1026.55 324.359H1026.55V325.359ZM909.879 401.944L910.675 402.55L910.675 402.549L909.879 401.944ZM880.287 430.884V429.884H880.23L880.173 429.89L880.287 430.884ZM879.483 430.884L879.356 431.876L879.369 431.877L879.483 430.884ZM856.075 389.329L857.028 389.027L857.028 389.027L856.075 389.329ZM799.24 276.199L798.469 276.836L798.469 276.836L799.24 276.199ZM712.071 194.729L711.441 195.505L711.443 195.508L712.071 194.729ZM648.402 121.081H649.402V121.027L649.396 120.973L648.402 121.081ZM650.659 114.403L650.112 113.566L650.015 113.629L649.935 113.714L650.659 114.403ZM658.328 112.486L658.239 113.482L658.284 113.486H658.328V112.486ZM703.165 123.276L702.869 124.232L702.871 124.232L703.165 123.276ZM917.331 113.475L917.932 114.275L917.932 114.275L917.331 113.475ZM1032.49 -4.29301L1033.25 -3.64481L1033.25 -3.64775L1032.49 -4.29301ZM1263.69 -39.0144L1262.86 -38.4502L1262.87 -38.4482L1263.69 -39.0144ZM1523.03 84.728C1523.32 85.4327 1523.86 86.7693 1523.55 88.7475C1523.22 90.7357 1522.01 93.5126 1518.47 96.9937L1519.87 98.42C1523.62 94.728 1525.11 91.584 1525.52 89.0659C1525.93 86.5377 1525.22 84.7825 1524.89 83.9722L1523.03 84.728ZM1518.47 96.9893C1517.04 98.3792 1514.79 99.5298 1511.9 100.455C1509.02 101.375 1505.59 102.045 1501.88 102.528C1494.48 103.493 1486.07 103.694 1478.97 103.694V105.694C1486.09 105.694 1494.6 105.494 1502.14 104.511C1505.91 104.02 1509.47 103.33 1512.5 102.36C1515.52 101.395 1518.11 100.126 1519.86 98.4244L1518.47 96.9893ZM1478.97 103.694C1464.22 103.694 1446.9 102.8 1426.79 101.779L1426.69 103.776C1446.78 104.796 1464.16 105.694 1478.97 105.694V103.694ZM1426.79 101.779C1402.37 100.511 1374.7 99.0876 1346.1 99.0876V101.088C1374.64 101.088 1402.26 102.508 1426.69 103.776L1426.79 101.779ZM1346.1 99.0876C1261.04 99.0876 1200.83 112.206 1156.75 140.522L1157.83 142.205C1201.44 114.188 1261.21 101.088 1346.1 101.088V99.0876ZM1156.75 140.522C1083.84 187.321 1072.21 248.008 1064.53 287.945L1066.49 288.322C1074.15 248.49 1085.65 188.533 1157.83 142.205L1156.75 140.522ZM1064.53 287.945C1061.83 301.991 1059.75 311.871 1056.57 318.029C1054.99 321.076 1053.19 323.117 1051 324.307C1048.8 325.495 1046.09 325.903 1042.57 325.45L1042.31 327.433C1046.12 327.923 1049.28 327.511 1051.95 326.065C1054.61 324.622 1056.66 322.214 1058.34 318.947C1061.69 312.474 1063.81 302.257 1066.49 288.322L1064.53 287.945ZM1042.58 325.45C1037.26 324.738 1031.91 324.373 1026.55 324.359L1026.55 326.359C1031.82 326.373 1037.08 326.731 1042.31 327.432L1042.58 325.45ZM1026.55 324.359C967.512 324.359 933.588 369.091 909.083 401.339L910.675 402.549C935.275 370.178 968.637 326.359 1026.55 326.359V324.359ZM909.084 401.338C903.181 409.084 897.727 416.271 892.8 421.527C890.337 424.154 888.039 426.263 885.913 427.709C883.778 429.163 881.909 429.884 880.287 429.884V431.884C882.483 431.884 884.751 430.92 887.039 429.363C889.337 427.798 891.75 425.571 894.259 422.895C899.272 417.547 904.796 410.264 910.675 402.55L909.084 401.338ZM880.173 429.89C879.981 429.912 879.788 429.912 879.597 429.89L879.369 431.877C879.712 431.917 880.058 431.917 880.401 431.877L880.173 429.89ZM879.609 429.892C874.822 429.281 871.025 425.167 867.447 417.897C863.893 410.676 860.732 400.712 857.028 389.027L855.122 389.632C858.808 401.26 862.017 411.393 865.652 418.78C869.264 426.119 873.475 431.126 879.356 431.876L879.609 429.892ZM857.028 389.027C847.378 358.626 834.128 316.814 800.011 275.562L798.469 276.836C832.319 317.765 845.476 359.247 855.122 389.632L857.028 389.027ZM800.011 275.562C772.912 242.793 740.894 216.672 712.698 193.95L711.443 195.508C739.649 218.236 771.516 244.243 798.469 276.836L800.011 275.562ZM712.701 193.952C694.903 179.515 679.044 166.651 667.626 154.653C656.18 142.626 649.402 131.674 649.402 121.081H647.402C647.402 132.502 654.679 143.95 666.177 156.032C677.703 168.143 693.678 181.096 711.441 195.505L712.701 193.952ZM649.396 120.973C649.28 119.907 649.398 118.829 649.741 117.813L647.847 117.173C647.41 118.464 647.261 119.835 647.408 121.189L649.396 120.973ZM649.741 117.813C650.085 116.798 650.645 115.869 651.384 115.092L649.935 113.714C648.996 114.701 648.283 115.882 647.847 117.173L649.741 117.813ZM651.206 115.24C653.287 113.881 655.764 113.261 658.239 113.482L658.417 111.49C655.494 111.229 652.569 111.961 650.112 113.566L651.206 115.24ZM658.328 113.486C663.125 113.486 669.538 114.701 677.157 116.67C684.759 118.634 693.479 121.324 702.869 124.232L703.461 122.321C694.082 119.417 685.315 116.711 677.657 114.733C670.016 112.759 663.395 111.486 658.328 111.486V113.486ZM702.871 124.232C734.827 134.059 774.732 146.383 817.02 146.383V144.383C775.077 144.383 735.45 132.158 703.459 122.321L702.871 124.232ZM817.02 146.383C856.148 146.383 889.171 135.874 917.932 114.275L916.731 112.676C888.348 133.991 855.755 144.383 817.02 144.383V146.383ZM917.932 114.275C959.443 83.0603 997.024 38.9091 1033.25 -3.64481L1031.72 -4.94119C995.465 37.6542 958.03 81.6205 916.73 112.676L917.932 114.275ZM1033.25 -3.64775C1058.2 -33.1884 1082.51 -61.84 1106.05 -83.1119C1129.62 -104.414 1152.21 -118.124 1173.71 -118.124V-120.124C1151.41 -120.124 1128.33 -105.946 1104.71 -84.5957C1081.05 -63.2157 1056.65 -34.4518 1031.72 -4.93826L1033.25 -3.64775ZM1173.71 -118.124C1190.92 -118.124 1206.14 -108.617 1220.64 -93.8132C1235.14 -79.0094 1248.78 -59.0627 1262.86 -38.4503L1264.52 -39.5786C1250.46 -60.1494 1236.72 -80.2576 1222.07 -95.2127C1207.42 -110.168 1191.71 -120.124 1173.71 -120.124V-118.124ZM1262.87 -38.4482C1278.31 -15.9617 1294.03 7.02242 1311.77 24.3723C1329.53 41.7347 1349.43 53.566 1373.25 53.566V51.566C1350.16 51.566 1330.74 40.1157 1313.17 22.9422C1295.6 5.75618 1279.99 -17.0499 1264.51 -39.5806L1262.87 -38.4482ZM1373.25 53.566C1420.38 53.566 1456.33 57.6822 1481.25 63.6948C1493.71 66.7017 1503.38 70.1751 1510.31 73.8248C1517.27 77.4955 1521.29 81.2601 1522.73 84.7598L1524.58 84.0022C1522.87 79.8341 1518.32 75.7879 1511.24 72.0556C1504.12 68.3023 1494.28 64.7804 1481.72 61.7506C1456.6 55.6895 1420.48 51.566 1373.25 51.566V53.566Z" fill="black" mask="url(#path-23-inside-5)"/>
<path d="M1920.6 376.995C1897.56 368.647 1853.69 347.684 1807.92 298.802C1765.56 253.507 1690.23 271.563 1623.78 287.517C1585.47 296.793 1549.26 305.388 1527.92 298.493C1503.46 290.547 1483.08 278.891 1463.36 267.575C1436.86 252.425 1409.49 236.656 1370.99 228.834C1343.66 223.145 1327.7 213.653 1328.32 203.357C1329 192.288 1351.02 179.333 1398.7 175.53C1435.81 172.439 1476 175.283 1514.56 178.066C1560.95 181.374 1604.73 184.528 1632.38 175.469C1653.53 168.574 1674.68 150.27 1697.03 130.884C1727.59 104.449 1762.22 74.4581 1804.86 66.4812C1843.45 59.5252 1883.16 62.1907 1920.48 74.2417" stroke="black"/>
<path d="M1920.91 283.435C1888.32 268.285 1814.44 237.676 1749.1 237.676H1744.93C1712.24 238.356 1673.81 243.334 1636.7 248.157C1576.13 256.042 1518.92 263.617 1509.12 248.157C1503.15 238.882 1501.94 230.998 1505.5 225.03C1513.69 211.334 1545.92 206.479 1601.36 210.468C1660.45 214.735 1693.94 192.319 1726.28 170.645C1746.35 157.195 1767.1 143.282 1793.69 136.171C1842.92 123.031 1895.27 128.72 1921 133.079" stroke="black"/>
<path d="M1920.63 229.853C1894.61 219.598 1867.47 212.457 1839.77 208.581C1814.04 204.716 1788.9 192.596 1784.85 182.146C1784.37 181.11 1784.2 179.959 1784.36 178.829C1784.52 177.7 1785 176.64 1785.75 175.777C1790.39 170.057 1812.84 159.05 1920.63 175.282" stroke="black"/>
<path d="M1094.24 -23.1644L1094.24 -23.1647C1117.96 -55.183 1142.07 -71.2568 1165.86 -71.2568H1165.92C1189.73 -71.2568 1212.95 -55.1609 1234.55 -23.1516L1234.56 -23.1505C1248.76 -2.22549 1257.95 13.6973 1262.75 26.1867C1267.55 38.6762 1267.94 47.6489 1264.66 54.7371C1262.1 60.285 1257.26 64.6487 1249.62 68.0161C1241.97 71.3874 1231.54 73.7453 1217.84 75.2889C1187.94 78.6177 1154.45 86.4417 1123.23 110.015C1092.01 133.591 1063.11 172.878 1042.34 239.04C1040.67 244.354 1037.69 248.453 1033.6 251.228C1029.51 254.006 1024.28 255.478 1018.08 255.478C1003.89 255.478 987.048 248.106 972.526 235.66C958.013 223.222 945.872 205.763 941.046 185.677C936.249 165.711 946.749 142.675 964.891 118.194C982.898 93.8974 1008.32 68.3258 1033.36 43.1362L1033.84 42.6539C1033.84 42.6538 1033.84 42.6538 1033.84 42.6537C1057.27 19.1029 1079.4 -3.15567 1094.24 -23.1644Z" stroke="black"/>
<path d="M755.559 196.873L755.559 196.871C755.619 192.81 757.087 188.332 761.878 184.85C766.695 181.349 774.928 178.812 788.61 178.812C813.752 178.812 851.958 188.002 886.615 202.404C903.937 209.602 920.354 218.095 933.793 227.377C947.241 236.665 957.667 246.716 963.062 257.015C972.887 276.047 975.569 289.377 971.729 299.081L971.729 299.083C969.389 305.044 964.786 309.283 958.7 312.764C952.604 316.251 945.073 318.949 936.929 321.86L936.929 321.86C930.277 324.242 923.399 326.813 916.333 329.911L916.328 329.914L908.938 333.253L908.935 333.254C903.826 335.607 899.895 337.414 896.623 338.635C893.354 339.855 890.783 340.474 888.395 340.474C884.622 340.474 881.857 339.042 879.015 335.944C876.143 332.813 873.234 328.026 869.187 321.36L869.185 321.357C868.806 320.743 868.416 320.111 868.015 319.46C863.181 311.62 856.673 301.065 846.841 287.318L846.434 287.609L846.841 287.318C827.42 260.17 806.11 248.302 789.03 238.791L789.021 238.786L788.853 238.692L788.852 238.692L788.826 238.677L788.826 238.677C779.32 233.399 770.905 228.721 764.905 222.465C758.935 216.24 755.345 208.44 755.559 196.873Z" stroke="black"/>
<path d="M1408.99 1022.75C1386.79 996.006 1332.74 923.472 1328.6 847.041C1326.46 806.136 1329.43 771.569 1332.28 738.147C1336.23 692.078 1339.67 652.286 1328.57 607.764C1321.89 580.864 1307.57 555.604 1293.72 531.148C1268.98 487.398 1247.52 449.585 1285.86 423.212C1293.26 418.139 1302.06 415.492 1311.03 415.636C1343.84 415.636 1385.25 445.689 1428.69 477.071C1465.98 504.094 1504.57 532.044 1537.88 539.65C1575.54 548.246 1605.07 545.401 1633.74 542.742C1667.75 539.465 1699.94 536.373 1744.56 551.276C1786.4 565.251 1814.2 595.52 1841.1 624.8C1864.17 649.905 1887.95 675.753 1920.88 692.202" stroke="black"/>
<path d="M1482.07 1022.88C1423.81 960.452 1391.22 890.885 1404.76 754.442C1412.49 675.662 1387.01 618.401 1370.13 580.526C1356.37 549.607 1348.05 530.871 1364.75 521.039C1386.08 508.455 1418.3 528.243 1455.6 551.184C1485.28 569.395 1518.89 590.049 1552.32 596.944C1572.85 601.21 1593.2 601.798 1612.9 602.354C1664.97 603.838 1714.17 605.261 1757.64 673.838C1804.03 747.207 1885.97 779.61 1920.63 790.493" stroke="black"/>
<path d="M1560.11 1022.88C1533.02 996.474 1467.84 923.939 1462.4 833.256C1460.02 793.711 1454.88 759.979 1450.77 732.833C1442.83 680.55 1438.03 648.982 1461.75 636.985C1483.4 626.195 1512.06 636.182 1548.33 648.827C1573.07 657.423 1600.9 667.162 1631.82 671.892C1687.3 680.395 1699.85 704.913 1719.11 742.015C1726.47 756.806 1734.62 771.184 1743.54 785.085C1775.3 833.379 1879.85 852.765 1920.45 858.578" stroke="black"/>
<path d="M1637.29 1022.75C1616.91 998.543 1567.75 938.438 1539.08 888.288C1512.52 841.91 1492.48 774.292 1505.53 735.118C1509.86 722.163 1517.53 713.228 1528.32 708.559C1576.59 687.658 1642.42 716.753 1664.72 754.782C1683.27 786.567 1742.7 876.106 1792.52 908.354C1827.31 930.894 1890.91 945.765 1920.75 951.856" stroke="black"/>
<path d="M1718.3 1022.88C1686.55 1000.8 1651.23 961.04 1619.35 910.922C1587.47 860.803 1566.14 810.468 1567.53 788.299C1567.87 782.888 1569.51 779.549 1572.41 778.405C1589.85 771.541 1612.86 801.718 1641.93 839.902C1665.95 871.439 1695.82 910.643 1732.93 942.613C1797.87 998.606 1884.7 1007.33 1920.6 1008.41" stroke="black"/>
<path d="M973.679 1022.88C974.05 985.283 963.815 930.681 955.404 885.942C947.179 841.945 939.387 800.422 946.128 797.361C947.395 796.773 950.828 797.361 959.424 808.491C999.963 860.434 1019.32 984.201 1024.55 1022.88" stroke="black"/>
<path d="M1402.28 -191.132C1417.74 -103.2 1402.93 -87.1533 1395.91 -84.3398C1386.17 -80.4131 1371.17 -92.0385 1355.06 -116.217C1327.23 -157.74 1234.9 -282.898 1134.81 -282.898C1124.81 -282.912 1114.85 -281.623 1105.18 -279.064C1041.79 -262.399 992.349 -177.961 948.748 -103.447C919.28 -53.1122 891.45 -5.59055 863.744 13.1769C829.451 36.3658 768.194 22.9162 697.228 7.36427C627.994 -7.78575 549.544 -25.0073 481.547 -9.98096C423.722 2.81926 387.018 38.4373 372.392 95.8837C360.023 143.931 365.589 197.729 369.3 233.347L369.887 238.974C373.258 273.201 342.861 285.692 304.363 301.522C265.061 317.662 220.534 335.965 196.136 382.683C143.569 482.271 138.497 596.731 181.912 696.721C207.794 756.394 210.855 799.463 191.467 832.299C166.729 874.41 103.895 900.69 0.0900879 912.408M1389.2 -334.934C1387.81 -316.383 1387.9 -274.148 1402.38 -191.132" stroke="black"/>
<path d="M0.0900879 962.065C128.107 960.55 178.232 920.634 218.802 888.324C234.387 875.957 247.869 865.259 263.701 858.519C272.7 854.456 282.432 852.268 292.304 852.088C315.279 852.088 334.203 866.001 360.765 885.542C384.699 903.807 410.053 920.132 436.586 934.362C503.471 969.392 519.859 1004.98 523.724 1022.88" stroke="black"/>
<path d="M374.743 953.186C341.161 936.397 313.115 925.885 286.831 925.885C263.516 925.885 241.561 934.171 218.401 953.711C197.002 971.675 154.887 980.641 114.193 989.298C73.4997 997.956 35.1563 1006.12 16.3557 1022.94M427.681 1022.88C427.681 1006.12 420.724 976.127 374.866 953.186" stroke="black"/>
<path d="M201.302 1022.88C215.99 1003.83 249.324 966.732 287.884 966.732C326.444 966.732 356.624 1003.83 369.58 1022.88" stroke="black"/>
<path d="M0.0900879 832.484C34.5064 832.855 112.616 827.599 128.479 773.585C137.724 742.233 130.148 709.089 120.593 667.163C109.059 616.519 94.6807 553.476 107.575 470.955C130.488 324.031 188.715 301.151 262.402 272.15L266.051 270.697C323.071 248.25 320.164 216.373 316.145 172.252C314.475 157.09 313.772 141.837 314.042 126.586C315.155 95.2963 331.915 67.5934 346.696 43.106C363.672 15.0011 378.36 -9.26984 367.537 -32.7369C358.199 -52.8957 324.184 -58.8011 284.759 -65.665C238.19 -73.7038 180.459 -83.7523 144.991 -121.596C90.8155 -179.785 75.138 -297.677 71.4273 -334.934" stroke="black"/>
<path d="M0.0900879 -244.932C46.4732 -75.2204 150.279 -53.5775 214.844 -40.1899L218.462 -39.4169C257.022 -31.3781 279.347 -18.2996 286.676 0.498781C293.231 17.5348 287.665 37.9719 269.143 63.2632C248.271 92.3883 245.457 109.734 241.622 133.726C238.31 157.522 232.292 180.861 223.688 203.293C211.473 235.417 188.653 246.888 162.245 260.152C128.077 277.28 89.3312 296.728 60.6974 368.583C27.2087 452.619 46.7206 531.646 62.3671 595.122C70.747 629.132 77.9828 658.597 77.1788 684.785C76.6531 706.428 69.3246 723.124 55.5334 734.255C38.5262 747.983 15.5511 750.301 0.0900879 750.023" stroke="black"/>
<path d="M108.011 223.263C145.55 180.812 168.649 129.456 179.132 102.681C192.15 69.1961 194.593 51.2016 188.006 38.4942C178.699 20.6233 151.611 14.1305 102.321 2.07226L90.4161 -0.80315C40.9408 -12.7377 14.2551 -51.8495 0.0927662 -86.0762M0 289.614C38.9309 282.626 75.1716 260.396 107.918 223.386" stroke="black"/>
<path d="M0.0900879 8.47461C12.9228 24.0575 33.3932 42.9177 60.3263 48.0193C81.6007 52.1005 102.349 58.0059 110.049 73.7434C117.192 88.3678 112.708 110.413 95.9485 143.186C70.9635 191.697 24.6113 213.742 0.0900879 222.368" stroke="black"/>
<path d="M0.0900879 65.0576C20.0348 71.736 51.0187 85.5566 48.9779 106.396C47.0298 126.616 18.6433 154.01 0.0900879 169.902" stroke="black"/>
</g>
</svg>
