<svg width="768" height="968" viewBox="0 0 768 968" fill="none" xmlns="http://www.w3.org/2000/svg">
<g opacity="0.5">
<path d="M295.967 648.843L296.058 648.714V648.598C299.611 643.606 305.158 641.037 312.639 641.036C315.348 641.063 318.047 641.354 320.699 641.906L320.699 641.906L320.703 641.907C330.53 643.859 336.964 648.195 339.957 654.652C342.18 659.482 342.538 665.569 340.97 672.909C339.403 680.247 335.916 688.802 330.496 698.533C328.973 701.126 326.816 703.289 324.226 704.819C321.636 706.348 318.7 707.192 315.694 707.274C313.355 707.273 310.002 706.713 306.508 704.182C303.009 701.647 299.329 697.103 296.399 689.061C293.331 680.608 291.763 672.616 291.697 665.699C291.631 658.777 293.069 652.97 295.967 648.843Z" stroke="black"/>
<mask id="path-2-inside-1" fill="white">
<path d="M861.675 660.214C855.903 669.81 843.549 681.259 817.31 681.259C808.432 681.155 799.593 680.067 790.954 678.015C739.635 666.426 704.078 642.878 695.919 615.111C690.077 595.526 697.634 574.759 718.379 553.343C734.976 536.192 751.897 527.5 768.725 527.523C800.018 527.523 831.704 557.075 862.857 615.343C866.37 622.338 868.108 630.09 867.918 637.915C867.728 645.74 865.616 653.398 861.768 660.214"/>
</mask>
<path d="M817.31 681.259L817.298 682.259H817.31V681.259ZM790.954 678.015L791.186 677.042L791.175 677.039L790.954 678.015ZM695.919 615.111L696.878 614.829L696.877 614.825L695.919 615.111ZM718.379 553.343L719.098 554.039L719.098 554.039L718.379 553.343ZM768.725 527.523L768.724 528.523H768.725V527.523ZM862.857 615.343L863.751 614.894L863.745 614.883L863.739 614.871L862.857 615.343ZM860.818 659.699C855.223 669.001 843.189 680.259 817.31 680.259V682.259C843.908 682.259 856.584 670.618 862.532 660.73L860.818 659.699ZM817.321 680.259C808.517 680.156 799.752 679.077 791.186 677.042L790.723 678.987C799.433 681.057 808.346 682.154 817.298 682.259L817.321 680.259ZM791.175 677.039C765.601 671.264 744.002 662.519 727.803 651.796C711.596 641.066 700.868 628.408 696.878 614.829L694.959 615.393C699.128 629.58 710.259 642.58 726.699 653.463C743.149 664.353 764.988 673.176 790.734 678.99L791.175 677.039ZM696.877 614.825C691.183 595.733 698.476 575.327 719.098 554.039L717.661 552.647C696.792 574.191 688.972 595.319 694.96 615.397L696.877 614.825ZM719.098 554.039C735.587 536.999 752.264 528.501 768.724 528.523L768.727 526.523C751.529 526.5 734.365 535.385 717.661 552.648L719.098 554.039ZM768.725 528.523C784.036 528.523 799.548 535.749 815.161 550.314C830.777 564.881 846.426 586.731 861.975 615.814L863.739 614.871C848.135 585.686 832.364 563.626 816.526 548.851C800.684 534.074 784.707 526.523 768.725 526.523V528.523ZM861.964 615.792C865.403 622.64 867.104 630.229 866.918 637.89L868.917 637.939C869.111 629.95 867.337 622.036 863.751 614.894L861.964 615.792ZM866.918 637.89C866.732 645.551 864.664 653.049 860.897 659.723L862.639 660.706C866.567 653.747 868.723 645.928 868.917 637.939L866.918 637.89Z" fill="black" mask="url(#path-2-inside-1)"/>
<mask id="path-4-inside-2" fill="white">
<path d="M806.18 629.526C802.703 635.344 796.144 638.403 787.173 638.403C783.143 638.358 779.131 637.861 775.213 636.92C752.195 631.705 735.645 620.927 732.029 608.782C729.526 600.392 732.91 591.307 742.089 581.827C749.483 574.202 756.924 570.238 764.226 570.238C778.133 570.238 792.389 583.774 806.667 610.451C808.153 613.411 808.886 616.692 808.801 620.003C808.716 623.314 807.816 626.553 806.18 629.433"/>
</mask>
<path d="M787.173 638.403L787.162 639.403H787.173V638.403ZM775.213 636.92L775.446 635.947L775.434 635.944L775.213 636.92ZM732.029 608.782L732.988 608.497L732.987 608.496L732.029 608.782ZM742.089 581.827L741.371 581.131L741.371 581.131L742.089 581.827ZM806.667 610.451L807.561 610.002L807.555 609.991L807.549 609.979L806.667 610.451ZM805.322 629.013C802.084 634.432 795.922 637.403 787.173 637.403V639.403C796.366 639.403 803.323 636.256 807.039 630.039L805.322 629.013ZM787.184 637.403C783.229 637.359 779.292 636.871 775.446 635.947L774.979 637.892C778.971 638.851 783.057 639.357 787.162 639.403L787.184 637.403ZM775.434 635.944C764.012 633.357 754.237 629.397 746.891 624.612C739.53 619.816 734.702 614.255 732.988 608.497L731.071 609.068C732.973 615.455 738.227 621.355 745.8 626.288C753.387 631.231 763.396 635.268 774.992 637.895L775.434 635.944ZM732.987 608.496C730.634 600.609 733.741 591.885 742.807 582.523L741.371 581.131C732.079 590.728 728.418 600.176 731.071 609.068L732.987 608.496ZM742.807 582.523C750.105 574.997 757.304 571.238 764.226 571.238V569.238C756.544 569.238 748.861 573.407 741.371 581.131L742.807 582.523ZM764.226 571.238C770.834 571.238 777.641 574.451 784.619 581.066C791.598 587.683 798.672 597.633 805.786 610.923L807.549 609.979C800.384 596.592 793.191 586.436 785.995 579.615C778.799 572.793 771.524 569.238 764.226 569.238V571.238ZM805.773 610.9C807.186 613.713 807.882 616.831 807.802 619.978L809.801 620.029C809.89 616.553 809.121 613.11 807.561 610.002L805.773 610.9ZM807.802 619.978C807.721 623.124 806.865 626.202 805.311 628.94L807.05 629.927C808.767 626.904 809.712 623.504 809.801 620.029L807.802 619.978Z" fill="black" mask="url(#path-4-inside-2)"/>
<path d="M324.482 782.152L324.472 782.15C310.839 778.733 295.659 764.67 283.871 744.929C272.098 725.213 263.773 699.939 263.773 674.257C263.773 657.909 265.169 642.317 271.539 630.818C274.717 625.082 279.132 620.367 285.238 617.082C291.348 613.795 299.178 611.924 309.209 611.923C320.29 612.17 331.308 613.666 342.053 616.381L342.053 616.381L342.063 616.383C372.117 623.371 383.261 638.191 387.347 649.328L387.816 649.156L387.347 649.328C393.692 666.622 387.649 686.399 378.82 698.289C373.959 704.446 368.319 709.945 362.042 714.649L362.035 714.654L362.028 714.66C357.113 718.626 352.656 722.229 349.366 726.661C346.06 731.115 343.94 736.392 343.647 743.7H343.646L343.646 743.711C343.547 749.686 343.897 755.659 344.693 761.581C345.181 765.879 345.609 769.677 345.472 772.905C345.335 776.124 344.639 778.696 342.948 780.599C341.857 781.681 340.545 782.514 339.1 783.04C337.652 783.567 336.105 783.773 334.569 783.643L334.555 783.642L334.541 783.641C331.141 783.547 327.764 783.047 324.482 782.152Z" stroke="black"/>
<path d="M766.53 383.686L766.53 383.686C762.209 388.258 757.742 390.483 753.24 390.483C748.754 390.483 744.549 388.158 740.741 383.46C735.285 376.701 735.278 366.483 740.966 354.508C744.3 347.53 749.555 340.296 755.312 334.812C761.049 329.349 767.188 325.714 772.362 325.66L772.408 325.682H772.526C774.263 325.682 776.604 326.136 778.593 327.998C780.58 329.859 782.288 333.196 782.619 339.116C782.997 346.286 781.392 354.886 778.473 362.98C775.553 371.076 771.336 378.617 766.53 383.686Z" stroke="black"/>
<mask id="path-8-inside-3" fill="white">
<path d="M405.896 614.249C413.615 651.727 410.671 675.738 408.098 696.923C404.946 722.742 402.211 745.039 421.635 782.076C435.543 808.499 452.927 828.64 468.342 846.417C492.124 873.882 512.661 897.593 513.704 935.048C514.446 961.794 510.691 980.8 503.134 988.587C502.21 989.64 501.078 990.491 499.81 991.085C498.541 991.679 497.163 992.005 495.763 992.041C489.273 992.041 481.855 985.088 475.319 972.873C471.981 966.638 469.292 961.076 466.951 956.162C455.199 931.779 449.752 920.562 401.77 904.546C345.212 885.68 329.636 873.929 327.735 827.064C326.993 808.522 313.085 797.999 295.492 784.626C267.677 763.535 229.709 734.632 217.98 654.832C213.761 626.023 219.44 602.335 234.901 584.466C251.498 565.252 278.942 554.335 310.35 554.335C351.679 554.335 397.783 574.94 405.896 614.318"/>
</mask>
<path d="M233.21 583.637L233.303 583.707L233.903 582.907L233.81 582.837L233.21 583.637ZM408.098 696.923L409.091 697.044L409.091 697.043L408.098 696.923ZM421.635 782.076L420.749 782.541L420.75 782.542L421.635 782.076ZM468.342 846.417L469.098 845.762L469.097 845.762L468.342 846.417ZM513.704 935.048L514.703 935.02V935.02L513.704 935.048ZM503.134 988.587L502.416 987.891L502.399 987.909L502.382 987.928L503.134 988.587ZM495.763 992.041V993.041H495.776L495.789 993.04L495.763 992.041ZM475.319 972.873L476.2 972.401L476.2 972.401L475.319 972.873ZM466.951 956.162L467.854 955.732L467.852 955.728L466.951 956.162ZM401.77 904.546L402.087 903.597L402.087 903.597L401.77 904.546ZM327.735 827.064L326.736 827.104L326.736 827.104L327.735 827.064ZM295.492 784.626L296.097 783.83L296.096 783.829L295.492 784.626ZM217.98 654.832L216.991 654.977L216.991 654.978L217.98 654.832ZM234.901 584.466L235.657 585.12L235.658 585.119L234.901 584.466ZM404.917 614.45C412.602 651.768 409.674 675.651 407.105 696.802L409.091 697.043C411.668 675.825 414.627 651.685 406.876 614.047L404.917 614.45ZM407.106 696.801C405.531 709.699 404.042 721.835 405.405 735.393C406.77 748.969 410.987 763.926 420.749 782.541L422.521 781.612C412.859 763.19 408.731 748.479 407.395 735.193C406.058 721.888 407.513 709.966 409.091 697.044L407.106 696.801ZM420.75 782.542C434.718 809.079 452.174 829.298 467.586 847.072L469.097 845.762C453.68 827.982 436.368 807.919 422.52 781.611L420.75 782.542ZM467.586 847.072C491.397 874.571 511.672 898.026 512.704 935.075L514.703 935.02C513.649 897.16 492.85 873.194 469.098 845.762L467.586 847.072ZM512.704 935.075C513.074 948.402 512.321 959.761 510.55 968.733C508.772 977.736 505.993 984.205 502.416 987.891L503.852 989.284C507.831 985.182 510.708 978.255 512.512 969.121C514.321 959.957 515.076 948.44 514.703 935.02L512.704 935.075ZM502.382 987.928C501.549 988.877 500.529 989.644 499.386 990.18L500.234 991.991C501.628 991.338 502.871 990.404 503.886 989.247L502.382 987.928ZM499.386 990.18C498.242 990.715 497 991.009 495.737 991.041L495.789 993.04C497.327 993.001 498.841 992.643 500.234 991.991L499.386 990.18ZM495.763 991.041C492.876 991.041 489.633 989.487 486.242 986.308C482.864 983.141 479.436 978.448 476.2 972.401L474.437 973.345C477.738 979.512 481.287 984.404 484.874 987.767C488.449 991.118 492.159 993.041 495.763 993.041V991.041ZM476.2 972.401C472.874 966.187 470.193 960.642 467.854 955.732L466.048 956.592C468.391 961.51 471.088 967.089 474.437 973.345L476.2 972.401ZM467.852 955.728C461.987 943.561 457.612 934.476 448.611 926.469C439.626 918.476 426.109 911.616 402.087 903.597L401.454 905.495C425.413 913.492 438.61 920.249 447.282 927.964C455.939 935.665 460.162 944.381 466.05 956.596L467.852 955.728ZM402.087 903.597C373.78 894.155 355.973 886.56 344.962 875.596C334.026 864.706 329.681 850.362 328.734 827.023L326.736 827.104C327.69 850.631 332.084 865.595 343.55 877.013C354.943 888.357 373.203 896.071 401.454 905.495L402.087 903.597ZM328.734 827.024C327.97 807.926 313.584 797.122 296.097 783.83L294.887 785.422C312.587 798.876 326.016 809.118 326.736 827.104L328.734 827.024ZM296.096 783.829C282.189 773.284 265.852 760.862 251.512 741.156C237.181 721.462 224.813 694.442 218.969 654.687L216.991 654.978C222.876 695.023 235.356 722.354 249.895 742.333C264.426 762.301 280.98 774.877 294.888 785.423L296.096 783.829ZM218.97 654.687C214.782 626.092 220.431 602.719 235.657 585.12L234.145 583.811C218.45 601.951 212.741 625.954 216.991 654.977L218.97 654.687ZM235.658 585.119C252.019 566.177 279.156 555.335 310.35 555.335V553.335C278.728 553.335 250.976 564.326 234.144 583.812L235.658 585.119ZM310.35 555.335C330.863 555.335 352.547 560.451 370.085 570.429C387.618 580.404 400.934 595.189 404.917 614.52L406.876 614.116C402.745 594.069 388.953 578.862 371.074 568.69C353.199 558.521 331.166 553.335 310.35 553.335V555.335Z" fill="black" mask="url(#path-8-inside-3)"/>
<path d="M570.588 1017.89C573.37 995.311 578.145 935.235 558.72 885.264C548.266 858.402 531.531 836.708 513.798 813.739C490.364 783.376 466.118 751.971 456.221 706.474C451.949 685.954 448.853 665.208 446.949 644.335C442.104 598.977 437.932 559.807 394.447 507.31C366.307 473.378 357.036 442.738 368.278 420.742C378.546 400.74 405.156 390.612 441.339 393.138C513.543 398.052 572.558 460.677 621.745 584.56C658.253 676.482 699.466 689.392 761.842 708.93C780.038 714.632 800.644 721.075 823.175 730.346C895.194 759.921 897.349 819.834 899.157 872.702C899.783 890.248 900.363 906.843 903.399 921.537C912.207 964.299 934.761 1000.83 946.698 1017.91" stroke="black"/>
<path d="M846.562 891.614C841.532 842.617 836.363 791.951 775.887 756.791C747.747 740.427 722.876 731.295 700.925 723.392C663.838 709.88 634.446 699.195 607.442 661.392C599.978 650.939 593.094 640.788 586.441 630.96C558.765 590.214 537.765 559.11 511.062 559.11C506.188 559.153 501.366 560.12 496.853 561.961C490.872 564.279 486.7 569.772 484.429 578.185C472.375 623.358 517.529 743.301 548.682 782.147C550.629 784.58 552.692 787.107 554.825 789.726C590.73 834.018 650.255 907.421 633.426 1017.93M883.927 1017.93C867.6 990.145 856.478 959.616 851.105 927.84C849.065 915.904 847.813 903.573 846.585 891.637" stroke="black"/>
<path d="M686.226 1018C696.216 935.465 664.901 856.662 630.456 817.26C612.561 796.864 606.118 779.898 612.561 770.627C615.76 765.992 621.926 763.674 630.526 763.674C640.099 763.674 652.894 766.548 667.914 772.273L670.742 773.339C727.903 795.033 772.917 812.161 783.232 894.812C791.09 957.646 809.008 1000.76 817.167 1017.91" stroke="black"/>
<mask id="path-13-inside-4" fill="white">
<path d="M598.287 730.138C597.381 732.282 595.84 734.097 593.872 735.34C591.904 736.583 589.602 737.194 587.277 737.091C583.49 736.951 579.78 735.986 576.405 734.263C552.554 723.046 516.139 638.61 519.848 612.791C520.636 607.39 522.814 607.066 523.533 606.95C524.079 606.877 524.628 606.838 525.179 606.834C537.441 606.834 549.54 628.134 561.246 648.739C568.432 661.347 575.849 674.419 583.823 683.69C599.817 702.371 602.552 720.774 598.287 730.045"/>
</mask>
<path d="M593.872 735.34L593.338 734.495L593.872 735.34ZM587.277 737.091L587.321 736.092L587.314 736.092L587.277 737.091ZM576.405 734.263L576.86 733.373L576.846 733.365L576.831 733.359L576.405 734.263ZM519.848 612.791L518.858 612.646L518.858 612.648L519.848 612.791ZM523.533 606.95L523.4 605.959L523.387 605.961L523.374 605.963L523.533 606.95ZM525.179 606.834V605.834L525.171 605.834L525.179 606.834ZM561.246 648.739L560.377 649.233L560.377 649.234L561.246 648.739ZM583.823 683.69L584.582 683.04L584.581 683.038L583.823 683.69ZM597.366 729.749C596.539 731.705 595.133 733.361 593.338 734.495L594.406 736.186C596.547 734.834 598.222 732.859 599.208 730.527L597.366 729.749ZM593.338 734.495C591.542 735.629 589.443 736.186 587.321 736.092L587.232 738.09C589.762 738.202 592.265 737.538 594.406 736.186L593.338 734.495ZM587.314 736.092C583.673 735.957 580.105 735.029 576.86 733.373L575.951 735.154C579.455 736.943 583.308 737.945 587.24 738.09L587.314 736.092ZM576.831 733.359C571.134 730.679 564.515 723.507 557.812 713.621C551.142 703.784 544.497 691.424 538.703 678.591C532.909 665.76 527.978 652.482 524.729 640.818C521.468 629.108 519.942 619.165 520.837 612.933L518.858 612.648C517.899 619.326 519.534 629.619 522.803 641.354C526.084 653.133 531.052 666.507 536.88 679.414C542.707 692.32 549.406 704.786 556.157 714.743C562.873 724.65 569.751 732.239 575.98 735.168L576.831 733.359ZM520.837 612.935C521.215 610.346 521.904 609.142 522.441 608.578C522.945 608.048 523.401 607.984 523.692 607.937L523.374 605.963C522.947 606.032 521.954 606.188 520.992 607.199C520.063 608.176 519.268 609.835 518.858 612.646L520.837 612.935ZM523.666 607.941C524.17 607.873 524.678 607.838 525.186 607.834L525.171 605.834C524.579 605.838 523.987 605.88 523.4 605.959L523.666 607.941ZM525.179 607.834C527.947 607.834 530.793 609.036 533.735 611.279C536.676 613.522 539.641 616.75 542.626 620.666C548.597 628.502 554.514 638.912 560.377 649.233L562.116 648.245C556.273 637.96 550.287 627.419 544.216 619.453C541.18 615.469 538.09 612.084 534.947 609.689C531.807 607.294 528.542 605.834 525.179 605.834V607.834ZM560.377 649.234C567.547 661.814 575.014 674.983 583.065 684.342L584.581 683.038C576.684 673.856 569.316 660.88 562.115 648.244L560.377 649.234ZM583.063 684.341C590.974 693.581 595.578 702.72 597.685 710.653C599.798 718.608 599.382 725.271 597.378 729.627L599.195 730.463C601.456 725.548 601.805 718.374 599.618 710.14C597.425 701.883 592.665 692.481 584.582 683.04L583.063 684.341Z" fill="black" mask="url(#path-13-inside-4)"/>
<path d="M488.851 512.662L488.85 512.662C484.753 513.648 479.209 512.288 473.472 508.325C467.749 504.371 461.89 497.863 457.193 488.678C452.988 480.384 445.932 471.351 439.141 462.656L438.946 462.406L438.946 462.406C433.737 455.749 428.696 449.303 424.954 443.364C421.202 437.408 418.816 432.049 418.816 427.554H418.816L418.816 427.545C418.785 425.782 419.242 424.045 420.136 422.526C420.595 421.769 421.288 421.268 422.247 421.048C423.223 420.823 424.49 420.887 426.066 421.315L426.066 421.315L426.075 421.318C431.044 422.571 437.883 426.645 445.397 432.445C452.895 438.233 461.013 445.697 468.533 453.668C476.053 461.639 482.966 470.105 488.06 477.894C493.169 485.705 496.396 492.758 496.65 497.922C496.856 502.108 496.229 505.485 494.895 507.963C493.57 510.426 491.536 512.024 488.851 512.662Z" stroke="black"/>
<path d="M368.207 793.946L368.206 793.935C372.617 792.899 378.526 794.298 384.59 798.391C390.662 802.489 396.838 809.257 401.719 818.834C405.76 826.825 412.62 835.618 419.255 844.123C419.438 844.358 419.621 844.593 419.804 844.827L419.804 844.827L419.871 844.913C425.148 851.656 430.255 858.181 434.05 864.251C437.869 870.359 440.304 875.923 440.304 880.722L440.304 880.73C440.335 882.807 439.782 884.851 438.708 886.629L438.706 886.632C438.244 887.409 437.498 888.192 436.29 888.641C435.077 889.092 433.348 889.225 430.89 888.605L430.89 888.605C425.828 887.334 418.865 883.182 411.215 877.267C403.582 871.365 395.319 863.75 387.665 855.618C380.009 847.484 372.973 838.844 367.787 830.895C362.59 822.929 359.304 815.733 359.041 810.459V810.459V810.455V810.452V810.449V810.446V810.442V810.439V810.436V810.433V810.429V810.426V810.423V810.42V810.416V810.413V810.41V810.406V810.403V810.4V810.397V810.393V810.39V810.387V810.384V810.38V810.377V810.374V810.371V810.367V810.364V810.361V810.358V810.354V810.351V810.348V810.345V810.341V810.338V810.335V810.332V810.328V810.325V810.322V810.318V810.315V810.312V810.309V810.305V810.302V810.299V810.296V810.292V810.289V810.286V810.283V810.279V810.276V810.273V810.27V810.266V810.263V810.26V810.257V810.253V810.25V810.247V810.244V810.24V810.237V810.234V810.231V810.227V810.224V810.221V810.218V810.214V810.211V810.208V810.204V810.201V810.198V810.195V810.191V810.188V810.185V810.182V810.178V810.175V810.172V810.169V810.165V810.162V810.159V810.156V810.152V810.149V810.146V810.143V810.139V810.136V810.133V810.13V810.126V810.123V810.12V810.117V810.113V810.11V810.107V810.104V810.1V810.097V810.094V810.091V810.087V810.084V810.081V810.078V810.074V810.071V810.068V810.065V810.061V810.058V810.055V810.052V810.048V810.045V810.042V810.039V810.035V810.032V810.029V810.026V810.022V810.019V810.016V810.013V810.009V810.006V810.003V810V809.996V809.993V809.99V809.987V809.983V809.98V809.977V809.974V809.97V809.967V809.964V809.961V809.957V809.954V809.951V809.948V809.944V809.941V809.938V809.935V809.931V809.928V809.925V809.922V809.918V809.915V809.912V809.909V809.905V809.902V809.899V809.896V809.892V809.889V809.886V809.883V809.879V809.876V809.873V809.87V809.867V809.863V809.86V809.857V809.854V809.85V809.847V809.844V809.841V809.837V809.834V809.831V809.828V809.824V809.821V809.818V809.815V809.811V809.808V809.805V809.802V809.799V809.795V809.792V809.789V809.786V809.782V809.779V809.776V809.773V809.769V809.766V809.763V809.76V809.756V809.753V809.75V809.747V809.744V809.74V809.737V809.734V809.731V809.727V809.724V809.721V809.718V809.714V809.711V809.708V809.705V809.701V809.698V809.695V809.692V809.689V809.685V809.682V809.679V809.676V809.672V809.669V809.666V809.663V809.66V809.656V809.653V809.65V809.647V809.643V809.64V809.637V809.634V809.63V809.627V809.624V809.621V809.618V809.614V809.611V809.608V809.605V809.601V809.598V809.595V809.592V809.589V809.585V809.582V809.579V809.576V809.572V809.569V809.566V809.563V809.56V809.556V809.553V809.55V809.547V809.544V809.54V809.537V809.534V809.531V809.527V809.524V809.521V809.518V809.515V809.511V809.508V809.505V809.502V809.499V809.495V809.492V809.489V809.486V809.482V809.479V809.476V809.473V809.47V809.466V809.463V809.46V809.457V809.454V809.45V809.447V809.444V809.441V809.438V809.434V809.431V809.428V809.425V809.422V809.418V809.415V809.412V809.409V809.405V809.402V809.399V809.396V809.393V809.389V809.386V809.383V809.38V809.377V809.373V809.37V809.367V809.364V809.361V809.357V809.354V809.351V809.348V809.345V809.341V809.338V809.335V809.332V809.329V809.326V809.322V809.319V809.316V809.313V809.31V809.306V809.303V809.3V809.297V809.294V809.29V809.287V809.284V809.281V809.278V809.274V809.271V809.268V809.265V809.262V809.259V809.255V809.252V809.249V809.246V809.243V809.239V809.236V809.233V809.23V809.227V809.223V809.22V809.217V809.214V809.211V809.208V809.204V809.201V809.198V809.195V809.192V809.189V809.185V809.182V809.179V809.176V809.173V809.169V809.166V809.163V809.16V809.157V809.154V809.15V809.147V809.144V809.141V809.138V809.135V809.131V809.128V809.125V809.122V809.119V809.116V809.112V809.109V809.106V809.103V809.1V809.097V809.093V809.09V809.087V809.084V809.081V809.078V809.074V809.071V809.068V809.065V809.062V809.059V809.055V809.052V809.049V809.046V809.043V809.04V809.036V809.033V809.03V809.027V809.024V809.021V809.018V809.014V809.011V809.008V809.005V809.002V808.999V808.995V808.992V808.989V808.986V808.983V808.98V808.977V808.973V808.97V808.967V808.964V808.961V808.958V808.955V808.951V808.948V808.945V808.942V808.939V808.936V808.933V808.929V808.926V808.923V808.92V808.917V808.914V808.911V808.907V808.904V808.901V808.898V808.895V808.892V808.889V808.886V808.882V808.879V808.876V808.873V808.87V808.867V808.864V808.86V808.857V808.854V808.851V808.848V808.845V808.842V808.839V808.835V808.832V808.829V808.826C359.041 800.658 362.445 795.331 368.207 793.946Z" stroke="black"/>
<path d="M1088.95 146.064C1093.95 190.403 1098.71 232.307 1085.66 245.148C1082.2 248.508 1077.57 249.783 1071.47 248.972C1038.79 244.661 1008.89 208.249 979.888 173.043C951.447 138.485 921.939 102.722 889.024 95.9546C833.556 84.5745 813.019 113.894 763.391 184.747C750.434 203.289 735.762 224.149 717.844 248.23C651.411 337.139 593.787 321.981 526.938 304.412C506.406 298.621 485.556 294.025 464.492 290.645C405.06 282.162 356.337 293.31 330.816 321.239C311.508 342.377 305.805 372.577 314.312 408.549C332.554 485.637 313.408 490.597 271.453 501.49C265.566 503.02 259.493 504.596 252.91 506.52C222.591 515.373 197.325 537.207 181.587 567.893C162.904 604.421 158.083 653.14 167.679 708.766C188.239 828.315 266.91 881.322 359.929 933.587C422.166 968.585 437.14 1002.47 440.71 1017.81M1103.2 0H1096.94C1076.08 32.0312 1083.04 92.1535 1089.04 146.018" stroke="black"/>
<mask id="path-18-inside-5" fill="white">
<path d="M1142.38 314.358C1142.84 315.493 1144.25 318.993 1138.78 324.37C1134.01 329.006 1119.31 329.609 1108.65 329.609C1097.57 329.609 1084.57 328.936 1069.5 328.172C1051.19 327.221 1030.47 326.155 1009.05 326.155C945.35 326.155 900.382 335.982 867.513 357.097C813.134 392.002 804.465 437.221 798.717 467.12C794.683 488.096 792.412 497.251 781.425 495.837C777.475 495.307 773.495 495.036 769.51 495.026C725.678 495.026 700.459 528.216 682.054 552.436C673.223 564.025 665.597 574.131 659.871 574.131C659.671 574.154 659.469 574.154 659.269 574.131C651.272 573.111 647.262 560.456 641.722 542.98C634.49 520.197 624.592 488.977 599.118 458.174C578.859 433.675 554.915 414.137 533.775 397.101C507.119 375.477 486.049 358.395 486.049 341.893C485.95 340.985 486.05 340.067 486.342 339.203C486.635 338.338 487.112 337.548 487.741 336.886C489.441 335.775 491.466 335.269 493.489 335.449C500.883 335.449 513.029 339.181 527.099 343.538C551.067 350.909 580.876 360.11 612.446 360.11C641.629 360.11 666.223 352.276 687.641 336.191C718.678 312.851 746.795 279.823 773.961 247.908C811.349 203.639 846.999 161.827 879.822 161.827C906.223 161.827 926.181 191.008 947.274 221.88C970.453 255.626 994.236 290.531 1029.4 290.531C1100.14 290.531 1137.44 302.885 1142.14 314.381"/>
</mask>
<path d="M1138.78 324.37L1139.48 325.088L1139.48 325.084L1138.78 324.37ZM1069.5 328.172L1069.45 329.17L1069.45 329.17L1069.5 328.172ZM867.513 357.097L868.053 357.939L868.054 357.938L867.513 357.097ZM798.717 467.12L799.699 467.309V467.309L798.717 467.12ZM781.425 495.837L781.292 496.828L781.297 496.829L781.425 495.837ZM769.51 495.026L769.513 494.026H769.51V495.026ZM682.054 552.436L682.85 553.043L682.85 553.041L682.054 552.436ZM659.871 574.131V573.131H659.814L659.757 573.137L659.871 574.131ZM659.269 574.131L659.142 575.123L659.155 575.124L659.269 574.131ZM641.722 542.98L642.675 542.678L642.675 542.677L641.722 542.98ZM599.118 458.174L598.347 458.811L598.347 458.811L599.118 458.174ZM533.775 397.101L533.145 397.878L533.148 397.88L533.775 397.101ZM486.049 341.893H487.049V341.838L487.043 341.785L486.049 341.893ZM487.741 336.886L487.194 336.049L487.096 336.113L487.016 336.197L487.741 336.886ZM493.489 335.449L493.4 336.445L493.445 336.449H493.489V335.449ZM527.099 343.538L526.804 344.493L526.805 344.494L527.099 343.538ZM687.641 336.191L688.241 336.991L688.242 336.99L687.641 336.191ZM773.961 247.908L774.722 248.556L774.725 248.553L773.961 247.908ZM947.274 221.88L946.448 222.444L946.45 222.446L947.274 221.88ZM1141.45 314.736C1141.66 315.251 1142.05 316.2 1141.82 317.614C1141.59 319.038 1140.71 321.074 1138.08 323.657L1139.48 325.084C1142.33 322.29 1143.48 319.887 1143.79 317.933C1144.11 315.969 1143.55 314.601 1143.3 313.98L1141.45 314.736ZM1138.09 323.653C1137.05 324.656 1135.41 325.503 1133.26 326.192C1131.12 326.875 1128.56 327.375 1125.79 327.736C1120.26 328.458 1113.97 328.609 1108.65 328.609V330.609C1113.99 330.609 1120.38 330.458 1126.05 329.719C1128.89 329.35 1131.57 328.83 1133.86 328.097C1136.14 327.369 1138.12 326.403 1139.48 325.088L1138.09 323.653ZM1108.65 328.609C1097.6 328.609 1084.63 327.938 1069.55 327.173L1069.45 329.17C1084.51 329.935 1097.54 330.609 1108.65 330.609V328.609ZM1069.55 327.173C1051.24 326.223 1030.49 325.155 1009.05 325.155V327.155C1030.44 327.155 1051.13 328.22 1069.45 329.17L1069.55 327.173ZM1009.05 325.155C945.268 325.155 900.075 334.991 866.973 356.256L868.054 357.938C900.689 336.974 945.432 327.155 1009.05 327.155V325.155ZM866.973 356.255C812.228 391.396 803.493 436.98 797.735 466.931L799.699 467.309C805.437 437.462 814.041 392.608 868.053 357.939L866.973 356.255ZM797.735 466.931C795.707 477.475 794.154 484.84 791.79 489.416C790.624 491.672 789.306 493.156 787.718 494.017C786.134 494.876 784.16 495.181 781.552 494.845L781.297 496.829C784.183 497.2 786.613 496.891 788.671 495.775C790.725 494.662 792.287 492.811 793.567 490.334C796.094 485.442 797.693 477.741 799.699 467.309L797.735 466.931ZM781.558 494.846C777.565 494.31 773.542 494.036 769.513 494.026L769.508 496.026C773.449 496.036 777.385 496.304 781.292 496.828L781.558 494.846ZM769.51 494.026C725.116 494.026 699.616 527.673 681.258 551.831L682.85 553.041C701.302 528.759 726.24 496.026 769.51 496.026V494.026ZM681.259 551.83C676.831 557.641 672.752 563.016 669.069 566.945C667.228 568.908 665.52 570.474 663.948 571.544C662.366 572.62 661.016 573.131 659.871 573.131V575.131C661.59 575.131 663.339 574.377 665.074 573.197C666.818 572.01 668.642 570.325 670.528 568.313C674.297 564.292 678.446 558.821 682.85 553.043L681.259 551.83ZM659.757 573.137C659.633 573.151 659.507 573.151 659.383 573.137L659.155 575.124C659.431 575.156 659.709 575.156 659.985 575.124L659.757 573.137ZM659.395 573.139C655.944 572.698 653.149 569.726 650.471 564.285C647.818 558.892 645.454 551.444 642.675 542.678L640.769 543.282C643.53 551.992 645.941 559.609 648.677 565.168C651.388 570.678 654.597 574.543 659.142 575.122L659.395 573.139ZM642.675 542.677C635.441 519.886 625.497 488.501 599.889 457.536L598.347 458.811C623.688 489.452 633.539 520.507 640.769 543.283L642.675 542.677ZM599.889 457.537C579.557 432.95 555.538 413.354 534.403 396.323L533.148 397.88C554.292 414.919 578.161 434.4 598.347 458.811L599.889 457.537ZM534.405 396.325C521.059 385.498 509.185 375.866 500.64 366.887C492.066 357.878 487.049 349.73 487.049 341.893H485.049C485.049 350.558 490.566 359.202 499.191 368.265C507.845 377.359 519.834 387.08 533.145 397.878L534.405 396.325ZM487.043 341.785C486.96 341.022 487.044 340.25 487.29 339.523L485.395 338.883C485.056 339.885 484.94 340.949 485.054 342.001L487.043 341.785ZM487.29 339.523C487.535 338.796 487.937 338.131 488.465 337.575L487.016 336.197C486.287 336.964 485.734 337.88 485.395 338.883L487.29 339.523ZM488.288 337.723C489.8 336.735 491.601 336.285 493.4 336.445L493.578 334.453C491.331 334.253 489.082 334.815 487.194 336.049L488.288 337.723ZM493.489 336.449C497.051 336.449 501.832 337.353 507.541 338.828C513.233 340.298 519.763 342.313 526.804 344.493L527.395 342.583C520.366 340.406 513.788 338.376 508.041 336.892C502.311 335.411 497.321 334.449 493.489 334.449V336.449ZM526.805 344.494C550.755 351.859 580.703 361.11 612.446 361.11V359.11C581.048 359.11 551.379 349.958 527.393 342.582L526.805 344.494ZM612.446 361.11C641.826 361.11 666.635 353.217 688.241 336.991L687.04 335.391C665.811 351.335 641.433 359.11 612.446 359.11V361.11ZM688.242 336.99C719.384 313.571 747.574 280.451 774.722 248.556L773.199 247.26C746.015 279.196 717.971 312.131 687.039 335.392L688.242 336.99ZM774.725 248.553C793.431 226.405 811.645 204.941 829.274 189.009C846.936 173.046 863.81 162.827 879.822 162.827V160.827C863.011 160.827 845.649 171.514 827.933 187.525C810.184 203.566 791.88 225.142 773.197 247.263L774.725 248.553ZM879.822 162.827C892.626 162.827 903.972 169.898 914.824 180.976C925.676 192.055 935.887 206.987 946.448 222.444L948.1 221.316C937.567 205.9 927.253 190.806 916.253 179.577C905.252 168.347 893.419 160.827 879.822 160.827V162.827ZM946.45 222.446C958.024 239.297 969.821 256.549 983.143 269.576C996.478 282.615 1011.45 291.531 1029.4 291.531V289.531C1012.18 289.531 997.683 280.996 984.542 268.146C971.387 255.283 959.703 238.209 948.098 221.314L946.45 222.446ZM1029.4 291.531C1064.72 291.531 1091.65 294.616 1110.3 299.117C1119.63 301.369 1126.86 303.966 1132.02 306.689C1137.23 309.433 1140.18 312.22 1141.22 314.76L1143.07 314.002C1141.76 310.794 1138.28 307.726 1132.96 304.92C1127.6 302.093 1120.2 299.447 1110.77 297.173C1091.91 292.623 1064.82 289.531 1029.4 289.531V291.531Z" fill="black" mask="url(#path-18-inside-5)"/>
<path d="M820.355 233.836L820.355 233.836C838.124 209.845 856.167 197.835 873.938 197.835H873.985C891.771 197.835 909.14 209.859 925.33 233.841L925.331 233.842C935.977 249.526 942.858 261.453 946.452 270.801C950.047 280.15 950.324 286.837 947.891 292.106C945.986 296.23 942.388 299.483 936.678 301.999C930.959 304.518 923.153 306.284 912.893 307.441C890.469 309.937 865.335 315.807 841.907 333.497C818.478 351.189 796.807 380.665 781.23 430.281C779.986 434.24 777.766 437.289 774.727 439.351C771.686 441.417 767.79 442.516 763.164 442.516C752.565 442.516 739.968 437.007 729.096 427.69C718.233 418.38 709.15 405.314 705.539 390.286C701.957 375.379 709.794 358.152 723.392 339.803C736.885 321.597 755.934 302.433 774.706 283.546L775.061 283.189C792.623 265.537 809.226 248.844 820.355 233.836Z" stroke="black"/>
<path d="M566.499 398.712L566.499 398.71C566.544 395.697 567.631 392.381 571.184 389.798C574.765 387.196 580.906 385.296 591.149 385.296C609.974 385.296 638.596 392.179 664.567 402.971C677.546 408.365 689.844 414.727 699.909 421.679C709.982 428.636 717.777 436.156 721.809 443.85C729.173 458.114 731.158 468.062 728.301 475.282L728.3 475.283C726.561 479.716 723.137 482.875 718.588 485.476C714.03 488.084 708.397 490.103 702.289 492.286L702.289 492.286C697.301 494.072 692.143 496 686.842 498.325L686.837 498.327L681.297 500.83L681.294 500.832C677.463 502.596 674.521 503.948 672.074 504.862C669.629 505.774 667.717 506.232 665.949 506.232C663.163 506.232 661.122 505.179 659.011 502.877C656.867 500.541 654.694 496.966 651.658 491.964L651.656 491.96C651.372 491.5 651.08 491.027 650.779 490.539C647.155 484.661 642.274 476.745 634.902 466.437L634.495 466.728L634.902 466.437C620.327 446.063 604.333 437.156 591.527 430.024L591.519 430.019L591.393 429.949L591.392 429.949L591.372 429.938L591.129 430.375L591.372 429.938C584.242 425.978 577.953 422.48 573.47 417.807C569.018 413.166 566.34 407.351 566.499 398.712Z" stroke="black"/>
<path d="M729.879 1017.91C730.158 989.726 722.485 948.795 716.18 915.257C710.015 882.275 704.173 851.148 709.226 848.853C710.177 848.413 712.75 848.853 719.194 857.197C749.582 896.135 764.092 988.915 768.01 1017.91" stroke="black"/>
<path d="M1051.16 107.848C1062.75 173.765 1051.65 185.794 1046.39 187.903C1039.09 190.846 1027.85 182.132 1015.77 164.007C994.908 132.88 925.694 39.0574 850.662 39.0574C843.167 39.0468 835.702 40.013 828.456 41.9314C780.938 54.4241 743.874 117.722 711.191 173.579C689.101 211.312 668.24 246.936 647.471 261.005C621.765 278.388 575.846 268.305 522.649 256.647C470.75 245.29 411.944 232.38 360.972 243.645C317.627 253.24 290.113 279.941 279.149 323.004C269.877 359.022 274.049 399.351 276.831 426.051L277.271 430.269C279.798 455.927 257.012 465.29 228.154 477.157C198.693 489.256 165.314 502.977 147.026 537.998C107.621 612.653 103.819 698.455 136.363 773.411C155.764 818.144 158.059 850.43 143.526 875.044C124.982 906.612 77.8814 926.313 0.0678711 935.097M1041.36 0.0498047C1040.32 13.9563 1040.39 45.6166 1051.23 107.848" stroke="black"/>
<path d="M0.0673828 972.321C96.0304 971.185 133.604 941.263 164.016 917.043C175.698 907.772 185.805 899.752 197.672 894.7C204.418 891.654 211.713 890.014 219.113 889.879C236.336 889.879 250.522 900.309 270.433 914.957C288.374 928.649 307.38 940.887 327.269 951.554C377.406 977.814 389.691 1004.49 392.589 1017.91" stroke="black"/>
<path d="M280.911 965.665C255.738 953.08 234.714 945.199 215.012 945.199C197.534 945.199 181.077 951.411 163.715 966.059C147.675 979.525 116.105 986.246 85.6006 992.736C55.0964 999.226 26.3539 1005.34 12.2607 1017.95M320.594 1017.91C320.594 1005.34 315.379 982.863 281.004 965.665" stroke="black"/>
<path d="M774.262 0.0498047C758.036 13.9563 721.25 48.2357 700.111 92.5509C696.842 99.3651 693.62 106.295 690.491 112.97C665.99 165.49 642.834 215.113 597.031 226.957C572.461 233.308 541.957 222.229 506.631 209.412C467.412 195.181 422.954 179.049 375.621 182.688C370.498 183.082 365.167 183.546 359.627 184.032C301.215 189.039 221.199 195.899 166.588 148.084C131.703 117.536 111.769 67.7511 107.249 0.0498047" stroke="black"/>
<path d="M342.174 129.704C359.025 129.055 376.456 128.406 392.52 128.824C437.441 129.983 473.648 145.859 505.45 159.858C521.351 166.811 536.348 173.417 550.859 177.496C556.769 179.277 562.982 179.827 569.113 179.114C575.245 178.4 581.165 176.438 586.509 173.347C613.652 157.911 629.599 116.632 638.176 84.717C649.093 44.7127 680.455 13.9563 696.82 0.0498047M164.642 0.0498047C165.569 19.7043 170.947 68.261 200.825 101.335C230.263 133.784 287.146 131.767 342.22 129.704" stroke="black"/>
<path d="M265.288 87.4519C287.401 92.2496 314.637 91.2994 343.496 90.2796C385.219 88.7962 432.644 87.1274 473.625 103.143L487.834 108.752C526.799 124.211 552.528 134.433 571.489 124.976C582.893 119.367 591.006 106.828 596.987 85.5746C609.48 41.7692 625.776 12.6583 633.749 0.0498047M213.32 0.0498047C214.177 21.9757 220.76 77.7637 265.311 87.4519" stroke="black"/>
<path d="M374.487 46.5901C383.596 46.5901 393.03 46.7523 403.113 46.9146C456.426 47.7721 487.765 63.1388 508.441 73.1514C525.061 81.2635 535.097 86.1771 544.67 78.1809C561.36 64.2745 567.015 19.2175 568.708 0.0498047M264.848 0.0498047C265.219 13.1219 268.464 22.6014 274.884 29.462C290.345 45.9643 323.816 46.2193 374.556 46.5901" stroke="black"/>
<path d="M311.997 8.7877C318.301 13.8404 328.663 12.6583 345.792 10.7346C356.895 9.5062 370.687 7.95331 387.932 7.58247C417.129 6.72975 446.293 10.1339 474.508 17.6878C482.513 19.7877 490.621 21.4742 498.8 22.7405C505.545 23.6213 510.761 22.1611 514.261 18.3368C518.688 13.5159 519.522 5.98323 519.291 0.0498047M306.549 0.0498047C307.394 3.4435 309.263 6.49459 311.904 8.7877" stroke="black"/>
<path d="M0.0678711 875.183C25.8666 875.461 84.418 871.521 96.3091 831.03C103.24 807.528 97.5608 782.682 90.3983 751.254C81.7524 713.289 70.9739 666.03 80.6397 604.17C97.8157 494.03 141.463 476.879 196.699 455.139L199.435 454.049C242.178 437.223 239.999 413.327 236.985 380.252C235.733 368.886 235.207 357.452 235.409 346.019C236.244 322.564 248.807 301.797 259.887 283.44C272.612 262.372 283.622 244.178 275.51 226.586C268.509 211.474 243.012 207.047 213.458 201.902C178.55 195.876 135.274 188.343 108.687 159.974C68.0765 116.354 56.3245 27.9786 53.5429 0.0498047" stroke="black"/>
<path d="M0.0673828 67.5186C34.8366 194.739 112.65 210.964 161.049 221L163.761 221.579C192.666 227.605 209.401 237.409 214.895 251.501C219.809 264.272 215.637 279.592 201.752 298.551C186.106 320.384 183.997 333.387 181.122 351.373C178.639 369.21 174.128 386.707 167.678 403.522C158.522 427.603 141.416 436.202 121.621 446.145C96.0073 458.985 66.9634 473.564 45.4992 527.428C20.3958 590.425 35.022 649.666 46.7509 697.249C53.0325 722.745 58.4565 744.833 57.8538 764.464C57.4598 780.688 51.9662 793.204 41.6282 801.548C28.8795 811.839 11.6571 813.577 0.0673828 813.368" stroke="black"/>
<path d="M80.9659 418.491C109.106 386.668 126.421 348.17 134.279 328.099C144.037 302.998 145.868 289.508 140.931 279.982C133.954 266.586 113.649 261.719 76.7009 252.679L67.7768 250.524C30.6896 241.577 10.6857 212.258 0.0695384 186.601M0 468.23C29.183 462.992 56.3493 446.327 80.8964 418.584" stroke="black"/>
<path d="M0.0673828 257.479C9.68687 269.161 25.0317 283.299 45.221 287.123C61.1685 290.183 76.7219 294.61 82.4936 306.407C87.8481 317.37 84.4871 333.895 71.9238 358.464C53.1948 394.829 18.4487 411.354 0.0673828 417.821" stroke="black"/>
<path d="M0.0673828 299.896C15.0181 304.902 38.244 315.262 36.7141 330.884C35.2538 346.042 13.9751 366.577 0.0673828 378.49" stroke="black"/>
</g>
</svg>
