<svg width="375" height="834" viewBox="0 0 375 834" fill="none" xmlns="http://www.w3.org/2000/svg">
<g opacity="0.5">
<path d="M295.967 648.843L296.058 648.714V648.598C299.611 643.606 305.158 641.037 312.639 641.036C315.348 641.063 318.047 641.354 320.699 641.906L320.699 641.906L320.703 641.907C330.53 643.859 336.964 648.195 339.957 654.652C342.18 659.482 342.538 665.569 340.97 672.909C339.403 680.247 335.916 688.802 330.496 698.533C328.973 701.126 326.816 703.289 324.226 704.819C321.636 706.348 318.7 707.192 315.694 707.274C313.355 707.273 310.002 706.713 306.508 704.182C303.009 701.647 299.329 697.103 296.399 689.061C293.331 680.608 291.763 672.616 291.697 665.699C291.631 658.777 293.069 652.97 295.967 648.843Z" stroke="black"/>
<path d="M324.482 782.152L324.472 782.15C310.839 778.733 295.659 764.67 283.871 744.929C272.098 725.213 263.773 699.939 263.773 674.257C263.773 657.909 265.169 642.317 271.539 630.818C274.717 625.082 279.132 620.367 285.238 617.082C291.348 613.795 299.178 611.924 309.209 611.923C320.29 612.17 331.308 613.666 342.053 616.381L342.053 616.381L342.063 616.383C372.117 623.371 383.261 638.191 387.347 649.328L387.816 649.156L387.347 649.328C393.692 666.622 387.649 686.399 378.82 698.289C373.959 704.446 368.319 709.945 362.042 714.649L362.035 714.654L362.028 714.66C357.113 718.626 352.656 722.229 349.366 726.661C346.06 731.115 343.94 736.392 343.647 743.7H343.646L343.646 743.711C343.547 749.686 343.897 755.659 344.693 761.581C345.181 765.879 345.609 769.677 345.472 772.905C345.335 776.124 344.639 778.696 342.948 780.599C341.857 781.681 340.545 782.514 339.1 783.04C337.652 783.567 336.105 783.773 334.569 783.643L334.555 783.642L334.541 783.641C331.141 783.547 327.764 783.047 324.482 782.152Z" stroke="black"/>
<mask id="path-3-inside-1" fill="white">
<path d="M405.896 614.249C413.615 651.727 410.671 675.738 408.098 696.923C404.946 722.742 402.211 745.039 421.635 782.076C435.543 808.499 452.927 828.64 468.342 846.417C492.124 873.882 512.661 897.593 513.704 935.048C514.446 961.794 510.691 980.8 503.134 988.587C502.21 989.64 501.078 990.491 499.81 991.085C498.541 991.679 497.163 992.005 495.763 992.041C489.273 992.041 481.855 985.088 475.319 972.873C471.981 966.638 469.292 961.076 466.951 956.162C455.199 931.779 449.752 920.562 401.77 904.546C345.212 885.68 329.636 873.929 327.735 827.064C326.993 808.522 313.085 797.999 295.492 784.626C267.677 763.535 229.709 734.632 217.98 654.832C213.761 626.023 219.44 602.335 234.901 584.466C251.498 565.252 278.942 554.335 310.35 554.335C351.679 554.335 397.783 574.94 405.896 614.318"/>
</mask>
<path d="M233.21 583.637L233.303 583.707L233.903 582.907L233.81 582.837L233.21 583.637ZM408.098 696.923L409.091 697.044L409.091 697.043L408.098 696.923ZM421.635 782.076L420.749 782.541L420.75 782.542L421.635 782.076ZM468.342 846.417L469.098 845.762L469.097 845.762L468.342 846.417ZM513.704 935.048L514.703 935.02V935.02L513.704 935.048ZM503.134 988.587L502.416 987.891L502.399 987.909L502.382 987.928L503.134 988.587ZM495.763 992.041V993.041H495.776L495.789 993.04L495.763 992.041ZM475.319 972.873L476.2 972.401L476.2 972.401L475.319 972.873ZM466.951 956.162L467.854 955.732L467.852 955.728L466.951 956.162ZM401.77 904.546L402.087 903.597L402.087 903.597L401.77 904.546ZM327.735 827.064L326.736 827.104L326.736 827.104L327.735 827.064ZM295.492 784.626L296.097 783.83L296.096 783.829L295.492 784.626ZM217.98 654.832L216.991 654.977L216.991 654.978L217.98 654.832ZM234.901 584.466L235.657 585.12L235.658 585.119L234.901 584.466ZM404.917 614.45C412.602 651.768 409.674 675.651 407.105 696.802L409.091 697.043C411.668 675.825 414.627 651.685 406.876 614.047L404.917 614.45ZM407.106 696.801C405.531 709.699 404.042 721.835 405.405 735.393C406.77 748.969 410.987 763.926 420.749 782.541L422.521 781.612C412.859 763.19 408.731 748.479 407.395 735.193C406.058 721.888 407.513 709.966 409.091 697.044L407.106 696.801ZM420.75 782.542C434.718 809.079 452.174 829.298 467.586 847.072L469.097 845.762C453.68 827.982 436.368 807.919 422.52 781.611L420.75 782.542ZM467.586 847.072C491.397 874.571 511.672 898.026 512.704 935.075L514.703 935.02C513.649 897.16 492.85 873.194 469.098 845.762L467.586 847.072ZM512.704 935.075C513.074 948.402 512.321 959.761 510.55 968.733C508.772 977.736 505.993 984.205 502.416 987.891L503.852 989.284C507.831 985.182 510.708 978.255 512.512 969.121C514.321 959.957 515.076 948.44 514.703 935.02L512.704 935.075ZM502.382 987.928C501.549 988.877 500.529 989.644 499.386 990.18L500.234 991.991C501.628 991.338 502.871 990.404 503.886 989.247L502.382 987.928ZM499.386 990.18C498.242 990.715 497 991.009 495.737 991.041L495.789 993.04C497.327 993.001 498.841 992.643 500.234 991.991L499.386 990.18ZM495.763 991.041C492.876 991.041 489.633 989.487 486.242 986.308C482.864 983.141 479.436 978.448 476.2 972.401L474.437 973.345C477.738 979.512 481.287 984.404 484.874 987.767C488.449 991.118 492.159 993.041 495.763 993.041V991.041ZM476.2 972.401C472.874 966.187 470.193 960.642 467.854 955.732L466.048 956.592C468.391 961.51 471.088 967.089 474.437 973.345L476.2 972.401ZM467.852 955.728C461.987 943.561 457.612 934.476 448.611 926.469C439.626 918.476 426.109 911.616 402.087 903.597L401.454 905.495C425.413 913.492 438.61 920.249 447.282 927.964C455.939 935.665 460.162 944.381 466.05 956.596L467.852 955.728ZM402.087 903.597C373.78 894.155 355.973 886.56 344.962 875.596C334.026 864.706 329.681 850.362 328.734 827.023L326.736 827.104C327.69 850.631 332.084 865.595 343.55 877.013C354.943 888.357 373.203 896.071 401.454 905.495L402.087 903.597ZM328.734 827.024C327.97 807.926 313.584 797.122 296.097 783.83L294.887 785.422C312.587 798.876 326.016 809.118 326.736 827.104L328.734 827.024ZM296.096 783.829C282.189 773.284 265.852 760.862 251.512 741.156C237.181 721.462 224.813 694.442 218.969 654.687L216.991 654.978C222.876 695.023 235.356 722.354 249.895 742.333C264.426 762.301 280.98 774.877 294.888 785.423L296.096 783.829ZM218.97 654.687C214.782 626.092 220.431 602.719 235.657 585.12L234.145 583.811C218.45 601.951 212.741 625.954 216.991 654.977L218.97 654.687ZM235.658 585.119C252.019 566.177 279.156 555.335 310.35 555.335V553.335C278.728 553.335 250.976 564.326 234.144 583.812L235.658 585.119ZM310.35 555.335C330.863 555.335 352.547 560.451 370.085 570.429C387.618 580.404 400.934 595.189 404.917 614.52L406.876 614.116C402.745 594.069 388.953 578.862 371.074 568.69C353.199 558.521 331.166 553.335 310.35 553.335V555.335Z" fill="black" mask="url(#path-3-inside-1)"/>
<path d="M570.588 1017.89C573.37 995.311 578.145 935.235 558.72 885.264C548.266 858.402 531.531 836.708 513.798 813.739C490.364 783.376 466.118 751.971 456.221 706.474C451.949 685.954 448.853 665.208 446.949 644.335C442.104 598.977 437.932 559.807 394.447 507.31C366.307 473.378 357.036 442.738 368.278 420.742C378.546 400.74 405.156 390.612 441.339 393.138C513.543 398.052 572.558 460.677 621.745 584.56C658.253 676.482 699.466 689.392 761.842 708.93C780.038 714.632 800.644 721.075 823.175 730.346C895.194 759.921 897.349 819.834 899.157 872.702C899.783 890.248 900.363 906.843 903.399 921.537C912.207 964.299 934.761 1000.83 946.698 1017.91" stroke="black"/>
<path d="M368.207 793.946L368.206 793.935C372.617 792.899 378.526 794.298 384.59 798.391C390.662 802.489 396.838 809.257 401.719 818.834C405.76 826.825 412.62 835.618 419.255 844.123C419.438 844.358 419.621 844.593 419.804 844.827L419.804 844.827L419.871 844.913C425.148 851.656 430.255 858.181 434.05 864.251C437.869 870.359 440.304 875.923 440.304 880.722L440.304 880.73C440.335 882.807 439.782 884.851 438.708 886.629L438.706 886.632C438.244 887.409 437.498 888.192 436.29 888.641C435.077 889.092 433.348 889.225 430.89 888.605L430.89 888.605C425.828 887.334 418.865 883.182 411.215 877.267C403.582 871.365 395.319 863.75 387.665 855.618C380.009 847.484 372.973 838.844 367.787 830.895C362.59 822.929 359.304 815.733 359.041 810.459V810.459V810.455V810.452V810.449V810.446V810.442V810.439V810.436V810.433V810.429V810.426V810.423V810.42V810.416V810.413V810.41V810.406V810.403V810.4V810.397V810.393V810.39V810.387V810.384V810.38V810.377V810.374V810.371V810.367V810.364V810.361V810.358V810.354V810.351V810.348V810.345V810.341V810.338V810.335V810.332V810.328V810.325V810.322V810.318V810.315V810.312V810.309V810.305V810.302V810.299V810.296V810.292V810.289V810.286V810.283V810.279V810.276V810.273V810.27V810.266V810.263V810.26V810.257V810.253V810.25V810.247V810.244V810.24V810.237V810.234V810.231V810.227V810.224V810.221V810.218V810.214V810.211V810.208V810.204V810.201V810.198V810.195V810.191V810.188V810.185V810.182V810.178V810.175V810.172V810.169V810.165V810.162V810.159V810.156V810.152V810.149V810.146V810.143V810.139V810.136V810.133V810.13V810.126V810.123V810.12V810.117V810.113V810.11V810.107V810.104V810.1V810.097V810.094V810.091V810.087V810.084V810.081V810.078V810.074V810.071V810.068V810.065V810.061V810.058V810.055V810.052V810.048V810.045V810.042V810.039V810.035V810.032V810.029V810.026V810.022V810.019V810.016V810.013V810.009V810.006V810.003V810V809.996V809.993V809.99V809.987V809.983V809.98V809.977V809.974V809.97V809.967V809.964V809.961V809.957V809.954V809.951V809.948V809.944V809.941V809.938V809.935V809.931V809.928V809.925V809.922V809.918V809.915V809.912V809.909V809.905V809.902V809.899V809.896V809.892V809.889V809.886V809.883V809.879V809.876V809.873V809.87V809.867V809.863V809.86V809.857V809.854V809.85V809.847V809.844V809.841V809.837V809.834V809.831V809.828V809.824V809.821V809.818V809.815V809.811V809.808V809.805V809.802V809.799V809.795V809.792V809.789V809.786V809.782V809.779V809.776V809.773V809.769V809.766V809.763V809.76V809.756V809.753V809.75V809.747V809.744V809.74V809.737V809.734V809.731V809.727V809.724V809.721V809.718V809.714V809.711V809.708V809.705V809.701V809.698V809.695V809.692V809.689V809.685V809.682V809.679V809.676V809.672V809.669V809.666V809.663V809.66V809.656V809.653V809.65V809.647V809.643V809.64V809.637V809.634V809.63V809.627V809.624V809.621V809.618V809.614V809.611V809.608V809.605V809.601V809.598V809.595V809.592V809.589V809.585V809.582V809.579V809.576V809.572V809.569V809.566V809.563V809.56V809.556V809.553V809.55V809.547V809.544V809.54V809.537V809.534V809.531V809.527V809.524V809.521V809.518V809.515V809.511V809.508V809.505V809.502V809.499V809.495V809.492V809.489V809.486V809.482V809.479V809.476V809.473V809.47V809.466V809.463V809.46V809.457V809.454V809.45V809.447V809.444V809.441V809.438V809.434V809.431V809.428V809.425V809.422V809.418V809.415V809.412V809.409V809.405V809.402V809.399V809.396V809.393V809.389V809.386V809.383V809.38V809.377V809.373V809.37V809.367V809.364V809.361V809.357V809.354V809.351V809.348V809.345V809.341V809.338V809.335V809.332V809.329V809.326V809.322V809.319V809.316V809.313V809.31V809.306V809.303V809.3V809.297V809.294V809.29V809.287V809.284V809.281V809.278V809.274V809.271V809.268V809.265V809.262V809.259V809.255V809.252V809.249V809.246V809.243V809.239V809.236V809.233V809.23V809.227V809.223V809.22V809.217V809.214V809.211V809.208V809.204V809.201V809.198V809.195V809.192V809.189V809.185V809.182V809.179V809.176V809.173V809.169V809.166V809.163V809.16V809.157V809.154V809.15V809.147V809.144V809.141V809.138V809.135V809.131V809.128V809.125V809.122V809.119V809.116V809.112V809.109V809.106V809.103V809.1V809.097V809.093V809.09V809.087V809.084V809.081V809.078V809.074V809.071V809.068V809.065V809.062V809.059V809.055V809.052V809.049V809.046V809.043V809.04V809.036V809.033V809.03V809.027V809.024V809.021V809.018V809.014V809.011V809.008V809.005V809.002V808.999V808.995V808.992V808.989V808.986V808.983V808.98V808.977V808.973V808.97V808.967V808.964V808.961V808.958V808.955V808.951V808.948V808.945V808.942V808.939V808.936V808.933V808.929V808.926V808.923V808.92V808.917V808.914V808.911V808.907V808.904V808.901V808.898V808.895V808.892V808.889V808.886V808.882V808.879V808.876V808.873V808.87V808.867V808.864V808.86V808.857V808.854V808.851V808.848V808.845V808.842V808.839V808.835V808.832V808.829V808.826C359.041 800.658 362.445 795.331 368.207 793.946Z" stroke="black"/>
<path d="M1088.95 146.064C1093.95 190.403 1098.71 232.307 1085.66 245.148C1082.2 248.508 1077.57 249.783 1071.47 248.972C1038.79 244.661 1008.89 208.249 979.888 173.043C951.447 138.485 921.939 102.722 889.024 95.9546C833.556 84.5745 813.019 113.894 763.391 184.747C750.434 203.289 735.762 224.149 717.844 248.23C651.411 337.139 593.787 321.981 526.938 304.412C506.406 298.621 485.556 294.025 464.492 290.645C405.06 282.162 356.337 293.31 330.816 321.239C311.508 342.377 305.805 372.577 314.312 408.549C332.554 485.637 313.408 490.597 271.453 501.49C265.566 503.02 259.493 504.596 252.91 506.52C222.591 515.373 197.325 537.207 181.587 567.893C162.904 604.421 158.083 653.14 167.679 708.766C188.239 828.315 266.91 881.322 359.929 933.587C422.166 968.585 437.14 1002.47 440.71 1017.81M1103.2 0H1096.94C1076.08 32.0312 1083.04 92.1535 1089.04 146.018" stroke="black"/>
<path d="M1051.16 107.848C1062.75 173.765 1051.65 185.794 1046.39 187.903C1039.09 190.846 1027.85 182.132 1015.77 164.007C994.908 132.88 925.694 39.0574 850.662 39.0574C843.167 39.0468 835.702 40.013 828.456 41.9314C780.938 54.4241 743.874 117.722 711.191 173.579C689.101 211.312 668.24 246.936 647.471 261.005C621.765 278.388 575.846 268.305 522.649 256.647C470.75 245.29 411.944 232.38 360.972 243.645C317.627 253.24 290.113 279.941 279.149 323.004C269.877 359.022 274.049 399.351 276.831 426.051L277.271 430.269C279.798 455.927 257.012 465.29 228.154 477.157C198.693 489.256 165.314 502.977 147.026 537.998C107.621 612.653 103.819 698.455 136.363 773.411C155.764 818.144 158.059 850.43 143.526 875.044C124.982 906.612 77.8814 926.313 0.0678711 935.097M1041.36 0.0498047C1040.32 13.9563 1040.39 45.6166 1051.23 107.848" stroke="black"/>
<path d="M774.262 0.0498047C758.036 13.9563 721.25 48.2357 700.111 92.5509C696.842 99.3651 693.62 106.295 690.491 112.97C665.99 165.49 642.834 215.113 597.031 226.957C572.461 233.308 541.957 222.229 506.631 209.412C467.412 195.181 422.954 179.049 375.621 182.688C370.498 183.082 365.167 183.546 359.627 184.032C301.215 189.039 221.199 195.899 166.588 148.084C131.703 117.536 111.769 67.7511 107.249 0.0498047" stroke="black"/>
<path d="M342.174 129.704C359.025 129.055 376.456 128.406 392.52 128.824C437.441 129.983 473.648 145.859 505.45 159.858C521.351 166.811 536.348 173.417 550.859 177.496C556.769 179.277 562.982 179.827 569.113 179.114C575.245 178.4 581.165 176.438 586.509 173.347C613.652 157.911 629.599 116.632 638.176 84.717C649.093 44.7127 680.455 13.9563 696.82 0.0498047M164.642 0.0498047C165.569 19.7043 170.947 68.261 200.825 101.335C230.263 133.784 287.146 131.767 342.22 129.704" stroke="black"/>
<path d="M265.288 87.4519C287.401 92.2496 314.637 91.2994 343.496 90.2796C385.219 88.7962 432.644 87.1274 473.625 103.143L487.834 108.752C526.799 124.211 552.528 134.433 571.489 124.976C582.893 119.367 591.006 106.828 596.987 85.5746C609.48 41.7692 625.776 12.6583 633.749 0.0498047M213.32 0.0498047C214.177 21.9757 220.76 77.7637 265.311 87.4519" stroke="black"/>
<path d="M374.487 46.5901C383.596 46.5901 393.03 46.7523 403.113 46.9146C456.426 47.7721 487.765 63.1388 508.441 73.1514C525.061 81.2635 535.097 86.1771 544.67 78.1809C561.36 64.2745 567.015 19.2175 568.708 0.0498047M264.848 0.0498047C265.219 13.1219 268.464 22.6014 274.884 29.462C290.345 45.9643 323.816 46.2193 374.556 46.5901" stroke="black"/>
<path d="M311.997 8.7877C318.301 13.8404 328.663 12.6583 345.792 10.7346C356.895 9.5062 370.687 7.95331 387.932 7.58247C417.129 6.72975 446.293 10.1339 474.508 17.6878C482.513 19.7877 490.621 21.4742 498.8 22.7405C505.545 23.6213 510.761 22.1611 514.261 18.3368C518.688 13.5159 519.522 5.98323 519.291 0.0498047M306.549 0.0498047C307.394 3.4435 309.263 6.49459 311.904 8.7877" stroke="black"/>
<path d="M0.0678711 875.183C25.8666 875.461 84.418 871.521 96.3091 831.03C103.24 807.528 97.5608 782.682 90.3983 751.254C81.7524 713.289 70.9739 666.03 80.6397 604.17C97.8157 494.03 141.463 476.879 196.699 455.139L199.435 454.049C242.178 437.223 239.999 413.327 236.985 380.252C235.733 368.886 235.207 357.452 235.409 346.019C236.244 322.564 248.807 301.797 259.887 283.44C272.612 262.372 283.622 244.178 275.51 226.586C268.509 211.474 243.012 207.047 213.458 201.902C178.55 195.876 135.274 188.343 108.687 159.974C68.0765 116.354 56.3245 27.9786 53.5429 0.0498047" stroke="black"/>
<path d="M0.0673828 67.5186C34.8366 194.739 112.65 210.964 161.049 221L163.761 221.579C192.666 227.605 209.401 237.409 214.895 251.501C219.809 264.272 215.637 279.592 201.752 298.551C186.106 320.384 183.997 333.387 181.122 351.373C178.639 369.21 174.128 386.707 167.678 403.522C158.522 427.603 141.416 436.202 121.621 446.145C96.0073 458.985 66.9634 473.564 45.4992 527.428C20.3958 590.425 35.022 649.666 46.7509 697.249C53.0325 722.745 58.4565 744.833 57.8538 764.464C57.4598 780.688 51.9662 793.204 41.6282 801.548C28.8795 811.839 11.6571 813.577 0.0673828 813.368" stroke="black"/>
<path d="M80.9659 418.491C109.106 386.668 126.421 348.17 134.279 328.099C144.037 302.998 145.868 289.508 140.931 279.982C133.954 266.586 113.649 261.719 76.7009 252.679L67.7768 250.524C30.6896 241.577 10.6857 212.258 0.0695384 186.601M0 468.23C29.183 462.992 56.3493 446.327 80.8964 418.584" stroke="black"/>
<path d="M0.0673828 257.479C9.68687 269.161 25.0317 283.299 45.221 287.123C61.1685 290.183 76.7219 294.61 82.4936 306.407C87.8481 317.37 84.4871 333.895 71.9238 358.464C53.1948 394.829 18.4487 411.354 0.0673828 417.821" stroke="black"/>
<path d="M0.0673828 299.896C15.0181 304.902 38.244 315.262 36.7141 330.884C35.2538 346.042 13.9751 366.577 0.0673828 378.49" stroke="black"/>
</g>
</svg>
