<svg width="2562" height="1812" viewBox="0 0 2562 1812" fill="none" xmlns="http://www.w3.org/2000/svg">
<g opacity="0.15">
<path d="M527.05 1154.38L527.187 1154.19V1153.99C533.534 1145.04 543.45 1140.45 556.803 1140.45C561.628 1140.5 566.436 1141.01 571.159 1142L571.159 1142L571.166 1142C588.662 1145.47 600.147 1153.2 605.493 1164.73C609.462 1173.36 610.097 1184.21 607.305 1197.28C604.514 1210.34 598.309 1225.56 588.669 1242.87C585.95 1247.5 582.097 1251.36 577.472 1254.09C572.848 1256.82 567.605 1258.33 562.236 1258.48C558.055 1258.48 552.062 1257.48 545.822 1252.95C539.574 1248.43 533.017 1240.33 527.801 1226.01C522.342 1210.97 519.552 1196.75 519.434 1184.43C519.317 1172.11 521.875 1161.75 527.05 1154.38Z" stroke="#1A1A1A" stroke-width="1.5"/>
<path d="M1475.65 463.539L1475.65 463.538C1485.06 443.349 1496.23 427.264 1508.1 416.238C1519.98 405.208 1532.5 399.282 1544.61 399.282H1545.36V399.207C1560.67 399.505 1574.76 408.924 1587.3 427.708C1599.58 446.133 1602.93 462.977 1597.48 477.795C1593.39 488.882 1584.38 498.976 1570.43 507.997C1556.47 517.018 1537.63 524.934 1513.95 531.68C1510.81 532.553 1507.57 532.987 1504.31 532.97L1504.3 532.97L1504.29 532.97C1498.1 533.094 1491.96 531.684 1486.45 528.865C1480.93 526.047 1476.2 521.91 1472.67 516.822C1466.94 507.892 1462.67 491.323 1475.65 463.539Z" stroke="#1A1A1A" stroke-width="1.5"/>
<mask id="path-3-inside-1" fill="white">
<path d="M1532.87 1174.68C1522.61 1191.74 1500.64 1212.09 1453.99 1212.09C1438.21 1211.91 1422.5 1209.97 1407.14 1206.32C1315.91 1185.72 1252.69 1143.86 1238.19 1094.5C1227.8 1059.68 1241.24 1022.76 1278.12 984.691C1307.62 954.201 1337.71 938.75 1367.62 938.791C1423.25 938.791 1479.58 991.325 1534.97 1094.91C1541.21 1107.34 1544.3 1121.13 1543.96 1135.04C1543.63 1148.95 1539.87 1162.56 1533.03 1174.68"/>
</mask>
<path d="M1453.99 1212.09L1453.98 1213.59L1453.99 1213.59H1453.99V1212.09ZM1407.14 1206.32L1407.49 1204.86L1407.48 1204.86L1407.47 1204.86L1407.14 1206.32ZM1238.19 1094.5L1239.63 1094.07L1239.63 1094.07L1238.19 1094.5ZM1278.12 984.691L1279.2 985.735L1279.2 985.734L1278.12 984.691ZM1367.62 938.791L1367.62 940.291H1367.62V938.791ZM1534.97 1094.91L1536.31 1094.24L1536.3 1094.22L1536.29 1094.2L1534.97 1094.91ZM1531.58 1173.91C1521.58 1190.52 1500.1 1210.59 1453.99 1210.59V1213.59C1501.18 1213.59 1523.63 1192.95 1534.15 1175.45L1531.58 1173.91ZM1454.01 1210.59C1438.34 1210.41 1422.74 1208.49 1407.49 1204.86L1406.79 1207.78C1422.26 1211.46 1438.08 1213.4 1453.98 1213.59L1454.01 1210.59ZM1407.47 1204.86C1361.98 1194.59 1323.55 1179.03 1294.72 1159.94C1265.87 1140.85 1246.75 1118.3 1239.63 1094.07L1236.75 1094.92C1244.14 1120.06 1263.87 1143.12 1293.06 1162.45C1322.27 1181.78 1361.06 1197.46 1406.81 1207.79L1407.47 1204.86ZM1239.63 1094.07C1229.46 1059.99 1242.5 1023.61 1279.2 985.735L1277.04 983.648C1239.97 1021.91 1226.15 1059.37 1236.75 1094.93L1239.63 1094.07ZM1279.2 985.734C1308.54 955.411 1338.26 940.251 1367.62 940.291L1367.62 937.291C1337.15 937.249 1306.71 952.99 1277.04 983.648L1279.2 985.734ZM1367.62 940.291C1394.93 940.291 1422.58 953.181 1450.36 979.103C1478.16 1005.03 1505.99 1043.9 1533.65 1095.62L1536.29 1094.2C1508.56 1042.33 1480.54 1003.15 1452.41 976.909C1424.28 950.668 1395.94 937.291 1367.62 937.291V940.291ZM1533.63 1095.58C1539.76 1107.8 1542.8 1121.33 1542.46 1135L1545.46 1135.07C1545.81 1120.92 1542.66 1106.89 1536.31 1094.24L1533.63 1095.58ZM1542.46 1135C1542.13 1148.66 1538.44 1162.04 1531.73 1173.94L1534.34 1175.42C1541.3 1163.08 1545.12 1149.23 1545.46 1135.07L1542.46 1135Z" fill="#1A1A1A" mask="url(#path-3-inside-1)"/>
<mask id="path-5-inside-2" fill="white">
<path d="M1434.21 1120.12C1428.03 1130.47 1416.37 1135.91 1400.42 1135.91C1393.26 1135.83 1386.12 1134.94 1379.16 1133.27C1338.24 1124 1308.81 1104.84 1302.39 1083.25C1297.93 1068.33 1303.95 1052.18 1320.27 1035.33C1333.42 1021.77 1346.64 1014.73 1359.62 1014.73C1384.35 1014.73 1409.69 1038.79 1435.08 1086.21C1437.72 1091.48 1439.02 1097.31 1438.87 1103.2C1438.72 1109.08 1437.12 1114.84 1434.21 1119.96"/>
</mask>
<path d="M1400.42 1135.91L1400.4 1137.41L1400.41 1137.41H1400.42V1135.91ZM1379.16 1133.27L1379.51 1131.81L1379.5 1131.81L1379.49 1131.81L1379.16 1133.27ZM1302.39 1083.25L1303.82 1082.82L1303.82 1082.82L1302.39 1083.25ZM1320.27 1035.33L1319.19 1034.28L1319.19 1034.28L1320.27 1035.33ZM1435.08 1086.21L1436.42 1085.54L1436.41 1085.52L1436.4 1085.51L1435.08 1086.21ZM1432.92 1119.35C1427.1 1129.1 1416.03 1134.41 1400.42 1134.41V1137.41C1416.7 1137.41 1428.96 1131.83 1435.5 1120.89L1432.92 1119.35ZM1400.44 1134.41C1393.38 1134.33 1386.36 1133.46 1379.51 1131.81L1378.81 1134.73C1385.88 1136.43 1393.13 1137.32 1400.4 1137.41L1400.44 1134.41ZM1379.49 1131.81C1359.16 1127.2 1341.75 1120.15 1328.66 1111.62C1315.54 1103.08 1306.9 1093.14 1303.82 1082.82L1300.95 1083.68C1304.3 1094.94 1313.59 1105.38 1327.02 1114.13C1340.47 1122.9 1358.23 1130.07 1378.82 1134.73L1379.49 1131.81ZM1303.82 1082.82C1299.6 1068.66 1305.2 1053.05 1321.35 1036.37L1319.19 1034.28C1302.7 1051.31 1296.27 1068.01 1300.95 1083.68L1303.82 1082.82ZM1321.35 1036.37C1334.35 1022.96 1347.21 1016.23 1359.62 1016.23V1013.23C1346.07 1013.23 1332.48 1020.58 1319.19 1034.28L1321.35 1036.37ZM1359.62 1016.23C1371.47 1016.23 1383.63 1021.99 1396.07 1033.77C1408.51 1045.56 1421.1 1063.28 1433.75 1086.92L1436.4 1085.51C1423.67 1061.72 1410.9 1043.7 1398.13 1031.6C1385.37 1019.5 1372.5 1013.23 1359.62 1013.23V1016.23ZM1433.73 1086.89C1436.27 1091.93 1437.51 1097.52 1437.37 1103.16L1440.37 1103.23C1440.53 1097.1 1439.17 1091.02 1436.42 1085.54L1433.73 1086.89ZM1437.37 1103.16C1437.23 1108.8 1435.69 1114.31 1432.91 1119.22L1435.51 1120.7C1438.54 1115.37 1440.21 1109.37 1440.37 1103.23L1437.37 1103.16Z" fill="#1A1A1A" mask="url(#path-5-inside-2)"/>
<path d="M577.821 1391.59L577.814 1391.58L577.806 1391.58C553.515 1385.49 526.505 1360.46 505.541 1325.35C484.599 1290.28 469.791 1245.33 469.791 1199.64C469.791 1170.58 472.271 1142.83 483.615 1122.35C489.276 1112.14 497.143 1103.73 508.025 1097.88C518.911 1092.02 532.857 1088.69 550.707 1088.69C570.417 1089.13 590.015 1091.79 609.129 1096.62L609.136 1096.62L609.143 1096.62C662.615 1109.06 682.466 1135.43 689.747 1155.28C701.049 1186.08 690.284 1221.29 674.568 1242.45C665.919 1253.41 655.884 1263.19 644.714 1271.56L644.703 1271.57L644.693 1271.58C635.953 1278.63 628.043 1285.02 622.206 1292.89C616.346 1300.78 612.587 1310.14 612.066 1323.1L612.066 1323.11L612.066 1323.12C611.889 1333.73 612.511 1344.34 613.926 1354.87C614.793 1362.5 615.556 1369.27 615.311 1375.02C615.068 1380.76 613.825 1385.37 610.787 1388.79C608.833 1390.73 606.481 1392.22 603.893 1393.16C601.298 1394.1 598.529 1394.47 595.778 1394.24L595.756 1394.24L595.735 1394.24C589.68 1394.07 583.666 1393.18 577.821 1391.59Z" stroke="#1A1A1A" stroke-width="1.5"/>
<path d="M1363.82 683.183L1363.82 683.184C1356.12 691.328 1348.15 695.31 1340.09 695.31C1332.06 695.31 1324.55 691.146 1317.77 682.774C1308.02 670.699 1308.02 652.467 1318.15 631.158C1324.08 618.737 1333.43 605.863 1343.68 596.103C1353.9 586.373 1364.86 579.875 1374.12 579.794L1374.2 579.834H1374.38C1377.49 579.834 1381.69 580.646 1385.26 583.989C1388.83 587.329 1391.87 593.299 1392.46 603.845C1393.14 616.615 1390.28 631.923 1385.08 646.326C1379.89 660.73 1372.38 674.154 1363.82 683.183Z" stroke="#1A1A1A" stroke-width="1.5"/>
<mask id="path-9-inside-3" fill="white">
<path d="M722.593 1092.96C736.315 1159.59 731.082 1202.28 726.508 1239.94C720.904 1285.84 716.041 1325.47 750.573 1391.32C775.298 1438.29 806.204 1474.09 833.607 1505.7C875.887 1554.52 912.397 1596.67 914.251 1663.26C915.57 1710.8 908.894 1744.59 895.461 1758.44C893.818 1760.31 891.806 1761.82 889.551 1762.88C887.296 1763.93 884.846 1764.51 882.356 1764.57C870.818 1764.57 857.632 1752.21 846.011 1730.5C840.077 1719.42 835.297 1709.53 831.135 1700.79C810.242 1657.45 800.559 1637.5 715.258 1609.03C614.711 1575.49 587.019 1554.6 583.64 1471.29C582.321 1438.33 557.596 1419.62 526.32 1395.85C476.87 1358.35 409.371 1306.97 388.52 1165.11C381.02 1113.9 391.116 1071.79 418.602 1040.02C448.107 1005.86 496.897 986.454 552.734 986.454C626.208 986.454 708.17 1023.08 722.593 1093.09"/>
</mask>
<path d="M415.679 1038.43L415.844 1038.56L416.744 1037.36L416.579 1037.23L415.679 1038.43ZM726.508 1239.94L727.997 1240.12L727.997 1240.12L726.508 1239.94ZM750.573 1391.32L749.245 1392.01L749.246 1392.01L750.573 1391.32ZM833.607 1505.7L834.741 1504.71L834.741 1504.71L833.607 1505.7ZM914.251 1663.26L915.751 1663.21V1663.21L914.251 1663.26ZM895.461 1758.44L894.384 1757.39L894.358 1757.42L894.333 1757.45L895.461 1758.44ZM882.356 1764.57V1766.07H882.376L882.395 1766.07L882.356 1764.57ZM846.011 1730.5L847.334 1729.79L847.333 1729.79L846.011 1730.5ZM831.135 1700.79L832.489 1700.15L832.486 1700.14L831.135 1700.79ZM715.258 1609.03L715.733 1607.61L715.733 1607.61L715.258 1609.03ZM583.64 1471.29L582.141 1471.35L582.141 1471.35L583.64 1471.29ZM526.32 1395.85L527.227 1394.65L527.226 1394.65L526.32 1395.85ZM388.52 1165.11L387.036 1165.33L387.036 1165.33L388.52 1165.11ZM418.602 1040.02L419.736 1041L419.737 1041L418.602 1040.02ZM721.124 1093.27C734.797 1159.65 729.587 1202.15 725.019 1239.75L727.997 1240.12C732.577 1202.41 737.834 1159.53 724.062 1092.66L721.124 1093.27ZM725.019 1239.75C722.219 1262.69 719.577 1284.23 721.997 1308.3C724.419 1332.39 731.903 1358.95 749.245 1392.01L751.902 1390.62C734.711 1357.84 727.36 1331.66 724.982 1308C722.601 1284.31 725.192 1263.09 727.997 1240.12L725.019 1239.75ZM749.246 1392.01C774.061 1439.16 805.075 1475.08 832.474 1506.68L834.741 1504.71C807.333 1473.11 776.535 1437.42 751.901 1390.62L749.246 1392.01ZM832.473 1506.68C874.797 1555.55 910.915 1597.32 912.752 1663.3L915.751 1663.21C913.88 1596.02 876.977 1553.49 834.741 1504.71L832.473 1506.68ZM912.752 1663.3C913.409 1687 912.071 1707.22 908.917 1723.19C905.753 1739.22 900.799 1750.78 894.384 1757.39L896.537 1759.48C903.556 1752.25 908.657 1739.99 911.86 1723.78C915.071 1707.51 916.412 1687.06 915.751 1663.21L912.752 1663.3ZM894.333 1757.45C892.827 1759.16 890.982 1760.55 888.914 1761.52L890.187 1764.23C892.63 1763.09 894.809 1761.45 896.588 1759.42L894.333 1757.45ZM888.914 1761.52C886.847 1762.49 884.601 1763.02 882.318 1763.08L882.395 1766.07C885.092 1766 887.745 1765.38 890.187 1764.23L888.914 1761.52ZM882.356 1763.07C877.125 1763.07 871.294 1760.26 865.241 1754.59C859.206 1748.93 853.095 1740.56 847.334 1729.79L844.688 1731.21C850.547 1742.16 856.84 1750.82 863.189 1756.77C869.518 1762.71 876.05 1766.07 882.356 1766.07V1763.07ZM847.333 1729.79C841.416 1718.74 836.648 1708.88 832.489 1700.15L829.781 1701.44C833.946 1710.18 838.738 1720.09 844.689 1731.21L847.333 1729.79ZM832.486 1700.14C822.057 1678.5 814.299 1662.41 798.347 1648.21C782.416 1634.04 758.431 1621.86 715.733 1607.61L714.783 1610.46C757.386 1624.68 780.892 1636.7 796.353 1650.46C811.79 1664.19 819.32 1679.73 829.784 1701.44L832.486 1700.14ZM715.733 1607.61C665.417 1590.83 633.697 1577.31 614.069 1557.76C594.554 1538.33 586.822 1512.75 585.139 1471.23L582.141 1471.35C583.836 1513.15 591.641 1539.66 611.952 1559.89C632.152 1580 664.551 1593.7 714.783 1610.46L715.733 1607.61ZM585.139 1471.23C583.787 1437.43 558.344 1418.31 527.227 1394.65L525.412 1397.04C556.848 1420.94 580.856 1439.22 582.141 1471.35L585.139 1471.23ZM527.226 1394.65C502.502 1375.91 473.427 1353.8 447.908 1318.73C422.402 1283.68 400.398 1235.61 390.004 1164.89L387.036 1165.33C397.494 1236.48 419.665 1285.02 445.483 1320.5C471.288 1355.96 500.688 1378.3 525.413 1397.04L527.226 1394.65ZM390.004 1164.89C382.551 1114 392.601 1072.36 419.736 1041L417.468 1039.04C389.631 1071.21 379.489 1113.79 387.036 1165.33L390.004 1164.89ZM419.737 1041C448.89 1007.25 497.218 987.954 552.734 987.954V984.954C496.576 984.954 447.324 1004.47 417.467 1039.04L419.737 1041ZM552.734 987.954C589.243 987.954 627.841 997.059 659.066 1014.82C690.284 1032.58 714.023 1058.93 721.124 1093.39L724.062 1092.79C716.74 1057.25 692.286 1030.27 660.549 1012.22C628.819 994.164 589.698 984.954 552.734 984.954V987.954Z" fill="#1A1A1A" mask="url(#path-9-inside-3)"/>
<path d="M1015.38 1810.52C1020.32 1770.39 1028.81 1663.59 994.28 1574.76C975.696 1527 945.944 1488.44 914.419 1447.6C872.758 1393.63 829.655 1337.8 812.059 1256.91C804.465 1220.44 798.962 1183.56 795.576 1146.45C786.963 1065.81 779.546 996.182 702.24 902.857C652.213 842.535 635.73 788.065 655.716 748.963C673.971 713.405 721.278 695.399 785.603 699.89C913.966 708.625 1018.88 819.956 1106.32 1040.19C1171.23 1203.6 1244.5 1226.55 1355.39 1261.28C1387.73 1271.42 1424.37 1282.87 1464.42 1299.35C1592.46 1351.93 1596.29 1458.44 1599.5 1552.42C1600.61 1583.61 1601.64 1613.12 1607.04 1639.24C1622.7 1715.26 1662.8 1780.19 1684.02 1810.56" stroke="#1A1A1A" stroke-width="1.5"/>
<path d="M1506 1586.05C1497.06 1498.94 1487.87 1408.87 1380.36 1346.37C1330.33 1317.28 1286.11 1301.04 1247.09 1286.99C1181.16 1262.97 1128.9 1243.98 1080.9 1176.77C1067.63 1158.19 1055.39 1140.15 1043.56 1122.68C994.36 1050.24 957.026 994.945 909.554 994.945C900.889 995.021 892.317 996.74 884.294 1000.01C873.662 1004.13 866.245 1013.9 862.206 1028.86C840.778 1109.16 921.051 1322.39 976.435 1391.44C979.896 1395.77 983.564 1400.26 987.355 1404.92C1051.19 1483.66 1157.01 1614.15 1127.09 1810.6M1572.43 1810.6C1543.4 1761.21 1523.63 1706.93 1514.08 1650.45C1510.45 1629.23 1508.22 1607.31 1506.04 1586.09" stroke="#1A1A1A" stroke-width="1.5"/>
<path d="M1220.96 1810.72C1238.72 1664 1183.05 1523.91 1121.81 1453.86C1090 1417.61 1078.54 1387.44 1090 1370.96C1095.69 1362.72 1106.65 1358.6 1121.93 1358.6C1138.95 1358.6 1161.7 1363.71 1188.4 1373.89L1193.43 1375.78C1295.05 1414.35 1375.08 1444.8 1393.41 1591.73C1407.38 1703.43 1439.24 1780.07 1453.74 1810.56" stroke="#1A1A1A" stroke-width="1.5"/>
<mask id="path-14-inside-4" fill="white">
<path d="M1064.62 1298.99C1063.01 1302.8 1060.27 1306.02 1056.77 1308.23C1053.27 1310.44 1049.18 1311.53 1045.05 1311.35C1038.32 1311.1 1031.72 1309.38 1025.72 1306.32C983.317 1286.38 918.58 1136.27 925.173 1090.37C926.574 1080.77 930.448 1080.2 931.725 1079.99C932.695 1079.86 933.672 1079.79 934.651 1079.78C956.45 1079.78 977.96 1117.65 998.771 1154.28C1011.54 1176.69 1024.73 1199.93 1038.91 1216.41C1067.34 1249.62 1072.2 1282.34 1064.62 1298.82"/>
</mask>
<path d="M1045.05 1311.35L1045.11 1309.85L1045.1 1309.85L1045.05 1311.35ZM1025.72 1306.32L1026.4 1304.98L1026.38 1304.97L1026.36 1304.96L1025.72 1306.32ZM925.173 1090.37L923.689 1090.16L923.688 1090.16L925.173 1090.37ZM931.725 1079.99L931.526 1078.5L931.506 1078.51L931.486 1078.51L931.725 1079.99ZM934.651 1079.78V1078.28L934.64 1078.28L934.651 1079.78ZM998.771 1154.28L997.466 1155.02L997.467 1155.02L998.771 1154.28ZM1038.91 1216.41L1040.05 1215.44L1040.04 1215.44L1038.91 1216.41ZM1063.24 1298.4C1061.75 1301.93 1059.21 1304.92 1055.97 1306.97L1057.57 1309.5C1061.33 1307.13 1064.27 1303.66 1066 1299.57L1063.24 1298.4ZM1055.97 1306.97C1052.73 1309.01 1048.94 1310.02 1045.11 1309.85L1044.98 1312.84C1049.42 1313.04 1053.81 1311.87 1057.57 1309.5L1055.97 1306.97ZM1045.1 1309.85C1038.59 1309.61 1032.21 1307.95 1026.4 1304.98L1025.04 1307.66C1031.23 1310.82 1038.04 1312.59 1044.99 1312.84L1045.1 1309.85ZM1026.36 1304.96C1016.16 1300.16 1004.35 1287.36 992.436 1269.78C980.567 1252.27 968.746 1230.29 958.44 1207.46C948.136 1184.64 939.365 1161.02 933.584 1140.27C927.785 1119.45 925.057 1101.73 926.658 1090.59L923.688 1090.16C921.992 1101.97 924.884 1120.22 930.694 1141.08C936.523 1162 945.35 1185.76 955.706 1208.7C966.061 1231.63 977.962 1253.78 989.952 1271.46C1001.89 1289.07 1014.08 1302.5 1025.08 1307.68L1026.36 1304.96ZM926.657 1090.59C927.334 1085.96 928.573 1083.75 929.582 1082.69C930.542 1081.68 931.427 1081.56 931.964 1081.47L931.486 1078.51C930.746 1078.63 929.055 1078.89 927.409 1080.63C925.811 1082.3 924.414 1085.19 923.689 1090.16L926.657 1090.59ZM931.925 1081.48C932.832 1081.36 933.746 1081.29 934.662 1081.28L934.64 1078.28C933.598 1078.29 932.558 1078.37 931.526 1078.5L931.925 1081.48ZM934.651 1081.28C939.654 1081.28 944.772 1083.46 950.03 1087.47C955.287 1091.47 960.576 1097.23 965.889 1104.21C976.518 1118.15 987.046 1136.68 997.466 1155.02L1000.07 1153.54C989.685 1135.25 979.052 1116.53 968.275 1102.39C962.883 1095.31 957.407 1089.32 951.849 1085.08C946.293 1080.84 940.547 1078.28 934.651 1078.28V1081.28ZM997.467 1155.02C1010.22 1177.39 1023.48 1200.78 1037.77 1217.39L1040.04 1215.44C1025.98 1199.09 1012.87 1175.99 1000.07 1153.54L997.467 1155.02ZM1037.77 1217.39C1051.86 1233.84 1060.06 1250.13 1063.82 1264.28C1067.59 1278.46 1066.86 1290.37 1063.26 1298.19L1065.98 1299.45C1069.97 1290.79 1070.6 1278.1 1066.72 1263.51C1062.83 1248.87 1054.39 1232.19 1040.05 1215.44L1037.77 1217.39Z" fill="#1A1A1A" mask="url(#path-14-inside-4)"/>
<path d="M1646.13 793.166L1646.13 793.166C1631.3 800.746 1615.09 813.405 1599.49 825.63C1587.65 834.886 1576.19 843.853 1565.62 850.508C1555.03 857.179 1545.47 861.44 1537.44 861.44H1537.43L1537.42 861.44C1534.25 861.502 1531.12 860.669 1528.39 859.035C1527.01 858.198 1526.09 856.933 1525.7 855.195C1525.3 853.432 1525.43 851.155 1526.21 848.341L1526.21 848.332L1526.22 848.323C1528.44 839.46 1535.69 827.288 1546 813.931C1556.29 800.599 1569.57 786.169 1583.74 772.8C1597.92 759.43 1612.98 747.138 1626.84 738.076C1640.73 728.991 1653.31 723.23 1662.54 722.766C1670 722.42 1676.03 723.546 1680.46 725.937C1684.87 728.317 1687.72 731.964 1688.85 736.774L1688.85 736.779C1690.61 744.115 1688.18 754.01 1681.13 764.221C1674.09 774.41 1662.5 784.829 1646.13 793.166Z" stroke="#1A1A1A" stroke-width="1.5"/>
<path d="M870.102 912.507L870.1 912.508C862.763 914.272 852.866 911.833 842.649 904.776C832.453 897.733 822.023 886.144 813.665 869.799C806.195 855.067 793.658 839.016 781.58 823.554L781.239 823.117L781.238 823.117C771.98 811.283 763.013 799.819 756.357 789.254C749.685 778.664 745.423 769.107 745.423 761.074H745.423L745.423 761.061C745.367 757.901 746.186 754.787 747.789 752.064C748.626 750.684 749.891 749.772 751.63 749.372C753.395 748.966 755.672 749.085 758.487 749.849L758.487 749.849L758.5 749.852C767.365 752.088 779.541 759.345 792.903 769.659C806.239 779.953 820.676 793.228 834.049 807.401C847.422 821.576 859.717 836.633 868.779 850.488C877.863 864.377 883.619 876.942 884.072 886.162C884.439 893.618 883.323 899.65 880.936 904.085C878.562 908.497 874.913 911.364 870.102 912.507Z" stroke="#1A1A1A" stroke-width="1.5"/>
<path d="M655.559 1412.28L655.557 1412.26C663.449 1410.41 673.994 1412.92 684.793 1420.2C695.61 1427.5 706.605 1439.56 715.291 1456.6C722.469 1470.79 734.657 1486.42 746.457 1501.54C746.781 1501.96 747.105 1502.37 747.428 1502.79L747.428 1502.79L747.55 1502.94C756.93 1514.93 766.012 1526.53 772.762 1537.33C779.554 1548.19 783.903 1558.11 783.903 1566.68L783.903 1566.69C783.958 1570.41 782.968 1574.07 781.044 1577.26L781.041 1577.26C780.206 1578.66 778.857 1580.08 776.675 1580.89C774.486 1581.7 771.382 1581.94 766.993 1580.83L766.993 1580.83C757.964 1578.56 745.567 1571.17 731.965 1560.65C718.389 1550.15 703.693 1536.61 690.081 1522.15C676.467 1507.69 663.952 1492.32 654.728 1478.18C645.487 1464.01 639.626 1451.19 639.156 1441.78V1441.77V1441.77V1441.76V1441.76V1441.75V1441.74V1441.74V1441.73V1441.73V1441.72V1441.72V1441.71V1441.7V1441.7V1441.69V1441.69V1441.68V1441.67V1441.67V1441.66V1441.66V1441.65V1441.65V1441.64V1441.63V1441.63V1441.62V1441.62V1441.61V1441.61V1441.6V1441.59V1441.59V1441.58V1441.58V1441.57V1441.56V1441.56V1441.55V1441.55V1441.54V1441.54V1441.53V1441.52V1441.52V1441.51V1441.51V1441.5V1441.5V1441.49V1441.48V1441.48V1441.47V1441.47V1441.46V1441.45V1441.45V1441.44V1441.44V1441.43V1441.43V1441.42V1441.41V1441.41V1441.4V1441.4V1441.39V1441.39V1441.38V1441.37V1441.37V1441.36V1441.36V1441.35V1441.34V1441.34V1441.33V1441.33V1441.32V1441.32V1441.31V1441.3V1441.3V1441.29V1441.29V1441.28V1441.28V1441.27V1441.26V1441.26V1441.25V1441.25V1441.24V1441.23V1441.23V1441.22V1441.22V1441.21V1441.21V1441.2V1441.19V1441.19V1441.18V1441.18V1441.17V1441.17V1441.16V1441.15V1441.15V1441.14V1441.14V1441.13V1441.12V1441.12V1441.11V1441.11V1441.1V1441.1V1441.09V1441.08V1441.08V1441.07V1441.07V1441.06V1441.06V1441.05V1441.04V1441.04V1441.03V1441.03V1441.02V1441.02V1441.01V1441V1441V1440.99V1440.99V1440.98V1440.97V1440.97V1440.96V1440.96V1440.95V1440.95V1440.94V1440.93V1440.93V1440.92V1440.92V1440.91V1440.91V1440.9V1440.89V1440.89V1440.88V1440.88V1440.87V1440.86V1440.86V1440.85V1440.85V1440.84V1440.84V1440.83V1440.82V1440.82V1440.81V1440.81V1440.8V1440.8V1440.79V1440.78V1440.78V1440.77V1440.77V1440.76V1440.76V1440.75V1440.74V1440.74V1440.73V1440.73V1440.72V1440.71V1440.71V1440.7V1440.7V1440.69V1440.69V1440.68V1440.67V1440.67V1440.66V1440.66V1440.65V1440.65V1440.64V1440.63V1440.63V1440.62V1440.62V1440.61V1440.61V1440.6V1440.59V1440.59V1440.58V1440.58V1440.57V1440.57V1440.56V1440.55V1440.55V1440.54V1440.54V1440.53V1440.53V1440.52V1440.51V1440.51V1440.5V1440.5V1440.49V1440.48V1440.48V1440.47V1440.47V1440.46V1440.46V1440.45V1440.44V1440.44V1440.43V1440.43V1440.42V1440.42V1440.41V1440.4V1440.4V1440.39V1440.39V1440.38V1440.38V1440.37V1440.36V1440.36V1440.35V1440.35V1440.34V1440.34V1440.33V1440.32V1440.32V1440.31V1440.31V1440.3V1440.3V1440.29V1440.28V1440.28V1440.27V1440.27V1440.26V1440.26V1440.25V1440.24V1440.24V1440.23V1440.23V1440.22V1440.22V1440.21V1440.2V1440.2V1440.19V1440.19V1440.18V1440.18V1440.17V1440.16V1440.16V1440.15V1440.15V1440.14V1440.14V1440.13V1440.12V1440.12V1440.11V1440.11V1440.1V1440.1V1440.09V1440.08V1440.08V1440.07V1440.07V1440.06V1440.06V1440.05V1440.04V1440.04V1440.03V1440.03V1440.02V1440.02V1440.01V1440V1440V1439.99V1439.99V1439.98V1439.98V1439.97V1439.96V1439.96V1439.95V1439.95V1439.94V1439.94V1439.93V1439.92V1439.92V1439.91V1439.91V1439.9V1439.9V1439.89V1439.88V1439.88V1439.87V1439.87V1439.86V1439.86V1439.85V1439.84V1439.84V1439.83V1439.83V1439.82V1439.82V1439.81V1439.8V1439.8V1439.79V1439.79V1439.78V1439.78V1439.77V1439.76V1439.76V1439.75V1439.75V1439.74V1439.74V1439.73V1439.72V1439.72V1439.71V1439.71V1439.7V1439.7V1439.69V1439.69V1439.68V1439.67V1439.67V1439.66V1439.66V1439.65V1439.65V1439.64V1439.63V1439.63V1439.62V1439.62V1439.61V1439.61V1439.6V1439.59V1439.59V1439.58V1439.58V1439.57V1439.57V1439.56V1439.55V1439.55V1439.54V1439.54V1439.53V1439.53V1439.52V1439.52V1439.51V1439.5V1439.5V1439.49V1439.49V1439.48V1439.48V1439.47V1439.46V1439.46V1439.45V1439.45V1439.44V1439.44V1439.43V1439.43V1439.42V1439.41V1439.41V1439.4V1439.4V1439.39V1439.39V1439.38V1439.37V1439.37V1439.36V1439.36V1439.35V1439.35V1439.34V1439.34V1439.33V1439.32V1439.32V1439.31V1439.31V1439.3V1439.3V1439.29V1439.28V1439.28V1439.27V1439.27V1439.26V1439.26V1439.25V1439.25V1439.24V1439.23V1439.23V1439.22V1439.22V1439.21V1439.21V1439.2V1439.19V1439.19V1439.18V1439.18V1439.17V1439.17V1439.16V1439.16V1439.15V1439.14V1439.14V1439.13V1439.13V1439.12V1439.12V1439.11V1439.11V1439.1V1439.09V1439.09V1439.08V1439.08V1439.07V1439.07V1439.06V1439.05V1439.05V1439.04V1439.04V1439.03V1439.03V1439.02V1439.02V1439.01V1439V1439V1438.99V1438.99V1438.98V1438.98V1438.97V1438.97V1438.96V1438.95V1438.95V1438.94V1438.94V1438.93V1438.93V1438.92V1438.92V1438.91V1438.9V1438.9V1438.89V1438.89V1438.88V1438.88V1438.87C639.156 1424.32 645.228 1414.77 655.559 1412.28Z" stroke="#1A1A1A" stroke-width="1.5"/>
<path d="M1936.91 260.662C1945.81 339.484 1954.26 413.979 1931.06 436.805C1924.92 442.78 1916.67 445.046 1905.84 443.604C1847.73 435.94 1794.57 371.21 1743.02 308.622C1692.46 247.189 1640 183.612 1581.49 171.581C1482.88 151.35 1446.37 203.472 1358.14 329.43C1335.11 362.392 1309.02 399.475 1277.17 442.285C1159.07 600.34 1056.62 573.394 937.779 542.162C901.278 531.867 864.211 523.695 826.764 517.687C721.107 502.607 634.488 522.425 589.118 572.075C554.792 609.652 544.655 663.34 559.778 727.287C592.209 864.329 558.171 873.146 483.584 892.512C473.118 895.231 462.321 898.033 450.618 901.453C396.718 917.192 351.801 956.006 323.821 1010.56C290.607 1075.49 282.036 1162.1 299.096 1260.99C335.648 1473.52 475.508 1567.75 640.875 1660.66C751.519 1722.88 778.139 1783.12 784.485 1810.39M1962.25 1H1951.12C1914.04 57.9427 1926.4 164.824 1937.07 260.58" stroke="#1A1A1A" stroke-width="1.5"/>
<path d="M1783.7 1810.6C1735.32 1748.14 1708.02 1671.93 1705.74 1592.96C1705.47 1554.87 1707.31 1516.8 1711.26 1478.91C1719.5 1386.29 1726.96 1298.77 1661.81 1197.21C1615.2 1124.73 1600.86 1061.23 1620.27 1013.73C1635.6 976.274 1671.95 950.028 1725.44 937.832C1801.34 920.568 1868.06 967.621 1932.55 1013.15C1969.3 1039.11 2007.34 1065.93 2046.03 1079.69C2108.83 1101.98 2150.41 1086.45 2194.38 1069.97C2225.7 1058.27 2258.05 1046.15 2301.11 1046.15C2367.04 1046.15 2408.83 1108.29 2442.5 1158.19C2461.82 1186.78 2478.47 1211.5 2496.77 1221.8C2516.46 1233.33 2538.09 1241.16 2560.6 1244.92" stroke="#1A1A1A" stroke-width="1.5"/>
<path d="M2560.63 1053.09C2531.5 1046.82 2476.61 1024.94 2419.21 949.089C2359.45 870.144 2269.46 893.629 2190.05 914.354C2149.83 924.861 2111.75 934.75 2078.79 932.525C2027.61 929.064 1970.04 900.963 1914.37 873.728C1859.85 847.111 1803.52 819.587 1751.22 813.736C1693.53 807.226 1652.32 843.073 1615.81 874.676C1583.75 902.488 1553.47 928.734 1516.17 924.944C1490.83 922.348 1482.47 904.713 1479.91 890.415C1470.6 839.076 1521.7 736.522 1641.2 677.807C1744.22 627.251 1868.67 638.747 1968.64 648.018C2028.64 653.58 2080.43 658.36 2119.38 650.325C2172.41 639.406 2206.9 601.211 2243.45 560.791C2280 520.37 2317.63 478.673 2376.14 464.787C2436.55 450.401 2499.3 448.746 2560.38 459.925" stroke="#1A1A1A" stroke-width="1.5"/>
<path d="M2560.42 341.097C2517.32 337.553 2418.17 333.804 2350.88 365.365C2310.66 384.236 2277.28 417.817 2247.86 447.442C2210.45 484.978 2178.14 517.487 2139.03 517.487C2114.35 517.487 2096.67 510.895 2084.88 497.339C2062.47 471.587 2059.42 421.319 2074.01 318.311C2082.37 259.102 2076.56 202.737 2071.41 153.046C2065.31 93.0951 2059.79 40.1491 2081.79 1.0885" stroke="#1A1A1A" stroke-width="1.5"/>
<path d="M2560.31 190.829C2520.79 193.177 2436.6 202.077 2382.04 236.152C2353.4 253.911 2323.98 284.69 2295.51 314.438C2249.72 362.44 2206.37 407.722 2167.76 400.017C2153.96 397.256 2143.7 379.539 2138.01 348.802C2122.27 263.635 2145.55 73.606 2215.11 1.0885" stroke="#1A1A1A" stroke-width="1.5"/>
<path d="M2197.01 209.57C2197.34 230.955 2203.15 245.128 2213.74 250.773C2243.62 266.142 2251.78 257.201 2278.81 227.493C2303.78 199.546 2330.74 173.451 2359.49 149.414C2417.25 101.481 2486.55 69.517 2560.51 56.7066M2286.89 1C2234.51 49.4961 2196.23 153.452 2197.01 209.488" stroke="#1A1A1A" stroke-width="1.5"/>
<mask id="path-25-inside-5" fill="white">
<path d="M2031.89 559.842C2032.71 561.861 2035.23 568.083 2025.5 577.642C2017.01 585.882 1990.89 586.954 1971.93 586.954C1952.23 586.954 1929.12 585.759 1902.33 584.399C1869.78 582.71 1832.94 580.814 1794.86 580.814C1681.62 580.814 1601.68 598.285 1543.25 635.821C1446.57 697.872 1431.16 778.26 1420.94 831.412C1413.77 868.701 1409.73 884.976 1390.2 882.462C1383.18 881.52 1376.1 881.039 1369.02 881.02C1291.09 881.02 1246.26 940.023 1213.54 983.08C1197.84 1003.68 1184.28 1021.65 1174.1 1021.65C1173.75 1021.69 1173.39 1021.69 1173.03 1021.65C1158.82 1019.83 1151.69 997.337 1141.84 966.27C1128.98 925.767 1111.39 870.266 1066.1 815.507C1030.08 771.956 987.515 737.221 949.933 706.937C902.544 668.495 865.086 638.128 865.086 608.791C864.911 607.178 865.089 605.547 865.608 604.01C866.128 602.473 866.976 601.067 868.094 599.891C871.117 597.916 874.717 597.016 878.314 597.337C891.459 597.337 913.052 603.971 938.065 611.717C980.674 624.819 1033.67 641.177 1089.79 641.177C1141.67 641.177 1185.4 627.25 1223.47 598.655C1278.65 557.164 1328.63 498.449 1376.93 441.713C1443.4 363.015 1506.78 288.684 1565.13 288.684C1612.06 288.684 1647.54 340.559 1685.04 395.442C1726.25 455.433 1768.53 517.485 1831.04 517.485C1956.81 517.485 2023.11 539.447 2031.48 559.883"/>
</mask>
<path d="M2025.5 577.642L2026.55 578.718L2026.55 578.712L2025.5 577.642ZM1902.33 584.399L1902.25 585.897L1902.26 585.897L1902.33 584.399ZM1543.25 635.821L1544.06 637.083L1544.06 637.083L1543.25 635.821ZM1420.94 831.412L1422.41 831.695V831.695L1420.94 831.412ZM1390.2 882.462L1390 883.949L1390.01 883.95L1390.2 882.462ZM1369.02 881.02L1369.02 879.52H1369.02V881.02ZM1213.54 983.08L1214.73 983.99L1214.74 983.988L1213.54 983.08ZM1174.1 1021.65V1020.15H1174.02L1173.93 1020.16L1174.1 1021.65ZM1173.03 1021.65L1172.84 1023.13L1172.85 1023.14L1172.86 1023.14L1173.03 1021.65ZM1141.84 966.27L1143.27 965.816L1143.27 965.816L1141.84 966.27ZM1066.1 815.507L1064.94 816.463L1064.94 816.463L1066.1 815.507ZM949.933 706.937L948.988 708.102L948.992 708.105L949.933 706.937ZM865.086 608.791H866.586V608.71L866.577 608.629L865.086 608.791ZM868.094 599.891L867.274 598.636L867.127 598.731L867.007 598.858L868.094 599.891ZM878.314 597.337L878.181 598.831L878.247 598.837H878.314V597.337ZM938.065 611.717L937.622 613.15L937.624 613.151L938.065 611.717ZM1223.47 598.655L1224.37 599.855L1224.37 599.854L1223.47 598.655ZM1376.93 441.713L1378.07 442.685L1378.08 442.681L1376.93 441.713ZM1685.04 395.442L1683.8 396.288L1683.81 396.291L1685.04 395.442ZM2030.5 560.409C2030.88 561.339 2031.59 563.085 2031.17 565.676C2030.75 568.281 2029.15 571.951 2024.45 576.572L2026.55 578.712C2031.58 573.774 2033.58 569.553 2034.13 566.153C2034.68 562.738 2033.72 560.364 2033.28 559.275L2030.5 560.409ZM2024.46 576.565C2022.58 578.392 2019.61 579.915 2015.76 581.145C2011.94 582.366 2007.38 583.258 2002.45 583.901C1992.59 585.185 1981.39 585.454 1971.93 585.454V588.454C1981.43 588.454 1992.77 588.186 2002.84 586.875C2007.87 586.22 2012.62 585.299 2016.67 584.002C2020.71 582.713 2024.18 581.012 2026.55 578.718L2024.46 576.565ZM1971.93 585.454C1952.28 585.454 1929.21 584.261 1902.41 582.901L1902.26 585.897C1929.03 587.256 1952.19 588.454 1971.93 588.454V585.454ZM1902.41 582.901C1869.86 581.212 1832.98 579.314 1794.86 579.314V582.314C1832.89 582.314 1869.7 584.208 1902.25 585.897L1902.41 582.901ZM1794.86 579.314C1681.5 579.314 1601.22 596.798 1542.43 634.559L1544.06 637.083C1602.14 599.772 1681.75 582.314 1794.86 582.314V579.314ZM1542.44 634.558C1445.21 696.963 1429.7 777.898 1419.47 831.129L1422.41 831.695C1432.62 778.621 1447.93 698.782 1544.06 637.083L1542.44 634.558ZM1419.47 831.128C1415.87 849.857 1413.1 862.995 1408.87 871.174C1406.78 875.217 1404.41 877.906 1401.52 879.471C1398.64 881.033 1395.06 881.576 1390.39 880.975L1390.01 883.95C1395.1 884.605 1399.36 884.057 1402.95 882.109C1406.54 880.164 1409.28 876.925 1411.54 872.551C1416.01 863.899 1418.84 850.256 1422.41 831.695L1419.47 831.128ZM1390.4 880.976C1383.31 880.025 1376.17 879.539 1369.02 879.52L1369.01 882.52C1376.03 882.538 1383.04 883.016 1390 883.949L1390.4 880.976ZM1369.02 879.52C1290.25 879.52 1245 939.208 1212.35 982.173L1214.74 983.988C1247.52 940.838 1291.94 882.52 1369.02 882.52V879.52ZM1212.35 982.171C1204.48 992.496 1197.22 1002.07 1190.66 1009.06C1187.38 1012.56 1184.33 1015.36 1181.51 1017.28C1178.68 1019.21 1176.22 1020.15 1174.1 1020.15V1023.15C1177.08 1023.15 1180.13 1021.84 1183.2 1019.76C1186.27 1017.66 1189.5 1014.68 1192.85 1011.11C1199.53 1003.98 1206.9 994.266 1214.73 983.99L1212.35 982.171ZM1173.93 1020.16C1173.69 1020.18 1173.45 1020.18 1173.2 1020.16L1172.86 1023.14C1173.33 1023.19 1173.81 1023.19 1174.28 1023.14L1173.93 1020.16ZM1173.22 1020.16C1166.94 1019.36 1161.91 1013.95 1157.14 1004.27C1152.41 994.657 1148.21 981.392 1143.27 965.816L1140.41 966.723C1145.32 982.214 1149.6 995.732 1154.45 1005.59C1159.27 1015.38 1164.91 1022.12 1172.84 1023.13L1173.22 1020.16ZM1143.27 965.816C1130.41 925.301 1112.74 869.553 1067.25 814.551L1064.94 816.463C1110.03 870.98 1127.56 926.232 1140.41 966.723L1143.27 965.816ZM1067.25 814.551C1031.13 770.868 988.449 736.048 950.874 705.769L948.992 708.105C986.581 738.395 1029.04 773.043 1064.94 816.463L1067.25 814.551ZM950.878 705.772C927.157 686.53 906.032 669.394 890.825 653.415C875.576 637.392 866.586 622.839 866.586 608.791H863.586C863.586 624.08 873.325 639.379 888.652 655.484C904.022 671.633 925.32 688.902 948.988 708.102L950.878 705.772ZM866.577 608.629C866.425 607.233 866.58 605.821 867.03 604.49L864.187 603.529C863.598 605.273 863.396 607.124 863.595 608.953L866.577 608.629ZM867.03 604.49C867.479 603.16 868.214 601.943 869.181 600.925L867.007 598.858C865.739 600.192 864.777 601.786 864.187 603.529L867.03 604.49ZM868.915 601.147C871.655 599.356 874.919 598.54 878.181 598.831L878.447 595.843C874.514 595.492 870.578 596.476 867.274 598.636L868.915 601.147ZM878.314 598.837C884.684 598.837 893.212 600.452 903.364 603.074C913.491 605.69 925.107 609.274 937.622 613.15L938.509 610.284C926.011 606.413 914.323 602.807 904.114 600.17C893.93 597.539 885.089 595.837 878.314 595.837V598.837ZM937.624 613.151C980.207 626.245 1033.41 642.677 1089.79 642.677V639.677C1033.93 639.677 981.142 623.394 938.506 610.283L937.624 613.151ZM1089.79 642.677C1141.97 642.677 1186.01 628.662 1224.37 599.855L1222.57 597.456C1184.78 625.838 1141.38 639.677 1089.79 639.677V642.677ZM1224.37 599.854C1279.71 558.244 1329.8 499.391 1378.07 442.685L1375.79 440.74C1327.47 497.508 1277.59 556.084 1222.57 597.457L1224.37 599.854ZM1378.08 442.681C1411.33 403.311 1443.72 365.139 1475.08 336.8C1506.49 308.416 1536.55 290.184 1565.13 290.184V287.184C1535.35 287.184 1504.55 306.118 1473.07 334.574C1441.53 363.075 1409 401.416 1375.78 440.745L1378.08 442.681ZM1565.13 290.184C1588 290.184 1608.24 302.817 1627.55 322.532C1646.87 342.247 1665.03 368.815 1683.8 396.288L1686.28 394.595C1667.55 367.185 1649.23 340.375 1629.7 320.432C1610.16 300.49 1589.19 287.184 1565.13 287.184V290.184ZM1683.81 396.291C1704.39 426.254 1725.34 456.898 1749 480.033C1772.68 503.187 1799.24 518.985 1831.04 518.985V515.985C1800.33 515.985 1774.49 500.758 1751.1 477.888C1727.69 454.999 1706.91 424.621 1686.28 394.592L1683.81 396.291ZM1831.04 518.985C1893.85 518.985 1941.74 524.47 1974.93 532.479C1991.53 536.484 2004.41 541.109 2013.62 545.964C2022.89 550.85 2028.2 555.844 2030.09 560.451L2032.87 559.315C2030.57 553.705 2024.46 548.289 2015.02 543.31C2005.51 538.299 1992.38 533.602 1975.64 529.562C1942.14 521.481 1894 515.985 1831.04 515.985V518.985Z" fill="#1A1A1A" mask="url(#path-25-inside-5)"/>
<path d="M2560.47 949.833C2529.77 938.708 2471.29 910.772 2410.31 845.63C2353.85 785.268 2253.47 809.33 2164.91 830.591C2113.86 842.952 2065.6 854.406 2037.17 845.218C2004.57 834.629 1977.42 819.095 1951.13 804.015C1915.81 783.825 1879.34 762.812 1828.04 752.388C1791.61 744.806 1770.35 732.157 1771.17 718.436C1772.08 703.686 1801.42 686.421 1864.96 681.353C1914.41 677.233 1967.98 681.024 2019.37 684.732C2081.18 689.141 2139.53 693.344 2176.37 681.271C2204.56 672.083 2232.74 647.69 2262.54 621.856C2303.25 586.627 2349.4 546.66 2406.23 536.03C2457.66 526.76 2510.58 530.312 2560.3 546.372" stroke="#1A1A1A" stroke-width="1.5"/>
<path d="M2560.88 825.151C2517.44 804.962 2419 764.171 2331.92 764.171H2326.36C2282.8 765.077 2231.58 771.711 2182.13 778.139C2101.41 788.645 2025.17 798.74 2012.11 778.139C2004.16 765.778 2002.55 755.271 2007.29 747.319C2018.21 729.066 2061.15 722.597 2135.03 727.912C2213.78 733.598 2258.41 703.726 2301.51 674.842C2328.26 656.919 2355.91 638.378 2391.35 628.901C2456.95 611.39 2526.71 618.971 2561 624.781" stroke="#1A1A1A" stroke-width="1.5"/>
<path d="M2560.51 753.745C2525.83 740.078 2489.66 730.562 2452.75 725.397C2418.46 720.247 2384.96 704.095 2379.56 690.169C2378.93 688.789 2378.7 687.254 2378.91 685.749C2379.12 684.244 2379.76 682.831 2380.76 681.681C2386.94 674.058 2416.86 659.39 2560.51 681.021" stroke="#1A1A1A" stroke-width="1.5"/>
<path d="M1459.3 416.614L1459.3 416.614C1490.9 373.952 1523.01 352.558 1554.67 352.558H1554.75C1586.44 352.558 1617.35 373.98 1646.15 416.628L1646.15 416.63C1665.08 444.514 1677.32 465.727 1683.71 482.362C1690.11 498.996 1690.61 510.928 1686.27 520.344C1682.86 527.714 1676.43 533.517 1666.26 537.999C1656.08 542.486 1642.18 545.628 1623.94 547.684C1584.08 552.121 1539.43 562.551 1497.81 593.979C1456.18 625.409 1417.67 677.781 1389.99 765.963C1387.77 773.029 1383.8 778.475 1378.37 782.162C1372.94 785.852 1365.98 787.811 1357.74 787.811C1338.85 787.811 1316.42 777.998 1297.08 761.421C1277.75 744.855 1261.58 721.603 1255.16 694.855C1248.77 668.287 1262.74 637.617 1286.92 604.995C1310.91 572.62 1344.78 538.546 1378.15 504.975L1378.79 504.336C1378.79 504.335 1378.79 504.335 1378.79 504.335C1410.01 472.952 1439.52 443.285 1459.3 416.614Z" stroke="#1A1A1A" stroke-width="1.5"/>
<path d="M1007.97 709.797L1007.97 709.794C1008.05 704.403 1010 698.463 1016.36 693.841C1022.76 689.19 1033.71 685.811 1051.93 685.811C1085.42 685.811 1136.33 698.053 1182.51 717.243C1205.59 726.834 1227.46 738.149 1245.36 750.515C1263.28 762.889 1277.16 776.273 1284.34 789.982C1297.43 815.341 1300.99 833.076 1295.89 845.971L1295.89 845.973C1292.78 853.894 1286.66 859.529 1278.56 864.163C1270.44 868.806 1260.42 872.399 1249.56 876.279L1249.56 876.279C1240.69 879.454 1231.53 882.88 1222.11 887.011L1222.1 887.014L1212.25 891.464L1212.25 891.466C1205.44 894.602 1200.2 897.009 1195.85 898.635C1191.49 900.259 1188.08 901.08 1184.91 901.08C1179.91 901.08 1176.25 899.185 1172.47 895.071C1168.65 890.905 1164.78 884.535 1159.38 875.648L1159.38 875.643C1158.88 874.825 1158.36 873.983 1157.82 873.116C1151.38 862.667 1142.71 848.599 1129.6 830.277L1128.99 830.714L1129.6 830.277C1103.71 794.083 1075.3 778.261 1052.53 765.584L1052.52 765.577L1052.3 765.452L1052.3 765.452L1052.26 765.432C1052.26 765.432 1052.26 765.432 1052.26 765.432C1039.59 758.396 1028.39 752.168 1020.4 743.842C1012.46 735.563 1007.69 725.19 1007.97 709.797Z" stroke="#1A1A1A" stroke-width="1.5"/>
<path d="M1878.68 1810.39C1849.09 1774.75 1777.06 1678.09 1771.54 1576.23C1768.7 1521.72 1772.65 1475.66 1776.44 1431.12C1781.72 1369.72 1786.29 1316.7 1771.5 1257.36C1762.6 1221.52 1743.52 1187.85 1725.06 1155.26C1692.09 1096.96 1663.49 1046.57 1714.59 1011.42C1724.46 1004.66 1736.18 1001.14 1748.13 1001.33C1791.86 1001.33 1847.03 1041.38 1904.93 1083.2C1954.63 1119.21 2006.05 1156.46 2050.44 1166.59C2100.63 1178.05 2139.98 1174.26 2178.18 1170.71C2223.51 1166.35 2266.41 1162.23 2325.87 1182.09C2381.62 1200.71 2418.67 1241.05 2454.52 1280.07C2485.26 1313.52 2516.95 1347.97 2560.84 1369.89" stroke="#1A1A1A" stroke-width="1.5"/>
<path d="M1976.06 1810.56C1898.42 1727.37 1854.99 1634.66 1873.04 1452.83C1883.34 1347.85 1849.39 1271.54 1826.89 1221.07C1808.55 1179.86 1797.46 1154.89 1819.72 1141.79C1848.15 1125.02 1891.09 1151.39 1940.78 1181.96C1980.34 1206.23 2025.14 1233.76 2069.68 1242.94C2097.05 1248.63 2124.16 1249.41 2150.41 1250.15C2219.8 1252.13 2285.37 1254.03 2343.3 1345.42C2405.12 1443.19 2514.32 1486.37 2560.51 1500.88" stroke="#1A1A1A" stroke-width="1.5"/>
<path d="M2080.07 1810.56C2043.97 1775.37 1957.1 1678.71 1949.85 1557.86C1946.68 1505.16 1939.84 1460.21 1934.36 1424.04C1923.77 1354.36 1917.38 1312.29 1948.98 1296.31C1977.83 1281.93 2016.03 1295.23 2064.37 1312.09C2097.33 1323.54 2134.42 1336.52 2175.63 1342.82C2249.56 1354.16 2266.29 1386.83 2291.96 1436.27C2301.76 1455.98 2312.62 1475.14 2324.51 1493.67C2366.83 1558.03 2506.16 1583.86 2560.26 1591.61" stroke="#1A1A1A" stroke-width="1.5"/>
<path d="M2182.92 1810.39C2155.76 1778.13 2090.24 1698.03 2052.04 1631.2C2016.64 1569.4 1989.94 1479.29 2007.33 1427.08C2013.1 1409.82 2023.32 1397.91 2037.7 1391.69C2102.03 1363.83 2189.76 1402.61 2219.47 1453.29C2244.19 1495.64 2323.4 1614.97 2389.78 1657.94C2436.14 1687.98 2520.91 1707.8 2560.67 1715.92" stroke="#1A1A1A" stroke-width="1.5"/>
<path d="M2290.88 1810.56C2248.56 1781.14 2201.5 1728.15 2159.01 1661.36C2116.53 1594.57 2088.1 1527.49 2089.95 1497.95C2090.4 1490.74 2092.59 1486.29 2096.46 1484.77C2119.7 1475.62 2150.36 1515.83 2189.1 1566.72C2221.11 1608.75 2260.92 1660.99 2310.37 1703.6C2396.91 1778.22 2512.62 1789.84 2560.46 1791.28" stroke="#1A1A1A" stroke-width="1.5"/>
<path d="M1298.56 1810.56C1299.06 1760.46 1285.42 1687.7 1274.21 1628.07C1263.25 1569.44 1252.86 1514.11 1261.85 1510.03C1263.54 1509.25 1268.11 1510.03 1279.57 1524.86C1333.59 1594.08 1359.39 1759.02 1366.35 1810.56" stroke="#1A1A1A" stroke-width="1.5"/>
<path d="M1869.74 192.724C1890.34 309.905 1870.6 331.29 1861.25 335.039C1848.27 340.272 1828.28 324.78 1806.81 292.559C1769.72 237.223 1646.68 70.4327 1513.29 70.4327C1499.96 70.4139 1486.69 72.1314 1473.81 75.5419C1389.33 97.7504 1323.44 210.276 1265.34 309.576C1226.07 376.654 1188.98 439.983 1152.06 464.994C1106.36 495.896 1024.73 477.973 930.153 457.248C837.888 437.058 733.343 414.108 642.727 434.133C565.668 451.191 516.754 498.657 497.263 575.212C480.78 639.242 488.197 710.935 493.142 758.401L493.925 765.9C498.417 811.512 457.909 828.158 406.605 849.254C354.23 870.762 294.891 895.154 262.378 957.412C192.324 1090.13 185.566 1242.66 243.422 1375.91C277.913 1455.43 281.993 1512.83 256.155 1556.59C223.189 1612.71 139.454 1647.73 1.11902 1663.34M1852.3 1.08789C1850.45 25.8098 1850.57 82.0932 1869.86 192.724" stroke="#1A1A1A" stroke-width="1.5"/>
<path d="M1.12012 1729.52C171.721 1727.5 238.519 1674.31 292.584 1631.25C313.353 1614.77 331.32 1600.51 352.418 1591.53C364.41 1586.12 377.38 1583.2 390.535 1582.96C421.153 1582.96 446.372 1601.5 481.77 1627.54C513.665 1651.88 547.453 1673.64 582.812 1692.6C671.945 1739.28 693.785 1786.71 698.936 1810.57" stroke="#1A1A1A" stroke-width="1.5"/>
<path d="M500.397 1717.69C455.645 1695.31 418.269 1681.3 383.243 1681.3C352.172 1681.3 322.914 1692.35 292.049 1718.39C263.533 1742.33 207.408 1754.28 153.178 1765.81C98.9488 1777.35 47.8509 1788.23 22.7964 1810.64M570.945 1810.56C570.945 1788.23 561.673 1748.26 500.562 1717.69" stroke="#1A1A1A" stroke-width="1.5"/>
<path d="M269.263 1810.56C288.837 1785.18 333.259 1735.74 384.645 1735.74C436.032 1735.74 476.251 1785.18 493.517 1810.56" stroke="#1A1A1A" stroke-width="1.5"/>
<path d="M1777.19 1.0885C1791.69 42.2916 1826.64 148.719 1806.77 176.82C1805.91 178.173 1804.75 179.309 1803.38 180.138C1802.01 180.968 1800.46 181.468 1798.86 181.599C1786.54 182.588 1767.79 163.552 1739.4 134.71C1698.35 92.9715 1639.39 33.1033 1563.81 1.0885" stroke="#1A1A1A" stroke-width="1.5"/>
<path d="M1377.47 1.0885C1348.62 25.8104 1283.22 86.7498 1245.64 165.53C1239.83 177.644 1234.1 189.964 1228.54 201.83C1184.98 295.196 1143.82 383.412 1062.39 404.467C1018.71 415.757 964.479 396.062 901.679 373.276C831.955 347.978 752.918 319.3 668.771 325.769C659.664 326.469 650.186 327.294 640.338 328.159C536.494 337.059 394.244 349.255 297.158 264.253C235.14 209.947 199.701 121.443 191.665 1.0885" stroke="#1A1A1A" stroke-width="1.5"/>
<path d="M609.309 231.579C639.267 230.425 670.255 229.271 698.812 230.013C778.673 232.073 843.04 260.297 899.578 285.184C927.846 297.545 954.508 309.288 980.304 316.54C990.812 319.705 1001.86 320.683 1012.76 319.415C1023.66 318.146 1034.18 314.658 1043.68 309.164C1091.94 281.723 1120.29 208.34 1135.53 151.603C1154.94 80.4869 1210.7 25.8104 1239.79 1.0885M293.697 1.0885C295.345 36.0287 304.905 122.349 358.023 181.146C410.357 238.83 511.481 235.246 609.391 231.579" stroke="#1A1A1A" stroke-width="1.5"/>
<path d="M472.623 156.465C511.936 164.994 560.355 163.305 611.659 161.492C685.833 158.855 770.145 155.889 843.001 184.36L868.261 194.331C937.532 221.814 983.273 239.984 1016.98 223.173C1037.26 213.202 1051.68 190.911 1062.31 153.128C1084.52 75.2541 1113.49 23.503 1127.67 1.0885M380.235 1.0885C381.76 40.0666 393.463 139.243 472.665 156.465" stroke="#1A1A1A" stroke-width="1.5"/>
<path d="M666.754 83.8243C682.949 83.8243 699.721 84.1128 717.646 84.4012C812.425 85.9257 868.138 113.243 904.895 131.043C934.441 145.464 952.284 154.199 969.303 139.984C998.973 115.262 1009.03 35.1635 1012.04 1.0885M471.841 1.0885C472.5 24.3271 478.269 41.1791 489.684 53.3752C517.169 82.7119 576.674 83.1651 666.878 83.8243" stroke="#1A1A1A" stroke-width="1.5"/>
<path d="M555.66 16.6221C566.869 25.6043 585.289 23.503 615.741 20.0831C635.48 17.8994 659.999 15.1388 690.658 14.4795C742.562 12.9636 794.41 19.0153 844.569 32.4441C858.801 36.177 873.215 39.1751 887.755 41.4263C899.747 42.9921 909.019 40.3963 915.241 33.5977C923.112 25.0275 924.595 11.6365 924.183 1.0885M545.976 1.0885C547.477 7.12155 550.801 12.5456 555.495 16.6221" stroke="#1A1A1A" stroke-width="1.5"/>
<path d="M1.11902 1556.83C46.9835 1557.33 151.075 1550.32 172.215 1478.34C184.536 1436.56 174.44 1392.39 161.706 1336.52C146.336 1269.03 127.174 1185.02 144.358 1075.05C174.893 879.25 252.488 848.76 350.686 810.111L355.549 808.175C431.536 778.261 427.663 735.781 422.306 676.984C420.08 656.778 419.144 636.451 419.504 616.127C420.987 574.429 443.322 537.511 463.019 504.878C485.642 467.425 505.216 435.08 490.793 403.807C478.348 376.943 433.02 369.073 380.48 359.926C318.42 349.213 241.485 335.822 194.22 285.389C122.023 207.845 101.131 50.7376 96.1858 1.08789" stroke="#1A1A1A" stroke-width="1.5"/>
<path d="M1.12012 121.029C62.9321 347.193 201.267 376.035 287.309 393.876L292.131 394.906C343.517 405.619 373.269 423.048 383.036 448.099C391.772 470.802 384.354 498.037 359.671 531.741C331.855 570.555 328.105 593.67 322.996 625.643C318.581 657.354 310.562 688.457 299.095 718.35C282.818 761.16 252.406 776.447 217.215 794.123C171.68 816.949 120.046 842.866 81.8877 938.622C37.2595 1050.61 63.2617 1155.93 84.113 1240.52C95.2803 1285.84 104.923 1325.11 103.852 1360.01C103.151 1388.85 93.3848 1411.1 75.006 1425.93C52.3416 1444.23 21.7241 1447.32 1.12012 1446.94" stroke="#1A1A1A" stroke-width="1.5"/>
<path d="M144.939 744.962C194.966 688.39 225.748 619.952 239.718 584.27C257.066 539.647 260.322 515.667 251.544 498.732C239.141 474.917 203.043 466.264 137.357 450.195L121.492 446.363C55.5593 430.459 19.9969 378.337 1.12362 332.725M1 833.384C52.8808 824.072 101.177 794.447 144.816 745.127" stroke="#1A1A1A" stroke-width="1.5"/>
<path d="M1.12012 458.728C18.2214 479.494 45.5011 504.628 81.3932 511.426C109.744 516.865 137.395 524.735 147.656 545.707C157.175 565.196 151.2 594.574 128.865 638.249C95.5688 702.897 33.798 732.275 1.12012 743.771" stroke="#1A1A1A" stroke-width="1.5"/>
<path d="M1.12012 534.132C27.6993 543.032 68.9896 561.45 66.2699 589.221C63.6738 616.167 25.8449 652.673 1.12012 673.852" stroke="#1A1A1A" stroke-width="1.5"/>
</g>
</svg>
