<svg width="375" height="340" viewBox="0 0 375 340" fill="none" xmlns="http://www.w3.org/2000/svg">
<g opacity="0.15">
<path d="M995.933 133.581C1000.51 174.13 1004.86 212.454 992.923 224.197C989.764 227.27 985.524 228.436 979.949 227.694C950.058 223.752 922.71 190.452 896.189 158.254C870.178 126.65 843.191 93.9436 813.087 87.7541C762.357 77.3466 743.574 104.16 698.186 168.958C686.335 185.916 672.916 204.993 656.528 227.016C595.77 308.326 543.068 294.464 481.929 278.397C463.151 273.101 444.082 268.897 424.817 265.806C370.462 258.048 325.9 268.244 302.559 293.786C284.9 313.117 279.685 340.736 287.465 373.633C304.149 444.133 286.638 448.67 248.267 458.632C242.883 460.031 237.328 461.472 231.308 463.232C203.579 471.329 180.471 491.296 166.076 519.36C148.99 552.766 144.58 597.322 153.357 648.194C172.161 757.526 244.112 806.003 329.186 853.801C386.107 885.808 399.802 916.797 403.066 930.83M1008.97 0H1003.25C984.168 29.2938 990.528 84.2779 996.018 133.539" stroke="#808080"/>
<path d="M961.377 98.631C971.977 158.914 961.822 169.915 957.01 171.844C950.332 174.536 940.05 166.566 929.005 149.991C909.926 121.523 846.624 35.7194 778.001 35.7194C771.146 35.7097 764.319 36.5933 757.692 38.3478C714.233 49.7728 680.335 107.661 650.443 158.745C630.24 193.253 611.16 225.832 592.165 238.699C568.655 254.596 526.659 245.375 478.006 234.714C430.54 224.327 376.757 212.521 330.139 222.822C290.496 231.598 265.332 256.016 255.304 295.4C246.824 328.339 250.64 365.221 253.184 389.64L253.587 393.498C255.898 416.962 235.059 425.526 208.665 436.379C181.721 447.443 151.193 459.992 134.467 492.02C98.4275 560.294 94.9508 638.764 124.715 707.314C142.459 748.224 144.558 777.751 131.266 800.261C114.306 829.131 71.2285 847.148 0.0615234 855.182M952.41 0.0454102C951.456 12.7634 951.519 41.718 961.441 98.631" stroke="#808080"/>
<path d="M708.127 0.0454102C693.287 12.7634 659.643 44.1132 640.309 84.6412C637.32 90.8731 634.373 97.2109 631.511 103.316C609.103 151.347 587.925 196.729 546.035 207.561C523.563 213.369 495.665 203.237 463.356 191.515C427.487 178.5 386.826 163.747 343.536 167.075C338.851 167.435 333.975 167.859 328.909 168.304C275.486 172.883 202.305 179.157 152.359 135.428C120.453 107.491 102.222 61.9608 98.0879 0.0454102" stroke="#808080"/>
<path d="M312.947 118.619C328.359 118.026 344.301 117.432 358.992 117.814C400.077 118.874 433.191 133.394 462.276 146.196C476.819 152.555 490.535 158.596 503.806 162.327C509.212 163.955 514.894 164.459 520.502 163.806C526.11 163.154 531.524 161.359 536.411 158.533C561.236 144.416 575.821 106.665 583.665 77.4768C593.65 40.8914 622.333 12.7634 637.3 0.0454102M150.579 0.0454102C151.427 18.0202 156.345 62.4272 183.672 92.6748C210.595 122.35 262.619 120.506 312.989 118.619" stroke="#808080"/>
<path d="M242.628 79.978C262.852 84.3657 287.762 83.4966 314.155 82.564C352.315 81.2074 395.689 79.6812 433.17 94.3281L446.165 99.4577C481.802 113.596 505.333 122.944 522.674 114.295C533.105 109.166 540.524 97.6984 545.994 78.2611C557.42 38.1994 572.324 11.5764 579.616 0.0454102M195.099 0.0454102C195.883 20.0974 201.904 71.1178 242.649 79.978" stroke="#808080"/>
<path d="M342.5 42.6083C350.831 42.6083 359.46 42.7567 368.682 42.905C417.441 43.6893 446.102 57.7427 465.012 66.8996C480.212 74.3185 489.392 78.8122 498.147 71.4993C513.411 58.7813 518.584 17.575 520.131 0.0454102M242.226 0.0454102C242.565 12.0003 245.533 20.6698 251.405 26.944C265.546 42.036 296.158 42.2691 342.564 42.6083" stroke="#808080"/>
<path d="M285.347 8.03655C291.113 12.6574 300.589 11.5764 316.256 9.81706C326.41 8.69364 339.024 7.27347 354.796 6.93432C381.499 6.15447 408.172 9.26774 433.977 16.1761C441.298 18.0965 448.714 19.6388 456.194 20.7969C462.363 21.6024 467.133 20.267 470.334 16.7696C474.383 12.3607 475.146 5.47175 474.934 0.0454102M280.365 0.0454102C281.137 3.14907 282.847 5.93941 285.262 8.03655" stroke="#808080"/>
<path d="M0.0615234 800.389C23.6566 800.643 77.2068 797.039 88.0821 760.009C94.4208 738.516 89.2269 715.793 82.6762 687.05C74.7688 652.33 64.911 609.11 73.7512 552.536C89.4601 451.81 129.379 436.124 179.897 416.242L182.399 415.245C221.491 399.857 219.498 378.003 216.742 347.755C215.597 337.361 215.116 326.904 215.301 316.448C216.064 294.997 227.554 276.005 237.687 259.217C249.326 239.949 259.396 223.31 251.976 207.221C245.574 193.401 222.254 189.353 195.225 184.647C163.298 179.136 123.719 172.247 99.4027 146.302C62.2611 106.41 51.5129 25.5874 48.9689 0.0454102" stroke="#808080"/>
<path d="M0.0620117 61.748C31.8614 178.096 103.028 192.934 147.293 202.112L149.773 202.642C176.209 208.153 191.515 217.12 196.54 230.007C201.034 241.686 197.218 255.697 184.519 273.036C170.21 293.004 168.281 304.895 165.652 321.343C163.381 337.657 159.255 353.658 153.356 369.036C144.982 391.059 129.337 398.923 111.233 408.017C87.807 419.759 61.244 433.092 41.6132 482.353C18.654 539.966 32.031 594.144 42.7579 637.661C48.503 660.977 53.4637 681.178 52.9125 699.131C52.5521 713.969 47.5279 725.415 38.0728 733.046C26.4131 742.457 10.6618 744.047 0.0620117 743.856" stroke="#808080"/>
<path d="M74.0501 382.726C99.7864 353.623 115.622 318.415 122.809 300.059C131.734 277.103 133.409 264.766 128.893 256.055C122.512 243.803 103.941 239.352 70.1494 231.085L61.9875 229.114C28.0682 220.932 9.773 194.118 0.0635987 170.653M0 428.214C26.6903 423.423 51.5361 408.183 73.9865 382.811" stroke="#808080"/>
<path d="M0.0620117 235.475C8.85983 246.158 22.8939 259.088 41.3588 262.585C55.9441 265.383 70.169 269.432 75.4477 280.221C80.3448 290.247 77.2708 305.36 65.7807 327.828C48.6514 361.086 16.8733 376.199 0.0620117 382.113" stroke="#808080"/>
<path d="M0.0620117 274.266C13.7357 278.845 34.9777 288.32 33.5785 302.606C32.243 316.469 12.7818 335.249 0.0620117 346.144" stroke="#808080"/>
</g>
</svg>
