<svg width="768" height="360" viewBox="0 0 768 360" fill="none" xmlns="http://www.w3.org/2000/svg">
<g opacity="0.15">
<path d="M750.104 235.189L750.104 235.189C754.884 224.935 760.561 216.772 766.584 211.18C772.61 205.585 778.95 202.592 785.07 202.592H785.57V202.556C793.255 202.753 800.349 207.508 806.681 216.99C812.916 226.338 814.601 234.861 811.846 242.345C809.779 247.95 805.219 253.063 798.136 257.64C791.053 262.217 781.479 266.237 769.446 269.665C767.86 270.106 766.221 270.325 764.576 270.316V270.316L764.563 270.316C761.431 270.379 758.332 269.667 755.542 268.242C752.755 266.819 750.363 264.73 748.579 262.16C745.696 257.661 743.52 249.283 750.104 235.189Z" stroke="#808080"/>
<path d="M693.036 346.716L693.036 346.717C689.135 350.842 685.108 352.844 681.055 352.844C677.017 352.844 673.228 350.753 669.79 346.515C664.874 340.428 664.861 331.215 670 320.401C673.013 314.1 677.76 307.567 682.961 302.616C688.142 297.684 693.676 294.412 698.334 294.358L698.374 294.378H698.492C700.055 294.378 702.159 294.785 703.945 296.458C705.73 298.129 707.271 301.131 707.571 306.473C707.912 312.944 706.463 320.709 703.825 328.021C701.186 335.333 697.376 342.142 693.036 346.716Z" stroke="#808080"/>
<path d="M515.907 919.896C518.422 899.495 522.739 845.202 505.176 800.042C495.724 775.765 480.592 756.16 464.559 735.402C443.371 707.962 421.449 679.58 412.499 638.463C408.637 619.919 405.838 601.169 404.116 582.306C399.736 541.314 395.964 505.915 356.646 458.472C331.203 427.807 322.82 400.116 332.984 380.238C342.269 362.161 366.329 353.008 399.044 355.291C464.329 359.732 517.688 416.328 562.161 528.286C595.17 611.359 632.434 623.026 688.832 640.683C705.284 645.836 723.916 651.659 744.287 660.037C809.404 686.765 811.353 740.911 812.988 788.689C813.554 804.545 814.078 819.543 816.823 832.823C824.787 871.468 845.18 904.48 855.973 919.917" stroke="#808080"/>
<path d="M984.59 132.003C989.117 172.073 993.413 209.944 981.614 221.548C978.491 224.585 974.3 225.737 968.788 225.004C939.237 221.108 912.201 188.202 885.982 156.384C860.267 125.154 833.587 92.8336 803.826 86.7173C753.674 76.4327 735.105 102.93 690.233 166.962C678.518 183.719 665.251 202.571 649.051 224.334C588.985 304.684 536.883 290.985 476.44 275.107C457.875 269.874 439.024 265.72 419.979 262.665C366.242 254.999 322.188 265.074 299.113 290.314C281.655 309.417 276.499 336.71 284.191 369.219C300.685 438.886 283.374 443.368 245.439 453.213C240.116 454.596 234.625 456.02 228.673 457.758C201.26 465.76 178.415 485.491 164.185 513.224C147.292 546.235 142.933 590.264 151.61 640.535C170.2 748.576 241.332 796.479 325.436 843.713C381.709 875.342 395.248 905.965 398.475 919.832M997.479 0H991.821C972.958 28.9477 979.246 83.2821 984.674 131.961" stroke="#808080"/>
<path d="M1301.81 534.843C1286.99 531.659 1259.08 520.536 1229.88 481.974C1199.49 441.842 1153.72 453.781 1113.34 464.317C1092.88 469.658 1073.52 474.685 1056.75 473.554C1030.72 471.795 1001.44 457.509 973.126 443.664C945.398 430.133 916.749 416.141 890.153 413.166C860.811 409.857 839.853 428.08 821.284 444.146C804.979 458.284 789.575 471.627 770.608 469.7C757.718 468.38 753.464 459.415 752.164 452.147C747.428 426.048 773.416 373.913 834.195 344.065C886.59 318.364 949.883 324.208 1000.73 328.921C1031.24 331.748 1057.59 334.178 1077.39 330.094C1104.37 324.543 1121.91 305.126 1140.5 284.577C1159.09 264.029 1178.22 242.832 1207.98 235.773C1238.71 228.459 1270.62 227.618 1301.69 233.301" stroke="#808080"/>
<mask id="path-6-inside-1" fill="white">
<path d="M1032.9 284.096C1033.32 285.122 1034.6 288.285 1029.65 293.145C1025.33 297.334 1012.04 297.879 1002.4 297.879C992.386 297.879 980.628 297.271 967.006 296.58C950.449 295.721 931.712 294.758 912.347 294.758C854.754 294.758 814.095 303.639 784.377 322.721C735.209 354.266 727.37 395.132 722.173 422.152C718.526 441.109 716.472 449.383 706.538 448.105C702.967 447.626 699.369 447.381 695.766 447.372C656.134 447.372 633.331 477.367 616.691 499.255C608.706 509.729 601.81 518.861 596.634 518.861C596.453 518.882 596.27 518.882 596.089 518.861C588.858 517.939 585.233 506.503 580.224 490.709C573.685 470.119 564.735 441.905 541.703 414.067C523.385 391.927 501.735 374.269 482.622 358.874C458.52 339.331 439.469 323.894 439.469 308.98C439.38 308.16 439.47 307.331 439.735 306.549C439.999 305.768 440.43 305.053 440.999 304.456C442.536 303.451 444.367 302.994 446.196 303.157C452.882 303.157 463.864 306.529 476.586 310.467C498.256 317.128 525.208 325.444 553.753 325.444C580.14 325.444 602.376 318.364 621.742 303.827C649.804 282.734 675.227 252.886 699.79 224.043C733.595 184.036 765.829 146.249 795.505 146.249C819.377 146.249 837.422 172.62 856.493 200.521C877.452 231.018 898.955 262.563 930.748 262.563C994.712 262.563 1028.43 273.728 1032.69 284.117"/>
</mask>
<path d="M1029.65 293.145L1030.35 293.862L1030.35 293.858L1029.65 293.145ZM967.006 296.58L966.954 297.579L966.955 297.579L967.006 296.58ZM784.377 322.721L784.917 323.562L784.917 323.562L784.377 322.721ZM722.173 422.152L723.155 422.341V422.341L722.173 422.152ZM706.538 448.105L706.405 449.096L706.411 449.097L706.538 448.105ZM695.766 447.372L695.768 446.372H695.766V447.372ZM616.691 499.255L617.486 499.862L617.487 499.861L616.691 499.255ZM596.634 518.861V517.861H596.577L596.52 517.868L596.634 518.861ZM596.089 518.861L595.962 519.853L595.975 519.855L596.089 518.861ZM580.224 490.709L581.177 490.407L581.177 490.407L580.224 490.709ZM541.703 414.067L540.932 414.705L540.932 414.705L541.703 414.067ZM482.622 358.874L481.992 359.651L481.994 359.653L482.622 358.874ZM439.469 308.98H440.469V308.926L440.463 308.872L439.469 308.98ZM440.999 304.456L440.452 303.618L440.354 303.682L440.274 303.766L440.999 304.456ZM446.196 303.157L446.108 304.153L446.152 304.157H446.196V303.157ZM476.586 310.467L476.29 311.423L476.292 311.423L476.586 310.467ZM621.742 303.827L622.342 304.627L622.342 304.627L621.742 303.827ZM699.79 224.043L700.551 224.692L700.553 224.689L699.79 224.043ZM856.493 200.521L855.668 201.085L855.669 201.087L856.493 200.521ZM1031.97 284.474C1032.16 284.934 1032.5 285.772 1032.3 287.024C1032.09 288.285 1031.31 290.107 1028.95 292.431L1030.35 293.858C1032.93 291.323 1033.98 289.134 1034.27 287.342C1034.56 285.541 1034.05 284.284 1033.82 283.718L1031.97 284.474ZM1028.95 292.427C1028.03 293.318 1026.56 294.079 1024.62 294.699C1022.7 295.314 1020.39 295.765 1017.89 296.091C1012.89 296.742 1007.21 296.879 1002.4 296.879V298.879C1007.23 298.879 1013.02 298.743 1018.15 298.074C1020.72 297.74 1023.15 297.269 1025.23 296.604C1027.3 295.944 1029.11 295.066 1030.35 293.862L1028.95 292.427ZM1002.4 296.879C992.417 296.879 980.688 296.273 967.056 295.581L966.955 297.579C980.569 298.269 992.355 298.879 1002.4 298.879V296.879ZM967.057 295.581C950.503 294.723 931.742 293.758 912.347 293.758V295.758C931.683 295.758 950.394 296.72 966.954 297.579L967.057 295.581ZM912.347 293.758C854.672 293.758 813.788 302.647 783.836 321.879L784.917 323.562C814.402 304.63 854.836 295.758 912.347 295.758V293.758ZM783.837 321.879C734.302 353.659 726.399 394.891 721.191 421.964L723.155 422.341C728.342 395.373 736.115 354.872 784.917 323.562L783.837 321.879ZM721.191 421.964C719.357 431.497 717.954 438.137 715.825 442.257C714.776 444.286 713.596 445.609 712.183 446.375C710.774 447.139 709.01 447.414 706.666 447.113L706.411 449.097C709.033 449.434 711.252 449.154 713.136 448.134C715.015 447.115 716.439 445.425 717.602 443.176C719.894 438.739 721.342 431.764 723.155 422.341L721.191 421.964ZM706.671 447.114C703.057 446.629 699.415 446.381 695.768 446.372L695.763 448.372C699.322 448.381 702.877 448.623 706.405 449.096L706.671 447.114ZM695.766 446.372C655.572 446.372 632.488 476.823 615.895 498.65L617.487 499.861C634.174 477.91 656.696 448.372 695.766 448.372V446.372ZM615.895 498.649C611.891 503.902 608.206 508.755 604.88 512.302C603.218 514.073 601.679 515.483 600.266 516.444C598.843 517.412 597.641 517.861 596.634 517.861V519.861C598.215 519.861 599.816 519.169 601.391 518.097C602.977 517.019 604.631 515.49 606.338 513.67C609.75 510.032 613.506 505.082 617.486 499.862L615.895 498.649ZM596.52 517.868C596.414 517.88 596.308 517.88 596.203 517.868L595.975 519.855C596.232 519.884 596.491 519.884 596.748 519.855L596.52 517.868ZM596.215 517.869C593.147 517.478 590.64 514.834 588.22 509.92C585.825 505.055 583.69 498.332 581.177 490.407L579.27 491.012C581.766 498.88 583.949 505.772 586.426 510.804C588.88 515.787 591.8 519.323 595.962 519.853L596.215 517.869ZM581.177 490.407C574.635 469.809 565.64 441.429 542.473 413.43L540.932 414.705C563.831 442.381 572.734 470.43 579.27 491.012L581.177 490.407ZM542.473 413.43C524.083 391.202 502.358 373.487 483.249 358.095L481.994 359.653C501.113 375.052 522.687 392.652 540.932 414.705L542.473 413.43ZM483.251 358.097C471.183 348.312 460.453 339.611 452.731 331.502C444.982 323.362 440.469 316.023 440.469 308.98H438.469C438.469 316.851 443.481 324.687 451.283 332.881C459.112 341.104 469.958 349.893 481.992 359.651L483.251 358.097ZM440.463 308.872C440.389 308.197 440.464 307.513 440.682 306.87L438.787 306.229C438.476 307.148 438.37 308.124 438.475 309.088L440.463 308.872ZM440.682 306.87C440.899 306.226 441.255 305.637 441.723 305.145L440.274 303.766C439.605 304.47 439.098 305.31 438.787 306.229L440.682 306.87ZM441.546 305.293C442.895 304.412 444.502 304.01 446.108 304.153L446.285 302.161C444.232 301.978 442.177 302.491 440.452 303.618L441.546 305.293ZM446.196 304.157C449.404 304.157 453.717 304.971 458.877 306.304C464.021 307.632 469.924 309.452 476.29 311.423L476.881 309.512C470.526 307.545 464.576 305.71 459.378 304.367C454.195 303.029 449.674 302.157 446.196 302.157V304.157ZM476.292 311.423C497.945 318.079 525.036 326.444 553.753 326.444V324.444C525.381 324.444 498.568 316.178 476.879 309.511L476.292 311.423ZM553.753 326.444C580.336 326.444 602.788 319.305 622.342 304.627L621.141 303.028C601.965 317.423 579.943 324.444 553.753 324.444V326.444ZM622.342 304.627C650.511 283.455 676.006 253.514 700.551 224.692L699.028 223.395C674.448 252.258 649.098 282.014 621.141 303.028L622.342 304.627ZM700.553 224.689C717.468 204.672 733.932 185.279 749.866 170.885C765.833 156.462 781.066 147.249 795.505 147.249V145.249C780.268 145.249 764.546 154.93 748.525 169.401C732.472 183.903 715.917 203.408 699.026 223.398L700.553 224.689ZM795.505 147.249C807.045 147.249 817.28 153.618 827.085 163.622C836.89 173.627 846.118 187.114 855.668 201.085L857.319 199.956C847.797 186.027 838.467 172.378 828.513 162.222C818.56 152.066 807.837 145.249 795.505 145.249V147.249ZM855.669 201.087C866.133 216.314 876.805 231.913 888.859 243.694C900.925 255.487 914.487 263.563 930.748 263.563V261.563C915.216 261.563 902.13 253.867 890.257 242.263C878.371 230.647 867.812 215.225 857.318 199.954L855.669 201.087ZM930.748 263.563C962.68 263.563 987.018 266.351 1003.87 270.416C1012.31 272.45 1018.83 274.795 1023.49 277.251C1028.19 279.728 1030.84 282.233 1031.76 284.496L1033.61 283.738C1032.41 280.806 1029.24 278.02 1024.43 275.481C1019.57 272.922 1012.87 270.528 1004.34 268.472C987.286 264.358 962.78 261.563 930.748 261.563V263.563Z" fill="#808080" mask="url(#path-6-inside-1)"/>
<path d="M741.776 211.354L741.776 211.354C757.839 189.677 774.141 178.838 790.186 178.838H790.228C806.286 178.838 821.978 189.689 836.613 211.357L836.614 211.358C846.239 225.532 852.458 236.307 855.706 244.75C858.954 253.193 859.199 259.221 857.008 263.966C855.291 267.679 852.049 270.612 846.893 272.882C841.729 275.157 834.677 276.752 825.402 277.797C805.122 280.054 782.387 285.36 761.196 301.354C740.002 317.351 720.403 343.998 706.316 388.844C705.194 392.413 703.193 395.159 700.456 397.017C697.715 398.877 694.203 399.868 690.027 399.868C680.459 399.868 669.08 394.896 659.256 386.481C649.44 378.072 641.233 366.273 637.971 352.703C634.738 339.254 641.811 323.702 654.106 307.12C666.303 290.669 683.524 273.352 700.499 256.283L700.818 255.962C700.819 255.962 700.819 255.962 700.819 255.962C716.696 240.01 731.711 224.921 741.776 211.354Z" stroke="#808080"/>
<path d="M512.258 360.329L512.258 360.328C512.298 357.618 513.275 354.636 516.474 352.312C519.7 349.969 525.24 348.252 534.498 348.252C551.51 348.252 577.382 354.47 600.861 364.222C612.595 369.096 623.71 374.844 632.808 381.125C641.912 387.41 648.954 394.201 652.593 401.144C659.251 414.033 661.036 423.007 658.461 429.51L658.461 429.511C656.893 433.503 653.807 436.351 649.7 438.699C645.583 441.053 640.494 442.876 634.97 444.849L634.97 444.849C630.46 446.463 625.795 448.206 621.001 450.308L620.996 450.31L615.987 452.572L615.983 452.574C612.519 454.169 609.861 455.39 607.65 456.215C605.442 457.038 603.72 457.45 602.13 457.45C599.627 457.45 597.793 456.507 595.891 454.434C593.957 452.327 591.995 449.101 589.249 444.579L589.246 444.575C588.99 444.159 588.725 443.731 588.453 443.29C585.177 437.978 580.763 430.824 574.096 421.506L573.689 421.797L574.096 421.506C560.912 403.085 546.443 395.03 534.863 388.585L534.855 388.58L534.741 388.517L534.74 388.516L534.722 388.506C528.274 384.927 522.594 381.77 518.547 377.552C514.531 373.367 512.114 368.124 512.258 360.329Z" stroke="#808080"/>
<path d="M950.428 97.4662C960.907 157.037 950.868 167.908 946.111 169.814C939.509 172.475 929.344 164.599 918.425 148.219C899.563 120.088 836.982 35.2979 769.141 35.2979C762.363 35.2883 755.614 36.1614 749.063 37.8952C706.099 49.1852 672.587 106.389 643.036 156.87C623.062 190.97 604.2 223.164 585.422 235.879C562.179 251.588 520.661 242.477 472.562 231.941C425.637 221.677 372.466 210.01 326.379 220.19C287.188 228.862 262.31 252.992 252.397 291.91C244.014 324.46 247.786 360.907 250.301 385.037L250.7 388.849C252.984 412.036 232.382 420.499 206.289 431.223C179.652 442.157 149.472 454.557 132.936 486.207C97.3072 553.675 93.87 631.218 123.295 698.958C140.837 739.384 142.912 768.562 129.771 790.807C113.005 819.335 70.4179 837.14 0.0615234 845.078M941.563 0.0454102C940.62 12.6131 940.683 41.2257 950.491 97.4662" stroke="#808080"/>
<path d="M700.062 0.0449219C685.391 12.6126 652.131 43.5921 633.017 83.6412C630.062 89.7994 627.149 96.0623 624.319 102.095C602.167 149.559 581.229 194.405 539.816 205.108C517.601 210.848 490.02 200.835 458.08 189.252C422.618 176.391 382.421 161.812 339.624 165.101C334.993 165.457 330.172 165.876 325.163 166.316C272.349 170.84 200.001 177.04 150.624 133.828C119.082 106.221 101.058 61.2288 96.9712 0.0449219" stroke="#808080"/>
<path d="M309.382 117.218C324.619 116.632 340.379 116.045 354.903 116.422C395.52 117.469 428.256 131.818 457.011 144.469C471.388 150.753 484.948 156.723 498.068 160.409C503.412 162.018 509.029 162.516 514.573 161.871C520.117 161.226 525.47 159.452 530.301 156.66C554.843 142.71 569.263 105.404 577.017 76.5614C586.888 40.4083 615.245 12.6126 630.041 0.0449219M148.864 0.0449219C149.702 17.8073 154.564 61.6896 181.579 91.5799C208.196 120.905 259.627 119.082 309.424 117.218" stroke="#808080"/>
<path d="M239.865 79.0331C259.859 83.3689 284.484 82.5101 310.577 81.5885C348.302 80.248 391.182 78.7398 428.236 93.2137L441.083 98.2826C476.314 112.254 499.578 121.491 516.721 112.945C527.033 107.876 534.368 96.5441 539.775 77.3364C551.072 37.7481 565.805 11.4397 573.015 0.0449219M192.876 0.0449219C193.652 19.86 199.604 70.2776 239.886 79.0331" stroke="#808080"/>
<path d="M338.599 42.1049C346.835 42.1049 355.365 42.2515 364.482 42.3981C412.686 43.1732 441.021 57.0605 459.716 66.1093C474.743 73.4404 483.817 77.881 492.473 70.6546C507.563 58.0869 512.677 17.3674 514.207 0.0449219M239.467 0.0449219C239.802 11.8586 242.736 20.4256 248.542 26.6257C262.521 41.5394 292.784 41.7698 338.662 42.1049" stroke="#808080"/>
<path d="M282.097 7.94164C287.797 12.5079 297.165 11.4397 312.653 9.70112C322.692 8.59097 335.162 7.18758 350.755 6.85244C377.153 6.08181 403.523 9.15828 429.034 15.985C436.272 17.8827 443.603 19.4068 450.998 20.5513C457.097 21.3472 461.812 20.0276 464.977 16.5715C468.98 12.2147 469.735 5.40715 469.525 0.0449219M277.171 0.0449219C277.935 3.11191 279.625 5.86929 282.013 7.94164" stroke="#808080"/>
<path d="M0.0615234 790.932C23.3879 791.184 76.3281 787.623 87.0796 751.03C93.3461 729.79 88.2114 707.336 81.7353 678.933C73.9179 644.623 64.1724 601.914 72.9119 546.008C88.4419 446.472 127.906 430.972 177.849 411.324L180.322 410.34C218.969 395.133 216.999 373.537 214.274 343.647C213.142 333.375 212.666 323.042 212.849 312.709C213.604 291.512 224.963 272.744 234.981 256.155C246.487 237.115 256.442 220.672 249.107 204.774C242.777 191.117 219.724 187.116 193.002 182.466C161.439 177.02 122.31 170.212 98.2713 144.574C61.5526 105.153 50.9269 25.2856 48.4119 0.0454102" stroke="#808080"/>
<path d="M0.0610352 61.0186C31.4982 175.992 101.855 190.655 145.615 199.724L148.067 200.248C174.202 205.694 189.334 214.554 194.301 227.29C198.744 238.831 194.972 252.676 182.418 269.81C168.271 289.542 166.364 301.292 163.765 317.547C161.52 333.667 157.441 349.479 151.609 364.676C143.331 386.439 127.864 394.21 109.965 403.196C86.8067 414.8 60.5462 427.975 41.1389 476.654C18.4413 533.586 31.6659 587.124 42.2707 630.127C47.9503 653.168 52.8545 673.13 52.3096 690.871C51.9533 705.533 46.9863 716.844 37.6389 724.385C26.112 733.685 10.5401 735.256 0.0610352 735.067" stroke="#808080"/>
<path d="M73.2067 378.204C98.6498 349.445 114.306 314.653 121.41 296.514C130.234 273.829 131.889 261.638 127.425 253.029C121.117 240.923 102.758 236.524 69.3504 228.355L61.2815 226.407C27.7485 218.322 9.66169 191.825 0.0628743 168.637M0 423.155C26.3863 418.421 50.9492 403.36 73.1438 378.288" stroke="#808080"/>
<path d="M0.0610352 232.692C8.75865 243.249 22.6329 256.026 40.8874 259.483C55.3066 262.247 69.3695 266.248 74.5881 276.91C79.4294 286.817 76.3905 301.752 65.0312 323.955C48.097 356.82 16.6808 371.754 0.0610352 377.598" stroke="#808080"/>
<path d="M0.0610352 271.026C13.579 275.55 34.5791 284.913 33.1958 299.031C31.8755 312.73 12.6359 331.288 0.0610352 342.054" stroke="#808080"/>
</g>
</svg>
