<svg width="722" height="530" viewBox="0 0 722 530" fill="none" xmlns="http://www.w3.org/2000/svg">
<g opacity="0.15">
<mask id="path-1-inside-1" fill="white">
<path d="M861.675 660.214C855.903 669.809 843.549 681.259 817.31 681.259C808.432 681.155 799.593 680.066 790.954 678.014C739.635 666.425 704.078 642.877 695.919 615.111C690.077 595.526 697.634 574.759 718.379 553.343C734.976 536.191 751.897 527.5 768.725 527.523C800.018 527.523 831.704 557.074 862.857 615.342C866.37 622.337 868.108 630.089 867.918 637.914C867.728 645.739 865.616 653.397 861.768 660.214"/>
</mask>
<path d="M817.31 681.259L817.298 682.259H817.31V681.259ZM790.954 678.014L791.186 677.041L791.175 677.039L790.954 678.014ZM695.919 615.111L696.878 614.829L696.877 614.825L695.919 615.111ZM718.379 553.343L719.098 554.038L719.098 554.038L718.379 553.343ZM768.725 527.523L768.724 528.523H768.725V527.523ZM862.857 615.342L863.751 614.894L863.745 614.882L863.739 614.871L862.857 615.342ZM860.818 659.698C855.223 669.001 843.189 680.259 817.31 680.259V682.259C843.908 682.259 856.584 670.618 862.532 660.729L860.818 659.698ZM817.321 680.259C808.517 680.156 799.752 679.076 791.186 677.041L790.723 678.987C799.433 681.056 808.346 682.154 817.298 682.259L817.321 680.259ZM791.175 677.039C765.601 671.264 744.002 662.519 727.803 651.795C711.596 641.066 700.868 628.408 696.878 614.829L694.959 615.392C699.128 629.58 710.259 642.579 726.699 653.463C743.149 664.352 764.988 673.176 790.734 678.99L791.175 677.039ZM696.877 614.825C691.183 595.732 698.476 575.327 719.098 554.038L717.661 552.647C696.792 574.191 688.972 595.319 694.96 615.396L696.877 614.825ZM719.098 554.038C735.587 536.998 752.264 528.5 768.724 528.523L768.727 526.523C751.529 526.499 734.365 535.384 717.661 552.647L719.098 554.038ZM768.725 528.523C784.036 528.523 799.548 535.749 815.161 550.313C830.777 564.881 846.426 586.731 861.975 615.814L863.739 614.871C848.135 585.686 832.364 563.626 816.526 548.851C800.684 534.073 784.707 526.523 768.725 526.523V528.523ZM861.964 615.791C865.403 622.64 867.104 630.229 866.918 637.89L868.917 637.938C869.111 629.949 867.337 622.035 863.751 614.894L861.964 615.791ZM866.918 637.89C866.732 645.551 864.664 653.049 860.897 659.722L862.639 660.705C866.567 653.746 868.723 645.927 868.917 637.938L866.918 637.89Z" fill="#808080" mask="url(#path-1-inside-1)"/>
<path d="M570.588 1017.89C573.37 995.31 578.145 935.234 558.72 885.264C548.266 858.401 531.531 836.707 513.798 813.738C490.364 783.376 466.118 751.97 456.221 706.473C451.949 685.954 448.853 665.207 446.949 644.334C442.104 598.976 437.932 559.806 394.447 507.309C366.307 473.378 357.036 442.737 368.278 420.742C378.546 400.74 405.156 390.611 441.339 393.137C513.543 398.051 572.558 460.676 621.745 584.56C658.253 676.482 699.466 689.391 761.842 708.93C780.038 714.632 800.644 721.075 823.175 730.346C895.194 759.92 897.349 819.834 899.157 872.702C899.783 890.247 900.363 906.842 903.399 921.537C912.207 964.299 934.761 1000.83 946.698 1017.91" stroke="#808080"/>
<path d="M488.851 512.662L488.85 512.662C484.753 513.648 479.209 512.288 473.472 508.325C467.749 504.372 461.89 497.863 457.193 488.678C452.988 480.385 445.932 471.351 439.141 462.656L438.946 462.407L438.946 462.406C433.737 455.749 428.696 449.304 424.954 443.364C421.202 437.409 418.816 432.049 418.816 427.554H418.816L418.816 427.545C418.785 425.783 419.242 424.046 420.136 422.526C420.595 421.769 421.288 421.268 422.247 421.048C423.223 420.824 424.49 420.888 426.066 421.315L426.066 421.316L426.075 421.318C431.044 422.571 437.883 426.645 445.397 432.446C452.895 438.233 461.013 445.697 468.533 453.668C476.053 461.639 482.966 470.105 488.06 477.894C493.169 485.705 496.396 492.758 496.65 497.922C496.856 502.108 496.229 505.485 494.895 507.963C493.57 510.426 491.536 512.024 488.851 512.662Z" stroke="#808080"/>
<path d="M1088.95 146.064C1093.95 190.403 1098.71 232.307 1085.66 245.148C1082.2 248.508 1077.57 249.783 1071.47 248.972C1038.79 244.661 1008.89 208.249 979.888 173.043C951.447 138.485 921.939 102.722 889.024 95.9546C833.556 84.5745 813.019 113.894 763.391 184.747C750.434 203.289 735.762 224.149 717.844 248.23C651.411 337.139 593.787 321.981 526.938 304.412C506.406 298.621 485.556 294.025 464.492 290.645C405.06 282.162 356.337 293.31 330.816 321.239C311.508 342.377 305.805 372.577 314.312 408.549C332.554 485.637 313.408 490.597 271.453 501.49C265.566 503.02 259.493 504.596 252.91 506.52C222.591 515.373 197.325 537.207 181.587 567.893C162.904 604.421 158.083 653.14 167.679 708.766C188.239 828.315 266.91 881.322 359.929 933.587C422.166 968.585 437.14 1002.47 440.71 1017.81M1103.2 0H1096.94C1076.08 32.0312 1083.04 92.1535 1089.04 146.018" stroke="#808080"/>
<mask id="path-6-inside-2" fill="white">
<path d="M1142.38 314.358C1142.84 315.494 1144.25 318.994 1138.78 324.371C1134.01 329.006 1119.31 329.609 1108.65 329.609C1097.57 329.609 1084.57 328.937 1069.5 328.172C1051.19 327.222 1030.47 326.156 1009.05 326.156C945.35 326.156 900.382 335.983 867.513 357.097C813.134 392.003 804.465 437.222 798.717 467.121C794.683 488.096 792.412 497.251 781.425 495.838C777.475 495.308 773.495 495.037 769.51 495.026C725.678 495.026 700.459 528.217 682.054 552.437C673.223 564.026 665.597 574.131 659.871 574.131C659.671 574.154 659.469 574.154 659.269 574.131C651.272 573.111 647.262 560.456 641.722 542.98C634.49 520.197 624.592 488.977 599.118 458.174C578.859 433.676 554.915 414.137 533.775 397.102C507.119 375.477 486.049 358.395 486.049 341.893C485.95 340.986 486.05 340.068 486.342 339.203C486.635 338.339 487.112 337.548 487.741 336.887C489.441 335.776 491.466 335.269 493.489 335.45C500.883 335.45 513.029 339.181 527.099 343.539C551.067 350.909 580.876 360.111 612.446 360.111C641.629 360.111 666.223 352.277 687.641 336.191C718.678 312.852 746.795 279.824 773.961 247.909C811.349 203.64 846.999 161.828 879.822 161.828C906.223 161.828 926.181 191.008 947.274 221.88C970.453 255.627 994.236 290.532 1029.4 290.532C1100.14 290.532 1137.44 302.885 1142.14 314.381"/>
</mask>
<path d="M1138.78 324.371L1139.48 325.088L1139.48 325.084L1138.78 324.371ZM1069.5 328.172L1069.45 329.171L1069.45 329.171L1069.5 328.172ZM867.513 357.097L868.053 357.939L868.054 357.939L867.513 357.097ZM798.717 467.121L799.699 467.31V467.31L798.717 467.121ZM781.425 495.838L781.292 496.829L781.297 496.829L781.425 495.838ZM769.51 495.026L769.513 494.026H769.51V495.026ZM682.054 552.437L682.85 553.043L682.85 553.042L682.054 552.437ZM659.871 574.131V573.131H659.814L659.757 573.138L659.871 574.131ZM659.269 574.131L659.142 575.123L659.155 575.124L659.269 574.131ZM641.722 542.98L642.675 542.678L642.675 542.678L641.722 542.98ZM599.118 458.174L598.347 458.812L598.347 458.812L599.118 458.174ZM533.775 397.102L533.145 397.878L533.148 397.88L533.775 397.102ZM486.049 341.893H487.049V341.839L487.043 341.785L486.049 341.893ZM487.741 336.887L487.194 336.05L487.096 336.113L487.016 336.198L487.741 336.887ZM493.489 335.45L493.4 336.446L493.445 336.45H493.489V335.45ZM527.099 343.539L526.804 344.494L526.805 344.495L527.099 343.539ZM687.641 336.191L688.241 336.991L688.242 336.991L687.641 336.191ZM773.961 247.909L774.722 248.557L774.725 248.554L773.961 247.909ZM947.274 221.88L946.448 222.444L946.45 222.447L947.274 221.88ZM1141.45 314.736C1141.66 315.251 1142.05 316.201 1141.82 317.615C1141.59 319.039 1140.71 321.075 1138.08 323.658L1139.48 325.084C1142.33 322.29 1143.48 319.887 1143.79 317.933C1144.11 315.969 1143.55 314.601 1143.3 313.98L1141.45 314.736ZM1138.09 323.653C1137.05 324.656 1135.41 325.504 1133.26 326.192C1131.12 326.876 1128.56 327.376 1125.79 327.737C1120.26 328.458 1113.97 328.609 1108.65 328.609V330.609C1113.99 330.609 1120.38 330.459 1126.05 329.72C1128.89 329.351 1131.57 328.831 1133.86 328.098C1136.14 327.369 1138.12 326.403 1139.48 325.088L1138.09 323.653ZM1108.65 328.609C1097.6 328.609 1084.63 327.939 1069.55 327.173L1069.45 329.171C1084.51 329.935 1097.54 330.609 1108.65 330.609V328.609ZM1069.55 327.173C1051.24 326.223 1030.49 325.156 1009.05 325.156V327.156C1030.44 327.156 1051.13 328.22 1069.45 329.171L1069.55 327.173ZM1009.05 325.156C945.268 325.156 900.075 334.991 866.973 356.256L868.054 357.939C900.689 336.974 945.432 327.156 1009.05 327.156V325.156ZM866.973 356.256C812.228 391.396 803.493 436.981 797.735 466.932L799.699 467.31C805.437 437.463 814.041 392.609 868.053 357.939L866.973 356.256ZM797.735 466.932C795.707 477.475 794.154 484.84 791.79 489.416C790.624 491.673 789.306 493.157 787.718 494.018C786.134 494.876 784.16 495.181 781.552 494.846L781.297 496.829C784.183 497.201 786.613 496.892 788.671 495.776C790.725 494.662 792.287 492.811 793.567 490.334C796.094 485.442 797.693 477.742 799.699 467.31L797.735 466.932ZM781.558 494.846C777.565 494.311 773.542 494.037 769.513 494.026L769.508 496.026C773.449 496.037 777.385 496.305 781.292 496.829L781.558 494.846ZM769.51 494.026C725.116 494.026 699.616 527.673 681.258 551.832L682.85 553.042C701.302 528.76 726.24 496.026 769.51 496.026V494.026ZM681.259 551.831C676.831 557.641 672.752 563.017 669.069 566.946C667.228 568.909 665.52 570.475 663.948 571.544C662.366 572.621 661.016 573.131 659.871 573.131V575.131C661.59 575.131 663.339 574.378 665.074 573.198C666.818 572.01 668.642 570.325 670.528 568.314C674.297 564.293 678.446 558.821 682.85 553.043L681.259 551.831ZM659.757 573.138C659.633 573.152 659.507 573.152 659.383 573.138L659.155 575.124C659.431 575.156 659.709 575.156 659.985 575.124L659.757 573.138ZM659.395 573.139C655.944 572.699 653.149 569.726 650.471 564.285C647.818 558.893 645.454 551.444 642.675 542.678L640.769 543.283C643.53 551.992 645.941 559.609 648.677 565.168C651.388 570.679 654.597 574.543 659.142 575.123L659.395 573.139ZM642.675 542.678C635.441 519.887 625.497 488.501 599.889 457.537L598.347 458.812C623.688 489.453 633.539 520.508 640.769 543.283L642.675 542.678ZM599.889 457.537C579.557 432.951 555.538 413.355 534.403 396.323L533.148 397.88C554.292 414.919 578.161 434.401 598.347 458.812L599.889 457.537ZM534.405 396.325C521.059 385.499 509.185 375.867 500.64 366.887C492.066 357.878 487.049 349.731 487.049 341.893H485.049C485.049 350.558 490.566 359.202 499.191 368.266C507.845 377.359 519.834 387.08 533.145 397.878L534.405 396.325ZM487.043 341.785C486.96 341.022 487.044 340.25 487.29 339.524L485.395 338.883C485.056 339.885 484.94 340.949 485.054 342.001L487.043 341.785ZM487.29 339.524C487.535 338.797 487.937 338.132 488.465 337.576L487.016 336.198C486.287 336.965 485.734 337.881 485.395 338.883L487.29 339.524ZM488.288 337.724C489.8 336.736 491.601 336.285 493.4 336.446L493.578 334.454C491.331 334.253 489.082 334.816 487.194 336.05L488.288 337.724ZM493.489 336.45C497.051 336.45 501.832 337.354 507.541 338.828C513.233 340.299 519.763 342.314 526.804 344.494L527.395 342.583C520.366 340.407 513.788 338.377 508.041 336.892C502.311 335.412 497.321 334.45 493.489 334.45V336.45ZM526.805 344.495C550.755 351.859 580.703 361.111 612.446 361.111V359.111C581.048 359.111 551.379 349.959 527.393 342.583L526.805 344.495ZM612.446 361.111C641.826 361.111 666.635 353.218 688.241 336.991L687.04 335.392C665.811 351.335 641.433 359.111 612.446 359.111V361.111ZM688.242 336.991C719.384 313.572 747.574 280.451 774.722 248.557L773.199 247.26C746.015 279.196 717.971 312.132 687.039 335.392L688.242 336.991ZM774.725 248.554C793.431 226.406 811.645 204.942 829.274 189.009C846.936 173.047 863.81 162.828 879.822 162.828V160.828C863.011 160.828 845.649 171.515 827.933 187.525C810.184 203.566 791.88 225.142 773.197 247.263L774.725 248.554ZM879.822 162.828C892.626 162.828 903.972 169.898 914.824 180.977C925.676 192.055 935.887 206.988 946.448 222.444L948.1 221.316C937.567 205.901 927.253 190.807 916.253 179.577C905.252 168.347 893.419 160.828 879.822 160.828V162.828ZM946.45 222.447C958.024 239.298 969.821 256.55 983.143 269.576C996.478 282.615 1011.45 291.532 1029.4 291.532V289.532C1012.18 289.532 997.683 280.996 984.542 268.146C971.387 255.283 959.703 238.209 948.098 221.314L946.45 222.447ZM1029.4 291.532C1064.72 291.532 1091.65 294.617 1110.3 299.118C1119.63 301.369 1126.86 303.967 1132.02 306.69C1137.23 309.434 1140.18 312.22 1141.22 314.76L1143.07 314.003C1141.76 310.794 1138.28 307.726 1132.96 304.92C1127.6 302.094 1120.2 299.448 1110.77 297.174C1091.91 292.624 1064.82 289.532 1029.4 289.532V291.532Z" fill="#808080" mask="url(#path-6-inside-2)"/>
<path d="M820.355 233.836L820.355 233.836C838.124 209.845 856.167 197.835 873.938 197.835H873.985C891.771 197.835 909.14 209.86 925.33 233.842L925.331 233.843C935.977 249.527 942.858 261.453 946.452 270.802C950.047 280.151 950.324 286.838 947.891 292.107C945.986 296.23 942.388 299.483 936.678 301.999C930.959 304.519 923.153 306.285 912.893 307.441C890.469 309.938 865.335 315.807 841.907 333.498C818.478 351.19 796.807 380.666 781.23 430.281C779.986 434.24 777.766 437.289 774.727 439.352C771.686 441.417 767.79 442.516 763.164 442.516C752.565 442.516 739.968 437.007 729.096 427.69C718.233 418.38 709.15 405.314 705.539 390.287C701.957 375.379 709.794 358.153 723.392 339.804C736.885 321.597 755.934 302.433 774.706 283.547L775.061 283.19C792.623 265.537 809.226 248.845 820.355 233.836Z" stroke="#808080"/>
<path d="M566.499 398.711L566.499 398.709C566.544 395.697 567.631 392.381 571.184 389.798C574.765 387.195 580.906 385.296 591.149 385.296C609.974 385.296 638.596 392.178 664.567 402.971C677.546 408.365 689.844 414.727 699.909 421.679C709.982 428.636 717.777 436.156 721.809 443.85C729.173 458.114 731.158 468.062 728.301 475.282L728.3 475.283C726.561 479.716 723.137 482.874 718.588 485.476C714.03 488.083 708.397 490.103 702.289 492.285L702.289 492.285C697.301 494.072 692.143 496 686.842 498.324L686.837 498.327L681.297 500.83L681.294 500.831C677.463 502.596 674.521 503.948 672.074 504.861C669.629 505.774 667.717 506.232 665.949 506.232C663.163 506.232 661.122 505.179 659.011 502.877C656.867 500.541 654.694 496.966 651.658 491.964L651.656 491.96C651.372 491.5 651.08 491.026 650.779 490.538C647.155 484.661 642.274 476.745 634.902 466.437L634.495 466.728L634.902 466.437C620.327 446.063 604.333 437.155 591.527 430.024L591.519 430.019L591.393 429.949L591.392 429.949L591.372 429.937L591.129 430.375L591.372 429.937C584.242 425.978 577.953 422.48 573.47 417.807C569.018 413.165 566.34 407.35 566.499 398.711Z" stroke="#808080"/>
<path d="M1051.16 107.848C1062.75 173.765 1051.65 185.794 1046.39 187.903C1039.09 190.846 1027.85 182.132 1015.77 164.007C994.907 132.88 925.694 39.0574 850.662 39.0574C843.166 39.0468 835.701 40.013 828.456 41.9314C780.938 54.4241 743.874 117.722 711.191 173.579C689.101 211.312 668.239 246.936 647.47 261.005C621.764 278.388 575.846 268.305 522.649 256.647C470.75 245.29 411.944 232.38 360.972 243.645C317.626 253.24 290.112 279.941 279.148 323.004C269.877 359.022 274.049 399.351 276.83 426.051L277.271 430.269C279.797 455.927 257.012 465.29 228.153 477.157C198.692 489.256 165.314 502.977 147.025 537.998C107.62 612.653 103.819 698.455 136.363 773.411C155.764 818.144 158.059 850.43 143.525 875.044C124.982 906.612 77.8809 926.313 0.0673828 935.097M1041.36 0.0498047C1040.32 13.9563 1040.39 45.6166 1051.23 107.848" stroke="#808080"/>
<path d="M774.262 0.0498047C758.036 13.9563 721.25 48.2357 700.111 92.5509C696.842 99.3651 693.62 106.295 690.491 112.97C665.99 165.49 642.834 215.113 597.031 226.957C572.461 233.308 541.957 222.229 506.631 209.412C467.412 195.181 422.954 179.049 375.621 182.688C370.498 183.082 365.167 183.546 359.627 184.032C301.215 189.039 221.199 195.899 166.588 148.084C131.703 117.536 111.769 67.7511 107.249 0.0498047" stroke="#808080"/>
<path d="M342.174 129.704C359.025 129.055 376.456 128.406 392.52 128.824C437.441 129.983 473.648 145.859 505.45 159.858C521.351 166.811 536.348 173.417 550.859 177.496C556.769 179.277 562.982 179.827 569.113 179.114C575.245 178.4 581.165 176.438 586.509 173.347C613.652 157.911 629.599 116.632 638.176 84.717C649.093 44.7127 680.455 13.9563 696.82 0.0498047M164.642 0.0498047C165.569 19.7043 170.947 68.261 200.825 101.335C230.263 133.784 287.146 131.767 342.22 129.704" stroke="#808080"/>
<path d="M265.288 87.4519C287.401 92.2496 314.637 91.2994 343.496 90.2796C385.219 88.7962 432.644 87.1274 473.625 103.143L487.834 108.752C526.799 124.211 552.528 134.433 571.489 124.976C582.893 119.367 591.006 106.828 596.987 85.5746C609.48 41.7692 625.776 12.6583 633.749 0.0498047M213.32 0.0498047C214.177 21.9757 220.76 77.7637 265.311 87.4519" stroke="#808080"/>
<path d="M374.487 46.5901C383.596 46.5901 393.03 46.7523 403.113 46.9146C456.426 47.7721 487.765 63.1388 508.441 73.1514C525.061 81.2635 535.097 86.1771 544.67 78.1809C561.36 64.2745 567.015 19.2175 568.708 0.0498047M264.848 0.0498047C265.219 13.1219 268.464 22.6014 274.884 29.462C290.345 45.9643 323.816 46.2193 374.556 46.5901" stroke="#808080"/>
<path d="M311.997 8.7877C318.301 13.8404 328.663 12.6583 345.792 10.7346C356.895 9.5062 370.687 7.95331 387.932 7.58247C417.129 6.72975 446.293 10.1339 474.508 17.6878C482.513 19.7877 490.621 21.4742 498.8 22.7405C505.545 23.6213 510.761 22.1611 514.261 18.3368C518.688 13.5159 519.522 5.98323 519.291 0.0498047M306.549 0.0498047C307.394 3.4435 309.263 6.49459 311.904 8.7877" stroke="#808080"/>
<path d="M0.0673828 875.183C25.8661 875.461 84.4175 871.521 96.3086 831.03C103.239 807.528 97.5603 782.682 90.3978 751.254C81.7519 713.289 70.9734 666.03 80.6393 604.17C97.8152 494.03 141.462 476.879 196.699 455.139L199.434 454.049C242.177 437.223 239.998 413.327 236.985 380.252C235.733 368.886 235.206 357.452 235.409 346.019C236.243 322.564 248.806 301.797 259.886 283.44C272.612 262.372 283.622 244.178 275.509 226.586C268.509 211.474 243.012 207.047 213.458 201.902C178.549 195.876 135.273 188.343 108.686 159.974C68.076 116.354 56.324 27.9786 53.5424 0.0498047" stroke="#808080"/>
<path d="M0.0673828 67.5181C34.8366 194.739 112.65 210.963 161.049 220.999L163.761 221.578C192.666 227.605 209.401 237.409 214.895 251.501C219.809 264.271 215.637 279.592 201.752 298.551C186.106 320.384 183.997 333.386 181.122 351.372C178.639 369.21 174.128 386.706 167.678 403.521C158.522 427.603 141.416 436.202 121.621 446.145C96.0073 458.985 66.9634 473.564 45.4992 527.428C20.3958 590.424 35.022 649.666 46.7509 697.249C53.0325 722.744 58.4565 744.832 57.8538 764.464C57.4598 780.688 51.9662 793.204 41.6282 801.547C28.8795 811.838 11.6571 813.576 0.0673828 813.368" stroke="#808080"/>
<path d="M80.9659 418.491C109.106 386.668 126.421 348.17 134.279 328.099C144.037 302.998 145.868 289.508 140.931 279.982C133.954 266.586 113.649 261.719 76.7009 252.679L67.7768 250.524C30.6896 241.577 10.6857 212.258 0.0695384 186.601M0 468.23C29.183 462.992 56.3493 446.327 80.8964 418.584" stroke="#808080"/>
<path d="M0.0673828 257.479C9.68687 269.161 25.0317 283.299 45.221 287.123C61.1685 290.183 76.7219 294.61 82.4936 306.407C87.8481 317.37 84.4871 333.895 71.9238 358.464C53.1948 394.829 18.4487 411.354 0.0673828 417.821" stroke="#808080"/>
<path d="M0.0673828 299.896C15.0181 304.902 38.244 315.263 36.7141 330.884C35.2538 346.042 13.9751 366.577 0.0673828 378.491" stroke="#808080"/>
</g>
</svg>
